M48
; DRILL file {KiCad (5.1.6)-1} date 06/03/20 08:17:18
; FORMAT={3:3/ absolute / metric / suppress leading zeros}
; #@! TF.CreationDate,2020-06-03T08:17:18+09:00
; #@! TF.GenerationSoftware,Kicad,Pcbnew,(5.1.6)-1
FMAT,2
METRIC,TZ
T1C0.700
T2C1.000
%
G90
G05
T1
X117475Y-78105
X96520Y-116205
X96520Y-78105
X96520Y-80645
X117475Y-113665
X117475Y-116205
X96520Y-95885
X96520Y-98425
X75565Y-113665
X75565Y-116205
X75565Y-78105
X75565Y-80645
X75565Y-95885
X75565Y-98425
X117475Y-80645
X96520Y-113665
X117475Y-95885
X117475Y-98425
T2
X78105Y-108585
X78105Y-111125
X78105Y-121285
X85725Y-108585
X85725Y-111125
X85725Y-121285
X117475Y-90805
X96520Y-108585
X109220Y-90805
X111760Y-90805
X130175Y-118745
X130175Y-121285
X78105Y-73025
X78105Y-75565
X78105Y-85725
X85725Y-73025
X85725Y-75565
X85725Y-85725
X75565Y-73025
X75565Y-90805
X117475Y-108585
X130175Y-100965
X130175Y-103505
X88265Y-118745
X88265Y-121285
X99060Y-90805
X99060Y-93345
X99060Y-103505
X106680Y-90805
X106680Y-93345
X106680Y-103505
X120015Y-90805
X120015Y-93345
X120015Y-103505
X127635Y-90805
X127635Y-93345
X127635Y-103505
X120015Y-73025
X120015Y-75565
X120015Y-85725
X127635Y-73025
X127635Y-75565
X127635Y-85725
X109220Y-73025
X111760Y-73025
X130175Y-108585
X132715Y-108585
X109220Y-100965
X109220Y-103505
X120015Y-108585
X120015Y-111125
X120015Y-121285
X127635Y-108585
X127635Y-111125
X127635Y-121285
X99060Y-108585
X99060Y-111125
X99060Y-121285
X106680Y-108585
X106680Y-111125
X106680Y-121285
X78105Y-90805
X78105Y-93345
X78105Y-103505
X85725Y-90805
X85725Y-93345
X85725Y-103505
X96520Y-90805
X130175Y-90805
X132715Y-90805
X130175Y-83185
X130175Y-85725
X88265Y-100965
X88265Y-103505
X130175Y-73025
X132715Y-73025
X88265Y-108585
X90805Y-108585
X117475Y-73025
X109220Y-83185
X109220Y-85725
X109220Y-108585
X111760Y-108585
X88265Y-73025
X90805Y-73025
X88265Y-83185
X88265Y-85725
X99060Y-73025
X99060Y-75565
X99060Y-85725
X106680Y-73025
X106680Y-75565
X106680Y-85725
X96520Y-73025
X75565Y-108585
X88265Y-90805
X90805Y-90805
X109220Y-118745
X109220Y-121285
T0
M30
