G04 #@! TF.GenerationSoftware,KiCad,Pcbnew,(5.1.6)-1*
G04 #@! TF.CreationDate,2020-06-03T08:17:09+09:00*
G04 #@! TF.ProjectId,NOT___,4e4f5462-d851-42e6-9b69-6361645f7063,rev?*
G04 #@! TF.SameCoordinates,Original*
G04 #@! TF.FileFunction,Legend,Top*
G04 #@! TF.FilePolarity,Positive*
%FSLAX46Y46*%
G04 Gerber Fmt 4.6, Leading zero omitted, Abs format (unit mm)*
G04 Created by KiCad (PCBNEW (5.1.6)-1) date 2020-06-03 08:17:09*
%MOMM*%
%LPD*%
G01*
G04 APERTURE LIST*
%ADD10C,0.150000*%
%ADD11C,0.100000*%
%ADD12C,0.300000*%
%ADD13C,0.120000*%
G04 APERTURE END LIST*
D10*
X117784523Y-112752142D02*
X117736904Y-112799761D01*
X117594047Y-112847380D01*
X117498809Y-112847380D01*
X117355952Y-112799761D01*
X117260714Y-112704523D01*
X117213095Y-112609285D01*
X117165476Y-112418809D01*
X117165476Y-112275952D01*
X117213095Y-112085476D01*
X117260714Y-111990238D01*
X117355952Y-111895000D01*
X117498809Y-111847380D01*
X117594047Y-111847380D01*
X117736904Y-111895000D01*
X117784523Y-111942619D01*
X96829523Y-112752142D02*
X96781904Y-112799761D01*
X96639047Y-112847380D01*
X96543809Y-112847380D01*
X96400952Y-112799761D01*
X96305714Y-112704523D01*
X96258095Y-112609285D01*
X96210476Y-112418809D01*
X96210476Y-112275952D01*
X96258095Y-112085476D01*
X96305714Y-111990238D01*
X96400952Y-111895000D01*
X96543809Y-111847380D01*
X96639047Y-111847380D01*
X96781904Y-111895000D01*
X96829523Y-111942619D01*
X75874523Y-112752142D02*
X75826904Y-112799761D01*
X75684047Y-112847380D01*
X75588809Y-112847380D01*
X75445952Y-112799761D01*
X75350714Y-112704523D01*
X75303095Y-112609285D01*
X75255476Y-112418809D01*
X75255476Y-112275952D01*
X75303095Y-112085476D01*
X75350714Y-111990238D01*
X75445952Y-111895000D01*
X75588809Y-111847380D01*
X75684047Y-111847380D01*
X75826904Y-111895000D01*
X75874523Y-111942619D01*
X117784523Y-94972142D02*
X117736904Y-95019761D01*
X117594047Y-95067380D01*
X117498809Y-95067380D01*
X117355952Y-95019761D01*
X117260714Y-94924523D01*
X117213095Y-94829285D01*
X117165476Y-94638809D01*
X117165476Y-94495952D01*
X117213095Y-94305476D01*
X117260714Y-94210238D01*
X117355952Y-94115000D01*
X117498809Y-94067380D01*
X117594047Y-94067380D01*
X117736904Y-94115000D01*
X117784523Y-94162619D01*
X96829523Y-94972142D02*
X96781904Y-95019761D01*
X96639047Y-95067380D01*
X96543809Y-95067380D01*
X96400952Y-95019761D01*
X96305714Y-94924523D01*
X96258095Y-94829285D01*
X96210476Y-94638809D01*
X96210476Y-94495952D01*
X96258095Y-94305476D01*
X96305714Y-94210238D01*
X96400952Y-94115000D01*
X96543809Y-94067380D01*
X96639047Y-94067380D01*
X96781904Y-94115000D01*
X96829523Y-94162619D01*
X75874523Y-94972142D02*
X75826904Y-95019761D01*
X75684047Y-95067380D01*
X75588809Y-95067380D01*
X75445952Y-95019761D01*
X75350714Y-94924523D01*
X75303095Y-94829285D01*
X75255476Y-94638809D01*
X75255476Y-94495952D01*
X75303095Y-94305476D01*
X75350714Y-94210238D01*
X75445952Y-94115000D01*
X75588809Y-94067380D01*
X75684047Y-94067380D01*
X75826904Y-94115000D01*
X75874523Y-94162619D01*
X117784523Y-77192142D02*
X117736904Y-77239761D01*
X117594047Y-77287380D01*
X117498809Y-77287380D01*
X117355952Y-77239761D01*
X117260714Y-77144523D01*
X117213095Y-77049285D01*
X117165476Y-76858809D01*
X117165476Y-76715952D01*
X117213095Y-76525476D01*
X117260714Y-76430238D01*
X117355952Y-76335000D01*
X117498809Y-76287380D01*
X117594047Y-76287380D01*
X117736904Y-76335000D01*
X117784523Y-76382619D01*
X96829523Y-77192142D02*
X96781904Y-77239761D01*
X96639047Y-77287380D01*
X96543809Y-77287380D01*
X96400952Y-77239761D01*
X96305714Y-77144523D01*
X96258095Y-77049285D01*
X96210476Y-76858809D01*
X96210476Y-76715952D01*
X96258095Y-76525476D01*
X96305714Y-76430238D01*
X96400952Y-76335000D01*
X96543809Y-76287380D01*
X96639047Y-76287380D01*
X96781904Y-76335000D01*
X96829523Y-76382619D01*
X116998809Y-111577380D02*
X116998809Y-110577380D01*
X117665476Y-110577380D02*
X117760714Y-110577380D01*
X117855952Y-110625000D01*
X117903571Y-110672619D01*
X117951190Y-110767857D01*
X117998809Y-110958333D01*
X117998809Y-111196428D01*
X117951190Y-111386904D01*
X117903571Y-111482142D01*
X117855952Y-111529761D01*
X117760714Y-111577380D01*
X117665476Y-111577380D01*
X117570238Y-111529761D01*
X117522619Y-111482142D01*
X117475000Y-111386904D01*
X117427380Y-111196428D01*
X117427380Y-110958333D01*
X117475000Y-110767857D01*
X117522619Y-110672619D01*
X117570238Y-110625000D01*
X117665476Y-110577380D01*
X96043809Y-111577380D02*
X96043809Y-110577380D01*
X96710476Y-110577380D02*
X96805714Y-110577380D01*
X96900952Y-110625000D01*
X96948571Y-110672619D01*
X96996190Y-110767857D01*
X97043809Y-110958333D01*
X97043809Y-111196428D01*
X96996190Y-111386904D01*
X96948571Y-111482142D01*
X96900952Y-111529761D01*
X96805714Y-111577380D01*
X96710476Y-111577380D01*
X96615238Y-111529761D01*
X96567619Y-111482142D01*
X96520000Y-111386904D01*
X96472380Y-111196428D01*
X96472380Y-110958333D01*
X96520000Y-110767857D01*
X96567619Y-110672619D01*
X96615238Y-110625000D01*
X96710476Y-110577380D01*
X75088809Y-111577380D02*
X75088809Y-110577380D01*
X75755476Y-110577380D02*
X75850714Y-110577380D01*
X75945952Y-110625000D01*
X75993571Y-110672619D01*
X76041190Y-110767857D01*
X76088809Y-110958333D01*
X76088809Y-111196428D01*
X76041190Y-111386904D01*
X75993571Y-111482142D01*
X75945952Y-111529761D01*
X75850714Y-111577380D01*
X75755476Y-111577380D01*
X75660238Y-111529761D01*
X75612619Y-111482142D01*
X75565000Y-111386904D01*
X75517380Y-111196428D01*
X75517380Y-110958333D01*
X75565000Y-110767857D01*
X75612619Y-110672619D01*
X75660238Y-110625000D01*
X75755476Y-110577380D01*
X116998809Y-93797380D02*
X116998809Y-92797380D01*
X117665476Y-92797380D02*
X117760714Y-92797380D01*
X117855952Y-92845000D01*
X117903571Y-92892619D01*
X117951190Y-92987857D01*
X117998809Y-93178333D01*
X117998809Y-93416428D01*
X117951190Y-93606904D01*
X117903571Y-93702142D01*
X117855952Y-93749761D01*
X117760714Y-93797380D01*
X117665476Y-93797380D01*
X117570238Y-93749761D01*
X117522619Y-93702142D01*
X117475000Y-93606904D01*
X117427380Y-93416428D01*
X117427380Y-93178333D01*
X117475000Y-92987857D01*
X117522619Y-92892619D01*
X117570238Y-92845000D01*
X117665476Y-92797380D01*
X96043809Y-93797380D02*
X96043809Y-92797380D01*
X96710476Y-92797380D02*
X96805714Y-92797380D01*
X96900952Y-92845000D01*
X96948571Y-92892619D01*
X96996190Y-92987857D01*
X97043809Y-93178333D01*
X97043809Y-93416428D01*
X96996190Y-93606904D01*
X96948571Y-93702142D01*
X96900952Y-93749761D01*
X96805714Y-93797380D01*
X96710476Y-93797380D01*
X96615238Y-93749761D01*
X96567619Y-93702142D01*
X96520000Y-93606904D01*
X96472380Y-93416428D01*
X96472380Y-93178333D01*
X96520000Y-92987857D01*
X96567619Y-92892619D01*
X96615238Y-92845000D01*
X96710476Y-92797380D01*
X75088809Y-93797380D02*
X75088809Y-92797380D01*
X75755476Y-92797380D02*
X75850714Y-92797380D01*
X75945952Y-92845000D01*
X75993571Y-92892619D01*
X76041190Y-92987857D01*
X76088809Y-93178333D01*
X76088809Y-93416428D01*
X76041190Y-93606904D01*
X75993571Y-93702142D01*
X75945952Y-93749761D01*
X75850714Y-93797380D01*
X75755476Y-93797380D01*
X75660238Y-93749761D01*
X75612619Y-93702142D01*
X75565000Y-93606904D01*
X75517380Y-93416428D01*
X75517380Y-93178333D01*
X75565000Y-92987857D01*
X75612619Y-92892619D01*
X75660238Y-92845000D01*
X75755476Y-92797380D01*
X116998809Y-76017380D02*
X116998809Y-75017380D01*
X117665476Y-75017380D02*
X117760714Y-75017380D01*
X117855952Y-75065000D01*
X117903571Y-75112619D01*
X117951190Y-75207857D01*
X117998809Y-75398333D01*
X117998809Y-75636428D01*
X117951190Y-75826904D01*
X117903571Y-75922142D01*
X117855952Y-75969761D01*
X117760714Y-76017380D01*
X117665476Y-76017380D01*
X117570238Y-75969761D01*
X117522619Y-75922142D01*
X117475000Y-75826904D01*
X117427380Y-75636428D01*
X117427380Y-75398333D01*
X117475000Y-75207857D01*
X117522619Y-75112619D01*
X117570238Y-75065000D01*
X117665476Y-75017380D01*
X96043809Y-76017380D02*
X96043809Y-75017380D01*
X96710476Y-75017380D02*
X96805714Y-75017380D01*
X96900952Y-75065000D01*
X96948571Y-75112619D01*
X96996190Y-75207857D01*
X97043809Y-75398333D01*
X97043809Y-75636428D01*
X96996190Y-75826904D01*
X96948571Y-75922142D01*
X96900952Y-75969761D01*
X96805714Y-76017380D01*
X96710476Y-76017380D01*
X96615238Y-75969761D01*
X96567619Y-75922142D01*
X96520000Y-75826904D01*
X96472380Y-75636428D01*
X96472380Y-75398333D01*
X96520000Y-75207857D01*
X96567619Y-75112619D01*
X96615238Y-75065000D01*
X96710476Y-75017380D01*
X130445000Y-110577380D02*
X130635476Y-110577380D01*
X130730714Y-110625000D01*
X130825952Y-110720238D01*
X130873571Y-110910714D01*
X130873571Y-111244047D01*
X130825952Y-111434523D01*
X130730714Y-111529761D01*
X130635476Y-111577380D01*
X130445000Y-111577380D01*
X130349761Y-111529761D01*
X130254523Y-111434523D01*
X130206904Y-111244047D01*
X130206904Y-110910714D01*
X130254523Y-110720238D01*
X130349761Y-110625000D01*
X130445000Y-110577380D01*
X131302142Y-110577380D02*
X131302142Y-111386904D01*
X131349761Y-111482142D01*
X131397380Y-111529761D01*
X131492619Y-111577380D01*
X131683095Y-111577380D01*
X131778333Y-111529761D01*
X131825952Y-111482142D01*
X131873571Y-111386904D01*
X131873571Y-110577380D01*
X132206904Y-110577380D02*
X132778333Y-110577380D01*
X132492619Y-111577380D02*
X132492619Y-110577380D01*
X109490000Y-110577380D02*
X109680476Y-110577380D01*
X109775714Y-110625000D01*
X109870952Y-110720238D01*
X109918571Y-110910714D01*
X109918571Y-111244047D01*
X109870952Y-111434523D01*
X109775714Y-111529761D01*
X109680476Y-111577380D01*
X109490000Y-111577380D01*
X109394761Y-111529761D01*
X109299523Y-111434523D01*
X109251904Y-111244047D01*
X109251904Y-110910714D01*
X109299523Y-110720238D01*
X109394761Y-110625000D01*
X109490000Y-110577380D01*
X110347142Y-110577380D02*
X110347142Y-111386904D01*
X110394761Y-111482142D01*
X110442380Y-111529761D01*
X110537619Y-111577380D01*
X110728095Y-111577380D01*
X110823333Y-111529761D01*
X110870952Y-111482142D01*
X110918571Y-111386904D01*
X110918571Y-110577380D01*
X111251904Y-110577380D02*
X111823333Y-110577380D01*
X111537619Y-111577380D02*
X111537619Y-110577380D01*
X88535000Y-110577380D02*
X88725476Y-110577380D01*
X88820714Y-110625000D01*
X88915952Y-110720238D01*
X88963571Y-110910714D01*
X88963571Y-111244047D01*
X88915952Y-111434523D01*
X88820714Y-111529761D01*
X88725476Y-111577380D01*
X88535000Y-111577380D01*
X88439761Y-111529761D01*
X88344523Y-111434523D01*
X88296904Y-111244047D01*
X88296904Y-110910714D01*
X88344523Y-110720238D01*
X88439761Y-110625000D01*
X88535000Y-110577380D01*
X89392142Y-110577380D02*
X89392142Y-111386904D01*
X89439761Y-111482142D01*
X89487380Y-111529761D01*
X89582619Y-111577380D01*
X89773095Y-111577380D01*
X89868333Y-111529761D01*
X89915952Y-111482142D01*
X89963571Y-111386904D01*
X89963571Y-110577380D01*
X90296904Y-110577380D02*
X90868333Y-110577380D01*
X90582619Y-111577380D02*
X90582619Y-110577380D01*
X130445000Y-92797380D02*
X130635476Y-92797380D01*
X130730714Y-92845000D01*
X130825952Y-92940238D01*
X130873571Y-93130714D01*
X130873571Y-93464047D01*
X130825952Y-93654523D01*
X130730714Y-93749761D01*
X130635476Y-93797380D01*
X130445000Y-93797380D01*
X130349761Y-93749761D01*
X130254523Y-93654523D01*
X130206904Y-93464047D01*
X130206904Y-93130714D01*
X130254523Y-92940238D01*
X130349761Y-92845000D01*
X130445000Y-92797380D01*
X131302142Y-92797380D02*
X131302142Y-93606904D01*
X131349761Y-93702142D01*
X131397380Y-93749761D01*
X131492619Y-93797380D01*
X131683095Y-93797380D01*
X131778333Y-93749761D01*
X131825952Y-93702142D01*
X131873571Y-93606904D01*
X131873571Y-92797380D01*
X132206904Y-92797380D02*
X132778333Y-92797380D01*
X132492619Y-93797380D02*
X132492619Y-92797380D01*
X109490000Y-92797380D02*
X109680476Y-92797380D01*
X109775714Y-92845000D01*
X109870952Y-92940238D01*
X109918571Y-93130714D01*
X109918571Y-93464047D01*
X109870952Y-93654523D01*
X109775714Y-93749761D01*
X109680476Y-93797380D01*
X109490000Y-93797380D01*
X109394761Y-93749761D01*
X109299523Y-93654523D01*
X109251904Y-93464047D01*
X109251904Y-93130714D01*
X109299523Y-92940238D01*
X109394761Y-92845000D01*
X109490000Y-92797380D01*
X110347142Y-92797380D02*
X110347142Y-93606904D01*
X110394761Y-93702142D01*
X110442380Y-93749761D01*
X110537619Y-93797380D01*
X110728095Y-93797380D01*
X110823333Y-93749761D01*
X110870952Y-93702142D01*
X110918571Y-93606904D01*
X110918571Y-92797380D01*
X111251904Y-92797380D02*
X111823333Y-92797380D01*
X111537619Y-93797380D02*
X111537619Y-92797380D01*
X88535000Y-92797380D02*
X88725476Y-92797380D01*
X88820714Y-92845000D01*
X88915952Y-92940238D01*
X88963571Y-93130714D01*
X88963571Y-93464047D01*
X88915952Y-93654523D01*
X88820714Y-93749761D01*
X88725476Y-93797380D01*
X88535000Y-93797380D01*
X88439761Y-93749761D01*
X88344523Y-93654523D01*
X88296904Y-93464047D01*
X88296904Y-93130714D01*
X88344523Y-92940238D01*
X88439761Y-92845000D01*
X88535000Y-92797380D01*
X89392142Y-92797380D02*
X89392142Y-93606904D01*
X89439761Y-93702142D01*
X89487380Y-93749761D01*
X89582619Y-93797380D01*
X89773095Y-93797380D01*
X89868333Y-93749761D01*
X89915952Y-93702142D01*
X89963571Y-93606904D01*
X89963571Y-92797380D01*
X90296904Y-92797380D02*
X90868333Y-92797380D01*
X90582619Y-93797380D02*
X90582619Y-92797380D01*
X130445000Y-75017380D02*
X130635476Y-75017380D01*
X130730714Y-75065000D01*
X130825952Y-75160238D01*
X130873571Y-75350714D01*
X130873571Y-75684047D01*
X130825952Y-75874523D01*
X130730714Y-75969761D01*
X130635476Y-76017380D01*
X130445000Y-76017380D01*
X130349761Y-75969761D01*
X130254523Y-75874523D01*
X130206904Y-75684047D01*
X130206904Y-75350714D01*
X130254523Y-75160238D01*
X130349761Y-75065000D01*
X130445000Y-75017380D01*
X131302142Y-75017380D02*
X131302142Y-75826904D01*
X131349761Y-75922142D01*
X131397380Y-75969761D01*
X131492619Y-76017380D01*
X131683095Y-76017380D01*
X131778333Y-75969761D01*
X131825952Y-75922142D01*
X131873571Y-75826904D01*
X131873571Y-75017380D01*
X132206904Y-75017380D02*
X132778333Y-75017380D01*
X132492619Y-76017380D02*
X132492619Y-75017380D01*
X109490000Y-75017380D02*
X109680476Y-75017380D01*
X109775714Y-75065000D01*
X109870952Y-75160238D01*
X109918571Y-75350714D01*
X109918571Y-75684047D01*
X109870952Y-75874523D01*
X109775714Y-75969761D01*
X109680476Y-76017380D01*
X109490000Y-76017380D01*
X109394761Y-75969761D01*
X109299523Y-75874523D01*
X109251904Y-75684047D01*
X109251904Y-75350714D01*
X109299523Y-75160238D01*
X109394761Y-75065000D01*
X109490000Y-75017380D01*
X110347142Y-75017380D02*
X110347142Y-75826904D01*
X110394761Y-75922142D01*
X110442380Y-75969761D01*
X110537619Y-76017380D01*
X110728095Y-76017380D01*
X110823333Y-75969761D01*
X110870952Y-75922142D01*
X110918571Y-75826904D01*
X110918571Y-75017380D01*
X111251904Y-75017380D02*
X111823333Y-75017380D01*
X111537619Y-76017380D02*
X111537619Y-75017380D01*
D11*
X134087857Y-118212857D02*
X134087857Y-118022380D01*
X133921190Y-118141428D02*
X134349761Y-118141428D01*
X134397380Y-118117619D01*
X134421190Y-118070000D01*
X134421190Y-118022380D01*
X134421190Y-117855714D02*
X133921190Y-117855714D01*
X134421190Y-117641428D02*
X134159285Y-117641428D01*
X134111666Y-117665238D01*
X134087857Y-117712857D01*
X134087857Y-117784285D01*
X134111666Y-117831904D01*
X134135476Y-117855714D01*
X134397380Y-117212857D02*
X134421190Y-117260476D01*
X134421190Y-117355714D01*
X134397380Y-117403333D01*
X134349761Y-117427142D01*
X134159285Y-117427142D01*
X134111666Y-117403333D01*
X134087857Y-117355714D01*
X134087857Y-117260476D01*
X134111666Y-117212857D01*
X134159285Y-117189047D01*
X134206904Y-117189047D01*
X134254523Y-117427142D01*
X134397380Y-116617619D02*
X134421190Y-116570000D01*
X134421190Y-116474761D01*
X134397380Y-116427142D01*
X134349761Y-116403333D01*
X134325952Y-116403333D01*
X134278333Y-116427142D01*
X134254523Y-116474761D01*
X134254523Y-116546190D01*
X134230714Y-116593809D01*
X134183095Y-116617619D01*
X134159285Y-116617619D01*
X134111666Y-116593809D01*
X134087857Y-116546190D01*
X134087857Y-116474761D01*
X134111666Y-116427142D01*
X134087857Y-116189047D02*
X134587857Y-116189047D01*
X134111666Y-116189047D02*
X134087857Y-116141428D01*
X134087857Y-116046190D01*
X134111666Y-115998571D01*
X134135476Y-115974761D01*
X134183095Y-115950952D01*
X134325952Y-115950952D01*
X134373571Y-115974761D01*
X134397380Y-115998571D01*
X134421190Y-116046190D01*
X134421190Y-116141428D01*
X134397380Y-116189047D01*
X134421190Y-115522380D02*
X134159285Y-115522380D01*
X134111666Y-115546190D01*
X134087857Y-115593809D01*
X134087857Y-115689047D01*
X134111666Y-115736666D01*
X134397380Y-115522380D02*
X134421190Y-115570000D01*
X134421190Y-115689047D01*
X134397380Y-115736666D01*
X134349761Y-115760476D01*
X134302142Y-115760476D01*
X134254523Y-115736666D01*
X134230714Y-115689047D01*
X134230714Y-115570000D01*
X134206904Y-115522380D01*
X134087857Y-115070000D02*
X134492619Y-115070000D01*
X134540238Y-115093809D01*
X134564047Y-115117619D01*
X134587857Y-115165238D01*
X134587857Y-115236666D01*
X134564047Y-115284285D01*
X134397380Y-115070000D02*
X134421190Y-115117619D01*
X134421190Y-115212857D01*
X134397380Y-115260476D01*
X134373571Y-115284285D01*
X134325952Y-115308095D01*
X134183095Y-115308095D01*
X134135476Y-115284285D01*
X134111666Y-115260476D01*
X134087857Y-115212857D01*
X134087857Y-115117619D01*
X134111666Y-115070000D01*
X134421190Y-114831904D02*
X133921190Y-114831904D01*
X134421190Y-114617619D02*
X134159285Y-114617619D01*
X134111666Y-114641428D01*
X134087857Y-114689047D01*
X134087857Y-114760476D01*
X134111666Y-114808095D01*
X134135476Y-114831904D01*
X134397380Y-114189047D02*
X134421190Y-114236666D01*
X134421190Y-114331904D01*
X134397380Y-114379523D01*
X134349761Y-114403333D01*
X134159285Y-114403333D01*
X134111666Y-114379523D01*
X134087857Y-114331904D01*
X134087857Y-114236666D01*
X134111666Y-114189047D01*
X134159285Y-114165238D01*
X134206904Y-114165238D01*
X134254523Y-114403333D01*
X134087857Y-114022380D02*
X134087857Y-113831904D01*
X133921190Y-113950952D02*
X134349761Y-113950952D01*
X134397380Y-113927142D01*
X134421190Y-113879523D01*
X134421190Y-113831904D01*
X134087857Y-113736666D02*
X134087857Y-113546190D01*
X133921190Y-113665238D02*
X134349761Y-113665238D01*
X134397380Y-113641428D01*
X134421190Y-113593809D01*
X134421190Y-113546190D01*
X134421190Y-113379523D02*
X134087857Y-113379523D01*
X133921190Y-113379523D02*
X133945000Y-113403333D01*
X133968809Y-113379523D01*
X133945000Y-113355714D01*
X133921190Y-113379523D01*
X133968809Y-113379523D01*
X135271190Y-116939047D02*
X134937857Y-116939047D01*
X134985476Y-116939047D02*
X134961666Y-116915238D01*
X134937857Y-116867619D01*
X134937857Y-116796190D01*
X134961666Y-116748571D01*
X135009285Y-116724761D01*
X135271190Y-116724761D01*
X135009285Y-116724761D02*
X134961666Y-116700952D01*
X134937857Y-116653333D01*
X134937857Y-116581904D01*
X134961666Y-116534285D01*
X135009285Y-116510476D01*
X135271190Y-116510476D01*
X135271190Y-116058095D02*
X135009285Y-116058095D01*
X134961666Y-116081904D01*
X134937857Y-116129523D01*
X134937857Y-116224761D01*
X134961666Y-116272380D01*
X135247380Y-116058095D02*
X135271190Y-116105714D01*
X135271190Y-116224761D01*
X135247380Y-116272380D01*
X135199761Y-116296190D01*
X135152142Y-116296190D01*
X135104523Y-116272380D01*
X135080714Y-116224761D01*
X135080714Y-116105714D01*
X135056904Y-116058095D01*
X135271190Y-115605714D02*
X134771190Y-115605714D01*
X135247380Y-115605714D02*
X135271190Y-115653333D01*
X135271190Y-115748571D01*
X135247380Y-115796190D01*
X135223571Y-115820000D01*
X135175952Y-115843809D01*
X135033095Y-115843809D01*
X134985476Y-115820000D01*
X134961666Y-115796190D01*
X134937857Y-115748571D01*
X134937857Y-115653333D01*
X134961666Y-115605714D01*
X135247380Y-115177142D02*
X135271190Y-115224761D01*
X135271190Y-115320000D01*
X135247380Y-115367619D01*
X135199761Y-115391428D01*
X135009285Y-115391428D01*
X134961666Y-115367619D01*
X134937857Y-115320000D01*
X134937857Y-115224761D01*
X134961666Y-115177142D01*
X135009285Y-115153333D01*
X135056904Y-115153333D01*
X135104523Y-115391428D01*
X135271190Y-114486666D02*
X135247380Y-114534285D01*
X135223571Y-114558095D01*
X135175952Y-114581904D01*
X135033095Y-114581904D01*
X134985476Y-114558095D01*
X134961666Y-114534285D01*
X134937857Y-114486666D01*
X134937857Y-114415238D01*
X134961666Y-114367619D01*
X134985476Y-114343809D01*
X135033095Y-114320000D01*
X135175952Y-114320000D01*
X135223571Y-114343809D01*
X135247380Y-114367619D01*
X135271190Y-114415238D01*
X135271190Y-114486666D01*
X134937857Y-114177142D02*
X134937857Y-113986666D01*
X135271190Y-114105714D02*
X134842619Y-114105714D01*
X134795000Y-114081904D01*
X134771190Y-114034285D01*
X134771190Y-113986666D01*
X135247380Y-113224761D02*
X135271190Y-113272380D01*
X135271190Y-113367619D01*
X135247380Y-113415238D01*
X135223571Y-113439047D01*
X135175952Y-113462857D01*
X135033095Y-113462857D01*
X134985476Y-113439047D01*
X134961666Y-113415238D01*
X134937857Y-113367619D01*
X134937857Y-113272380D01*
X134961666Y-113224761D01*
X135271190Y-112939047D02*
X135247380Y-112986666D01*
X135223571Y-113010476D01*
X135175952Y-113034285D01*
X135033095Y-113034285D01*
X134985476Y-113010476D01*
X134961666Y-112986666D01*
X134937857Y-112939047D01*
X134937857Y-112867619D01*
X134961666Y-112820000D01*
X134985476Y-112796190D01*
X135033095Y-112772380D01*
X135175952Y-112772380D01*
X135223571Y-112796190D01*
X135247380Y-112820000D01*
X135271190Y-112867619D01*
X135271190Y-112939047D01*
X135271190Y-112343809D02*
X134771190Y-112343809D01*
X135247380Y-112343809D02*
X135271190Y-112391428D01*
X135271190Y-112486666D01*
X135247380Y-112534285D01*
X135223571Y-112558095D01*
X135175952Y-112581904D01*
X135033095Y-112581904D01*
X134985476Y-112558095D01*
X134961666Y-112534285D01*
X134937857Y-112486666D01*
X134937857Y-112391428D01*
X134961666Y-112343809D01*
X135247380Y-111915238D02*
X135271190Y-111962857D01*
X135271190Y-112058095D01*
X135247380Y-112105714D01*
X135199761Y-112129523D01*
X135009285Y-112129523D01*
X134961666Y-112105714D01*
X134937857Y-112058095D01*
X134937857Y-111962857D01*
X134961666Y-111915238D01*
X135009285Y-111891428D01*
X135056904Y-111891428D01*
X135104523Y-112129523D01*
X113132857Y-118212857D02*
X113132857Y-118022380D01*
X112966190Y-118141428D02*
X113394761Y-118141428D01*
X113442380Y-118117619D01*
X113466190Y-118070000D01*
X113466190Y-118022380D01*
X113466190Y-117855714D02*
X112966190Y-117855714D01*
X113466190Y-117641428D02*
X113204285Y-117641428D01*
X113156666Y-117665238D01*
X113132857Y-117712857D01*
X113132857Y-117784285D01*
X113156666Y-117831904D01*
X113180476Y-117855714D01*
X113442380Y-117212857D02*
X113466190Y-117260476D01*
X113466190Y-117355714D01*
X113442380Y-117403333D01*
X113394761Y-117427142D01*
X113204285Y-117427142D01*
X113156666Y-117403333D01*
X113132857Y-117355714D01*
X113132857Y-117260476D01*
X113156666Y-117212857D01*
X113204285Y-117189047D01*
X113251904Y-117189047D01*
X113299523Y-117427142D01*
X113442380Y-116617619D02*
X113466190Y-116570000D01*
X113466190Y-116474761D01*
X113442380Y-116427142D01*
X113394761Y-116403333D01*
X113370952Y-116403333D01*
X113323333Y-116427142D01*
X113299523Y-116474761D01*
X113299523Y-116546190D01*
X113275714Y-116593809D01*
X113228095Y-116617619D01*
X113204285Y-116617619D01*
X113156666Y-116593809D01*
X113132857Y-116546190D01*
X113132857Y-116474761D01*
X113156666Y-116427142D01*
X113132857Y-116189047D02*
X113632857Y-116189047D01*
X113156666Y-116189047D02*
X113132857Y-116141428D01*
X113132857Y-116046190D01*
X113156666Y-115998571D01*
X113180476Y-115974761D01*
X113228095Y-115950952D01*
X113370952Y-115950952D01*
X113418571Y-115974761D01*
X113442380Y-115998571D01*
X113466190Y-116046190D01*
X113466190Y-116141428D01*
X113442380Y-116189047D01*
X113466190Y-115522380D02*
X113204285Y-115522380D01*
X113156666Y-115546190D01*
X113132857Y-115593809D01*
X113132857Y-115689047D01*
X113156666Y-115736666D01*
X113442380Y-115522380D02*
X113466190Y-115570000D01*
X113466190Y-115689047D01*
X113442380Y-115736666D01*
X113394761Y-115760476D01*
X113347142Y-115760476D01*
X113299523Y-115736666D01*
X113275714Y-115689047D01*
X113275714Y-115570000D01*
X113251904Y-115522380D01*
X113132857Y-115070000D02*
X113537619Y-115070000D01*
X113585238Y-115093809D01*
X113609047Y-115117619D01*
X113632857Y-115165238D01*
X113632857Y-115236666D01*
X113609047Y-115284285D01*
X113442380Y-115070000D02*
X113466190Y-115117619D01*
X113466190Y-115212857D01*
X113442380Y-115260476D01*
X113418571Y-115284285D01*
X113370952Y-115308095D01*
X113228095Y-115308095D01*
X113180476Y-115284285D01*
X113156666Y-115260476D01*
X113132857Y-115212857D01*
X113132857Y-115117619D01*
X113156666Y-115070000D01*
X113466190Y-114831904D02*
X112966190Y-114831904D01*
X113466190Y-114617619D02*
X113204285Y-114617619D01*
X113156666Y-114641428D01*
X113132857Y-114689047D01*
X113132857Y-114760476D01*
X113156666Y-114808095D01*
X113180476Y-114831904D01*
X113442380Y-114189047D02*
X113466190Y-114236666D01*
X113466190Y-114331904D01*
X113442380Y-114379523D01*
X113394761Y-114403333D01*
X113204285Y-114403333D01*
X113156666Y-114379523D01*
X113132857Y-114331904D01*
X113132857Y-114236666D01*
X113156666Y-114189047D01*
X113204285Y-114165238D01*
X113251904Y-114165238D01*
X113299523Y-114403333D01*
X113132857Y-114022380D02*
X113132857Y-113831904D01*
X112966190Y-113950952D02*
X113394761Y-113950952D01*
X113442380Y-113927142D01*
X113466190Y-113879523D01*
X113466190Y-113831904D01*
X113132857Y-113736666D02*
X113132857Y-113546190D01*
X112966190Y-113665238D02*
X113394761Y-113665238D01*
X113442380Y-113641428D01*
X113466190Y-113593809D01*
X113466190Y-113546190D01*
X113466190Y-113379523D02*
X113132857Y-113379523D01*
X112966190Y-113379523D02*
X112990000Y-113403333D01*
X113013809Y-113379523D01*
X112990000Y-113355714D01*
X112966190Y-113379523D01*
X113013809Y-113379523D01*
X114316190Y-116939047D02*
X113982857Y-116939047D01*
X114030476Y-116939047D02*
X114006666Y-116915238D01*
X113982857Y-116867619D01*
X113982857Y-116796190D01*
X114006666Y-116748571D01*
X114054285Y-116724761D01*
X114316190Y-116724761D01*
X114054285Y-116724761D02*
X114006666Y-116700952D01*
X113982857Y-116653333D01*
X113982857Y-116581904D01*
X114006666Y-116534285D01*
X114054285Y-116510476D01*
X114316190Y-116510476D01*
X114316190Y-116058095D02*
X114054285Y-116058095D01*
X114006666Y-116081904D01*
X113982857Y-116129523D01*
X113982857Y-116224761D01*
X114006666Y-116272380D01*
X114292380Y-116058095D02*
X114316190Y-116105714D01*
X114316190Y-116224761D01*
X114292380Y-116272380D01*
X114244761Y-116296190D01*
X114197142Y-116296190D01*
X114149523Y-116272380D01*
X114125714Y-116224761D01*
X114125714Y-116105714D01*
X114101904Y-116058095D01*
X114316190Y-115605714D02*
X113816190Y-115605714D01*
X114292380Y-115605714D02*
X114316190Y-115653333D01*
X114316190Y-115748571D01*
X114292380Y-115796190D01*
X114268571Y-115820000D01*
X114220952Y-115843809D01*
X114078095Y-115843809D01*
X114030476Y-115820000D01*
X114006666Y-115796190D01*
X113982857Y-115748571D01*
X113982857Y-115653333D01*
X114006666Y-115605714D01*
X114292380Y-115177142D02*
X114316190Y-115224761D01*
X114316190Y-115320000D01*
X114292380Y-115367619D01*
X114244761Y-115391428D01*
X114054285Y-115391428D01*
X114006666Y-115367619D01*
X113982857Y-115320000D01*
X113982857Y-115224761D01*
X114006666Y-115177142D01*
X114054285Y-115153333D01*
X114101904Y-115153333D01*
X114149523Y-115391428D01*
X114316190Y-114486666D02*
X114292380Y-114534285D01*
X114268571Y-114558095D01*
X114220952Y-114581904D01*
X114078095Y-114581904D01*
X114030476Y-114558095D01*
X114006666Y-114534285D01*
X113982857Y-114486666D01*
X113982857Y-114415238D01*
X114006666Y-114367619D01*
X114030476Y-114343809D01*
X114078095Y-114320000D01*
X114220952Y-114320000D01*
X114268571Y-114343809D01*
X114292380Y-114367619D01*
X114316190Y-114415238D01*
X114316190Y-114486666D01*
X113982857Y-114177142D02*
X113982857Y-113986666D01*
X114316190Y-114105714D02*
X113887619Y-114105714D01*
X113840000Y-114081904D01*
X113816190Y-114034285D01*
X113816190Y-113986666D01*
X114292380Y-113224761D02*
X114316190Y-113272380D01*
X114316190Y-113367619D01*
X114292380Y-113415238D01*
X114268571Y-113439047D01*
X114220952Y-113462857D01*
X114078095Y-113462857D01*
X114030476Y-113439047D01*
X114006666Y-113415238D01*
X113982857Y-113367619D01*
X113982857Y-113272380D01*
X114006666Y-113224761D01*
X114316190Y-112939047D02*
X114292380Y-112986666D01*
X114268571Y-113010476D01*
X114220952Y-113034285D01*
X114078095Y-113034285D01*
X114030476Y-113010476D01*
X114006666Y-112986666D01*
X113982857Y-112939047D01*
X113982857Y-112867619D01*
X114006666Y-112820000D01*
X114030476Y-112796190D01*
X114078095Y-112772380D01*
X114220952Y-112772380D01*
X114268571Y-112796190D01*
X114292380Y-112820000D01*
X114316190Y-112867619D01*
X114316190Y-112939047D01*
X114316190Y-112343809D02*
X113816190Y-112343809D01*
X114292380Y-112343809D02*
X114316190Y-112391428D01*
X114316190Y-112486666D01*
X114292380Y-112534285D01*
X114268571Y-112558095D01*
X114220952Y-112581904D01*
X114078095Y-112581904D01*
X114030476Y-112558095D01*
X114006666Y-112534285D01*
X113982857Y-112486666D01*
X113982857Y-112391428D01*
X114006666Y-112343809D01*
X114292380Y-111915238D02*
X114316190Y-111962857D01*
X114316190Y-112058095D01*
X114292380Y-112105714D01*
X114244761Y-112129523D01*
X114054285Y-112129523D01*
X114006666Y-112105714D01*
X113982857Y-112058095D01*
X113982857Y-111962857D01*
X114006666Y-111915238D01*
X114054285Y-111891428D01*
X114101904Y-111891428D01*
X114149523Y-112129523D01*
X92177857Y-118212857D02*
X92177857Y-118022380D01*
X92011190Y-118141428D02*
X92439761Y-118141428D01*
X92487380Y-118117619D01*
X92511190Y-118070000D01*
X92511190Y-118022380D01*
X92511190Y-117855714D02*
X92011190Y-117855714D01*
X92511190Y-117641428D02*
X92249285Y-117641428D01*
X92201666Y-117665238D01*
X92177857Y-117712857D01*
X92177857Y-117784285D01*
X92201666Y-117831904D01*
X92225476Y-117855714D01*
X92487380Y-117212857D02*
X92511190Y-117260476D01*
X92511190Y-117355714D01*
X92487380Y-117403333D01*
X92439761Y-117427142D01*
X92249285Y-117427142D01*
X92201666Y-117403333D01*
X92177857Y-117355714D01*
X92177857Y-117260476D01*
X92201666Y-117212857D01*
X92249285Y-117189047D01*
X92296904Y-117189047D01*
X92344523Y-117427142D01*
X92487380Y-116617619D02*
X92511190Y-116570000D01*
X92511190Y-116474761D01*
X92487380Y-116427142D01*
X92439761Y-116403333D01*
X92415952Y-116403333D01*
X92368333Y-116427142D01*
X92344523Y-116474761D01*
X92344523Y-116546190D01*
X92320714Y-116593809D01*
X92273095Y-116617619D01*
X92249285Y-116617619D01*
X92201666Y-116593809D01*
X92177857Y-116546190D01*
X92177857Y-116474761D01*
X92201666Y-116427142D01*
X92177857Y-116189047D02*
X92677857Y-116189047D01*
X92201666Y-116189047D02*
X92177857Y-116141428D01*
X92177857Y-116046190D01*
X92201666Y-115998571D01*
X92225476Y-115974761D01*
X92273095Y-115950952D01*
X92415952Y-115950952D01*
X92463571Y-115974761D01*
X92487380Y-115998571D01*
X92511190Y-116046190D01*
X92511190Y-116141428D01*
X92487380Y-116189047D01*
X92511190Y-115522380D02*
X92249285Y-115522380D01*
X92201666Y-115546190D01*
X92177857Y-115593809D01*
X92177857Y-115689047D01*
X92201666Y-115736666D01*
X92487380Y-115522380D02*
X92511190Y-115570000D01*
X92511190Y-115689047D01*
X92487380Y-115736666D01*
X92439761Y-115760476D01*
X92392142Y-115760476D01*
X92344523Y-115736666D01*
X92320714Y-115689047D01*
X92320714Y-115570000D01*
X92296904Y-115522380D01*
X92177857Y-115070000D02*
X92582619Y-115070000D01*
X92630238Y-115093809D01*
X92654047Y-115117619D01*
X92677857Y-115165238D01*
X92677857Y-115236666D01*
X92654047Y-115284285D01*
X92487380Y-115070000D02*
X92511190Y-115117619D01*
X92511190Y-115212857D01*
X92487380Y-115260476D01*
X92463571Y-115284285D01*
X92415952Y-115308095D01*
X92273095Y-115308095D01*
X92225476Y-115284285D01*
X92201666Y-115260476D01*
X92177857Y-115212857D01*
X92177857Y-115117619D01*
X92201666Y-115070000D01*
X92511190Y-114831904D02*
X92011190Y-114831904D01*
X92511190Y-114617619D02*
X92249285Y-114617619D01*
X92201666Y-114641428D01*
X92177857Y-114689047D01*
X92177857Y-114760476D01*
X92201666Y-114808095D01*
X92225476Y-114831904D01*
X92487380Y-114189047D02*
X92511190Y-114236666D01*
X92511190Y-114331904D01*
X92487380Y-114379523D01*
X92439761Y-114403333D01*
X92249285Y-114403333D01*
X92201666Y-114379523D01*
X92177857Y-114331904D01*
X92177857Y-114236666D01*
X92201666Y-114189047D01*
X92249285Y-114165238D01*
X92296904Y-114165238D01*
X92344523Y-114403333D01*
X92177857Y-114022380D02*
X92177857Y-113831904D01*
X92011190Y-113950952D02*
X92439761Y-113950952D01*
X92487380Y-113927142D01*
X92511190Y-113879523D01*
X92511190Y-113831904D01*
X92177857Y-113736666D02*
X92177857Y-113546190D01*
X92011190Y-113665238D02*
X92439761Y-113665238D01*
X92487380Y-113641428D01*
X92511190Y-113593809D01*
X92511190Y-113546190D01*
X92511190Y-113379523D02*
X92177857Y-113379523D01*
X92011190Y-113379523D02*
X92035000Y-113403333D01*
X92058809Y-113379523D01*
X92035000Y-113355714D01*
X92011190Y-113379523D01*
X92058809Y-113379523D01*
X93361190Y-116939047D02*
X93027857Y-116939047D01*
X93075476Y-116939047D02*
X93051666Y-116915238D01*
X93027857Y-116867619D01*
X93027857Y-116796190D01*
X93051666Y-116748571D01*
X93099285Y-116724761D01*
X93361190Y-116724761D01*
X93099285Y-116724761D02*
X93051666Y-116700952D01*
X93027857Y-116653333D01*
X93027857Y-116581904D01*
X93051666Y-116534285D01*
X93099285Y-116510476D01*
X93361190Y-116510476D01*
X93361190Y-116058095D02*
X93099285Y-116058095D01*
X93051666Y-116081904D01*
X93027857Y-116129523D01*
X93027857Y-116224761D01*
X93051666Y-116272380D01*
X93337380Y-116058095D02*
X93361190Y-116105714D01*
X93361190Y-116224761D01*
X93337380Y-116272380D01*
X93289761Y-116296190D01*
X93242142Y-116296190D01*
X93194523Y-116272380D01*
X93170714Y-116224761D01*
X93170714Y-116105714D01*
X93146904Y-116058095D01*
X93361190Y-115605714D02*
X92861190Y-115605714D01*
X93337380Y-115605714D02*
X93361190Y-115653333D01*
X93361190Y-115748571D01*
X93337380Y-115796190D01*
X93313571Y-115820000D01*
X93265952Y-115843809D01*
X93123095Y-115843809D01*
X93075476Y-115820000D01*
X93051666Y-115796190D01*
X93027857Y-115748571D01*
X93027857Y-115653333D01*
X93051666Y-115605714D01*
X93337380Y-115177142D02*
X93361190Y-115224761D01*
X93361190Y-115320000D01*
X93337380Y-115367619D01*
X93289761Y-115391428D01*
X93099285Y-115391428D01*
X93051666Y-115367619D01*
X93027857Y-115320000D01*
X93027857Y-115224761D01*
X93051666Y-115177142D01*
X93099285Y-115153333D01*
X93146904Y-115153333D01*
X93194523Y-115391428D01*
X93361190Y-114486666D02*
X93337380Y-114534285D01*
X93313571Y-114558095D01*
X93265952Y-114581904D01*
X93123095Y-114581904D01*
X93075476Y-114558095D01*
X93051666Y-114534285D01*
X93027857Y-114486666D01*
X93027857Y-114415238D01*
X93051666Y-114367619D01*
X93075476Y-114343809D01*
X93123095Y-114320000D01*
X93265952Y-114320000D01*
X93313571Y-114343809D01*
X93337380Y-114367619D01*
X93361190Y-114415238D01*
X93361190Y-114486666D01*
X93027857Y-114177142D02*
X93027857Y-113986666D01*
X93361190Y-114105714D02*
X92932619Y-114105714D01*
X92885000Y-114081904D01*
X92861190Y-114034285D01*
X92861190Y-113986666D01*
X93337380Y-113224761D02*
X93361190Y-113272380D01*
X93361190Y-113367619D01*
X93337380Y-113415238D01*
X93313571Y-113439047D01*
X93265952Y-113462857D01*
X93123095Y-113462857D01*
X93075476Y-113439047D01*
X93051666Y-113415238D01*
X93027857Y-113367619D01*
X93027857Y-113272380D01*
X93051666Y-113224761D01*
X93361190Y-112939047D02*
X93337380Y-112986666D01*
X93313571Y-113010476D01*
X93265952Y-113034285D01*
X93123095Y-113034285D01*
X93075476Y-113010476D01*
X93051666Y-112986666D01*
X93027857Y-112939047D01*
X93027857Y-112867619D01*
X93051666Y-112820000D01*
X93075476Y-112796190D01*
X93123095Y-112772380D01*
X93265952Y-112772380D01*
X93313571Y-112796190D01*
X93337380Y-112820000D01*
X93361190Y-112867619D01*
X93361190Y-112939047D01*
X93361190Y-112343809D02*
X92861190Y-112343809D01*
X93337380Y-112343809D02*
X93361190Y-112391428D01*
X93361190Y-112486666D01*
X93337380Y-112534285D01*
X93313571Y-112558095D01*
X93265952Y-112581904D01*
X93123095Y-112581904D01*
X93075476Y-112558095D01*
X93051666Y-112534285D01*
X93027857Y-112486666D01*
X93027857Y-112391428D01*
X93051666Y-112343809D01*
X93337380Y-111915238D02*
X93361190Y-111962857D01*
X93361190Y-112058095D01*
X93337380Y-112105714D01*
X93289761Y-112129523D01*
X93099285Y-112129523D01*
X93051666Y-112105714D01*
X93027857Y-112058095D01*
X93027857Y-111962857D01*
X93051666Y-111915238D01*
X93099285Y-111891428D01*
X93146904Y-111891428D01*
X93194523Y-112129523D01*
X134087857Y-100432857D02*
X134087857Y-100242380D01*
X133921190Y-100361428D02*
X134349761Y-100361428D01*
X134397380Y-100337619D01*
X134421190Y-100290000D01*
X134421190Y-100242380D01*
X134421190Y-100075714D02*
X133921190Y-100075714D01*
X134421190Y-99861428D02*
X134159285Y-99861428D01*
X134111666Y-99885238D01*
X134087857Y-99932857D01*
X134087857Y-100004285D01*
X134111666Y-100051904D01*
X134135476Y-100075714D01*
X134397380Y-99432857D02*
X134421190Y-99480476D01*
X134421190Y-99575714D01*
X134397380Y-99623333D01*
X134349761Y-99647142D01*
X134159285Y-99647142D01*
X134111666Y-99623333D01*
X134087857Y-99575714D01*
X134087857Y-99480476D01*
X134111666Y-99432857D01*
X134159285Y-99409047D01*
X134206904Y-99409047D01*
X134254523Y-99647142D01*
X134397380Y-98837619D02*
X134421190Y-98790000D01*
X134421190Y-98694761D01*
X134397380Y-98647142D01*
X134349761Y-98623333D01*
X134325952Y-98623333D01*
X134278333Y-98647142D01*
X134254523Y-98694761D01*
X134254523Y-98766190D01*
X134230714Y-98813809D01*
X134183095Y-98837619D01*
X134159285Y-98837619D01*
X134111666Y-98813809D01*
X134087857Y-98766190D01*
X134087857Y-98694761D01*
X134111666Y-98647142D01*
X134087857Y-98409047D02*
X134587857Y-98409047D01*
X134111666Y-98409047D02*
X134087857Y-98361428D01*
X134087857Y-98266190D01*
X134111666Y-98218571D01*
X134135476Y-98194761D01*
X134183095Y-98170952D01*
X134325952Y-98170952D01*
X134373571Y-98194761D01*
X134397380Y-98218571D01*
X134421190Y-98266190D01*
X134421190Y-98361428D01*
X134397380Y-98409047D01*
X134421190Y-97742380D02*
X134159285Y-97742380D01*
X134111666Y-97766190D01*
X134087857Y-97813809D01*
X134087857Y-97909047D01*
X134111666Y-97956666D01*
X134397380Y-97742380D02*
X134421190Y-97790000D01*
X134421190Y-97909047D01*
X134397380Y-97956666D01*
X134349761Y-97980476D01*
X134302142Y-97980476D01*
X134254523Y-97956666D01*
X134230714Y-97909047D01*
X134230714Y-97790000D01*
X134206904Y-97742380D01*
X134087857Y-97290000D02*
X134492619Y-97290000D01*
X134540238Y-97313809D01*
X134564047Y-97337619D01*
X134587857Y-97385238D01*
X134587857Y-97456666D01*
X134564047Y-97504285D01*
X134397380Y-97290000D02*
X134421190Y-97337619D01*
X134421190Y-97432857D01*
X134397380Y-97480476D01*
X134373571Y-97504285D01*
X134325952Y-97528095D01*
X134183095Y-97528095D01*
X134135476Y-97504285D01*
X134111666Y-97480476D01*
X134087857Y-97432857D01*
X134087857Y-97337619D01*
X134111666Y-97290000D01*
X134421190Y-97051904D02*
X133921190Y-97051904D01*
X134421190Y-96837619D02*
X134159285Y-96837619D01*
X134111666Y-96861428D01*
X134087857Y-96909047D01*
X134087857Y-96980476D01*
X134111666Y-97028095D01*
X134135476Y-97051904D01*
X134397380Y-96409047D02*
X134421190Y-96456666D01*
X134421190Y-96551904D01*
X134397380Y-96599523D01*
X134349761Y-96623333D01*
X134159285Y-96623333D01*
X134111666Y-96599523D01*
X134087857Y-96551904D01*
X134087857Y-96456666D01*
X134111666Y-96409047D01*
X134159285Y-96385238D01*
X134206904Y-96385238D01*
X134254523Y-96623333D01*
X134087857Y-96242380D02*
X134087857Y-96051904D01*
X133921190Y-96170952D02*
X134349761Y-96170952D01*
X134397380Y-96147142D01*
X134421190Y-96099523D01*
X134421190Y-96051904D01*
X134087857Y-95956666D02*
X134087857Y-95766190D01*
X133921190Y-95885238D02*
X134349761Y-95885238D01*
X134397380Y-95861428D01*
X134421190Y-95813809D01*
X134421190Y-95766190D01*
X134421190Y-95599523D02*
X134087857Y-95599523D01*
X133921190Y-95599523D02*
X133945000Y-95623333D01*
X133968809Y-95599523D01*
X133945000Y-95575714D01*
X133921190Y-95599523D01*
X133968809Y-95599523D01*
X135271190Y-99159047D02*
X134937857Y-99159047D01*
X134985476Y-99159047D02*
X134961666Y-99135238D01*
X134937857Y-99087619D01*
X134937857Y-99016190D01*
X134961666Y-98968571D01*
X135009285Y-98944761D01*
X135271190Y-98944761D01*
X135009285Y-98944761D02*
X134961666Y-98920952D01*
X134937857Y-98873333D01*
X134937857Y-98801904D01*
X134961666Y-98754285D01*
X135009285Y-98730476D01*
X135271190Y-98730476D01*
X135271190Y-98278095D02*
X135009285Y-98278095D01*
X134961666Y-98301904D01*
X134937857Y-98349523D01*
X134937857Y-98444761D01*
X134961666Y-98492380D01*
X135247380Y-98278095D02*
X135271190Y-98325714D01*
X135271190Y-98444761D01*
X135247380Y-98492380D01*
X135199761Y-98516190D01*
X135152142Y-98516190D01*
X135104523Y-98492380D01*
X135080714Y-98444761D01*
X135080714Y-98325714D01*
X135056904Y-98278095D01*
X135271190Y-97825714D02*
X134771190Y-97825714D01*
X135247380Y-97825714D02*
X135271190Y-97873333D01*
X135271190Y-97968571D01*
X135247380Y-98016190D01*
X135223571Y-98040000D01*
X135175952Y-98063809D01*
X135033095Y-98063809D01*
X134985476Y-98040000D01*
X134961666Y-98016190D01*
X134937857Y-97968571D01*
X134937857Y-97873333D01*
X134961666Y-97825714D01*
X135247380Y-97397142D02*
X135271190Y-97444761D01*
X135271190Y-97540000D01*
X135247380Y-97587619D01*
X135199761Y-97611428D01*
X135009285Y-97611428D01*
X134961666Y-97587619D01*
X134937857Y-97540000D01*
X134937857Y-97444761D01*
X134961666Y-97397142D01*
X135009285Y-97373333D01*
X135056904Y-97373333D01*
X135104523Y-97611428D01*
X135271190Y-96706666D02*
X135247380Y-96754285D01*
X135223571Y-96778095D01*
X135175952Y-96801904D01*
X135033095Y-96801904D01*
X134985476Y-96778095D01*
X134961666Y-96754285D01*
X134937857Y-96706666D01*
X134937857Y-96635238D01*
X134961666Y-96587619D01*
X134985476Y-96563809D01*
X135033095Y-96540000D01*
X135175952Y-96540000D01*
X135223571Y-96563809D01*
X135247380Y-96587619D01*
X135271190Y-96635238D01*
X135271190Y-96706666D01*
X134937857Y-96397142D02*
X134937857Y-96206666D01*
X135271190Y-96325714D02*
X134842619Y-96325714D01*
X134795000Y-96301904D01*
X134771190Y-96254285D01*
X134771190Y-96206666D01*
X135247380Y-95444761D02*
X135271190Y-95492380D01*
X135271190Y-95587619D01*
X135247380Y-95635238D01*
X135223571Y-95659047D01*
X135175952Y-95682857D01*
X135033095Y-95682857D01*
X134985476Y-95659047D01*
X134961666Y-95635238D01*
X134937857Y-95587619D01*
X134937857Y-95492380D01*
X134961666Y-95444761D01*
X135271190Y-95159047D02*
X135247380Y-95206666D01*
X135223571Y-95230476D01*
X135175952Y-95254285D01*
X135033095Y-95254285D01*
X134985476Y-95230476D01*
X134961666Y-95206666D01*
X134937857Y-95159047D01*
X134937857Y-95087619D01*
X134961666Y-95040000D01*
X134985476Y-95016190D01*
X135033095Y-94992380D01*
X135175952Y-94992380D01*
X135223571Y-95016190D01*
X135247380Y-95040000D01*
X135271190Y-95087619D01*
X135271190Y-95159047D01*
X135271190Y-94563809D02*
X134771190Y-94563809D01*
X135247380Y-94563809D02*
X135271190Y-94611428D01*
X135271190Y-94706666D01*
X135247380Y-94754285D01*
X135223571Y-94778095D01*
X135175952Y-94801904D01*
X135033095Y-94801904D01*
X134985476Y-94778095D01*
X134961666Y-94754285D01*
X134937857Y-94706666D01*
X134937857Y-94611428D01*
X134961666Y-94563809D01*
X135247380Y-94135238D02*
X135271190Y-94182857D01*
X135271190Y-94278095D01*
X135247380Y-94325714D01*
X135199761Y-94349523D01*
X135009285Y-94349523D01*
X134961666Y-94325714D01*
X134937857Y-94278095D01*
X134937857Y-94182857D01*
X134961666Y-94135238D01*
X135009285Y-94111428D01*
X135056904Y-94111428D01*
X135104523Y-94349523D01*
X113132857Y-100432857D02*
X113132857Y-100242380D01*
X112966190Y-100361428D02*
X113394761Y-100361428D01*
X113442380Y-100337619D01*
X113466190Y-100290000D01*
X113466190Y-100242380D01*
X113466190Y-100075714D02*
X112966190Y-100075714D01*
X113466190Y-99861428D02*
X113204285Y-99861428D01*
X113156666Y-99885238D01*
X113132857Y-99932857D01*
X113132857Y-100004285D01*
X113156666Y-100051904D01*
X113180476Y-100075714D01*
X113442380Y-99432857D02*
X113466190Y-99480476D01*
X113466190Y-99575714D01*
X113442380Y-99623333D01*
X113394761Y-99647142D01*
X113204285Y-99647142D01*
X113156666Y-99623333D01*
X113132857Y-99575714D01*
X113132857Y-99480476D01*
X113156666Y-99432857D01*
X113204285Y-99409047D01*
X113251904Y-99409047D01*
X113299523Y-99647142D01*
X113442380Y-98837619D02*
X113466190Y-98790000D01*
X113466190Y-98694761D01*
X113442380Y-98647142D01*
X113394761Y-98623333D01*
X113370952Y-98623333D01*
X113323333Y-98647142D01*
X113299523Y-98694761D01*
X113299523Y-98766190D01*
X113275714Y-98813809D01*
X113228095Y-98837619D01*
X113204285Y-98837619D01*
X113156666Y-98813809D01*
X113132857Y-98766190D01*
X113132857Y-98694761D01*
X113156666Y-98647142D01*
X113132857Y-98409047D02*
X113632857Y-98409047D01*
X113156666Y-98409047D02*
X113132857Y-98361428D01*
X113132857Y-98266190D01*
X113156666Y-98218571D01*
X113180476Y-98194761D01*
X113228095Y-98170952D01*
X113370952Y-98170952D01*
X113418571Y-98194761D01*
X113442380Y-98218571D01*
X113466190Y-98266190D01*
X113466190Y-98361428D01*
X113442380Y-98409047D01*
X113466190Y-97742380D02*
X113204285Y-97742380D01*
X113156666Y-97766190D01*
X113132857Y-97813809D01*
X113132857Y-97909047D01*
X113156666Y-97956666D01*
X113442380Y-97742380D02*
X113466190Y-97790000D01*
X113466190Y-97909047D01*
X113442380Y-97956666D01*
X113394761Y-97980476D01*
X113347142Y-97980476D01*
X113299523Y-97956666D01*
X113275714Y-97909047D01*
X113275714Y-97790000D01*
X113251904Y-97742380D01*
X113132857Y-97290000D02*
X113537619Y-97290000D01*
X113585238Y-97313809D01*
X113609047Y-97337619D01*
X113632857Y-97385238D01*
X113632857Y-97456666D01*
X113609047Y-97504285D01*
X113442380Y-97290000D02*
X113466190Y-97337619D01*
X113466190Y-97432857D01*
X113442380Y-97480476D01*
X113418571Y-97504285D01*
X113370952Y-97528095D01*
X113228095Y-97528095D01*
X113180476Y-97504285D01*
X113156666Y-97480476D01*
X113132857Y-97432857D01*
X113132857Y-97337619D01*
X113156666Y-97290000D01*
X113466190Y-97051904D02*
X112966190Y-97051904D01*
X113466190Y-96837619D02*
X113204285Y-96837619D01*
X113156666Y-96861428D01*
X113132857Y-96909047D01*
X113132857Y-96980476D01*
X113156666Y-97028095D01*
X113180476Y-97051904D01*
X113442380Y-96409047D02*
X113466190Y-96456666D01*
X113466190Y-96551904D01*
X113442380Y-96599523D01*
X113394761Y-96623333D01*
X113204285Y-96623333D01*
X113156666Y-96599523D01*
X113132857Y-96551904D01*
X113132857Y-96456666D01*
X113156666Y-96409047D01*
X113204285Y-96385238D01*
X113251904Y-96385238D01*
X113299523Y-96623333D01*
X113132857Y-96242380D02*
X113132857Y-96051904D01*
X112966190Y-96170952D02*
X113394761Y-96170952D01*
X113442380Y-96147142D01*
X113466190Y-96099523D01*
X113466190Y-96051904D01*
X113132857Y-95956666D02*
X113132857Y-95766190D01*
X112966190Y-95885238D02*
X113394761Y-95885238D01*
X113442380Y-95861428D01*
X113466190Y-95813809D01*
X113466190Y-95766190D01*
X113466190Y-95599523D02*
X113132857Y-95599523D01*
X112966190Y-95599523D02*
X112990000Y-95623333D01*
X113013809Y-95599523D01*
X112990000Y-95575714D01*
X112966190Y-95599523D01*
X113013809Y-95599523D01*
X114316190Y-99159047D02*
X113982857Y-99159047D01*
X114030476Y-99159047D02*
X114006666Y-99135238D01*
X113982857Y-99087619D01*
X113982857Y-99016190D01*
X114006666Y-98968571D01*
X114054285Y-98944761D01*
X114316190Y-98944761D01*
X114054285Y-98944761D02*
X114006666Y-98920952D01*
X113982857Y-98873333D01*
X113982857Y-98801904D01*
X114006666Y-98754285D01*
X114054285Y-98730476D01*
X114316190Y-98730476D01*
X114316190Y-98278095D02*
X114054285Y-98278095D01*
X114006666Y-98301904D01*
X113982857Y-98349523D01*
X113982857Y-98444761D01*
X114006666Y-98492380D01*
X114292380Y-98278095D02*
X114316190Y-98325714D01*
X114316190Y-98444761D01*
X114292380Y-98492380D01*
X114244761Y-98516190D01*
X114197142Y-98516190D01*
X114149523Y-98492380D01*
X114125714Y-98444761D01*
X114125714Y-98325714D01*
X114101904Y-98278095D01*
X114316190Y-97825714D02*
X113816190Y-97825714D01*
X114292380Y-97825714D02*
X114316190Y-97873333D01*
X114316190Y-97968571D01*
X114292380Y-98016190D01*
X114268571Y-98040000D01*
X114220952Y-98063809D01*
X114078095Y-98063809D01*
X114030476Y-98040000D01*
X114006666Y-98016190D01*
X113982857Y-97968571D01*
X113982857Y-97873333D01*
X114006666Y-97825714D01*
X114292380Y-97397142D02*
X114316190Y-97444761D01*
X114316190Y-97540000D01*
X114292380Y-97587619D01*
X114244761Y-97611428D01*
X114054285Y-97611428D01*
X114006666Y-97587619D01*
X113982857Y-97540000D01*
X113982857Y-97444761D01*
X114006666Y-97397142D01*
X114054285Y-97373333D01*
X114101904Y-97373333D01*
X114149523Y-97611428D01*
X114316190Y-96706666D02*
X114292380Y-96754285D01*
X114268571Y-96778095D01*
X114220952Y-96801904D01*
X114078095Y-96801904D01*
X114030476Y-96778095D01*
X114006666Y-96754285D01*
X113982857Y-96706666D01*
X113982857Y-96635238D01*
X114006666Y-96587619D01*
X114030476Y-96563809D01*
X114078095Y-96540000D01*
X114220952Y-96540000D01*
X114268571Y-96563809D01*
X114292380Y-96587619D01*
X114316190Y-96635238D01*
X114316190Y-96706666D01*
X113982857Y-96397142D02*
X113982857Y-96206666D01*
X114316190Y-96325714D02*
X113887619Y-96325714D01*
X113840000Y-96301904D01*
X113816190Y-96254285D01*
X113816190Y-96206666D01*
X114292380Y-95444761D02*
X114316190Y-95492380D01*
X114316190Y-95587619D01*
X114292380Y-95635238D01*
X114268571Y-95659047D01*
X114220952Y-95682857D01*
X114078095Y-95682857D01*
X114030476Y-95659047D01*
X114006666Y-95635238D01*
X113982857Y-95587619D01*
X113982857Y-95492380D01*
X114006666Y-95444761D01*
X114316190Y-95159047D02*
X114292380Y-95206666D01*
X114268571Y-95230476D01*
X114220952Y-95254285D01*
X114078095Y-95254285D01*
X114030476Y-95230476D01*
X114006666Y-95206666D01*
X113982857Y-95159047D01*
X113982857Y-95087619D01*
X114006666Y-95040000D01*
X114030476Y-95016190D01*
X114078095Y-94992380D01*
X114220952Y-94992380D01*
X114268571Y-95016190D01*
X114292380Y-95040000D01*
X114316190Y-95087619D01*
X114316190Y-95159047D01*
X114316190Y-94563809D02*
X113816190Y-94563809D01*
X114292380Y-94563809D02*
X114316190Y-94611428D01*
X114316190Y-94706666D01*
X114292380Y-94754285D01*
X114268571Y-94778095D01*
X114220952Y-94801904D01*
X114078095Y-94801904D01*
X114030476Y-94778095D01*
X114006666Y-94754285D01*
X113982857Y-94706666D01*
X113982857Y-94611428D01*
X114006666Y-94563809D01*
X114292380Y-94135238D02*
X114316190Y-94182857D01*
X114316190Y-94278095D01*
X114292380Y-94325714D01*
X114244761Y-94349523D01*
X114054285Y-94349523D01*
X114006666Y-94325714D01*
X113982857Y-94278095D01*
X113982857Y-94182857D01*
X114006666Y-94135238D01*
X114054285Y-94111428D01*
X114101904Y-94111428D01*
X114149523Y-94349523D01*
X92177857Y-100432857D02*
X92177857Y-100242380D01*
X92011190Y-100361428D02*
X92439761Y-100361428D01*
X92487380Y-100337619D01*
X92511190Y-100290000D01*
X92511190Y-100242380D01*
X92511190Y-100075714D02*
X92011190Y-100075714D01*
X92511190Y-99861428D02*
X92249285Y-99861428D01*
X92201666Y-99885238D01*
X92177857Y-99932857D01*
X92177857Y-100004285D01*
X92201666Y-100051904D01*
X92225476Y-100075714D01*
X92487380Y-99432857D02*
X92511190Y-99480476D01*
X92511190Y-99575714D01*
X92487380Y-99623333D01*
X92439761Y-99647142D01*
X92249285Y-99647142D01*
X92201666Y-99623333D01*
X92177857Y-99575714D01*
X92177857Y-99480476D01*
X92201666Y-99432857D01*
X92249285Y-99409047D01*
X92296904Y-99409047D01*
X92344523Y-99647142D01*
X92487380Y-98837619D02*
X92511190Y-98790000D01*
X92511190Y-98694761D01*
X92487380Y-98647142D01*
X92439761Y-98623333D01*
X92415952Y-98623333D01*
X92368333Y-98647142D01*
X92344523Y-98694761D01*
X92344523Y-98766190D01*
X92320714Y-98813809D01*
X92273095Y-98837619D01*
X92249285Y-98837619D01*
X92201666Y-98813809D01*
X92177857Y-98766190D01*
X92177857Y-98694761D01*
X92201666Y-98647142D01*
X92177857Y-98409047D02*
X92677857Y-98409047D01*
X92201666Y-98409047D02*
X92177857Y-98361428D01*
X92177857Y-98266190D01*
X92201666Y-98218571D01*
X92225476Y-98194761D01*
X92273095Y-98170952D01*
X92415952Y-98170952D01*
X92463571Y-98194761D01*
X92487380Y-98218571D01*
X92511190Y-98266190D01*
X92511190Y-98361428D01*
X92487380Y-98409047D01*
X92511190Y-97742380D02*
X92249285Y-97742380D01*
X92201666Y-97766190D01*
X92177857Y-97813809D01*
X92177857Y-97909047D01*
X92201666Y-97956666D01*
X92487380Y-97742380D02*
X92511190Y-97790000D01*
X92511190Y-97909047D01*
X92487380Y-97956666D01*
X92439761Y-97980476D01*
X92392142Y-97980476D01*
X92344523Y-97956666D01*
X92320714Y-97909047D01*
X92320714Y-97790000D01*
X92296904Y-97742380D01*
X92177857Y-97290000D02*
X92582619Y-97290000D01*
X92630238Y-97313809D01*
X92654047Y-97337619D01*
X92677857Y-97385238D01*
X92677857Y-97456666D01*
X92654047Y-97504285D01*
X92487380Y-97290000D02*
X92511190Y-97337619D01*
X92511190Y-97432857D01*
X92487380Y-97480476D01*
X92463571Y-97504285D01*
X92415952Y-97528095D01*
X92273095Y-97528095D01*
X92225476Y-97504285D01*
X92201666Y-97480476D01*
X92177857Y-97432857D01*
X92177857Y-97337619D01*
X92201666Y-97290000D01*
X92511190Y-97051904D02*
X92011190Y-97051904D01*
X92511190Y-96837619D02*
X92249285Y-96837619D01*
X92201666Y-96861428D01*
X92177857Y-96909047D01*
X92177857Y-96980476D01*
X92201666Y-97028095D01*
X92225476Y-97051904D01*
X92487380Y-96409047D02*
X92511190Y-96456666D01*
X92511190Y-96551904D01*
X92487380Y-96599523D01*
X92439761Y-96623333D01*
X92249285Y-96623333D01*
X92201666Y-96599523D01*
X92177857Y-96551904D01*
X92177857Y-96456666D01*
X92201666Y-96409047D01*
X92249285Y-96385238D01*
X92296904Y-96385238D01*
X92344523Y-96623333D01*
X92177857Y-96242380D02*
X92177857Y-96051904D01*
X92011190Y-96170952D02*
X92439761Y-96170952D01*
X92487380Y-96147142D01*
X92511190Y-96099523D01*
X92511190Y-96051904D01*
X92177857Y-95956666D02*
X92177857Y-95766190D01*
X92011190Y-95885238D02*
X92439761Y-95885238D01*
X92487380Y-95861428D01*
X92511190Y-95813809D01*
X92511190Y-95766190D01*
X92511190Y-95599523D02*
X92177857Y-95599523D01*
X92011190Y-95599523D02*
X92035000Y-95623333D01*
X92058809Y-95599523D01*
X92035000Y-95575714D01*
X92011190Y-95599523D01*
X92058809Y-95599523D01*
X93361190Y-99159047D02*
X93027857Y-99159047D01*
X93075476Y-99159047D02*
X93051666Y-99135238D01*
X93027857Y-99087619D01*
X93027857Y-99016190D01*
X93051666Y-98968571D01*
X93099285Y-98944761D01*
X93361190Y-98944761D01*
X93099285Y-98944761D02*
X93051666Y-98920952D01*
X93027857Y-98873333D01*
X93027857Y-98801904D01*
X93051666Y-98754285D01*
X93099285Y-98730476D01*
X93361190Y-98730476D01*
X93361190Y-98278095D02*
X93099285Y-98278095D01*
X93051666Y-98301904D01*
X93027857Y-98349523D01*
X93027857Y-98444761D01*
X93051666Y-98492380D01*
X93337380Y-98278095D02*
X93361190Y-98325714D01*
X93361190Y-98444761D01*
X93337380Y-98492380D01*
X93289761Y-98516190D01*
X93242142Y-98516190D01*
X93194523Y-98492380D01*
X93170714Y-98444761D01*
X93170714Y-98325714D01*
X93146904Y-98278095D01*
X93361190Y-97825714D02*
X92861190Y-97825714D01*
X93337380Y-97825714D02*
X93361190Y-97873333D01*
X93361190Y-97968571D01*
X93337380Y-98016190D01*
X93313571Y-98040000D01*
X93265952Y-98063809D01*
X93123095Y-98063809D01*
X93075476Y-98040000D01*
X93051666Y-98016190D01*
X93027857Y-97968571D01*
X93027857Y-97873333D01*
X93051666Y-97825714D01*
X93337380Y-97397142D02*
X93361190Y-97444761D01*
X93361190Y-97540000D01*
X93337380Y-97587619D01*
X93289761Y-97611428D01*
X93099285Y-97611428D01*
X93051666Y-97587619D01*
X93027857Y-97540000D01*
X93027857Y-97444761D01*
X93051666Y-97397142D01*
X93099285Y-97373333D01*
X93146904Y-97373333D01*
X93194523Y-97611428D01*
X93361190Y-96706666D02*
X93337380Y-96754285D01*
X93313571Y-96778095D01*
X93265952Y-96801904D01*
X93123095Y-96801904D01*
X93075476Y-96778095D01*
X93051666Y-96754285D01*
X93027857Y-96706666D01*
X93027857Y-96635238D01*
X93051666Y-96587619D01*
X93075476Y-96563809D01*
X93123095Y-96540000D01*
X93265952Y-96540000D01*
X93313571Y-96563809D01*
X93337380Y-96587619D01*
X93361190Y-96635238D01*
X93361190Y-96706666D01*
X93027857Y-96397142D02*
X93027857Y-96206666D01*
X93361190Y-96325714D02*
X92932619Y-96325714D01*
X92885000Y-96301904D01*
X92861190Y-96254285D01*
X92861190Y-96206666D01*
X93337380Y-95444761D02*
X93361190Y-95492380D01*
X93361190Y-95587619D01*
X93337380Y-95635238D01*
X93313571Y-95659047D01*
X93265952Y-95682857D01*
X93123095Y-95682857D01*
X93075476Y-95659047D01*
X93051666Y-95635238D01*
X93027857Y-95587619D01*
X93027857Y-95492380D01*
X93051666Y-95444761D01*
X93361190Y-95159047D02*
X93337380Y-95206666D01*
X93313571Y-95230476D01*
X93265952Y-95254285D01*
X93123095Y-95254285D01*
X93075476Y-95230476D01*
X93051666Y-95206666D01*
X93027857Y-95159047D01*
X93027857Y-95087619D01*
X93051666Y-95040000D01*
X93075476Y-95016190D01*
X93123095Y-94992380D01*
X93265952Y-94992380D01*
X93313571Y-95016190D01*
X93337380Y-95040000D01*
X93361190Y-95087619D01*
X93361190Y-95159047D01*
X93361190Y-94563809D02*
X92861190Y-94563809D01*
X93337380Y-94563809D02*
X93361190Y-94611428D01*
X93361190Y-94706666D01*
X93337380Y-94754285D01*
X93313571Y-94778095D01*
X93265952Y-94801904D01*
X93123095Y-94801904D01*
X93075476Y-94778095D01*
X93051666Y-94754285D01*
X93027857Y-94706666D01*
X93027857Y-94611428D01*
X93051666Y-94563809D01*
X93337380Y-94135238D02*
X93361190Y-94182857D01*
X93361190Y-94278095D01*
X93337380Y-94325714D01*
X93289761Y-94349523D01*
X93099285Y-94349523D01*
X93051666Y-94325714D01*
X93027857Y-94278095D01*
X93027857Y-94182857D01*
X93051666Y-94135238D01*
X93099285Y-94111428D01*
X93146904Y-94111428D01*
X93194523Y-94349523D01*
X134087857Y-82652857D02*
X134087857Y-82462380D01*
X133921190Y-82581428D02*
X134349761Y-82581428D01*
X134397380Y-82557619D01*
X134421190Y-82510000D01*
X134421190Y-82462380D01*
X134421190Y-82295714D02*
X133921190Y-82295714D01*
X134421190Y-82081428D02*
X134159285Y-82081428D01*
X134111666Y-82105238D01*
X134087857Y-82152857D01*
X134087857Y-82224285D01*
X134111666Y-82271904D01*
X134135476Y-82295714D01*
X134397380Y-81652857D02*
X134421190Y-81700476D01*
X134421190Y-81795714D01*
X134397380Y-81843333D01*
X134349761Y-81867142D01*
X134159285Y-81867142D01*
X134111666Y-81843333D01*
X134087857Y-81795714D01*
X134087857Y-81700476D01*
X134111666Y-81652857D01*
X134159285Y-81629047D01*
X134206904Y-81629047D01*
X134254523Y-81867142D01*
X134397380Y-81057619D02*
X134421190Y-81010000D01*
X134421190Y-80914761D01*
X134397380Y-80867142D01*
X134349761Y-80843333D01*
X134325952Y-80843333D01*
X134278333Y-80867142D01*
X134254523Y-80914761D01*
X134254523Y-80986190D01*
X134230714Y-81033809D01*
X134183095Y-81057619D01*
X134159285Y-81057619D01*
X134111666Y-81033809D01*
X134087857Y-80986190D01*
X134087857Y-80914761D01*
X134111666Y-80867142D01*
X134087857Y-80629047D02*
X134587857Y-80629047D01*
X134111666Y-80629047D02*
X134087857Y-80581428D01*
X134087857Y-80486190D01*
X134111666Y-80438571D01*
X134135476Y-80414761D01*
X134183095Y-80390952D01*
X134325952Y-80390952D01*
X134373571Y-80414761D01*
X134397380Y-80438571D01*
X134421190Y-80486190D01*
X134421190Y-80581428D01*
X134397380Y-80629047D01*
X134421190Y-79962380D02*
X134159285Y-79962380D01*
X134111666Y-79986190D01*
X134087857Y-80033809D01*
X134087857Y-80129047D01*
X134111666Y-80176666D01*
X134397380Y-79962380D02*
X134421190Y-80010000D01*
X134421190Y-80129047D01*
X134397380Y-80176666D01*
X134349761Y-80200476D01*
X134302142Y-80200476D01*
X134254523Y-80176666D01*
X134230714Y-80129047D01*
X134230714Y-80010000D01*
X134206904Y-79962380D01*
X134087857Y-79510000D02*
X134492619Y-79510000D01*
X134540238Y-79533809D01*
X134564047Y-79557619D01*
X134587857Y-79605238D01*
X134587857Y-79676666D01*
X134564047Y-79724285D01*
X134397380Y-79510000D02*
X134421190Y-79557619D01*
X134421190Y-79652857D01*
X134397380Y-79700476D01*
X134373571Y-79724285D01*
X134325952Y-79748095D01*
X134183095Y-79748095D01*
X134135476Y-79724285D01*
X134111666Y-79700476D01*
X134087857Y-79652857D01*
X134087857Y-79557619D01*
X134111666Y-79510000D01*
X134421190Y-79271904D02*
X133921190Y-79271904D01*
X134421190Y-79057619D02*
X134159285Y-79057619D01*
X134111666Y-79081428D01*
X134087857Y-79129047D01*
X134087857Y-79200476D01*
X134111666Y-79248095D01*
X134135476Y-79271904D01*
X134397380Y-78629047D02*
X134421190Y-78676666D01*
X134421190Y-78771904D01*
X134397380Y-78819523D01*
X134349761Y-78843333D01*
X134159285Y-78843333D01*
X134111666Y-78819523D01*
X134087857Y-78771904D01*
X134087857Y-78676666D01*
X134111666Y-78629047D01*
X134159285Y-78605238D01*
X134206904Y-78605238D01*
X134254523Y-78843333D01*
X134087857Y-78462380D02*
X134087857Y-78271904D01*
X133921190Y-78390952D02*
X134349761Y-78390952D01*
X134397380Y-78367142D01*
X134421190Y-78319523D01*
X134421190Y-78271904D01*
X134087857Y-78176666D02*
X134087857Y-77986190D01*
X133921190Y-78105238D02*
X134349761Y-78105238D01*
X134397380Y-78081428D01*
X134421190Y-78033809D01*
X134421190Y-77986190D01*
X134421190Y-77819523D02*
X134087857Y-77819523D01*
X133921190Y-77819523D02*
X133945000Y-77843333D01*
X133968809Y-77819523D01*
X133945000Y-77795714D01*
X133921190Y-77819523D01*
X133968809Y-77819523D01*
X135271190Y-81379047D02*
X134937857Y-81379047D01*
X134985476Y-81379047D02*
X134961666Y-81355238D01*
X134937857Y-81307619D01*
X134937857Y-81236190D01*
X134961666Y-81188571D01*
X135009285Y-81164761D01*
X135271190Y-81164761D01*
X135009285Y-81164761D02*
X134961666Y-81140952D01*
X134937857Y-81093333D01*
X134937857Y-81021904D01*
X134961666Y-80974285D01*
X135009285Y-80950476D01*
X135271190Y-80950476D01*
X135271190Y-80498095D02*
X135009285Y-80498095D01*
X134961666Y-80521904D01*
X134937857Y-80569523D01*
X134937857Y-80664761D01*
X134961666Y-80712380D01*
X135247380Y-80498095D02*
X135271190Y-80545714D01*
X135271190Y-80664761D01*
X135247380Y-80712380D01*
X135199761Y-80736190D01*
X135152142Y-80736190D01*
X135104523Y-80712380D01*
X135080714Y-80664761D01*
X135080714Y-80545714D01*
X135056904Y-80498095D01*
X135271190Y-80045714D02*
X134771190Y-80045714D01*
X135247380Y-80045714D02*
X135271190Y-80093333D01*
X135271190Y-80188571D01*
X135247380Y-80236190D01*
X135223571Y-80260000D01*
X135175952Y-80283809D01*
X135033095Y-80283809D01*
X134985476Y-80260000D01*
X134961666Y-80236190D01*
X134937857Y-80188571D01*
X134937857Y-80093333D01*
X134961666Y-80045714D01*
X135247380Y-79617142D02*
X135271190Y-79664761D01*
X135271190Y-79760000D01*
X135247380Y-79807619D01*
X135199761Y-79831428D01*
X135009285Y-79831428D01*
X134961666Y-79807619D01*
X134937857Y-79760000D01*
X134937857Y-79664761D01*
X134961666Y-79617142D01*
X135009285Y-79593333D01*
X135056904Y-79593333D01*
X135104523Y-79831428D01*
X135271190Y-78926666D02*
X135247380Y-78974285D01*
X135223571Y-78998095D01*
X135175952Y-79021904D01*
X135033095Y-79021904D01*
X134985476Y-78998095D01*
X134961666Y-78974285D01*
X134937857Y-78926666D01*
X134937857Y-78855238D01*
X134961666Y-78807619D01*
X134985476Y-78783809D01*
X135033095Y-78760000D01*
X135175952Y-78760000D01*
X135223571Y-78783809D01*
X135247380Y-78807619D01*
X135271190Y-78855238D01*
X135271190Y-78926666D01*
X134937857Y-78617142D02*
X134937857Y-78426666D01*
X135271190Y-78545714D02*
X134842619Y-78545714D01*
X134795000Y-78521904D01*
X134771190Y-78474285D01*
X134771190Y-78426666D01*
X135247380Y-77664761D02*
X135271190Y-77712380D01*
X135271190Y-77807619D01*
X135247380Y-77855238D01*
X135223571Y-77879047D01*
X135175952Y-77902857D01*
X135033095Y-77902857D01*
X134985476Y-77879047D01*
X134961666Y-77855238D01*
X134937857Y-77807619D01*
X134937857Y-77712380D01*
X134961666Y-77664761D01*
X135271190Y-77379047D02*
X135247380Y-77426666D01*
X135223571Y-77450476D01*
X135175952Y-77474285D01*
X135033095Y-77474285D01*
X134985476Y-77450476D01*
X134961666Y-77426666D01*
X134937857Y-77379047D01*
X134937857Y-77307619D01*
X134961666Y-77260000D01*
X134985476Y-77236190D01*
X135033095Y-77212380D01*
X135175952Y-77212380D01*
X135223571Y-77236190D01*
X135247380Y-77260000D01*
X135271190Y-77307619D01*
X135271190Y-77379047D01*
X135271190Y-76783809D02*
X134771190Y-76783809D01*
X135247380Y-76783809D02*
X135271190Y-76831428D01*
X135271190Y-76926666D01*
X135247380Y-76974285D01*
X135223571Y-76998095D01*
X135175952Y-77021904D01*
X135033095Y-77021904D01*
X134985476Y-76998095D01*
X134961666Y-76974285D01*
X134937857Y-76926666D01*
X134937857Y-76831428D01*
X134961666Y-76783809D01*
X135247380Y-76355238D02*
X135271190Y-76402857D01*
X135271190Y-76498095D01*
X135247380Y-76545714D01*
X135199761Y-76569523D01*
X135009285Y-76569523D01*
X134961666Y-76545714D01*
X134937857Y-76498095D01*
X134937857Y-76402857D01*
X134961666Y-76355238D01*
X135009285Y-76331428D01*
X135056904Y-76331428D01*
X135104523Y-76569523D01*
X113132857Y-82652857D02*
X113132857Y-82462380D01*
X112966190Y-82581428D02*
X113394761Y-82581428D01*
X113442380Y-82557619D01*
X113466190Y-82510000D01*
X113466190Y-82462380D01*
X113466190Y-82295714D02*
X112966190Y-82295714D01*
X113466190Y-82081428D02*
X113204285Y-82081428D01*
X113156666Y-82105238D01*
X113132857Y-82152857D01*
X113132857Y-82224285D01*
X113156666Y-82271904D01*
X113180476Y-82295714D01*
X113442380Y-81652857D02*
X113466190Y-81700476D01*
X113466190Y-81795714D01*
X113442380Y-81843333D01*
X113394761Y-81867142D01*
X113204285Y-81867142D01*
X113156666Y-81843333D01*
X113132857Y-81795714D01*
X113132857Y-81700476D01*
X113156666Y-81652857D01*
X113204285Y-81629047D01*
X113251904Y-81629047D01*
X113299523Y-81867142D01*
X113442380Y-81057619D02*
X113466190Y-81010000D01*
X113466190Y-80914761D01*
X113442380Y-80867142D01*
X113394761Y-80843333D01*
X113370952Y-80843333D01*
X113323333Y-80867142D01*
X113299523Y-80914761D01*
X113299523Y-80986190D01*
X113275714Y-81033809D01*
X113228095Y-81057619D01*
X113204285Y-81057619D01*
X113156666Y-81033809D01*
X113132857Y-80986190D01*
X113132857Y-80914761D01*
X113156666Y-80867142D01*
X113132857Y-80629047D02*
X113632857Y-80629047D01*
X113156666Y-80629047D02*
X113132857Y-80581428D01*
X113132857Y-80486190D01*
X113156666Y-80438571D01*
X113180476Y-80414761D01*
X113228095Y-80390952D01*
X113370952Y-80390952D01*
X113418571Y-80414761D01*
X113442380Y-80438571D01*
X113466190Y-80486190D01*
X113466190Y-80581428D01*
X113442380Y-80629047D01*
X113466190Y-79962380D02*
X113204285Y-79962380D01*
X113156666Y-79986190D01*
X113132857Y-80033809D01*
X113132857Y-80129047D01*
X113156666Y-80176666D01*
X113442380Y-79962380D02*
X113466190Y-80010000D01*
X113466190Y-80129047D01*
X113442380Y-80176666D01*
X113394761Y-80200476D01*
X113347142Y-80200476D01*
X113299523Y-80176666D01*
X113275714Y-80129047D01*
X113275714Y-80010000D01*
X113251904Y-79962380D01*
X113132857Y-79510000D02*
X113537619Y-79510000D01*
X113585238Y-79533809D01*
X113609047Y-79557619D01*
X113632857Y-79605238D01*
X113632857Y-79676666D01*
X113609047Y-79724285D01*
X113442380Y-79510000D02*
X113466190Y-79557619D01*
X113466190Y-79652857D01*
X113442380Y-79700476D01*
X113418571Y-79724285D01*
X113370952Y-79748095D01*
X113228095Y-79748095D01*
X113180476Y-79724285D01*
X113156666Y-79700476D01*
X113132857Y-79652857D01*
X113132857Y-79557619D01*
X113156666Y-79510000D01*
X113466190Y-79271904D02*
X112966190Y-79271904D01*
X113466190Y-79057619D02*
X113204285Y-79057619D01*
X113156666Y-79081428D01*
X113132857Y-79129047D01*
X113132857Y-79200476D01*
X113156666Y-79248095D01*
X113180476Y-79271904D01*
X113442380Y-78629047D02*
X113466190Y-78676666D01*
X113466190Y-78771904D01*
X113442380Y-78819523D01*
X113394761Y-78843333D01*
X113204285Y-78843333D01*
X113156666Y-78819523D01*
X113132857Y-78771904D01*
X113132857Y-78676666D01*
X113156666Y-78629047D01*
X113204285Y-78605238D01*
X113251904Y-78605238D01*
X113299523Y-78843333D01*
X113132857Y-78462380D02*
X113132857Y-78271904D01*
X112966190Y-78390952D02*
X113394761Y-78390952D01*
X113442380Y-78367142D01*
X113466190Y-78319523D01*
X113466190Y-78271904D01*
X113132857Y-78176666D02*
X113132857Y-77986190D01*
X112966190Y-78105238D02*
X113394761Y-78105238D01*
X113442380Y-78081428D01*
X113466190Y-78033809D01*
X113466190Y-77986190D01*
X113466190Y-77819523D02*
X113132857Y-77819523D01*
X112966190Y-77819523D02*
X112990000Y-77843333D01*
X113013809Y-77819523D01*
X112990000Y-77795714D01*
X112966190Y-77819523D01*
X113013809Y-77819523D01*
X114316190Y-81379047D02*
X113982857Y-81379047D01*
X114030476Y-81379047D02*
X114006666Y-81355238D01*
X113982857Y-81307619D01*
X113982857Y-81236190D01*
X114006666Y-81188571D01*
X114054285Y-81164761D01*
X114316190Y-81164761D01*
X114054285Y-81164761D02*
X114006666Y-81140952D01*
X113982857Y-81093333D01*
X113982857Y-81021904D01*
X114006666Y-80974285D01*
X114054285Y-80950476D01*
X114316190Y-80950476D01*
X114316190Y-80498095D02*
X114054285Y-80498095D01*
X114006666Y-80521904D01*
X113982857Y-80569523D01*
X113982857Y-80664761D01*
X114006666Y-80712380D01*
X114292380Y-80498095D02*
X114316190Y-80545714D01*
X114316190Y-80664761D01*
X114292380Y-80712380D01*
X114244761Y-80736190D01*
X114197142Y-80736190D01*
X114149523Y-80712380D01*
X114125714Y-80664761D01*
X114125714Y-80545714D01*
X114101904Y-80498095D01*
X114316190Y-80045714D02*
X113816190Y-80045714D01*
X114292380Y-80045714D02*
X114316190Y-80093333D01*
X114316190Y-80188571D01*
X114292380Y-80236190D01*
X114268571Y-80260000D01*
X114220952Y-80283809D01*
X114078095Y-80283809D01*
X114030476Y-80260000D01*
X114006666Y-80236190D01*
X113982857Y-80188571D01*
X113982857Y-80093333D01*
X114006666Y-80045714D01*
X114292380Y-79617142D02*
X114316190Y-79664761D01*
X114316190Y-79760000D01*
X114292380Y-79807619D01*
X114244761Y-79831428D01*
X114054285Y-79831428D01*
X114006666Y-79807619D01*
X113982857Y-79760000D01*
X113982857Y-79664761D01*
X114006666Y-79617142D01*
X114054285Y-79593333D01*
X114101904Y-79593333D01*
X114149523Y-79831428D01*
X114316190Y-78926666D02*
X114292380Y-78974285D01*
X114268571Y-78998095D01*
X114220952Y-79021904D01*
X114078095Y-79021904D01*
X114030476Y-78998095D01*
X114006666Y-78974285D01*
X113982857Y-78926666D01*
X113982857Y-78855238D01*
X114006666Y-78807619D01*
X114030476Y-78783809D01*
X114078095Y-78760000D01*
X114220952Y-78760000D01*
X114268571Y-78783809D01*
X114292380Y-78807619D01*
X114316190Y-78855238D01*
X114316190Y-78926666D01*
X113982857Y-78617142D02*
X113982857Y-78426666D01*
X114316190Y-78545714D02*
X113887619Y-78545714D01*
X113840000Y-78521904D01*
X113816190Y-78474285D01*
X113816190Y-78426666D01*
X114292380Y-77664761D02*
X114316190Y-77712380D01*
X114316190Y-77807619D01*
X114292380Y-77855238D01*
X114268571Y-77879047D01*
X114220952Y-77902857D01*
X114078095Y-77902857D01*
X114030476Y-77879047D01*
X114006666Y-77855238D01*
X113982857Y-77807619D01*
X113982857Y-77712380D01*
X114006666Y-77664761D01*
X114316190Y-77379047D02*
X114292380Y-77426666D01*
X114268571Y-77450476D01*
X114220952Y-77474285D01*
X114078095Y-77474285D01*
X114030476Y-77450476D01*
X114006666Y-77426666D01*
X113982857Y-77379047D01*
X113982857Y-77307619D01*
X114006666Y-77260000D01*
X114030476Y-77236190D01*
X114078095Y-77212380D01*
X114220952Y-77212380D01*
X114268571Y-77236190D01*
X114292380Y-77260000D01*
X114316190Y-77307619D01*
X114316190Y-77379047D01*
X114316190Y-76783809D02*
X113816190Y-76783809D01*
X114292380Y-76783809D02*
X114316190Y-76831428D01*
X114316190Y-76926666D01*
X114292380Y-76974285D01*
X114268571Y-76998095D01*
X114220952Y-77021904D01*
X114078095Y-77021904D01*
X114030476Y-76998095D01*
X114006666Y-76974285D01*
X113982857Y-76926666D01*
X113982857Y-76831428D01*
X114006666Y-76783809D01*
X114292380Y-76355238D02*
X114316190Y-76402857D01*
X114316190Y-76498095D01*
X114292380Y-76545714D01*
X114244761Y-76569523D01*
X114054285Y-76569523D01*
X114006666Y-76545714D01*
X113982857Y-76498095D01*
X113982857Y-76402857D01*
X114006666Y-76355238D01*
X114054285Y-76331428D01*
X114101904Y-76331428D01*
X114149523Y-76569523D01*
D12*
X133393571Y-116720714D02*
X131893571Y-116720714D01*
X133393571Y-115863571D01*
X131893571Y-115863571D01*
X131893571Y-114863571D02*
X131893571Y-114577857D01*
X131965000Y-114435000D01*
X132107857Y-114292142D01*
X132393571Y-114220714D01*
X132893571Y-114220714D01*
X133179285Y-114292142D01*
X133322142Y-114435000D01*
X133393571Y-114577857D01*
X133393571Y-114863571D01*
X133322142Y-115006428D01*
X133179285Y-115149285D01*
X132893571Y-115220714D01*
X132393571Y-115220714D01*
X132107857Y-115149285D01*
X131965000Y-115006428D01*
X131893571Y-114863571D01*
X131893571Y-113792142D02*
X131893571Y-112935000D01*
X133393571Y-113363571D02*
X131893571Y-113363571D01*
X112438571Y-116720714D02*
X110938571Y-116720714D01*
X112438571Y-115863571D01*
X110938571Y-115863571D01*
X110938571Y-114863571D02*
X110938571Y-114577857D01*
X111010000Y-114435000D01*
X111152857Y-114292142D01*
X111438571Y-114220714D01*
X111938571Y-114220714D01*
X112224285Y-114292142D01*
X112367142Y-114435000D01*
X112438571Y-114577857D01*
X112438571Y-114863571D01*
X112367142Y-115006428D01*
X112224285Y-115149285D01*
X111938571Y-115220714D01*
X111438571Y-115220714D01*
X111152857Y-115149285D01*
X111010000Y-115006428D01*
X110938571Y-114863571D01*
X110938571Y-113792142D02*
X110938571Y-112935000D01*
X112438571Y-113363571D02*
X110938571Y-113363571D01*
X91483571Y-116720714D02*
X89983571Y-116720714D01*
X91483571Y-115863571D01*
X89983571Y-115863571D01*
X89983571Y-114863571D02*
X89983571Y-114577857D01*
X90055000Y-114435000D01*
X90197857Y-114292142D01*
X90483571Y-114220714D01*
X90983571Y-114220714D01*
X91269285Y-114292142D01*
X91412142Y-114435000D01*
X91483571Y-114577857D01*
X91483571Y-114863571D01*
X91412142Y-115006428D01*
X91269285Y-115149285D01*
X90983571Y-115220714D01*
X90483571Y-115220714D01*
X90197857Y-115149285D01*
X90055000Y-115006428D01*
X89983571Y-114863571D01*
X89983571Y-113792142D02*
X89983571Y-112935000D01*
X91483571Y-113363571D02*
X89983571Y-113363571D01*
X133393571Y-98940714D02*
X131893571Y-98940714D01*
X133393571Y-98083571D01*
X131893571Y-98083571D01*
X131893571Y-97083571D02*
X131893571Y-96797857D01*
X131965000Y-96655000D01*
X132107857Y-96512142D01*
X132393571Y-96440714D01*
X132893571Y-96440714D01*
X133179285Y-96512142D01*
X133322142Y-96655000D01*
X133393571Y-96797857D01*
X133393571Y-97083571D01*
X133322142Y-97226428D01*
X133179285Y-97369285D01*
X132893571Y-97440714D01*
X132393571Y-97440714D01*
X132107857Y-97369285D01*
X131965000Y-97226428D01*
X131893571Y-97083571D01*
X131893571Y-96012142D02*
X131893571Y-95155000D01*
X133393571Y-95583571D02*
X131893571Y-95583571D01*
X112438571Y-98940714D02*
X110938571Y-98940714D01*
X112438571Y-98083571D01*
X110938571Y-98083571D01*
X110938571Y-97083571D02*
X110938571Y-96797857D01*
X111010000Y-96655000D01*
X111152857Y-96512142D01*
X111438571Y-96440714D01*
X111938571Y-96440714D01*
X112224285Y-96512142D01*
X112367142Y-96655000D01*
X112438571Y-96797857D01*
X112438571Y-97083571D01*
X112367142Y-97226428D01*
X112224285Y-97369285D01*
X111938571Y-97440714D01*
X111438571Y-97440714D01*
X111152857Y-97369285D01*
X111010000Y-97226428D01*
X110938571Y-97083571D01*
X110938571Y-96012142D02*
X110938571Y-95155000D01*
X112438571Y-95583571D02*
X110938571Y-95583571D01*
X91483571Y-98940714D02*
X89983571Y-98940714D01*
X91483571Y-98083571D01*
X89983571Y-98083571D01*
X89983571Y-97083571D02*
X89983571Y-96797857D01*
X90055000Y-96655000D01*
X90197857Y-96512142D01*
X90483571Y-96440714D01*
X90983571Y-96440714D01*
X91269285Y-96512142D01*
X91412142Y-96655000D01*
X91483571Y-96797857D01*
X91483571Y-97083571D01*
X91412142Y-97226428D01*
X91269285Y-97369285D01*
X90983571Y-97440714D01*
X90483571Y-97440714D01*
X90197857Y-97369285D01*
X90055000Y-97226428D01*
X89983571Y-97083571D01*
X89983571Y-96012142D02*
X89983571Y-95155000D01*
X91483571Y-95583571D02*
X89983571Y-95583571D01*
X133393571Y-81160714D02*
X131893571Y-81160714D01*
X133393571Y-80303571D01*
X131893571Y-80303571D01*
X131893571Y-79303571D02*
X131893571Y-79017857D01*
X131965000Y-78875000D01*
X132107857Y-78732142D01*
X132393571Y-78660714D01*
X132893571Y-78660714D01*
X133179285Y-78732142D01*
X133322142Y-78875000D01*
X133393571Y-79017857D01*
X133393571Y-79303571D01*
X133322142Y-79446428D01*
X133179285Y-79589285D01*
X132893571Y-79660714D01*
X132393571Y-79660714D01*
X132107857Y-79589285D01*
X131965000Y-79446428D01*
X131893571Y-79303571D01*
X131893571Y-78232142D02*
X131893571Y-77375000D01*
X133393571Y-77803571D02*
X131893571Y-77803571D01*
X112438571Y-81160714D02*
X110938571Y-81160714D01*
X112438571Y-80303571D01*
X110938571Y-80303571D01*
X110938571Y-79303571D02*
X110938571Y-79017857D01*
X111010000Y-78875000D01*
X111152857Y-78732142D01*
X111438571Y-78660714D01*
X111938571Y-78660714D01*
X112224285Y-78732142D01*
X112367142Y-78875000D01*
X112438571Y-79017857D01*
X112438571Y-79303571D01*
X112367142Y-79446428D01*
X112224285Y-79589285D01*
X111938571Y-79660714D01*
X111438571Y-79660714D01*
X111152857Y-79589285D01*
X111010000Y-79446428D01*
X110938571Y-79303571D01*
X110938571Y-78232142D02*
X110938571Y-77375000D01*
X112438571Y-77803571D02*
X110938571Y-77803571D01*
D10*
X132334047Y-121356428D02*
X133095952Y-121356428D01*
X132715000Y-121737380D02*
X132715000Y-120975476D01*
X111379047Y-121356428D02*
X112140952Y-121356428D01*
X111760000Y-121737380D02*
X111760000Y-120975476D01*
X90424047Y-121356428D02*
X91185952Y-121356428D01*
X90805000Y-121737380D02*
X90805000Y-120975476D01*
X132334047Y-103576428D02*
X133095952Y-103576428D01*
X132715000Y-103957380D02*
X132715000Y-103195476D01*
X111379047Y-103576428D02*
X112140952Y-103576428D01*
X111760000Y-103957380D02*
X111760000Y-103195476D01*
X90424047Y-103576428D02*
X91185952Y-103576428D01*
X90805000Y-103957380D02*
X90805000Y-103195476D01*
X132334047Y-85796428D02*
X133095952Y-85796428D01*
X132715000Y-86177380D02*
X132715000Y-85415476D01*
X111379047Y-85796428D02*
X112140952Y-85796428D01*
X111760000Y-86177380D02*
X111760000Y-85415476D01*
X132334047Y-118816428D02*
X133095952Y-118816428D01*
X111379047Y-118816428D02*
X112140952Y-118816428D01*
X90424047Y-118816428D02*
X91185952Y-118816428D01*
X132334047Y-101036428D02*
X133095952Y-101036428D01*
X111379047Y-101036428D02*
X112140952Y-101036428D01*
X90424047Y-101036428D02*
X91185952Y-101036428D01*
X132334047Y-83256428D02*
X133095952Y-83256428D01*
X111379047Y-83256428D02*
X112140952Y-83256428D01*
D11*
X92177857Y-82652857D02*
X92177857Y-82462380D01*
X92011190Y-82581428D02*
X92439761Y-82581428D01*
X92487380Y-82557619D01*
X92511190Y-82510000D01*
X92511190Y-82462380D01*
X92511190Y-82295714D02*
X92011190Y-82295714D01*
X92511190Y-82081428D02*
X92249285Y-82081428D01*
X92201666Y-82105238D01*
X92177857Y-82152857D01*
X92177857Y-82224285D01*
X92201666Y-82271904D01*
X92225476Y-82295714D01*
X92487380Y-81652857D02*
X92511190Y-81700476D01*
X92511190Y-81795714D01*
X92487380Y-81843333D01*
X92439761Y-81867142D01*
X92249285Y-81867142D01*
X92201666Y-81843333D01*
X92177857Y-81795714D01*
X92177857Y-81700476D01*
X92201666Y-81652857D01*
X92249285Y-81629047D01*
X92296904Y-81629047D01*
X92344523Y-81867142D01*
X92487380Y-81057619D02*
X92511190Y-81010000D01*
X92511190Y-80914761D01*
X92487380Y-80867142D01*
X92439761Y-80843333D01*
X92415952Y-80843333D01*
X92368333Y-80867142D01*
X92344523Y-80914761D01*
X92344523Y-80986190D01*
X92320714Y-81033809D01*
X92273095Y-81057619D01*
X92249285Y-81057619D01*
X92201666Y-81033809D01*
X92177857Y-80986190D01*
X92177857Y-80914761D01*
X92201666Y-80867142D01*
X92177857Y-80629047D02*
X92677857Y-80629047D01*
X92201666Y-80629047D02*
X92177857Y-80581428D01*
X92177857Y-80486190D01*
X92201666Y-80438571D01*
X92225476Y-80414761D01*
X92273095Y-80390952D01*
X92415952Y-80390952D01*
X92463571Y-80414761D01*
X92487380Y-80438571D01*
X92511190Y-80486190D01*
X92511190Y-80581428D01*
X92487380Y-80629047D01*
X92511190Y-79962380D02*
X92249285Y-79962380D01*
X92201666Y-79986190D01*
X92177857Y-80033809D01*
X92177857Y-80129047D01*
X92201666Y-80176666D01*
X92487380Y-79962380D02*
X92511190Y-80010000D01*
X92511190Y-80129047D01*
X92487380Y-80176666D01*
X92439761Y-80200476D01*
X92392142Y-80200476D01*
X92344523Y-80176666D01*
X92320714Y-80129047D01*
X92320714Y-80010000D01*
X92296904Y-79962380D01*
X92177857Y-79510000D02*
X92582619Y-79510000D01*
X92630238Y-79533809D01*
X92654047Y-79557619D01*
X92677857Y-79605238D01*
X92677857Y-79676666D01*
X92654047Y-79724285D01*
X92487380Y-79510000D02*
X92511190Y-79557619D01*
X92511190Y-79652857D01*
X92487380Y-79700476D01*
X92463571Y-79724285D01*
X92415952Y-79748095D01*
X92273095Y-79748095D01*
X92225476Y-79724285D01*
X92201666Y-79700476D01*
X92177857Y-79652857D01*
X92177857Y-79557619D01*
X92201666Y-79510000D01*
X92511190Y-79271904D02*
X92011190Y-79271904D01*
X92511190Y-79057619D02*
X92249285Y-79057619D01*
X92201666Y-79081428D01*
X92177857Y-79129047D01*
X92177857Y-79200476D01*
X92201666Y-79248095D01*
X92225476Y-79271904D01*
X92487380Y-78629047D02*
X92511190Y-78676666D01*
X92511190Y-78771904D01*
X92487380Y-78819523D01*
X92439761Y-78843333D01*
X92249285Y-78843333D01*
X92201666Y-78819523D01*
X92177857Y-78771904D01*
X92177857Y-78676666D01*
X92201666Y-78629047D01*
X92249285Y-78605238D01*
X92296904Y-78605238D01*
X92344523Y-78843333D01*
X92177857Y-78462380D02*
X92177857Y-78271904D01*
X92011190Y-78390952D02*
X92439761Y-78390952D01*
X92487380Y-78367142D01*
X92511190Y-78319523D01*
X92511190Y-78271904D01*
X92177857Y-78176666D02*
X92177857Y-77986190D01*
X92011190Y-78105238D02*
X92439761Y-78105238D01*
X92487380Y-78081428D01*
X92511190Y-78033809D01*
X92511190Y-77986190D01*
X92511190Y-77819523D02*
X92177857Y-77819523D01*
X92011190Y-77819523D02*
X92035000Y-77843333D01*
X92058809Y-77819523D01*
X92035000Y-77795714D01*
X92011190Y-77819523D01*
X92058809Y-77819523D01*
X93361190Y-81379047D02*
X93027857Y-81379047D01*
X93075476Y-81379047D02*
X93051666Y-81355238D01*
X93027857Y-81307619D01*
X93027857Y-81236190D01*
X93051666Y-81188571D01*
X93099285Y-81164761D01*
X93361190Y-81164761D01*
X93099285Y-81164761D02*
X93051666Y-81140952D01*
X93027857Y-81093333D01*
X93027857Y-81021904D01*
X93051666Y-80974285D01*
X93099285Y-80950476D01*
X93361190Y-80950476D01*
X93361190Y-80498095D02*
X93099285Y-80498095D01*
X93051666Y-80521904D01*
X93027857Y-80569523D01*
X93027857Y-80664761D01*
X93051666Y-80712380D01*
X93337380Y-80498095D02*
X93361190Y-80545714D01*
X93361190Y-80664761D01*
X93337380Y-80712380D01*
X93289761Y-80736190D01*
X93242142Y-80736190D01*
X93194523Y-80712380D01*
X93170714Y-80664761D01*
X93170714Y-80545714D01*
X93146904Y-80498095D01*
X93361190Y-80045714D02*
X92861190Y-80045714D01*
X93337380Y-80045714D02*
X93361190Y-80093333D01*
X93361190Y-80188571D01*
X93337380Y-80236190D01*
X93313571Y-80260000D01*
X93265952Y-80283809D01*
X93123095Y-80283809D01*
X93075476Y-80260000D01*
X93051666Y-80236190D01*
X93027857Y-80188571D01*
X93027857Y-80093333D01*
X93051666Y-80045714D01*
X93337380Y-79617142D02*
X93361190Y-79664761D01*
X93361190Y-79760000D01*
X93337380Y-79807619D01*
X93289761Y-79831428D01*
X93099285Y-79831428D01*
X93051666Y-79807619D01*
X93027857Y-79760000D01*
X93027857Y-79664761D01*
X93051666Y-79617142D01*
X93099285Y-79593333D01*
X93146904Y-79593333D01*
X93194523Y-79831428D01*
X93361190Y-78926666D02*
X93337380Y-78974285D01*
X93313571Y-78998095D01*
X93265952Y-79021904D01*
X93123095Y-79021904D01*
X93075476Y-78998095D01*
X93051666Y-78974285D01*
X93027857Y-78926666D01*
X93027857Y-78855238D01*
X93051666Y-78807619D01*
X93075476Y-78783809D01*
X93123095Y-78760000D01*
X93265952Y-78760000D01*
X93313571Y-78783809D01*
X93337380Y-78807619D01*
X93361190Y-78855238D01*
X93361190Y-78926666D01*
X93027857Y-78617142D02*
X93027857Y-78426666D01*
X93361190Y-78545714D02*
X92932619Y-78545714D01*
X92885000Y-78521904D01*
X92861190Y-78474285D01*
X92861190Y-78426666D01*
X93337380Y-77664761D02*
X93361190Y-77712380D01*
X93361190Y-77807619D01*
X93337380Y-77855238D01*
X93313571Y-77879047D01*
X93265952Y-77902857D01*
X93123095Y-77902857D01*
X93075476Y-77879047D01*
X93051666Y-77855238D01*
X93027857Y-77807619D01*
X93027857Y-77712380D01*
X93051666Y-77664761D01*
X93361190Y-77379047D02*
X93337380Y-77426666D01*
X93313571Y-77450476D01*
X93265952Y-77474285D01*
X93123095Y-77474285D01*
X93075476Y-77450476D01*
X93051666Y-77426666D01*
X93027857Y-77379047D01*
X93027857Y-77307619D01*
X93051666Y-77260000D01*
X93075476Y-77236190D01*
X93123095Y-77212380D01*
X93265952Y-77212380D01*
X93313571Y-77236190D01*
X93337380Y-77260000D01*
X93361190Y-77307619D01*
X93361190Y-77379047D01*
X93361190Y-76783809D02*
X92861190Y-76783809D01*
X93337380Y-76783809D02*
X93361190Y-76831428D01*
X93361190Y-76926666D01*
X93337380Y-76974285D01*
X93313571Y-76998095D01*
X93265952Y-77021904D01*
X93123095Y-77021904D01*
X93075476Y-76998095D01*
X93051666Y-76974285D01*
X93027857Y-76926666D01*
X93027857Y-76831428D01*
X93051666Y-76783809D01*
X93337380Y-76355238D02*
X93361190Y-76402857D01*
X93361190Y-76498095D01*
X93337380Y-76545714D01*
X93289761Y-76569523D01*
X93099285Y-76569523D01*
X93051666Y-76545714D01*
X93027857Y-76498095D01*
X93027857Y-76402857D01*
X93051666Y-76355238D01*
X93099285Y-76331428D01*
X93146904Y-76331428D01*
X93194523Y-76569523D01*
D12*
X91483571Y-81160714D02*
X89983571Y-81160714D01*
X91483571Y-80303571D01*
X89983571Y-80303571D01*
X89983571Y-79303571D02*
X89983571Y-79017857D01*
X90055000Y-78875000D01*
X90197857Y-78732142D01*
X90483571Y-78660714D01*
X90983571Y-78660714D01*
X91269285Y-78732142D01*
X91412142Y-78875000D01*
X91483571Y-79017857D01*
X91483571Y-79303571D01*
X91412142Y-79446428D01*
X91269285Y-79589285D01*
X90983571Y-79660714D01*
X90483571Y-79660714D01*
X90197857Y-79589285D01*
X90055000Y-79446428D01*
X89983571Y-79303571D01*
X89983571Y-78232142D02*
X89983571Y-77375000D01*
X91483571Y-77803571D02*
X89983571Y-77803571D01*
D10*
X90424047Y-85796428D02*
X91185952Y-85796428D01*
X90805000Y-86177380D02*
X90805000Y-85415476D01*
X90424047Y-83256428D02*
X91185952Y-83256428D01*
X88535000Y-75017380D02*
X88725476Y-75017380D01*
X88820714Y-75065000D01*
X88915952Y-75160238D01*
X88963571Y-75350714D01*
X88963571Y-75684047D01*
X88915952Y-75874523D01*
X88820714Y-75969761D01*
X88725476Y-76017380D01*
X88535000Y-76017380D01*
X88439761Y-75969761D01*
X88344523Y-75874523D01*
X88296904Y-75684047D01*
X88296904Y-75350714D01*
X88344523Y-75160238D01*
X88439761Y-75065000D01*
X88535000Y-75017380D01*
X89392142Y-75017380D02*
X89392142Y-75826904D01*
X89439761Y-75922142D01*
X89487380Y-75969761D01*
X89582619Y-76017380D01*
X89773095Y-76017380D01*
X89868333Y-75969761D01*
X89915952Y-75922142D01*
X89963571Y-75826904D01*
X89963571Y-75017380D01*
X90296904Y-75017380D02*
X90868333Y-75017380D01*
X90582619Y-76017380D02*
X90582619Y-75017380D01*
X75088809Y-76017380D02*
X75088809Y-75017380D01*
X75755476Y-75017380D02*
X75850714Y-75017380D01*
X75945952Y-75065000D01*
X75993571Y-75112619D01*
X76041190Y-75207857D01*
X76088809Y-75398333D01*
X76088809Y-75636428D01*
X76041190Y-75826904D01*
X75993571Y-75922142D01*
X75945952Y-75969761D01*
X75850714Y-76017380D01*
X75755476Y-76017380D01*
X75660238Y-75969761D01*
X75612619Y-75922142D01*
X75565000Y-75826904D01*
X75517380Y-75636428D01*
X75517380Y-75398333D01*
X75565000Y-75207857D01*
X75612619Y-75112619D01*
X75660238Y-75065000D01*
X75755476Y-75017380D01*
X75874523Y-77192142D02*
X75826904Y-77239761D01*
X75684047Y-77287380D01*
X75588809Y-77287380D01*
X75445952Y-77239761D01*
X75350714Y-77144523D01*
X75303095Y-77049285D01*
X75255476Y-76858809D01*
X75255476Y-76715952D01*
X75303095Y-76525476D01*
X75350714Y-76430238D01*
X75445952Y-76335000D01*
X75588809Y-76287380D01*
X75684047Y-76287380D01*
X75826904Y-76335000D01*
X75874523Y-76382619D01*
D13*
X118745000Y-123190000D02*
X118745000Y-106680000D01*
X128905000Y-123190000D02*
X118745000Y-123190000D01*
X128905000Y-106680000D02*
X128905000Y-123190000D01*
X118745000Y-106680000D02*
X128905000Y-106680000D01*
X97790000Y-123190000D02*
X97790000Y-106680000D01*
X107950000Y-123190000D02*
X97790000Y-123190000D01*
X107950000Y-106680000D02*
X107950000Y-123190000D01*
X97790000Y-106680000D02*
X107950000Y-106680000D01*
X76835000Y-123190000D02*
X76835000Y-106680000D01*
X86995000Y-123190000D02*
X76835000Y-123190000D01*
X86995000Y-106680000D02*
X86995000Y-123190000D01*
X76835000Y-106680000D02*
X86995000Y-106680000D01*
X118745000Y-105410000D02*
X118745000Y-88900000D01*
X128905000Y-105410000D02*
X118745000Y-105410000D01*
X128905000Y-88900000D02*
X128905000Y-105410000D01*
X118745000Y-88900000D02*
X128905000Y-88900000D01*
X97790000Y-105410000D02*
X97790000Y-88900000D01*
X107950000Y-105410000D02*
X97790000Y-105410000D01*
X107950000Y-88900000D02*
X107950000Y-105410000D01*
X97790000Y-88900000D02*
X107950000Y-88900000D01*
X76835000Y-105410000D02*
X76835000Y-88900000D01*
X86995000Y-105410000D02*
X76835000Y-105410000D01*
X86995000Y-88900000D02*
X86995000Y-105410000D01*
X76835000Y-88900000D02*
X86995000Y-88900000D01*
X118745000Y-87630000D02*
X118745000Y-71120000D01*
X128905000Y-87630000D02*
X118745000Y-87630000D01*
X128905000Y-71120000D02*
X128905000Y-87630000D01*
X118745000Y-71120000D02*
X128905000Y-71120000D01*
X97790000Y-87630000D02*
X97790000Y-71120000D01*
X107950000Y-87630000D02*
X97790000Y-87630000D01*
X107950000Y-71120000D02*
X107950000Y-87630000D01*
X97790000Y-71120000D02*
X107950000Y-71120000D01*
X116713000Y-116967000D02*
X116713000Y-112903000D01*
X116713000Y-112903000D02*
X118237000Y-112903000D01*
X118237000Y-112903000D02*
X118237000Y-116967000D01*
X118237000Y-116967000D02*
X116713000Y-116967000D01*
X95758000Y-116967000D02*
X95758000Y-112903000D01*
X95758000Y-112903000D02*
X97282000Y-112903000D01*
X97282000Y-112903000D02*
X97282000Y-116967000D01*
X97282000Y-116967000D02*
X95758000Y-116967000D01*
X74803000Y-116967000D02*
X74803000Y-112903000D01*
X74803000Y-112903000D02*
X76327000Y-112903000D01*
X76327000Y-112903000D02*
X76327000Y-116967000D01*
X76327000Y-116967000D02*
X74803000Y-116967000D01*
X116713000Y-99187000D02*
X116713000Y-95123000D01*
X116713000Y-95123000D02*
X118237000Y-95123000D01*
X118237000Y-95123000D02*
X118237000Y-99187000D01*
X118237000Y-99187000D02*
X116713000Y-99187000D01*
X95758000Y-99187000D02*
X95758000Y-95123000D01*
X95758000Y-95123000D02*
X97282000Y-95123000D01*
X97282000Y-95123000D02*
X97282000Y-99187000D01*
X97282000Y-99187000D02*
X95758000Y-99187000D01*
X74803000Y-99187000D02*
X74803000Y-95123000D01*
X74803000Y-95123000D02*
X76327000Y-95123000D01*
X76327000Y-95123000D02*
X76327000Y-99187000D01*
X76327000Y-99187000D02*
X74803000Y-99187000D01*
X116713000Y-81407000D02*
X116713000Y-77343000D01*
X116713000Y-77343000D02*
X118237000Y-77343000D01*
X118237000Y-77343000D02*
X118237000Y-81407000D01*
X118237000Y-81407000D02*
X116713000Y-81407000D01*
X95758000Y-81407000D02*
X95758000Y-77343000D01*
X95758000Y-77343000D02*
X97282000Y-77343000D01*
X97282000Y-77343000D02*
X97282000Y-81407000D01*
X97282000Y-81407000D02*
X95758000Y-81407000D01*
X76327000Y-81407000D02*
X74803000Y-81407000D01*
X76327000Y-77343000D02*
X76327000Y-81407000D01*
X74803000Y-77343000D02*
X76327000Y-77343000D01*
X74803000Y-81407000D02*
X74803000Y-77343000D01*
X76835000Y-71120000D02*
X86995000Y-71120000D01*
X86995000Y-71120000D02*
X86995000Y-87630000D01*
X86995000Y-87630000D02*
X76835000Y-87630000D01*
X76835000Y-87630000D02*
X76835000Y-71120000D01*
M02*
