G04 #@! TF.GenerationSoftware,KiCad,Pcbnew,(5.1.6)-1*
G04 #@! TF.CreationDate,2020-06-25T08:25:07+09:00*
G04 #@! TF.ProjectId,NOT___,4e4f5462-d851-42e6-9b69-6361645f7063,rev?*
G04 #@! TF.SameCoordinates,Original*
G04 #@! TF.FileFunction,Legend,Bot*
G04 #@! TF.FilePolarity,Positive*
%FSLAX46Y46*%
G04 Gerber Fmt 4.6, Leading zero omitted, Abs format (unit mm)*
G04 Created by KiCad (PCBNEW (5.1.6)-1) date 2020-06-25 08:25:07*
%MOMM*%
%LPD*%
G01*
G04 APERTURE LIST*
%ADD10C,0.150000*%
%ADD11C,0.120000*%
G04 APERTURE END LIST*
D10*
X28059047Y-72882619D02*
X28106666Y-72787380D01*
X28154285Y-72739761D01*
X28249523Y-72692142D01*
X28297142Y-72692142D01*
X28392380Y-72739761D01*
X28440000Y-72787380D01*
X28487619Y-72882619D01*
X28487619Y-73073095D01*
X28440000Y-73168333D01*
X28392380Y-73215952D01*
X28297142Y-73263571D01*
X28249523Y-73263571D01*
X28154285Y-73215952D01*
X28106666Y-73168333D01*
X28059047Y-73073095D01*
X28059047Y-72882619D01*
X28011428Y-72787380D01*
X27963809Y-72739761D01*
X27868571Y-72692142D01*
X27678095Y-72692142D01*
X27582857Y-72739761D01*
X27535238Y-72787380D01*
X27487619Y-72882619D01*
X27487619Y-73073095D01*
X27535238Y-73168333D01*
X27582857Y-73215952D01*
X27678095Y-73263571D01*
X27868571Y-73263571D01*
X27963809Y-73215952D01*
X28011428Y-73168333D01*
X28059047Y-73073095D01*
X28059047Y-73835000D02*
X28106666Y-73739761D01*
X28154285Y-73692142D01*
X28249523Y-73644523D01*
X28297142Y-73644523D01*
X28392380Y-73692142D01*
X28440000Y-73739761D01*
X28487619Y-73835000D01*
X28487619Y-74025476D01*
X28440000Y-74120714D01*
X28392380Y-74168333D01*
X28297142Y-74215952D01*
X28249523Y-74215952D01*
X28154285Y-74168333D01*
X28106666Y-74120714D01*
X28059047Y-74025476D01*
X28059047Y-73835000D01*
X28011428Y-73739761D01*
X27963809Y-73692142D01*
X27868571Y-73644523D01*
X27678095Y-73644523D01*
X27582857Y-73692142D01*
X27535238Y-73739761D01*
X27487619Y-73835000D01*
X27487619Y-74025476D01*
X27535238Y-74120714D01*
X27582857Y-74168333D01*
X27678095Y-74215952D01*
X27868571Y-74215952D01*
X27963809Y-74168333D01*
X28011428Y-74120714D01*
X28059047Y-74025476D01*
X27582857Y-74644523D02*
X27535238Y-74692142D01*
X27487619Y-74644523D01*
X27535238Y-74596904D01*
X27582857Y-74644523D01*
X27487619Y-74644523D01*
X27487619Y-75168333D02*
X27487619Y-75358809D01*
X27535238Y-75454047D01*
X27582857Y-75501666D01*
X27725714Y-75596904D01*
X27916190Y-75644523D01*
X28297142Y-75644523D01*
X28392380Y-75596904D01*
X28440000Y-75549285D01*
X28487619Y-75454047D01*
X28487619Y-75263571D01*
X28440000Y-75168333D01*
X28392380Y-75120714D01*
X28297142Y-75073095D01*
X28059047Y-75073095D01*
X27963809Y-75120714D01*
X27916190Y-75168333D01*
X27868571Y-75263571D01*
X27868571Y-75454047D01*
X27916190Y-75549285D01*
X27963809Y-75596904D01*
X28059047Y-75644523D01*
X28487619Y-76263571D02*
X28487619Y-76358809D01*
X28440000Y-76454047D01*
X28392380Y-76501666D01*
X28297142Y-76549285D01*
X28106666Y-76596904D01*
X27868571Y-76596904D01*
X27678095Y-76549285D01*
X27582857Y-76501666D01*
X27535238Y-76454047D01*
X27487619Y-76358809D01*
X27487619Y-76263571D01*
X27535238Y-76168333D01*
X27582857Y-76120714D01*
X27678095Y-76073095D01*
X27868571Y-76025476D01*
X28106666Y-76025476D01*
X28297142Y-76073095D01*
X28392380Y-76120714D01*
X28440000Y-76168333D01*
X28487619Y-76263571D01*
X28487619Y-77215952D02*
X28487619Y-77311190D01*
X28440000Y-77406428D01*
X28392380Y-77454047D01*
X28297142Y-77501666D01*
X28106666Y-77549285D01*
X27868571Y-77549285D01*
X27678095Y-77501666D01*
X27582857Y-77454047D01*
X27535238Y-77406428D01*
X27487619Y-77311190D01*
X27487619Y-77215952D01*
X27535238Y-77120714D01*
X27582857Y-77073095D01*
X27678095Y-77025476D01*
X27868571Y-76977857D01*
X28106666Y-76977857D01*
X28297142Y-77025476D01*
X28392380Y-77073095D01*
X28440000Y-77120714D01*
X28487619Y-77215952D01*
X27487619Y-78739761D02*
X28154285Y-78739761D01*
X28059047Y-78739761D02*
X28106666Y-78787380D01*
X28154285Y-78882619D01*
X28154285Y-79025476D01*
X28106666Y-79120714D01*
X28011428Y-79168333D01*
X27487619Y-79168333D01*
X28011428Y-79168333D02*
X28106666Y-79215952D01*
X28154285Y-79311190D01*
X28154285Y-79454047D01*
X28106666Y-79549285D01*
X28011428Y-79596904D01*
X27487619Y-79596904D01*
X27487619Y-80073095D02*
X28154285Y-80073095D01*
X28059047Y-80073095D02*
X28106666Y-80120714D01*
X28154285Y-80215952D01*
X28154285Y-80358809D01*
X28106666Y-80454047D01*
X28011428Y-80501666D01*
X27487619Y-80501666D01*
X28011428Y-80501666D02*
X28106666Y-80549285D01*
X28154285Y-80644523D01*
X28154285Y-80787380D01*
X28106666Y-80882619D01*
X28011428Y-80930238D01*
X27487619Y-80930238D01*
D11*
X29210000Y-32385000D02*
X29210000Y-121285000D01*
X35560000Y-32385000D02*
X28623579Y-32385000D01*
X35560000Y-121285000D02*
X28623579Y-121285000D01*
X29210000Y-121285000D02*
X28623579Y-120158496D01*
X29210000Y-121285000D02*
X29796421Y-120158496D01*
X29210000Y-32385000D02*
X28623579Y-33511504D01*
X29210000Y-32385000D02*
X29796421Y-33511504D01*
D10*
X73510119Y-27820952D02*
X73414880Y-27773333D01*
X73367261Y-27725714D01*
X73319642Y-27630476D01*
X73319642Y-27582857D01*
X73367261Y-27487619D01*
X73414880Y-27440000D01*
X73510119Y-27392380D01*
X73700595Y-27392380D01*
X73795833Y-27440000D01*
X73843452Y-27487619D01*
X73891071Y-27582857D01*
X73891071Y-27630476D01*
X73843452Y-27725714D01*
X73795833Y-27773333D01*
X73700595Y-27820952D01*
X73510119Y-27820952D01*
X73414880Y-27868571D01*
X73367261Y-27916190D01*
X73319642Y-28011428D01*
X73319642Y-28201904D01*
X73367261Y-28297142D01*
X73414880Y-28344761D01*
X73510119Y-28392380D01*
X73700595Y-28392380D01*
X73795833Y-28344761D01*
X73843452Y-28297142D01*
X73891071Y-28201904D01*
X73891071Y-28011428D01*
X73843452Y-27916190D01*
X73795833Y-27868571D01*
X73700595Y-27820952D01*
X74224404Y-27392380D02*
X74843452Y-27392380D01*
X74510119Y-27773333D01*
X74652976Y-27773333D01*
X74748214Y-27820952D01*
X74795833Y-27868571D01*
X74843452Y-27963809D01*
X74843452Y-28201904D01*
X74795833Y-28297142D01*
X74748214Y-28344761D01*
X74652976Y-28392380D01*
X74367261Y-28392380D01*
X74272023Y-28344761D01*
X74224404Y-28297142D01*
X75272023Y-28297142D02*
X75319642Y-28344761D01*
X75272023Y-28392380D01*
X75224404Y-28344761D01*
X75272023Y-28297142D01*
X75272023Y-28392380D01*
X75891071Y-27820952D02*
X75795833Y-27773333D01*
X75748214Y-27725714D01*
X75700595Y-27630476D01*
X75700595Y-27582857D01*
X75748214Y-27487619D01*
X75795833Y-27440000D01*
X75891071Y-27392380D01*
X76081547Y-27392380D01*
X76176785Y-27440000D01*
X76224404Y-27487619D01*
X76272023Y-27582857D01*
X76272023Y-27630476D01*
X76224404Y-27725714D01*
X76176785Y-27773333D01*
X76081547Y-27820952D01*
X75891071Y-27820952D01*
X75795833Y-27868571D01*
X75748214Y-27916190D01*
X75700595Y-28011428D01*
X75700595Y-28201904D01*
X75748214Y-28297142D01*
X75795833Y-28344761D01*
X75891071Y-28392380D01*
X76081547Y-28392380D01*
X76176785Y-28344761D01*
X76224404Y-28297142D01*
X76272023Y-28201904D01*
X76272023Y-28011428D01*
X76224404Y-27916190D01*
X76176785Y-27868571D01*
X76081547Y-27820952D01*
X76891071Y-27392380D02*
X76986309Y-27392380D01*
X77081547Y-27440000D01*
X77129166Y-27487619D01*
X77176785Y-27582857D01*
X77224404Y-27773333D01*
X77224404Y-28011428D01*
X77176785Y-28201904D01*
X77129166Y-28297142D01*
X77081547Y-28344761D01*
X76986309Y-28392380D01*
X76891071Y-28392380D01*
X76795833Y-28344761D01*
X76748214Y-28297142D01*
X76700595Y-28201904D01*
X76652976Y-28011428D01*
X76652976Y-27773333D01*
X76700595Y-27582857D01*
X76748214Y-27487619D01*
X76795833Y-27440000D01*
X76891071Y-27392380D01*
X78129166Y-27392380D02*
X77652976Y-27392380D01*
X77605357Y-27868571D01*
X77652976Y-27820952D01*
X77748214Y-27773333D01*
X77986309Y-27773333D01*
X78081547Y-27820952D01*
X78129166Y-27868571D01*
X78176785Y-27963809D01*
X78176785Y-28201904D01*
X78129166Y-28297142D01*
X78081547Y-28344761D01*
X77986309Y-28392380D01*
X77748214Y-28392380D01*
X77652976Y-28344761D01*
X77605357Y-28297142D01*
X79367261Y-28392380D02*
X79367261Y-27725714D01*
X79367261Y-27820952D02*
X79414880Y-27773333D01*
X79510119Y-27725714D01*
X79652976Y-27725714D01*
X79748214Y-27773333D01*
X79795833Y-27868571D01*
X79795833Y-28392380D01*
X79795833Y-27868571D02*
X79843452Y-27773333D01*
X79938690Y-27725714D01*
X80081547Y-27725714D01*
X80176785Y-27773333D01*
X80224404Y-27868571D01*
X80224404Y-28392380D01*
X80700595Y-28392380D02*
X80700595Y-27725714D01*
X80700595Y-27820952D02*
X80748214Y-27773333D01*
X80843452Y-27725714D01*
X80986309Y-27725714D01*
X81081547Y-27773333D01*
X81129166Y-27868571D01*
X81129166Y-28392380D01*
X81129166Y-27868571D02*
X81176785Y-27773333D01*
X81272023Y-27725714D01*
X81414880Y-27725714D01*
X81510119Y-27773333D01*
X81557738Y-27868571D01*
X81557738Y-28392380D01*
D11*
X35560000Y-29210000D02*
X119365000Y-29210000D01*
X35560000Y-32385000D02*
X35560000Y-28623579D01*
X119365000Y-32385000D02*
X119365000Y-28623579D01*
X119365000Y-29210000D02*
X118238496Y-29796421D01*
X119365000Y-29210000D02*
X118238496Y-28623579D01*
X35560000Y-29210000D02*
X36686504Y-29796421D01*
X35560000Y-29210000D02*
X36686504Y-28623579D01*
D10*
X30662857Y-102957380D02*
X30996190Y-103957380D01*
X31329523Y-102957380D01*
X31662857Y-103576428D02*
X32424761Y-103576428D01*
X33472380Y-103862142D02*
X33424761Y-103909761D01*
X33281904Y-103957380D01*
X33186666Y-103957380D01*
X33043809Y-103909761D01*
X32948571Y-103814523D01*
X32900952Y-103719285D01*
X32853333Y-103528809D01*
X32853333Y-103385952D01*
X32900952Y-103195476D01*
X32948571Y-103100238D01*
X33043809Y-103005000D01*
X33186666Y-102957380D01*
X33281904Y-102957380D01*
X33424761Y-103005000D01*
X33472380Y-103052619D01*
X33900952Y-102957380D02*
X33900952Y-103766904D01*
X33948571Y-103862142D01*
X33996190Y-103909761D01*
X34091428Y-103957380D01*
X34281904Y-103957380D01*
X34377142Y-103909761D01*
X34424761Y-103862142D01*
X34472380Y-103766904D01*
X34472380Y-102957380D01*
X34805714Y-102957380D02*
X35377142Y-102957380D01*
X35091428Y-103957380D02*
X35091428Y-102957380D01*
X30662857Y-85177380D02*
X30996190Y-86177380D01*
X31329523Y-85177380D01*
X31662857Y-85796428D02*
X32424761Y-85796428D01*
X33472380Y-86082142D02*
X33424761Y-86129761D01*
X33281904Y-86177380D01*
X33186666Y-86177380D01*
X33043809Y-86129761D01*
X32948571Y-86034523D01*
X32900952Y-85939285D01*
X32853333Y-85748809D01*
X32853333Y-85605952D01*
X32900952Y-85415476D01*
X32948571Y-85320238D01*
X33043809Y-85225000D01*
X33186666Y-85177380D01*
X33281904Y-85177380D01*
X33424761Y-85225000D01*
X33472380Y-85272619D01*
X33900952Y-85177380D02*
X33900952Y-85986904D01*
X33948571Y-86082142D01*
X33996190Y-86129761D01*
X34091428Y-86177380D01*
X34281904Y-86177380D01*
X34377142Y-86129761D01*
X34424761Y-86082142D01*
X34472380Y-85986904D01*
X34472380Y-85177380D01*
X34805714Y-85177380D02*
X35377142Y-85177380D01*
X35091428Y-86177380D02*
X35091428Y-85177380D01*
X30662857Y-67397380D02*
X30996190Y-68397380D01*
X31329523Y-67397380D01*
X31662857Y-68016428D02*
X32424761Y-68016428D01*
X33472380Y-68302142D02*
X33424761Y-68349761D01*
X33281904Y-68397380D01*
X33186666Y-68397380D01*
X33043809Y-68349761D01*
X32948571Y-68254523D01*
X32900952Y-68159285D01*
X32853333Y-67968809D01*
X32853333Y-67825952D01*
X32900952Y-67635476D01*
X32948571Y-67540238D01*
X33043809Y-67445000D01*
X33186666Y-67397380D01*
X33281904Y-67397380D01*
X33424761Y-67445000D01*
X33472380Y-67492619D01*
X33900952Y-67397380D02*
X33900952Y-68206904D01*
X33948571Y-68302142D01*
X33996190Y-68349761D01*
X34091428Y-68397380D01*
X34281904Y-68397380D01*
X34377142Y-68349761D01*
X34424761Y-68302142D01*
X34472380Y-68206904D01*
X34472380Y-67397380D01*
X34805714Y-67397380D02*
X35377142Y-67397380D01*
X35091428Y-68397380D02*
X35091428Y-67397380D01*
X30662857Y-49617380D02*
X30996190Y-50617380D01*
X31329523Y-49617380D01*
X31662857Y-50236428D02*
X32424761Y-50236428D01*
X33472380Y-50522142D02*
X33424761Y-50569761D01*
X33281904Y-50617380D01*
X33186666Y-50617380D01*
X33043809Y-50569761D01*
X32948571Y-50474523D01*
X32900952Y-50379285D01*
X32853333Y-50188809D01*
X32853333Y-50045952D01*
X32900952Y-49855476D01*
X32948571Y-49760238D01*
X33043809Y-49665000D01*
X33186666Y-49617380D01*
X33281904Y-49617380D01*
X33424761Y-49665000D01*
X33472380Y-49712619D01*
X33900952Y-49617380D02*
X33900952Y-50426904D01*
X33948571Y-50522142D01*
X33996190Y-50569761D01*
X34091428Y-50617380D01*
X34281904Y-50617380D01*
X34377142Y-50569761D01*
X34424761Y-50522142D01*
X34472380Y-50426904D01*
X34472380Y-49617380D01*
X34805714Y-49617380D02*
X35377142Y-49617380D01*
X35091428Y-50617380D02*
X35091428Y-49617380D01*
X96067857Y-31202380D02*
X96401190Y-32202380D01*
X96734523Y-31202380D01*
X97067857Y-31821428D02*
X97829761Y-31821428D01*
X98877380Y-32107142D02*
X98829761Y-32154761D01*
X98686904Y-32202380D01*
X98591666Y-32202380D01*
X98448809Y-32154761D01*
X98353571Y-32059523D01*
X98305952Y-31964285D01*
X98258333Y-31773809D01*
X98258333Y-31630952D01*
X98305952Y-31440476D01*
X98353571Y-31345238D01*
X98448809Y-31250000D01*
X98591666Y-31202380D01*
X98686904Y-31202380D01*
X98829761Y-31250000D01*
X98877380Y-31297619D01*
X99305952Y-31202380D02*
X99305952Y-32011904D01*
X99353571Y-32107142D01*
X99401190Y-32154761D01*
X99496428Y-32202380D01*
X99686904Y-32202380D01*
X99782142Y-32154761D01*
X99829761Y-32107142D01*
X99877380Y-32011904D01*
X99877380Y-31202380D01*
X100210714Y-31202380D02*
X100782142Y-31202380D01*
X100496428Y-32202380D02*
X100496428Y-31202380D01*
X75112857Y-31202380D02*
X75446190Y-32202380D01*
X75779523Y-31202380D01*
X76112857Y-31821428D02*
X76874761Y-31821428D01*
X77922380Y-32107142D02*
X77874761Y-32154761D01*
X77731904Y-32202380D01*
X77636666Y-32202380D01*
X77493809Y-32154761D01*
X77398571Y-32059523D01*
X77350952Y-31964285D01*
X77303333Y-31773809D01*
X77303333Y-31630952D01*
X77350952Y-31440476D01*
X77398571Y-31345238D01*
X77493809Y-31250000D01*
X77636666Y-31202380D01*
X77731904Y-31202380D01*
X77874761Y-31250000D01*
X77922380Y-31297619D01*
X78350952Y-31202380D02*
X78350952Y-32011904D01*
X78398571Y-32107142D01*
X78446190Y-32154761D01*
X78541428Y-32202380D01*
X78731904Y-32202380D01*
X78827142Y-32154761D01*
X78874761Y-32107142D01*
X78922380Y-32011904D01*
X78922380Y-31202380D01*
X79255714Y-31202380D02*
X79827142Y-31202380D01*
X79541428Y-32202380D02*
X79541428Y-31202380D01*
X54157857Y-31202380D02*
X54491190Y-32202380D01*
X54824523Y-31202380D01*
X55157857Y-31821428D02*
X55919761Y-31821428D01*
X56967380Y-32107142D02*
X56919761Y-32154761D01*
X56776904Y-32202380D01*
X56681666Y-32202380D01*
X56538809Y-32154761D01*
X56443571Y-32059523D01*
X56395952Y-31964285D01*
X56348333Y-31773809D01*
X56348333Y-31630952D01*
X56395952Y-31440476D01*
X56443571Y-31345238D01*
X56538809Y-31250000D01*
X56681666Y-31202380D01*
X56776904Y-31202380D01*
X56919761Y-31250000D01*
X56967380Y-31297619D01*
X57395952Y-31202380D02*
X57395952Y-32011904D01*
X57443571Y-32107142D01*
X57491190Y-32154761D01*
X57586428Y-32202380D01*
X57776904Y-32202380D01*
X57872142Y-32154761D01*
X57919761Y-32107142D01*
X57967380Y-32011904D01*
X57967380Y-31202380D01*
X58300714Y-31202380D02*
X58872142Y-31202380D01*
X58586428Y-32202380D02*
X58586428Y-31202380D01*
D11*
X119380000Y-50165000D02*
X35560000Y-50165000D01*
X35560000Y-67945000D02*
X119380000Y-67945000D01*
X119380000Y-85725000D02*
X35560000Y-85725000D01*
X35560000Y-103505000D02*
X119380000Y-103505000D01*
X98425000Y-32385000D02*
X98425000Y-121285000D01*
X77470000Y-121285000D02*
X77470000Y-32385000D01*
X56515000Y-32385000D02*
X56515000Y-121285000D01*
X117520000Y-107375000D02*
X117520000Y-106045000D01*
X116190000Y-107375000D02*
X117520000Y-107375000D01*
X114920000Y-107375000D02*
X114920000Y-104715000D01*
X114920000Y-104715000D02*
X112320000Y-104715000D01*
X114920000Y-107375000D02*
X112320000Y-107375000D01*
X112320000Y-107375000D02*
X112320000Y-104715000D01*
X96570000Y-107375000D02*
X96570000Y-106045000D01*
X95240000Y-107375000D02*
X96570000Y-107375000D01*
X93970000Y-107375000D02*
X93970000Y-104715000D01*
X93970000Y-104715000D02*
X91370000Y-104715000D01*
X93970000Y-107375000D02*
X91370000Y-107375000D01*
X91370000Y-107375000D02*
X91370000Y-104715000D01*
X75620000Y-107375000D02*
X75620000Y-106045000D01*
X74290000Y-107375000D02*
X75620000Y-107375000D01*
X73020000Y-107375000D02*
X73020000Y-104715000D01*
X73020000Y-104715000D02*
X70420000Y-104715000D01*
X73020000Y-107375000D02*
X70420000Y-107375000D01*
X70420000Y-107375000D02*
X70420000Y-104715000D01*
X54670000Y-107375000D02*
X54670000Y-106045000D01*
X53340000Y-107375000D02*
X54670000Y-107375000D01*
X52070000Y-107375000D02*
X52070000Y-104715000D01*
X52070000Y-104715000D02*
X49470000Y-104715000D01*
X52070000Y-107375000D02*
X49470000Y-107375000D01*
X49470000Y-107375000D02*
X49470000Y-104715000D01*
X117520000Y-89595000D02*
X117520000Y-88265000D01*
X116190000Y-89595000D02*
X117520000Y-89595000D01*
X114920000Y-89595000D02*
X114920000Y-86935000D01*
X114920000Y-86935000D02*
X112320000Y-86935000D01*
X114920000Y-89595000D02*
X112320000Y-89595000D01*
X112320000Y-89595000D02*
X112320000Y-86935000D01*
X96570000Y-89595000D02*
X96570000Y-88265000D01*
X95240000Y-89595000D02*
X96570000Y-89595000D01*
X93970000Y-89595000D02*
X93970000Y-86935000D01*
X93970000Y-86935000D02*
X91370000Y-86935000D01*
X93970000Y-89595000D02*
X91370000Y-89595000D01*
X91370000Y-89595000D02*
X91370000Y-86935000D01*
X75620000Y-89595000D02*
X75620000Y-88265000D01*
X74290000Y-89595000D02*
X75620000Y-89595000D01*
X73020000Y-89595000D02*
X73020000Y-86935000D01*
X73020000Y-86935000D02*
X70420000Y-86935000D01*
X73020000Y-89595000D02*
X70420000Y-89595000D01*
X70420000Y-89595000D02*
X70420000Y-86935000D01*
X54670000Y-89595000D02*
X54670000Y-88265000D01*
X53340000Y-89595000D02*
X54670000Y-89595000D01*
X52070000Y-89595000D02*
X52070000Y-86935000D01*
X52070000Y-86935000D02*
X49470000Y-86935000D01*
X52070000Y-89595000D02*
X49470000Y-89595000D01*
X49470000Y-89595000D02*
X49470000Y-86935000D01*
X117520000Y-71815000D02*
X117520000Y-70485000D01*
X116190000Y-71815000D02*
X117520000Y-71815000D01*
X114920000Y-71815000D02*
X114920000Y-69155000D01*
X114920000Y-69155000D02*
X112320000Y-69155000D01*
X114920000Y-71815000D02*
X112320000Y-71815000D01*
X112320000Y-71815000D02*
X112320000Y-69155000D01*
X96570000Y-71815000D02*
X96570000Y-70485000D01*
X95240000Y-71815000D02*
X96570000Y-71815000D01*
X93970000Y-71815000D02*
X93970000Y-69155000D01*
X93970000Y-69155000D02*
X91370000Y-69155000D01*
X93970000Y-71815000D02*
X91370000Y-71815000D01*
X91370000Y-71815000D02*
X91370000Y-69155000D01*
X75620000Y-71815000D02*
X75620000Y-70485000D01*
X74290000Y-71815000D02*
X75620000Y-71815000D01*
X73020000Y-71815000D02*
X73020000Y-69155000D01*
X73020000Y-69155000D02*
X70420000Y-69155000D01*
X73020000Y-71815000D02*
X70420000Y-71815000D01*
X70420000Y-71815000D02*
X70420000Y-69155000D01*
X54670000Y-71815000D02*
X54670000Y-70485000D01*
X53340000Y-71815000D02*
X54670000Y-71815000D01*
X52070000Y-71815000D02*
X52070000Y-69155000D01*
X52070000Y-69155000D02*
X49470000Y-69155000D01*
X52070000Y-71815000D02*
X49470000Y-71815000D01*
X49470000Y-71815000D02*
X49470000Y-69155000D01*
X117520000Y-54035000D02*
X117520000Y-52705000D01*
X116190000Y-54035000D02*
X117520000Y-54035000D01*
X114920000Y-54035000D02*
X114920000Y-51375000D01*
X114920000Y-51375000D02*
X112320000Y-51375000D01*
X114920000Y-54035000D02*
X112320000Y-54035000D01*
X112320000Y-54035000D02*
X112320000Y-51375000D01*
X96570000Y-54035000D02*
X96570000Y-52705000D01*
X95240000Y-54035000D02*
X96570000Y-54035000D01*
X93970000Y-54035000D02*
X93970000Y-51375000D01*
X93970000Y-51375000D02*
X91370000Y-51375000D01*
X93970000Y-54035000D02*
X91370000Y-54035000D01*
X91370000Y-54035000D02*
X91370000Y-51375000D01*
X75620000Y-54035000D02*
X75620000Y-52705000D01*
X74290000Y-54035000D02*
X75620000Y-54035000D01*
X73020000Y-54035000D02*
X73020000Y-51375000D01*
X73020000Y-51375000D02*
X70420000Y-51375000D01*
X73020000Y-54035000D02*
X70420000Y-54035000D01*
X70420000Y-54035000D02*
X70420000Y-51375000D01*
X54670000Y-54035000D02*
X54670000Y-52705000D01*
X53340000Y-54035000D02*
X54670000Y-54035000D01*
X52070000Y-54035000D02*
X52070000Y-51375000D01*
X52070000Y-51375000D02*
X49470000Y-51375000D01*
X52070000Y-54035000D02*
X49470000Y-54035000D01*
X49470000Y-54035000D02*
X49470000Y-51375000D01*
X117520000Y-36255000D02*
X117520000Y-34925000D01*
X116190000Y-36255000D02*
X117520000Y-36255000D01*
X114920000Y-36255000D02*
X114920000Y-33595000D01*
X114920000Y-33595000D02*
X112320000Y-33595000D01*
X114920000Y-36255000D02*
X112320000Y-36255000D01*
X112320000Y-36255000D02*
X112320000Y-33595000D01*
X96570000Y-36255000D02*
X96570000Y-34925000D01*
X95240000Y-36255000D02*
X96570000Y-36255000D01*
X93970000Y-36255000D02*
X93970000Y-33595000D01*
X93970000Y-33595000D02*
X91370000Y-33595000D01*
X93970000Y-36255000D02*
X91370000Y-36255000D01*
X91370000Y-36255000D02*
X91370000Y-33595000D01*
X75620000Y-36255000D02*
X75620000Y-34925000D01*
X74290000Y-36255000D02*
X75620000Y-36255000D01*
X73020000Y-36255000D02*
X73020000Y-33595000D01*
X73020000Y-33595000D02*
X70420000Y-33595000D01*
X73020000Y-36255000D02*
X70420000Y-36255000D01*
X70420000Y-36255000D02*
X70420000Y-33595000D01*
X99620000Y-107375000D02*
X100950000Y-107375000D01*
X99620000Y-106045000D02*
X99620000Y-107375000D01*
X99620000Y-104775000D02*
X102280000Y-104775000D01*
X102280000Y-104775000D02*
X102280000Y-104715000D01*
X99620000Y-104775000D02*
X99620000Y-104715000D01*
X99620000Y-104715000D02*
X102280000Y-104715000D01*
X78670000Y-107375000D02*
X80000000Y-107375000D01*
X78670000Y-106045000D02*
X78670000Y-107375000D01*
X78670000Y-104775000D02*
X81330000Y-104775000D01*
X81330000Y-104775000D02*
X81330000Y-104715000D01*
X78670000Y-104775000D02*
X78670000Y-104715000D01*
X78670000Y-104715000D02*
X81330000Y-104715000D01*
X57720000Y-107375000D02*
X59050000Y-107375000D01*
X57720000Y-106045000D02*
X57720000Y-107375000D01*
X57720000Y-104775000D02*
X60380000Y-104775000D01*
X60380000Y-104775000D02*
X60380000Y-104715000D01*
X57720000Y-104775000D02*
X57720000Y-104715000D01*
X57720000Y-104715000D02*
X60380000Y-104715000D01*
X36770000Y-107375000D02*
X38100000Y-107375000D01*
X36770000Y-106045000D02*
X36770000Y-107375000D01*
X36770000Y-104775000D02*
X39430000Y-104775000D01*
X39430000Y-104775000D02*
X39430000Y-104715000D01*
X36770000Y-104775000D02*
X36770000Y-104715000D01*
X36770000Y-104715000D02*
X39430000Y-104715000D01*
X99620000Y-89595000D02*
X100950000Y-89595000D01*
X99620000Y-88265000D02*
X99620000Y-89595000D01*
X99620000Y-86995000D02*
X102280000Y-86995000D01*
X102280000Y-86995000D02*
X102280000Y-86935000D01*
X99620000Y-86995000D02*
X99620000Y-86935000D01*
X99620000Y-86935000D02*
X102280000Y-86935000D01*
X78670000Y-89595000D02*
X80000000Y-89595000D01*
X78670000Y-88265000D02*
X78670000Y-89595000D01*
X78670000Y-86995000D02*
X81330000Y-86995000D01*
X81330000Y-86995000D02*
X81330000Y-86935000D01*
X78670000Y-86995000D02*
X78670000Y-86935000D01*
X78670000Y-86935000D02*
X81330000Y-86935000D01*
X57720000Y-89595000D02*
X59050000Y-89595000D01*
X57720000Y-88265000D02*
X57720000Y-89595000D01*
X57720000Y-86995000D02*
X60380000Y-86995000D01*
X60380000Y-86995000D02*
X60380000Y-86935000D01*
X57720000Y-86995000D02*
X57720000Y-86935000D01*
X57720000Y-86935000D02*
X60380000Y-86935000D01*
X36770000Y-89595000D02*
X38100000Y-89595000D01*
X36770000Y-88265000D02*
X36770000Y-89595000D01*
X36770000Y-86995000D02*
X39430000Y-86995000D01*
X39430000Y-86995000D02*
X39430000Y-86935000D01*
X36770000Y-86995000D02*
X36770000Y-86935000D01*
X36770000Y-86935000D02*
X39430000Y-86935000D01*
X99620000Y-71815000D02*
X100950000Y-71815000D01*
X99620000Y-70485000D02*
X99620000Y-71815000D01*
X99620000Y-69215000D02*
X102280000Y-69215000D01*
X102280000Y-69215000D02*
X102280000Y-69155000D01*
X99620000Y-69215000D02*
X99620000Y-69155000D01*
X99620000Y-69155000D02*
X102280000Y-69155000D01*
X78670000Y-71815000D02*
X80000000Y-71815000D01*
X78670000Y-70485000D02*
X78670000Y-71815000D01*
X78670000Y-69215000D02*
X81330000Y-69215000D01*
X81330000Y-69215000D02*
X81330000Y-69155000D01*
X78670000Y-69215000D02*
X78670000Y-69155000D01*
X78670000Y-69155000D02*
X81330000Y-69155000D01*
X57720000Y-71815000D02*
X59050000Y-71815000D01*
X57720000Y-70485000D02*
X57720000Y-71815000D01*
X57720000Y-69215000D02*
X60380000Y-69215000D01*
X60380000Y-69215000D02*
X60380000Y-69155000D01*
X57720000Y-69215000D02*
X57720000Y-69155000D01*
X57720000Y-69155000D02*
X60380000Y-69155000D01*
X36770000Y-71815000D02*
X38100000Y-71815000D01*
X36770000Y-70485000D02*
X36770000Y-71815000D01*
X36770000Y-69215000D02*
X39430000Y-69215000D01*
X39430000Y-69215000D02*
X39430000Y-69155000D01*
X36770000Y-69215000D02*
X36770000Y-69155000D01*
X36770000Y-69155000D02*
X39430000Y-69155000D01*
X99620000Y-54035000D02*
X100950000Y-54035000D01*
X99620000Y-52705000D02*
X99620000Y-54035000D01*
X99620000Y-51435000D02*
X102280000Y-51435000D01*
X102280000Y-51435000D02*
X102280000Y-51375000D01*
X99620000Y-51435000D02*
X99620000Y-51375000D01*
X99620000Y-51375000D02*
X102280000Y-51375000D01*
X78670000Y-54035000D02*
X80000000Y-54035000D01*
X78670000Y-52705000D02*
X78670000Y-54035000D01*
X78670000Y-51435000D02*
X81330000Y-51435000D01*
X81330000Y-51435000D02*
X81330000Y-51375000D01*
X78670000Y-51435000D02*
X78670000Y-51375000D01*
X78670000Y-51375000D02*
X81330000Y-51375000D01*
X57720000Y-54035000D02*
X59050000Y-54035000D01*
X57720000Y-52705000D02*
X57720000Y-54035000D01*
X57720000Y-51435000D02*
X60380000Y-51435000D01*
X60380000Y-51435000D02*
X60380000Y-51375000D01*
X57720000Y-51435000D02*
X57720000Y-51375000D01*
X57720000Y-51375000D02*
X60380000Y-51375000D01*
X36770000Y-54035000D02*
X38100000Y-54035000D01*
X36770000Y-52705000D02*
X36770000Y-54035000D01*
X36770000Y-51435000D02*
X39430000Y-51435000D01*
X39430000Y-51435000D02*
X39430000Y-51375000D01*
X36770000Y-51435000D02*
X36770000Y-51375000D01*
X36770000Y-51375000D02*
X39430000Y-51375000D01*
X99620000Y-36255000D02*
X100950000Y-36255000D01*
X99620000Y-34925000D02*
X99620000Y-36255000D01*
X99620000Y-33655000D02*
X102280000Y-33655000D01*
X102280000Y-33655000D02*
X102280000Y-33595000D01*
X99620000Y-33655000D02*
X99620000Y-33595000D01*
X99620000Y-33595000D02*
X102280000Y-33595000D01*
X78670000Y-36255000D02*
X80000000Y-36255000D01*
X78670000Y-34925000D02*
X78670000Y-36255000D01*
X78670000Y-33655000D02*
X81330000Y-33655000D01*
X81330000Y-33655000D02*
X81330000Y-33595000D01*
X78670000Y-33655000D02*
X78670000Y-33595000D01*
X78670000Y-33595000D02*
X81330000Y-33595000D01*
X57720000Y-36255000D02*
X59050000Y-36255000D01*
X57720000Y-34925000D02*
X57720000Y-36255000D01*
X57720000Y-33655000D02*
X60380000Y-33655000D01*
X60380000Y-33655000D02*
X60380000Y-33595000D01*
X57720000Y-33655000D02*
X57720000Y-33595000D01*
X57720000Y-33595000D02*
X60380000Y-33595000D01*
X114980000Y-120075000D02*
X112320000Y-120075000D01*
X114980000Y-117475000D02*
X114980000Y-120075000D01*
X112320000Y-117475000D02*
X112320000Y-120075000D01*
X114980000Y-117475000D02*
X112320000Y-117475000D01*
X114980000Y-116205000D02*
X114980000Y-114875000D01*
X114980000Y-114875000D02*
X113650000Y-114875000D01*
X94030000Y-120075000D02*
X91370000Y-120075000D01*
X94030000Y-117475000D02*
X94030000Y-120075000D01*
X91370000Y-117475000D02*
X91370000Y-120075000D01*
X94030000Y-117475000D02*
X91370000Y-117475000D01*
X94030000Y-116205000D02*
X94030000Y-114875000D01*
X94030000Y-114875000D02*
X92700000Y-114875000D01*
X73080000Y-120075000D02*
X70420000Y-120075000D01*
X73080000Y-117475000D02*
X73080000Y-120075000D01*
X70420000Y-117475000D02*
X70420000Y-120075000D01*
X73080000Y-117475000D02*
X70420000Y-117475000D01*
X73080000Y-116205000D02*
X73080000Y-114875000D01*
X73080000Y-114875000D02*
X71750000Y-114875000D01*
X52130000Y-120075000D02*
X49470000Y-120075000D01*
X52130000Y-117475000D02*
X52130000Y-120075000D01*
X49470000Y-117475000D02*
X49470000Y-120075000D01*
X52130000Y-117475000D02*
X49470000Y-117475000D01*
X52130000Y-116205000D02*
X52130000Y-114875000D01*
X52130000Y-114875000D02*
X50800000Y-114875000D01*
X114980000Y-102295000D02*
X112320000Y-102295000D01*
X114980000Y-99695000D02*
X114980000Y-102295000D01*
X112320000Y-99695000D02*
X112320000Y-102295000D01*
X114980000Y-99695000D02*
X112320000Y-99695000D01*
X114980000Y-98425000D02*
X114980000Y-97095000D01*
X114980000Y-97095000D02*
X113650000Y-97095000D01*
X94030000Y-102295000D02*
X91370000Y-102295000D01*
X94030000Y-99695000D02*
X94030000Y-102295000D01*
X91370000Y-99695000D02*
X91370000Y-102295000D01*
X94030000Y-99695000D02*
X91370000Y-99695000D01*
X94030000Y-98425000D02*
X94030000Y-97095000D01*
X94030000Y-97095000D02*
X92700000Y-97095000D01*
X73080000Y-102295000D02*
X70420000Y-102295000D01*
X73080000Y-99695000D02*
X73080000Y-102295000D01*
X70420000Y-99695000D02*
X70420000Y-102295000D01*
X73080000Y-99695000D02*
X70420000Y-99695000D01*
X73080000Y-98425000D02*
X73080000Y-97095000D01*
X73080000Y-97095000D02*
X71750000Y-97095000D01*
X52130000Y-102295000D02*
X49470000Y-102295000D01*
X52130000Y-99695000D02*
X52130000Y-102295000D01*
X49470000Y-99695000D02*
X49470000Y-102295000D01*
X52130000Y-99695000D02*
X49470000Y-99695000D01*
X52130000Y-98425000D02*
X52130000Y-97095000D01*
X52130000Y-97095000D02*
X50800000Y-97095000D01*
X114980000Y-84515000D02*
X112320000Y-84515000D01*
X114980000Y-81915000D02*
X114980000Y-84515000D01*
X112320000Y-81915000D02*
X112320000Y-84515000D01*
X114980000Y-81915000D02*
X112320000Y-81915000D01*
X114980000Y-80645000D02*
X114980000Y-79315000D01*
X114980000Y-79315000D02*
X113650000Y-79315000D01*
X94030000Y-84515000D02*
X91370000Y-84515000D01*
X94030000Y-81915000D02*
X94030000Y-84515000D01*
X91370000Y-81915000D02*
X91370000Y-84515000D01*
X94030000Y-81915000D02*
X91370000Y-81915000D01*
X94030000Y-80645000D02*
X94030000Y-79315000D01*
X94030000Y-79315000D02*
X92700000Y-79315000D01*
X73080000Y-84515000D02*
X70420000Y-84515000D01*
X73080000Y-81915000D02*
X73080000Y-84515000D01*
X70420000Y-81915000D02*
X70420000Y-84515000D01*
X73080000Y-81915000D02*
X70420000Y-81915000D01*
X73080000Y-80645000D02*
X73080000Y-79315000D01*
X73080000Y-79315000D02*
X71750000Y-79315000D01*
X52130000Y-84515000D02*
X49470000Y-84515000D01*
X52130000Y-81915000D02*
X52130000Y-84515000D01*
X49470000Y-81915000D02*
X49470000Y-84515000D01*
X52130000Y-81915000D02*
X49470000Y-81915000D01*
X52130000Y-80645000D02*
X52130000Y-79315000D01*
X52130000Y-79315000D02*
X50800000Y-79315000D01*
X114980000Y-66735000D02*
X112320000Y-66735000D01*
X114980000Y-64135000D02*
X114980000Y-66735000D01*
X112320000Y-64135000D02*
X112320000Y-66735000D01*
X114980000Y-64135000D02*
X112320000Y-64135000D01*
X114980000Y-62865000D02*
X114980000Y-61535000D01*
X114980000Y-61535000D02*
X113650000Y-61535000D01*
X94030000Y-66735000D02*
X91370000Y-66735000D01*
X94030000Y-64135000D02*
X94030000Y-66735000D01*
X91370000Y-64135000D02*
X91370000Y-66735000D01*
X94030000Y-64135000D02*
X91370000Y-64135000D01*
X94030000Y-62865000D02*
X94030000Y-61535000D01*
X94030000Y-61535000D02*
X92700000Y-61535000D01*
X73080000Y-66735000D02*
X70420000Y-66735000D01*
X73080000Y-64135000D02*
X73080000Y-66735000D01*
X70420000Y-64135000D02*
X70420000Y-66735000D01*
X73080000Y-64135000D02*
X70420000Y-64135000D01*
X73080000Y-62865000D02*
X73080000Y-61535000D01*
X73080000Y-61535000D02*
X71750000Y-61535000D01*
X52130000Y-66735000D02*
X49470000Y-66735000D01*
X52130000Y-64135000D02*
X52130000Y-66735000D01*
X49470000Y-64135000D02*
X49470000Y-66735000D01*
X52130000Y-64135000D02*
X49470000Y-64135000D01*
X52130000Y-62865000D02*
X52130000Y-61535000D01*
X52130000Y-61535000D02*
X50800000Y-61535000D01*
X114980000Y-48955000D02*
X112320000Y-48955000D01*
X114980000Y-46355000D02*
X114980000Y-48955000D01*
X112320000Y-46355000D02*
X112320000Y-48955000D01*
X114980000Y-46355000D02*
X112320000Y-46355000D01*
X114980000Y-45085000D02*
X114980000Y-43755000D01*
X114980000Y-43755000D02*
X113650000Y-43755000D01*
X94030000Y-48955000D02*
X91370000Y-48955000D01*
X94030000Y-46355000D02*
X94030000Y-48955000D01*
X91370000Y-46355000D02*
X91370000Y-48955000D01*
X94030000Y-46355000D02*
X91370000Y-46355000D01*
X94030000Y-45085000D02*
X94030000Y-43755000D01*
X94030000Y-43755000D02*
X92700000Y-43755000D01*
X73080000Y-48955000D02*
X70420000Y-48955000D01*
X73080000Y-46355000D02*
X73080000Y-48955000D01*
X70420000Y-46355000D02*
X70420000Y-48955000D01*
X73080000Y-46355000D02*
X70420000Y-46355000D01*
X73080000Y-45085000D02*
X73080000Y-43755000D01*
X73080000Y-43755000D02*
X71750000Y-43755000D01*
X36770000Y-33595000D02*
X39430000Y-33595000D01*
X36770000Y-33655000D02*
X36770000Y-33595000D01*
X39430000Y-33655000D02*
X39430000Y-33595000D01*
X36770000Y-33655000D02*
X39430000Y-33655000D01*
X36770000Y-34925000D02*
X36770000Y-36255000D01*
X36770000Y-36255000D02*
X38100000Y-36255000D01*
X49470000Y-36255000D02*
X49470000Y-33595000D01*
X52070000Y-36255000D02*
X49470000Y-36255000D01*
X52070000Y-33595000D02*
X49470000Y-33595000D01*
X52070000Y-36255000D02*
X52070000Y-33595000D01*
X53340000Y-36255000D02*
X54670000Y-36255000D01*
X54670000Y-36255000D02*
X54670000Y-34925000D01*
X52130000Y-43755000D02*
X50800000Y-43755000D01*
X52130000Y-45085000D02*
X52130000Y-43755000D01*
X52130000Y-46355000D02*
X49470000Y-46355000D01*
X49470000Y-46355000D02*
X49470000Y-48955000D01*
X52130000Y-46355000D02*
X52130000Y-48955000D01*
X52130000Y-48955000D02*
X49470000Y-48955000D01*
M02*
