M48
; DRILL file {KiCad (5.1.6)-1} date 06/25/20 08:18:21
; FORMAT={3:3/ absolute / metric / suppress leading zeros}
; #@! TF.CreationDate,2020-06-25T08:18:21+09:00
; #@! TF.GenerationSoftware,Kicad,Pcbnew,(5.1.6)-1
FMAT,2
METRIC,TZ
T1C0.700
T2C1.000
%
G90
G05
T1
X100950Y-57785
X100950Y-60325
X59050Y-93345
X59050Y-95885
X59050Y-57785
X59050Y-60325
X80000Y-75565
X80000Y-78105
X100950Y-93345
X100950Y-95885
X38100Y-111125
X38100Y-113665
X59050Y-40005
X59050Y-42545
X80000Y-57785
X80000Y-60325
X59050Y-111125
X59050Y-113665
X80000Y-93345
X80000Y-95885
X100950Y-40005
X100950Y-42545
X80000Y-40005
X80000Y-42545
X80000Y-111125
X80000Y-113665
X100950Y-111125
X100950Y-113665
X38100Y-75565
X38100Y-78105
X38100Y-40005
X38100Y-42545
X100950Y-75565
X100950Y-78105
X59050Y-75565
X59050Y-78105
X38100Y-57785
X38100Y-60325
X38100Y-93345
X38100Y-95885
T2
X92700Y-88265
X95240Y-88265
X71750Y-70485
X74290Y-70485
X113650Y-98425
X113650Y-100965
X71750Y-116205
X71750Y-118745
X92700Y-45085
X92700Y-47625
X82540Y-70485
X82540Y-73025
X82540Y-83185
X90160Y-70485
X90160Y-73025
X90160Y-83185
X38100Y-70485
X82540Y-34925
X82540Y-37465
X82540Y-47625
X90160Y-34925
X90160Y-37465
X90160Y-47625
X38100Y-106045
X40640Y-88265
X40640Y-90805
X40640Y-100965
X48260Y-88265
X48260Y-90805
X48260Y-100965
X113650Y-88265
X116190Y-88265
X92700Y-70485
X95240Y-70485
X71750Y-45085
X71750Y-47625
X92700Y-106045
X95240Y-106045
X113650Y-80645
X113650Y-83185
X103490Y-70485
X103490Y-73025
X103490Y-83185
X111110Y-70485
X111110Y-73025
X111110Y-83185
X38100Y-88265
X103490Y-52705
X103490Y-55245
X103490Y-65405
X111110Y-52705
X111110Y-55245
X111110Y-65405
X38100Y-52705
X40640Y-52705
X40640Y-55245
X40640Y-65405
X48260Y-52705
X48260Y-55245
X48260Y-65405
X80000Y-106045
X50800Y-34925
X53340Y-34925
X71750Y-52705
X74290Y-52705
X71750Y-62865
X71750Y-65405
X71750Y-98425
X71750Y-100965
X80000Y-34925
X103490Y-88265
X103490Y-90805
X103490Y-100965
X111110Y-88265
X111110Y-90805
X111110Y-100965
X80000Y-88265
X82540Y-88265
X82540Y-90805
X82540Y-100965
X90160Y-88265
X90160Y-90805
X90160Y-100965
X80000Y-52705
X61590Y-52705
X61590Y-55245
X61590Y-65405
X69210Y-52705
X69210Y-55245
X69210Y-65405
X59050Y-106045
X113650Y-52705
X116190Y-52705
X113650Y-70485
X116190Y-70485
X113650Y-62865
X113650Y-65405
X113650Y-106045
X116190Y-106045
X50800Y-98425
X50800Y-100965
X82540Y-106045
X82540Y-108585
X82540Y-118745
X90160Y-106045
X90160Y-108585
X90160Y-118745
X40640Y-106045
X40640Y-108585
X40640Y-118745
X48260Y-106045
X48260Y-108585
X48260Y-118745
X100950Y-52705
X113650Y-116205
X113650Y-118745
X59050Y-88265
X40640Y-70485
X40640Y-73025
X40640Y-83185
X48260Y-70485
X48260Y-73025
X48260Y-83185
X71750Y-34925
X74290Y-34925
X92700Y-52705
X95240Y-52705
X38100Y-34925
X100950Y-106045
X113650Y-45085
X113650Y-47625
X50800Y-80645
X50800Y-83185
X71750Y-80645
X71750Y-83185
X100950Y-70485
X61590Y-88265
X61590Y-90805
X61590Y-100965
X69210Y-88265
X69210Y-90805
X69210Y-100965
X103490Y-106045
X103490Y-108585
X103490Y-118745
X111110Y-106045
X111110Y-108585
X111110Y-118745
X61590Y-34925
X61590Y-37465
X61590Y-47625
X69210Y-34925
X69210Y-37465
X69210Y-47625
X59050Y-70485
X113650Y-34925
X116190Y-34925
X40640Y-34925
X40640Y-37465
X40640Y-47625
X48260Y-34925
X48260Y-37465
X48260Y-47625
X50800Y-88265
X53340Y-88265
X71750Y-88265
X74290Y-88265
X92700Y-98425
X92700Y-100965
X50800Y-106045
X53340Y-106045
X50800Y-62865
X50800Y-65405
X50800Y-116205
X50800Y-118745
X80000Y-70485
X61590Y-70485
X61590Y-73025
X61590Y-83185
X69210Y-70485
X69210Y-73025
X69210Y-83185
X59050Y-34925
X103490Y-34925
X103490Y-37465
X103490Y-47625
X111110Y-34925
X111110Y-37465
X111110Y-47625
X100950Y-88265
X50800Y-45085
X50800Y-47625
X50800Y-70485
X53340Y-70485
X92700Y-34925
X95240Y-34925
X50800Y-52705
X53340Y-52705
X92700Y-62865
X92700Y-65405
X71750Y-106045
X74290Y-106045
X92700Y-80645
X92700Y-83185
X92700Y-116205
X92700Y-118745
X59050Y-52705
X82540Y-52705
X82540Y-55245
X82540Y-65405
X90160Y-52705
X90160Y-55245
X90160Y-65405
X100950Y-34925
X61590Y-106045
X61590Y-108585
X61590Y-118745
X69210Y-106045
X69210Y-108585
X69210Y-118745
T0
M30
