G04 #@! TF.GenerationSoftware,KiCad,Pcbnew,(5.1.6)-1*
G04 #@! TF.CreationDate,2020-06-01T07:47:49+09:00*
G04 #@! TF.ProjectId,AND,414e442e-6b69-4636-9164-5f7063625858,rev?*
G04 #@! TF.SameCoordinates,Original*
G04 #@! TF.FileFunction,Legend,Bot*
G04 #@! TF.FilePolarity,Positive*
%FSLAX46Y46*%
G04 Gerber Fmt 4.6, Leading zero omitted, Abs format (unit mm)*
G04 Created by KiCad (PCBNEW (5.1.6)-1) date 2020-06-01 07:47:49*
%MOMM*%
%LPD*%
G01*
G04 APERTURE LIST*
%ADD10C,0.120000*%
G04 APERTURE END LIST*
D10*
X140910000Y-85150000D02*
X142240000Y-85150000D01*
X140910000Y-83820000D02*
X140910000Y-85150000D01*
X140910000Y-82550000D02*
X143570000Y-82550000D01*
X143570000Y-82550000D02*
X143570000Y-82490000D01*
X140910000Y-82550000D02*
X140910000Y-82490000D01*
X140910000Y-82490000D02*
X143570000Y-82490000D01*
X140910000Y-87690000D02*
X142240000Y-87690000D01*
X140910000Y-86360000D02*
X140910000Y-87690000D01*
X140910000Y-85090000D02*
X143570000Y-85090000D01*
X143570000Y-85090000D02*
X143570000Y-85030000D01*
X140910000Y-85090000D02*
X140910000Y-85030000D01*
X140910000Y-85030000D02*
X143570000Y-85030000D01*
X156150000Y-72930000D02*
X158810000Y-72930000D01*
X156150000Y-72990000D02*
X156150000Y-72930000D01*
X158810000Y-72990000D02*
X158810000Y-72930000D01*
X156150000Y-72990000D02*
X158810000Y-72990000D01*
X156150000Y-74260000D02*
X156150000Y-75590000D01*
X156150000Y-75590000D02*
X157480000Y-75590000D01*
X153610000Y-75590000D02*
X154940000Y-75590000D01*
X153610000Y-74260000D02*
X153610000Y-75590000D01*
X153610000Y-72990000D02*
X156270000Y-72990000D01*
X156270000Y-72990000D02*
X156270000Y-72930000D01*
X153610000Y-72990000D02*
X153610000Y-72930000D01*
X153610000Y-72930000D02*
X156270000Y-72930000D01*
X140910000Y-72930000D02*
X143570000Y-72930000D01*
X140910000Y-72990000D02*
X140910000Y-72930000D01*
X143570000Y-72990000D02*
X143570000Y-72930000D01*
X140910000Y-72990000D02*
X143570000Y-72990000D01*
X140910000Y-74260000D02*
X140910000Y-75590000D01*
X140910000Y-75590000D02*
X142240000Y-75590000D01*
X138370000Y-75590000D02*
X139700000Y-75590000D01*
X138370000Y-74260000D02*
X138370000Y-75590000D01*
X138370000Y-72990000D02*
X141030000Y-72990000D01*
X141030000Y-72990000D02*
X141030000Y-72930000D01*
X138370000Y-72990000D02*
X138370000Y-72930000D01*
X138370000Y-72930000D02*
X141030000Y-72930000D01*
M02*
