G04 #@! TF.GenerationSoftware,KiCad,Pcbnew,(5.1.6)-1*
G04 #@! TF.CreationDate,2020-06-01T07:47:48+09:00*
G04 #@! TF.ProjectId,AND,414e442e-6b69-4636-9164-5f7063625858,rev?*
G04 #@! TF.SameCoordinates,Original*
G04 #@! TF.FileFunction,Copper,L2,Bot*
G04 #@! TF.FilePolarity,Positive*
%FSLAX46Y46*%
G04 Gerber Fmt 4.6, Leading zero omitted, Abs format (unit mm)*
G04 Created by KiCad (PCBNEW (5.1.6)-1) date 2020-06-01 07:47:48*
%MOMM*%
%LPD*%
G01*
G04 APERTURE LIST*
G04 #@! TA.AperFunction,ComponentPad*
%ADD10C,1.524000*%
G04 #@! TD*
G04 #@! TA.AperFunction,ComponentPad*
%ADD11R,1.700000X1.700000*%
G04 #@! TD*
G04 #@! TA.AperFunction,Conductor*
%ADD12C,1.000000*%
G04 #@! TD*
G04 APERTURE END LIST*
D10*
X139700000Y-81280000D03*
X142240000Y-81280000D03*
X160020000Y-78740000D03*
X160020000Y-76200000D03*
D11*
X142240000Y-83820000D03*
X142240000Y-86360000D03*
X157480000Y-74260000D03*
X154940000Y-74260000D03*
X142240000Y-74260000D03*
X139700000Y-74260000D03*
D10*
X144780000Y-73660000D03*
X152400000Y-73660000D03*
X152400000Y-76200000D03*
X144780000Y-76200000D03*
X144780000Y-86360000D03*
X152400000Y-86360000D03*
X129540000Y-73660000D03*
X137160000Y-73660000D03*
X137160000Y-76200000D03*
X129540000Y-76200000D03*
X129540000Y-86360000D03*
X137160000Y-86360000D03*
D12*
X160020000Y-76200000D02*
X152400000Y-76200000D01*
X160020000Y-78740000D02*
X152400000Y-78740000D01*
X152400000Y-78740000D02*
X149860000Y-76200000D01*
X149860000Y-76200000D02*
X144780000Y-76200000D01*
X142240000Y-81280000D02*
X142240000Y-80010000D01*
X138430000Y-76200000D02*
X137160000Y-76200000D01*
X142240000Y-80010000D02*
X138430000Y-76200000D01*
X134620000Y-81280000D02*
X129540000Y-76200000D01*
X139700000Y-81280000D02*
X134620000Y-81280000D01*
M02*
