M48
; DRILL file {KiCad (5.1.6)-1} date 06/01/20 07:47:54
; FORMAT={3:3/ absolute / metric / suppress leading zeros}
; #@! TF.CreationDate,2020-06-01T07:47:54+09:00
; #@! TF.GenerationSoftware,Kicad,Pcbnew,(5.1.6)-1
FMAT,2
METRIC,TZ
T1C0.700
T2C1.000
%
G90
G05
T1
X139700Y-81280
X142240Y-81280
X160020Y-76200
X160020Y-78740
T2
X142240Y-86360
X142240Y-83820
X129540Y-73660
X129540Y-76200
X129540Y-86360
X137160Y-73660
X137160Y-76200
X137160Y-86360
X142240Y-74260
X144780Y-73660
X144780Y-76200
X144780Y-86360
X152400Y-73660
X152400Y-76200
X152400Y-86360
X139700Y-74260
X157480Y-74260
X154940Y-74260
T0
M30
