G04 #@! TF.GenerationSoftware,KiCad,Pcbnew,(5.1.6)-1*
G04 #@! TF.CreationDate,2020-06-03T07:58:37+09:00*
G04 #@! TF.ProjectId,AND___,414e4462-d851-42e6-9b69-6361645f7063,rev?*
G04 #@! TF.SameCoordinates,Original*
G04 #@! TF.FileFunction,Soldermask,Top*
G04 #@! TF.FilePolarity,Negative*
%FSLAX46Y46*%
G04 Gerber Fmt 4.6, Leading zero omitted, Abs format (unit mm)*
G04 Created by KiCad (PCBNEW (5.1.6)-1) date 2020-06-03 07:58:37*
%MOMM*%
%LPD*%
G01*
G04 APERTURE LIST*
%ADD10C,1.624000*%
%ADD11R,1.800000X1.800000*%
%ADD12O,1.800000X1.800000*%
G04 APERTURE END LIST*
D10*
X154940000Y-113030000D03*
X157480000Y-113030000D03*
X121920000Y-113030000D03*
X124460000Y-113030000D03*
X88900000Y-113030000D03*
X91440000Y-113030000D03*
X154940000Y-95250000D03*
X157480000Y-95250000D03*
X121920000Y-95250000D03*
X124460000Y-95250000D03*
X88900000Y-95250000D03*
X91440000Y-95250000D03*
X154940000Y-77470000D03*
X157480000Y-77470000D03*
X121920000Y-77470000D03*
X124460000Y-77470000D03*
D11*
X157480000Y-107280000D03*
D12*
X154940000Y-107280000D03*
D11*
X124460000Y-107280000D03*
D12*
X121920000Y-107280000D03*
D11*
X91440000Y-107280000D03*
D12*
X88900000Y-107280000D03*
D11*
X157480000Y-89500000D03*
D12*
X154940000Y-89500000D03*
D11*
X124460000Y-89500000D03*
D12*
X121920000Y-89500000D03*
D11*
X91440000Y-89500000D03*
D12*
X88900000Y-89500000D03*
D11*
X157480000Y-71720000D03*
D12*
X154940000Y-71720000D03*
D11*
X124460000Y-71720000D03*
D12*
X121920000Y-71720000D03*
D10*
X129540000Y-106680000D03*
X137160000Y-106680000D03*
X137160000Y-109220000D03*
X129540000Y-109220000D03*
X129540000Y-119380000D03*
X137160000Y-119380000D03*
X96520000Y-106680000D03*
X104140000Y-106680000D03*
X104140000Y-109220000D03*
X96520000Y-109220000D03*
X96520000Y-119380000D03*
X104140000Y-119380000D03*
X63500000Y-106680000D03*
X71120000Y-106680000D03*
X71120000Y-109220000D03*
X63500000Y-109220000D03*
X63500000Y-119380000D03*
X71120000Y-119380000D03*
X129540000Y-88900000D03*
X137160000Y-88900000D03*
X137160000Y-91440000D03*
X129540000Y-91440000D03*
X129540000Y-101600000D03*
X137160000Y-101600000D03*
X96520000Y-88900000D03*
X104140000Y-88900000D03*
X104140000Y-91440000D03*
X96520000Y-91440000D03*
X96520000Y-101600000D03*
X104140000Y-101600000D03*
X63500000Y-88900000D03*
X71120000Y-88900000D03*
X71120000Y-91440000D03*
X63500000Y-91440000D03*
X63500000Y-101600000D03*
X71120000Y-101600000D03*
X129540000Y-71120000D03*
X137160000Y-71120000D03*
X137160000Y-73660000D03*
X129540000Y-73660000D03*
X129540000Y-83820000D03*
X137160000Y-83820000D03*
X96520000Y-71120000D03*
X104140000Y-71120000D03*
X104140000Y-73660000D03*
X96520000Y-73660000D03*
X96520000Y-83820000D03*
X104140000Y-83820000D03*
D12*
X142240000Y-107280000D03*
D11*
X139700000Y-107280000D03*
D12*
X109220000Y-107280000D03*
D11*
X106680000Y-107280000D03*
D12*
X76200000Y-107280000D03*
D11*
X73660000Y-107280000D03*
D12*
X142240000Y-89500000D03*
D11*
X139700000Y-89500000D03*
D12*
X109220000Y-89500000D03*
D11*
X106680000Y-89500000D03*
D12*
X76200000Y-89500000D03*
D11*
X73660000Y-89500000D03*
D12*
X142240000Y-71720000D03*
D11*
X139700000Y-71720000D03*
D12*
X109220000Y-71720000D03*
D11*
X106680000Y-71720000D03*
D10*
X142240000Y-113665000D03*
X139700000Y-113665000D03*
X109220000Y-113665000D03*
X106680000Y-113665000D03*
X76200000Y-113665000D03*
X73660000Y-113665000D03*
X142240000Y-95885000D03*
X139700000Y-95885000D03*
X109220000Y-95885000D03*
X106680000Y-95885000D03*
X76200000Y-95885000D03*
X73660000Y-95885000D03*
X142240000Y-78105000D03*
X139700000Y-78105000D03*
X109220000Y-78105000D03*
X106680000Y-78105000D03*
D12*
X142240000Y-119380000D03*
D11*
X142240000Y-116840000D03*
D12*
X109220000Y-119380000D03*
D11*
X109220000Y-116840000D03*
D12*
X76200000Y-119380000D03*
D11*
X76200000Y-116840000D03*
D12*
X142240000Y-101600000D03*
D11*
X142240000Y-99060000D03*
D12*
X109220000Y-101600000D03*
D11*
X109220000Y-99060000D03*
D12*
X76200000Y-101600000D03*
D11*
X76200000Y-99060000D03*
D12*
X142240000Y-83820000D03*
D11*
X142240000Y-81280000D03*
D12*
X109220000Y-83820000D03*
D11*
X109220000Y-81280000D03*
D10*
X152400000Y-119380000D03*
X144780000Y-119380000D03*
X144780000Y-109220000D03*
X152400000Y-109220000D03*
X152400000Y-106680000D03*
X144780000Y-106680000D03*
X119380000Y-119380000D03*
X111760000Y-119380000D03*
X111760000Y-109220000D03*
X119380000Y-109220000D03*
X119380000Y-106680000D03*
X111760000Y-106680000D03*
X86360000Y-119380000D03*
X78740000Y-119380000D03*
X78740000Y-109220000D03*
X86360000Y-109220000D03*
X86360000Y-106680000D03*
X78740000Y-106680000D03*
X152400000Y-101600000D03*
X144780000Y-101600000D03*
X144780000Y-91440000D03*
X152400000Y-91440000D03*
X152400000Y-88900000D03*
X144780000Y-88900000D03*
X119380000Y-101600000D03*
X111760000Y-101600000D03*
X111760000Y-91440000D03*
X119380000Y-91440000D03*
X119380000Y-88900000D03*
X111760000Y-88900000D03*
X86360000Y-101600000D03*
X78740000Y-101600000D03*
X78740000Y-91440000D03*
X86360000Y-91440000D03*
X86360000Y-88900000D03*
X78740000Y-88900000D03*
X152400000Y-83820000D03*
X144780000Y-83820000D03*
X144780000Y-73660000D03*
X152400000Y-73660000D03*
X152400000Y-71120000D03*
X144780000Y-71120000D03*
X119380000Y-83820000D03*
X111760000Y-83820000D03*
X111760000Y-73660000D03*
X119380000Y-73660000D03*
X119380000Y-71120000D03*
X111760000Y-71120000D03*
X73660000Y-78105000D03*
X76200000Y-78105000D03*
X91440000Y-77470000D03*
X88900000Y-77470000D03*
D11*
X73660000Y-71720000D03*
D12*
X76200000Y-71720000D03*
D11*
X76200000Y-81280000D03*
D12*
X76200000Y-83820000D03*
X88900000Y-71720000D03*
D11*
X91440000Y-71720000D03*
D10*
X71120000Y-83820000D03*
X63500000Y-83820000D03*
X63500000Y-73660000D03*
X71120000Y-73660000D03*
X71120000Y-71120000D03*
X63500000Y-71120000D03*
X78740000Y-71120000D03*
X86360000Y-71120000D03*
X86360000Y-73660000D03*
X78740000Y-73660000D03*
X78740000Y-83820000D03*
X86360000Y-83820000D03*
M02*
