M48
; DRILL file {KiCad (5.1.6)-1} date 06/03/20 08:15:06
; FORMAT={3:3/ absolute / metric / suppress leading zeros}
; #@! TF.CreationDate,2020-06-03T08:15:06+09:00
; #@! TF.GenerationSoftware,Kicad,Pcbnew,(5.1.6)-1
FMAT,2
METRIC,TZ
T1C0.700
T2C1.000
%
G90
G05
T1
X88900Y-77470
X91440Y-77470
X88900Y-113030
X91440Y-113030
X106680Y-95885
X109220Y-95885
X106680Y-113665
X109220Y-113665
X106680Y-78105
X109220Y-78105
X121920Y-113030
X124460Y-113030
X121920Y-77470
X124460Y-77470
X121920Y-95250
X124460Y-95250
X154940Y-95250
X157480Y-95250
X154940Y-113030
X157480Y-113030
X88900Y-95250
X91440Y-95250
X139700Y-113665
X142240Y-113665
X139700Y-78105
X142240Y-78105
X139700Y-95885
X142240Y-95885
X73660Y-95885
X76200Y-95885
X73660Y-78105
X76200Y-78105
X154940Y-77470
X157480Y-77470
X73660Y-113665
X76200Y-113665
T2
X142240Y-116840
X142240Y-119380
X73660Y-71720
X76200Y-71720
X129540Y-71120
X129540Y-73660
X129540Y-83820
X137160Y-71120
X137160Y-73660
X137160Y-83820
X96520Y-106680
X96520Y-109220
X96520Y-119380
X104140Y-106680
X104140Y-109220
X104140Y-119380
X111760Y-88900
X111760Y-91440
X111760Y-101600
X119380Y-88900
X119380Y-91440
X119380Y-101600
X78740Y-88900
X78740Y-91440
X78740Y-101600
X86360Y-88900
X86360Y-91440
X86360Y-101600
X139700Y-107280
X142240Y-107280
X106680Y-89500
X109220Y-89500
X129540Y-88900
X129540Y-91440
X129540Y-101600
X137160Y-88900
X137160Y-91440
X137160Y-101600
X109220Y-81280
X109220Y-83820
X76200Y-81280
X76200Y-83820
X88900Y-89500
X91440Y-89500
X111760Y-106680
X111760Y-109220
X111760Y-119380
X119380Y-106680
X119380Y-109220
X119380Y-119380
X96520Y-88900
X96520Y-91440
X96520Y-101600
X104140Y-88900
X104140Y-91440
X104140Y-101600
X73660Y-107280
X76200Y-107280
X76200Y-116840
X76200Y-119380
X111760Y-71120
X111760Y-73660
X111760Y-83820
X119380Y-71120
X119380Y-73660
X119380Y-83820
X154940Y-71720
X157480Y-71720
X144780Y-88900
X144780Y-91440
X144780Y-101600
X152400Y-88900
X152400Y-91440
X152400Y-101600
X144780Y-71120
X144780Y-73660
X144780Y-83820
X152400Y-71120
X152400Y-73660
X152400Y-83820
X121920Y-107280
X124460Y-107280
X144780Y-106680
X144780Y-109220
X144780Y-119380
X152400Y-106680
X152400Y-109220
X152400Y-119380
X88900Y-107280
X91440Y-107280
X78740Y-71120
X78740Y-73660
X78740Y-83820
X86360Y-71120
X86360Y-73660
X86360Y-83820
X121920Y-89500
X124460Y-89500
X76200Y-99060
X76200Y-101600
X139700Y-89500
X142240Y-89500
X96520Y-71120
X96520Y-73660
X96520Y-83820
X104140Y-71120
X104140Y-73660
X104140Y-83820
X142240Y-81280
X142240Y-83820
X63500Y-71120
X63500Y-73660
X63500Y-83820
X71120Y-71120
X71120Y-73660
X71120Y-83820
X154940Y-107280
X157480Y-107280
X106680Y-71720
X109220Y-71720
X121920Y-71720
X124460Y-71720
X78740Y-106680
X78740Y-109220
X78740Y-119380
X86360Y-106680
X86360Y-109220
X86360Y-119380
X88900Y-71720
X91440Y-71720
X63500Y-88900
X63500Y-91440
X63500Y-101600
X71120Y-88900
X71120Y-91440
X71120Y-101600
X109220Y-99060
X109220Y-101600
X129540Y-106680
X129540Y-109220
X129540Y-119380
X137160Y-106680
X137160Y-109220
X137160Y-119380
X106680Y-107280
X109220Y-107280
X142240Y-99060
X142240Y-101600
X63500Y-106680
X63500Y-109220
X63500Y-119380
X71120Y-106680
X71120Y-109220
X71120Y-119380
X109220Y-116840
X109220Y-119380
X154940Y-89500
X157480Y-89500
X73660Y-89500
X76200Y-89500
X139700Y-71720
X142240Y-71720
T0
M30
