M48
; DRILL file {KiCad (5.1.6)-1} date 06/03/20 08:14:29
; FORMAT={3:3/ absolute / metric / suppress leading zeros}
; #@! TF.CreationDate,2020-06-03T08:14:29+09:00
; #@! TF.GenerationSoftware,Kicad,Pcbnew,(5.1.6)-1
FMAT,2
METRIC,TZ
T1C0.700
T2C1.000
%
G90
G05
T1
X172720Y-97790
X175260Y-97790
X172720Y-62230
X175260Y-62230
X139700Y-80010
X142240Y-80010
X106680Y-62230
X109220Y-62230
X91440Y-80010
X93980Y-80010
X157480Y-80010
X160020Y-80010
X157480Y-97790
X160020Y-97790
X91440Y-97790
X93980Y-97790
X124460Y-62230
X127000Y-62230
X139700Y-97790
X142240Y-97790
X124460Y-97790
X127000Y-97790
X106680Y-80010
X109220Y-80010
X157480Y-62230
X160020Y-62230
X91440Y-62230
X93980Y-62230
X124460Y-80010
X127000Y-80010
X106680Y-97790
X109220Y-97790
X139700Y-62230
X142240Y-62230
X172720Y-80010
X175260Y-80010
T2
X160020Y-66040
X160020Y-68580
X127000Y-83820
X127000Y-86360
X96520Y-91440
X96520Y-93980
X96520Y-104140
X104140Y-91440
X104140Y-93980
X104140Y-104140
X157480Y-92040
X160020Y-92040
X124460Y-92040
X127000Y-92040
X172720Y-92040
X175260Y-92040
X114300Y-73660
X114300Y-76200
X114300Y-86360
X121920Y-73660
X121920Y-76200
X121920Y-86360
X139700Y-92040
X142240Y-92040
X129540Y-91440
X129540Y-93980
X129540Y-104140
X137160Y-91440
X137160Y-93980
X137160Y-104140
X96520Y-73660
X96520Y-76200
X96520Y-86360
X104140Y-73660
X104140Y-76200
X104140Y-86360
X147320Y-73660
X147320Y-76200
X147320Y-86360
X154940Y-73660
X154940Y-76200
X154940Y-86360
X127000Y-101600
X127000Y-104140
X162560Y-91440
X162560Y-93980
X162560Y-104140
X170180Y-91440
X170180Y-93980
X170180Y-104140
X129540Y-55880
X129540Y-58420
X129540Y-68580
X137160Y-55880
X137160Y-58420
X137160Y-68580
X114300Y-91440
X114300Y-93980
X114300Y-104140
X121920Y-91440
X121920Y-93980
X121920Y-104140
X160020Y-101600
X160020Y-104140
X106680Y-56480
X109220Y-56480
X93980Y-101600
X93980Y-104140
X93980Y-83820
X93980Y-86360
X129540Y-73660
X129540Y-76200
X129540Y-86360
X137160Y-73660
X137160Y-76200
X137160Y-86360
X81280Y-91440
X81280Y-93980
X81280Y-104140
X88900Y-91440
X88900Y-93980
X88900Y-104140
X172720Y-74260
X175260Y-74260
X96520Y-55880
X96520Y-58420
X96520Y-68580
X104140Y-55880
X104140Y-58420
X104140Y-68580
X157480Y-56480
X160020Y-56480
X127000Y-66040
X127000Y-68580
X157480Y-74260
X160020Y-74260
X114300Y-55880
X114300Y-58420
X114300Y-68580
X121920Y-55880
X121920Y-58420
X121920Y-68580
X147320Y-91440
X147320Y-93980
X147320Y-104140
X154940Y-91440
X154940Y-93980
X154940Y-104140
X81280Y-73660
X81280Y-76200
X81280Y-86360
X88900Y-73660
X88900Y-76200
X88900Y-86360
X91440Y-56480
X93980Y-56480
X91440Y-74260
X93980Y-74260
X162560Y-73660
X162560Y-76200
X162560Y-86360
X170180Y-73660
X170180Y-76200
X170180Y-86360
X124460Y-74260
X127000Y-74260
X147320Y-55880
X147320Y-58420
X147320Y-68580
X154940Y-55880
X154940Y-58420
X154940Y-68580
X106680Y-74260
X109220Y-74260
X106680Y-92040
X109220Y-92040
X93980Y-66040
X93980Y-68580
X160020Y-83820
X160020Y-86360
X162560Y-55880
X162560Y-58420
X162560Y-68580
X170180Y-55880
X170180Y-58420
X170180Y-68580
X91440Y-92040
X93980Y-92040
X172720Y-56480
X175260Y-56480
X139700Y-74260
X142240Y-74260
X139700Y-56480
X142240Y-56480
X81280Y-55880
X81280Y-58420
X81280Y-68580
X88900Y-55880
X88900Y-58420
X88900Y-68580
X124460Y-56480
X127000Y-56480
T0
M30
