G04 #@! TF.GenerationSoftware,KiCad,Pcbnew,(5.1.6)-1*
G04 #@! TF.CreationDate,2020-06-25T08:24:29+09:00*
G04 #@! TF.ProjectId,NAND___,4e414e44-62d8-4512-9e6b-696361645f70,rev?*
G04 #@! TF.SameCoordinates,Original*
G04 #@! TF.FileFunction,Legend,Bot*
G04 #@! TF.FilePolarity,Positive*
%FSLAX46Y46*%
G04 Gerber Fmt 4.6, Leading zero omitted, Abs format (unit mm)*
G04 Created by KiCad (PCBNEW (5.1.6)-1) date 2020-06-25 08:24:29*
%MOMM*%
%LPD*%
G01*
G04 APERTURE LIST*
%ADD10C,0.150000*%
%ADD11C,0.120000*%
G04 APERTURE END LIST*
D10*
X23614047Y-76057619D02*
X23661666Y-75962380D01*
X23709285Y-75914761D01*
X23804523Y-75867142D01*
X23852142Y-75867142D01*
X23947380Y-75914761D01*
X23995000Y-75962380D01*
X24042619Y-76057619D01*
X24042619Y-76248095D01*
X23995000Y-76343333D01*
X23947380Y-76390952D01*
X23852142Y-76438571D01*
X23804523Y-76438571D01*
X23709285Y-76390952D01*
X23661666Y-76343333D01*
X23614047Y-76248095D01*
X23614047Y-76057619D01*
X23566428Y-75962380D01*
X23518809Y-75914761D01*
X23423571Y-75867142D01*
X23233095Y-75867142D01*
X23137857Y-75914761D01*
X23090238Y-75962380D01*
X23042619Y-76057619D01*
X23042619Y-76248095D01*
X23090238Y-76343333D01*
X23137857Y-76390952D01*
X23233095Y-76438571D01*
X23423571Y-76438571D01*
X23518809Y-76390952D01*
X23566428Y-76343333D01*
X23614047Y-76248095D01*
X23614047Y-77010000D02*
X23661666Y-76914761D01*
X23709285Y-76867142D01*
X23804523Y-76819523D01*
X23852142Y-76819523D01*
X23947380Y-76867142D01*
X23995000Y-76914761D01*
X24042619Y-77010000D01*
X24042619Y-77200476D01*
X23995000Y-77295714D01*
X23947380Y-77343333D01*
X23852142Y-77390952D01*
X23804523Y-77390952D01*
X23709285Y-77343333D01*
X23661666Y-77295714D01*
X23614047Y-77200476D01*
X23614047Y-77010000D01*
X23566428Y-76914761D01*
X23518809Y-76867142D01*
X23423571Y-76819523D01*
X23233095Y-76819523D01*
X23137857Y-76867142D01*
X23090238Y-76914761D01*
X23042619Y-77010000D01*
X23042619Y-77200476D01*
X23090238Y-77295714D01*
X23137857Y-77343333D01*
X23233095Y-77390952D01*
X23423571Y-77390952D01*
X23518809Y-77343333D01*
X23566428Y-77295714D01*
X23614047Y-77200476D01*
X23137857Y-77819523D02*
X23090238Y-77867142D01*
X23042619Y-77819523D01*
X23090238Y-77771904D01*
X23137857Y-77819523D01*
X23042619Y-77819523D01*
X23042619Y-78343333D02*
X23042619Y-78533809D01*
X23090238Y-78629047D01*
X23137857Y-78676666D01*
X23280714Y-78771904D01*
X23471190Y-78819523D01*
X23852142Y-78819523D01*
X23947380Y-78771904D01*
X23995000Y-78724285D01*
X24042619Y-78629047D01*
X24042619Y-78438571D01*
X23995000Y-78343333D01*
X23947380Y-78295714D01*
X23852142Y-78248095D01*
X23614047Y-78248095D01*
X23518809Y-78295714D01*
X23471190Y-78343333D01*
X23423571Y-78438571D01*
X23423571Y-78629047D01*
X23471190Y-78724285D01*
X23518809Y-78771904D01*
X23614047Y-78819523D01*
X24042619Y-79438571D02*
X24042619Y-79533809D01*
X23995000Y-79629047D01*
X23947380Y-79676666D01*
X23852142Y-79724285D01*
X23661666Y-79771904D01*
X23423571Y-79771904D01*
X23233095Y-79724285D01*
X23137857Y-79676666D01*
X23090238Y-79629047D01*
X23042619Y-79533809D01*
X23042619Y-79438571D01*
X23090238Y-79343333D01*
X23137857Y-79295714D01*
X23233095Y-79248095D01*
X23423571Y-79200476D01*
X23661666Y-79200476D01*
X23852142Y-79248095D01*
X23947380Y-79295714D01*
X23995000Y-79343333D01*
X24042619Y-79438571D01*
X24042619Y-80390952D02*
X24042619Y-80486190D01*
X23995000Y-80581428D01*
X23947380Y-80629047D01*
X23852142Y-80676666D01*
X23661666Y-80724285D01*
X23423571Y-80724285D01*
X23233095Y-80676666D01*
X23137857Y-80629047D01*
X23090238Y-80581428D01*
X23042619Y-80486190D01*
X23042619Y-80390952D01*
X23090238Y-80295714D01*
X23137857Y-80248095D01*
X23233095Y-80200476D01*
X23423571Y-80152857D01*
X23661666Y-80152857D01*
X23852142Y-80200476D01*
X23947380Y-80248095D01*
X23995000Y-80295714D01*
X24042619Y-80390952D01*
X23042619Y-81914761D02*
X23709285Y-81914761D01*
X23614047Y-81914761D02*
X23661666Y-81962380D01*
X23709285Y-82057619D01*
X23709285Y-82200476D01*
X23661666Y-82295714D01*
X23566428Y-82343333D01*
X23042619Y-82343333D01*
X23566428Y-82343333D02*
X23661666Y-82390952D01*
X23709285Y-82486190D01*
X23709285Y-82629047D01*
X23661666Y-82724285D01*
X23566428Y-82771904D01*
X23042619Y-82771904D01*
X23042619Y-83248095D02*
X23709285Y-83248095D01*
X23614047Y-83248095D02*
X23661666Y-83295714D01*
X23709285Y-83390952D01*
X23709285Y-83533809D01*
X23661666Y-83629047D01*
X23566428Y-83676666D01*
X23042619Y-83676666D01*
X23566428Y-83676666D02*
X23661666Y-83724285D01*
X23709285Y-83819523D01*
X23709285Y-83962380D01*
X23661666Y-84057619D01*
X23566428Y-84105238D01*
X23042619Y-84105238D01*
D11*
X24765000Y-35560000D02*
X24765000Y-124460000D01*
X31750000Y-35560000D02*
X24178579Y-35560000D01*
X31750000Y-124460000D02*
X24178579Y-124460000D01*
X24765000Y-124460000D02*
X24178579Y-123333496D01*
X24765000Y-124460000D02*
X25351421Y-123333496D01*
X24765000Y-35560000D02*
X24178579Y-36686504D01*
X24765000Y-35560000D02*
X25351421Y-36686504D01*
D10*
X77232380Y-30932380D02*
X77422857Y-30932380D01*
X77518095Y-30884761D01*
X77565714Y-30837142D01*
X77660952Y-30694285D01*
X77708571Y-30503809D01*
X77708571Y-30122857D01*
X77660952Y-30027619D01*
X77613333Y-29980000D01*
X77518095Y-29932380D01*
X77327619Y-29932380D01*
X77232380Y-29980000D01*
X77184761Y-30027619D01*
X77137142Y-30122857D01*
X77137142Y-30360952D01*
X77184761Y-30456190D01*
X77232380Y-30503809D01*
X77327619Y-30551428D01*
X77518095Y-30551428D01*
X77613333Y-30503809D01*
X77660952Y-30456190D01*
X77708571Y-30360952D01*
X78184761Y-30932380D02*
X78375238Y-30932380D01*
X78470476Y-30884761D01*
X78518095Y-30837142D01*
X78613333Y-30694285D01*
X78660952Y-30503809D01*
X78660952Y-30122857D01*
X78613333Y-30027619D01*
X78565714Y-29980000D01*
X78470476Y-29932380D01*
X78280000Y-29932380D01*
X78184761Y-29980000D01*
X78137142Y-30027619D01*
X78089523Y-30122857D01*
X78089523Y-30360952D01*
X78137142Y-30456190D01*
X78184761Y-30503809D01*
X78280000Y-30551428D01*
X78470476Y-30551428D01*
X78565714Y-30503809D01*
X78613333Y-30456190D01*
X78660952Y-30360952D01*
X79089523Y-30837142D02*
X79137142Y-30884761D01*
X79089523Y-30932380D01*
X79041904Y-30884761D01*
X79089523Y-30837142D01*
X79089523Y-30932380D01*
X79756190Y-29932380D02*
X79851428Y-29932380D01*
X79946666Y-29980000D01*
X79994285Y-30027619D01*
X80041904Y-30122857D01*
X80089523Y-30313333D01*
X80089523Y-30551428D01*
X80041904Y-30741904D01*
X79994285Y-30837142D01*
X79946666Y-30884761D01*
X79851428Y-30932380D01*
X79756190Y-30932380D01*
X79660952Y-30884761D01*
X79613333Y-30837142D01*
X79565714Y-30741904D01*
X79518095Y-30551428D01*
X79518095Y-30313333D01*
X79565714Y-30122857D01*
X79613333Y-30027619D01*
X79660952Y-29980000D01*
X79756190Y-29932380D01*
X80946666Y-29932380D02*
X80756190Y-29932380D01*
X80660952Y-29980000D01*
X80613333Y-30027619D01*
X80518095Y-30170476D01*
X80470476Y-30360952D01*
X80470476Y-30741904D01*
X80518095Y-30837142D01*
X80565714Y-30884761D01*
X80660952Y-30932380D01*
X80851428Y-30932380D01*
X80946666Y-30884761D01*
X80994285Y-30837142D01*
X81041904Y-30741904D01*
X81041904Y-30503809D01*
X80994285Y-30408571D01*
X80946666Y-30360952D01*
X80851428Y-30313333D01*
X80660952Y-30313333D01*
X80565714Y-30360952D01*
X80518095Y-30408571D01*
X80470476Y-30503809D01*
X81660952Y-29932380D02*
X81756190Y-29932380D01*
X81851428Y-29980000D01*
X81899047Y-30027619D01*
X81946666Y-30122857D01*
X81994285Y-30313333D01*
X81994285Y-30551428D01*
X81946666Y-30741904D01*
X81899047Y-30837142D01*
X81851428Y-30884761D01*
X81756190Y-30932380D01*
X81660952Y-30932380D01*
X81565714Y-30884761D01*
X81518095Y-30837142D01*
X81470476Y-30741904D01*
X81422857Y-30551428D01*
X81422857Y-30313333D01*
X81470476Y-30122857D01*
X81518095Y-30027619D01*
X81565714Y-29980000D01*
X81660952Y-29932380D01*
X83184761Y-30932380D02*
X83184761Y-30265714D01*
X83184761Y-30360952D02*
X83232380Y-30313333D01*
X83327619Y-30265714D01*
X83470476Y-30265714D01*
X83565714Y-30313333D01*
X83613333Y-30408571D01*
X83613333Y-30932380D01*
X83613333Y-30408571D02*
X83660952Y-30313333D01*
X83756190Y-30265714D01*
X83899047Y-30265714D01*
X83994285Y-30313333D01*
X84041904Y-30408571D01*
X84041904Y-30932380D01*
X84518095Y-30932380D02*
X84518095Y-30265714D01*
X84518095Y-30360952D02*
X84565714Y-30313333D01*
X84660952Y-30265714D01*
X84803809Y-30265714D01*
X84899047Y-30313333D01*
X84946666Y-30408571D01*
X84946666Y-30932380D01*
X84946666Y-30408571D02*
X84994285Y-30313333D01*
X85089523Y-30265714D01*
X85232380Y-30265714D01*
X85327619Y-30313333D01*
X85375238Y-30408571D01*
X85375238Y-30932380D01*
D11*
X31750000Y-31750000D02*
X130810000Y-31750000D01*
X31750000Y-35560000D02*
X31750000Y-31163579D01*
X130810000Y-35560000D02*
X130810000Y-31163579D01*
X130810000Y-31750000D02*
X129683496Y-32336421D01*
X130810000Y-31750000D02*
X129683496Y-31163579D01*
X31750000Y-31750000D02*
X32876504Y-32336421D01*
X31750000Y-31750000D02*
X32876504Y-31163579D01*
D10*
X26852857Y-106132380D02*
X27186190Y-107132380D01*
X27519523Y-106132380D01*
X27852857Y-106751428D02*
X28614761Y-106751428D01*
X29662380Y-107037142D02*
X29614761Y-107084761D01*
X29471904Y-107132380D01*
X29376666Y-107132380D01*
X29233809Y-107084761D01*
X29138571Y-106989523D01*
X29090952Y-106894285D01*
X29043333Y-106703809D01*
X29043333Y-106560952D01*
X29090952Y-106370476D01*
X29138571Y-106275238D01*
X29233809Y-106180000D01*
X29376666Y-106132380D01*
X29471904Y-106132380D01*
X29614761Y-106180000D01*
X29662380Y-106227619D01*
X30090952Y-106132380D02*
X30090952Y-106941904D01*
X30138571Y-107037142D01*
X30186190Y-107084761D01*
X30281428Y-107132380D01*
X30471904Y-107132380D01*
X30567142Y-107084761D01*
X30614761Y-107037142D01*
X30662380Y-106941904D01*
X30662380Y-106132380D01*
X30995714Y-106132380D02*
X31567142Y-106132380D01*
X31281428Y-107132380D02*
X31281428Y-106132380D01*
X26852857Y-88352380D02*
X27186190Y-89352380D01*
X27519523Y-88352380D01*
X27852857Y-88971428D02*
X28614761Y-88971428D01*
X29662380Y-89257142D02*
X29614761Y-89304761D01*
X29471904Y-89352380D01*
X29376666Y-89352380D01*
X29233809Y-89304761D01*
X29138571Y-89209523D01*
X29090952Y-89114285D01*
X29043333Y-88923809D01*
X29043333Y-88780952D01*
X29090952Y-88590476D01*
X29138571Y-88495238D01*
X29233809Y-88400000D01*
X29376666Y-88352380D01*
X29471904Y-88352380D01*
X29614761Y-88400000D01*
X29662380Y-88447619D01*
X30090952Y-88352380D02*
X30090952Y-89161904D01*
X30138571Y-89257142D01*
X30186190Y-89304761D01*
X30281428Y-89352380D01*
X30471904Y-89352380D01*
X30567142Y-89304761D01*
X30614761Y-89257142D01*
X30662380Y-89161904D01*
X30662380Y-88352380D01*
X30995714Y-88352380D02*
X31567142Y-88352380D01*
X31281428Y-89352380D02*
X31281428Y-88352380D01*
X26852857Y-70572380D02*
X27186190Y-71572380D01*
X27519523Y-70572380D01*
X27852857Y-71191428D02*
X28614761Y-71191428D01*
X29662380Y-71477142D02*
X29614761Y-71524761D01*
X29471904Y-71572380D01*
X29376666Y-71572380D01*
X29233809Y-71524761D01*
X29138571Y-71429523D01*
X29090952Y-71334285D01*
X29043333Y-71143809D01*
X29043333Y-71000952D01*
X29090952Y-70810476D01*
X29138571Y-70715238D01*
X29233809Y-70620000D01*
X29376666Y-70572380D01*
X29471904Y-70572380D01*
X29614761Y-70620000D01*
X29662380Y-70667619D01*
X30090952Y-70572380D02*
X30090952Y-71381904D01*
X30138571Y-71477142D01*
X30186190Y-71524761D01*
X30281428Y-71572380D01*
X30471904Y-71572380D01*
X30567142Y-71524761D01*
X30614761Y-71477142D01*
X30662380Y-71381904D01*
X30662380Y-70572380D01*
X30995714Y-70572380D02*
X31567142Y-70572380D01*
X31281428Y-71572380D02*
X31281428Y-70572380D01*
X26852857Y-52792380D02*
X27186190Y-53792380D01*
X27519523Y-52792380D01*
X27852857Y-53411428D02*
X28614761Y-53411428D01*
X29662380Y-53697142D02*
X29614761Y-53744761D01*
X29471904Y-53792380D01*
X29376666Y-53792380D01*
X29233809Y-53744761D01*
X29138571Y-53649523D01*
X29090952Y-53554285D01*
X29043333Y-53363809D01*
X29043333Y-53220952D01*
X29090952Y-53030476D01*
X29138571Y-52935238D01*
X29233809Y-52840000D01*
X29376666Y-52792380D01*
X29471904Y-52792380D01*
X29614761Y-52840000D01*
X29662380Y-52887619D01*
X30090952Y-52792380D02*
X30090952Y-53601904D01*
X30138571Y-53697142D01*
X30186190Y-53744761D01*
X30281428Y-53792380D01*
X30471904Y-53792380D01*
X30567142Y-53744761D01*
X30614761Y-53697142D01*
X30662380Y-53601904D01*
X30662380Y-52792380D01*
X30995714Y-52792380D02*
X31567142Y-52792380D01*
X31281428Y-53792380D02*
X31281428Y-52792380D01*
X95432857Y-34377380D02*
X95766190Y-35377380D01*
X96099523Y-34377380D01*
X96432857Y-34996428D02*
X97194761Y-34996428D01*
X98242380Y-35282142D02*
X98194761Y-35329761D01*
X98051904Y-35377380D01*
X97956666Y-35377380D01*
X97813809Y-35329761D01*
X97718571Y-35234523D01*
X97670952Y-35139285D01*
X97623333Y-34948809D01*
X97623333Y-34805952D01*
X97670952Y-34615476D01*
X97718571Y-34520238D01*
X97813809Y-34425000D01*
X97956666Y-34377380D01*
X98051904Y-34377380D01*
X98194761Y-34425000D01*
X98242380Y-34472619D01*
X98670952Y-34377380D02*
X98670952Y-35186904D01*
X98718571Y-35282142D01*
X98766190Y-35329761D01*
X98861428Y-35377380D01*
X99051904Y-35377380D01*
X99147142Y-35329761D01*
X99194761Y-35282142D01*
X99242380Y-35186904D01*
X99242380Y-34377380D01*
X99575714Y-34377380D02*
X100147142Y-34377380D01*
X99861428Y-35377380D02*
X99861428Y-34377380D01*
X62412857Y-34377380D02*
X62746190Y-35377380D01*
X63079523Y-34377380D01*
X63412857Y-34996428D02*
X64174761Y-34996428D01*
X65222380Y-35282142D02*
X65174761Y-35329761D01*
X65031904Y-35377380D01*
X64936666Y-35377380D01*
X64793809Y-35329761D01*
X64698571Y-35234523D01*
X64650952Y-35139285D01*
X64603333Y-34948809D01*
X64603333Y-34805952D01*
X64650952Y-34615476D01*
X64698571Y-34520238D01*
X64793809Y-34425000D01*
X64936666Y-34377380D01*
X65031904Y-34377380D01*
X65174761Y-34425000D01*
X65222380Y-34472619D01*
X65650952Y-34377380D02*
X65650952Y-35186904D01*
X65698571Y-35282142D01*
X65746190Y-35329761D01*
X65841428Y-35377380D01*
X66031904Y-35377380D01*
X66127142Y-35329761D01*
X66174761Y-35282142D01*
X66222380Y-35186904D01*
X66222380Y-34377380D01*
X66555714Y-34377380D02*
X67127142Y-34377380D01*
X66841428Y-35377380D02*
X66841428Y-34377380D01*
D11*
X31750000Y-106680000D02*
X130810000Y-106680000D01*
X130810000Y-88900000D02*
X31750000Y-88900000D01*
X31750000Y-71120000D02*
X130810000Y-71120000D01*
X130810000Y-53340000D02*
X31750000Y-53340000D01*
X97790000Y-124460000D02*
X97790000Y-35560000D01*
X64770000Y-35560000D02*
X64770000Y-124460000D01*
X128965000Y-111150000D02*
X128965000Y-109820000D01*
X127635000Y-111150000D02*
X128965000Y-111150000D01*
X126365000Y-111150000D02*
X126365000Y-108490000D01*
X126365000Y-108490000D02*
X123765000Y-108490000D01*
X126365000Y-111150000D02*
X123765000Y-111150000D01*
X123765000Y-111150000D02*
X123765000Y-108490000D01*
X95945000Y-111150000D02*
X95945000Y-109820000D01*
X94615000Y-111150000D02*
X95945000Y-111150000D01*
X93345000Y-111150000D02*
X93345000Y-108490000D01*
X93345000Y-108490000D02*
X90745000Y-108490000D01*
X93345000Y-111150000D02*
X90745000Y-111150000D01*
X90745000Y-111150000D02*
X90745000Y-108490000D01*
X62925000Y-111150000D02*
X62925000Y-109820000D01*
X61595000Y-111150000D02*
X62925000Y-111150000D01*
X60325000Y-111150000D02*
X60325000Y-108490000D01*
X60325000Y-108490000D02*
X57725000Y-108490000D01*
X60325000Y-111150000D02*
X57725000Y-111150000D01*
X57725000Y-111150000D02*
X57725000Y-108490000D01*
X128965000Y-93370000D02*
X128965000Y-92040000D01*
X127635000Y-93370000D02*
X128965000Y-93370000D01*
X126365000Y-93370000D02*
X126365000Y-90710000D01*
X126365000Y-90710000D02*
X123765000Y-90710000D01*
X126365000Y-93370000D02*
X123765000Y-93370000D01*
X123765000Y-93370000D02*
X123765000Y-90710000D01*
X95945000Y-93370000D02*
X95945000Y-92040000D01*
X94615000Y-93370000D02*
X95945000Y-93370000D01*
X93345000Y-93370000D02*
X93345000Y-90710000D01*
X93345000Y-90710000D02*
X90745000Y-90710000D01*
X93345000Y-93370000D02*
X90745000Y-93370000D01*
X90745000Y-93370000D02*
X90745000Y-90710000D01*
X62925000Y-93370000D02*
X62925000Y-92040000D01*
X61595000Y-93370000D02*
X62925000Y-93370000D01*
X60325000Y-93370000D02*
X60325000Y-90710000D01*
X60325000Y-90710000D02*
X57725000Y-90710000D01*
X60325000Y-93370000D02*
X57725000Y-93370000D01*
X57725000Y-93370000D02*
X57725000Y-90710000D01*
X128965000Y-75590000D02*
X128965000Y-74260000D01*
X127635000Y-75590000D02*
X128965000Y-75590000D01*
X126365000Y-75590000D02*
X126365000Y-72930000D01*
X126365000Y-72930000D02*
X123765000Y-72930000D01*
X126365000Y-75590000D02*
X123765000Y-75590000D01*
X123765000Y-75590000D02*
X123765000Y-72930000D01*
X95945000Y-75590000D02*
X95945000Y-74260000D01*
X94615000Y-75590000D02*
X95945000Y-75590000D01*
X93345000Y-75590000D02*
X93345000Y-72930000D01*
X93345000Y-72930000D02*
X90745000Y-72930000D01*
X93345000Y-75590000D02*
X90745000Y-75590000D01*
X90745000Y-75590000D02*
X90745000Y-72930000D01*
X62925000Y-75590000D02*
X62925000Y-74260000D01*
X61595000Y-75590000D02*
X62925000Y-75590000D01*
X60325000Y-75590000D02*
X60325000Y-72930000D01*
X60325000Y-72930000D02*
X57725000Y-72930000D01*
X60325000Y-75590000D02*
X57725000Y-75590000D01*
X57725000Y-75590000D02*
X57725000Y-72930000D01*
X128965000Y-57810000D02*
X128965000Y-56480000D01*
X127635000Y-57810000D02*
X128965000Y-57810000D01*
X126365000Y-57810000D02*
X126365000Y-55150000D01*
X126365000Y-55150000D02*
X123765000Y-55150000D01*
X126365000Y-57810000D02*
X123765000Y-57810000D01*
X123765000Y-57810000D02*
X123765000Y-55150000D01*
X95945000Y-57810000D02*
X95945000Y-56480000D01*
X94615000Y-57810000D02*
X95945000Y-57810000D01*
X93345000Y-57810000D02*
X93345000Y-55150000D01*
X93345000Y-55150000D02*
X90745000Y-55150000D01*
X93345000Y-57810000D02*
X90745000Y-57810000D01*
X90745000Y-57810000D02*
X90745000Y-55150000D01*
X62925000Y-57810000D02*
X62925000Y-56480000D01*
X61595000Y-57810000D02*
X62925000Y-57810000D01*
X60325000Y-57810000D02*
X60325000Y-55150000D01*
X60325000Y-55150000D02*
X57725000Y-55150000D01*
X60325000Y-57810000D02*
X57725000Y-57810000D01*
X57725000Y-57810000D02*
X57725000Y-55150000D01*
X128965000Y-40030000D02*
X128965000Y-38700000D01*
X127635000Y-40030000D02*
X128965000Y-40030000D01*
X126365000Y-40030000D02*
X126365000Y-37370000D01*
X126365000Y-37370000D02*
X123765000Y-37370000D01*
X126365000Y-40030000D02*
X123765000Y-40030000D01*
X123765000Y-40030000D02*
X123765000Y-37370000D01*
X95945000Y-40030000D02*
X95945000Y-38700000D01*
X94615000Y-40030000D02*
X95945000Y-40030000D01*
X93345000Y-40030000D02*
X93345000Y-37370000D01*
X93345000Y-37370000D02*
X90745000Y-37370000D01*
X93345000Y-40030000D02*
X90745000Y-40030000D01*
X90745000Y-40030000D02*
X90745000Y-37370000D01*
X113725000Y-123250000D02*
X111065000Y-123250000D01*
X113725000Y-120650000D02*
X113725000Y-123250000D01*
X111065000Y-120650000D02*
X111065000Y-123250000D01*
X113725000Y-120650000D02*
X111065000Y-120650000D01*
X113725000Y-119380000D02*
X113725000Y-118050000D01*
X113725000Y-118050000D02*
X112395000Y-118050000D01*
X80705000Y-123250000D02*
X78045000Y-123250000D01*
X80705000Y-120650000D02*
X80705000Y-123250000D01*
X78045000Y-120650000D02*
X78045000Y-123250000D01*
X80705000Y-120650000D02*
X78045000Y-120650000D01*
X80705000Y-119380000D02*
X80705000Y-118050000D01*
X80705000Y-118050000D02*
X79375000Y-118050000D01*
X47685000Y-123250000D02*
X45025000Y-123250000D01*
X47685000Y-120650000D02*
X47685000Y-123250000D01*
X45025000Y-120650000D02*
X45025000Y-123250000D01*
X47685000Y-120650000D02*
X45025000Y-120650000D01*
X47685000Y-119380000D02*
X47685000Y-118050000D01*
X47685000Y-118050000D02*
X46355000Y-118050000D01*
X113725000Y-105470000D02*
X111065000Y-105470000D01*
X113725000Y-102870000D02*
X113725000Y-105470000D01*
X111065000Y-102870000D02*
X111065000Y-105470000D01*
X113725000Y-102870000D02*
X111065000Y-102870000D01*
X113725000Y-101600000D02*
X113725000Y-100270000D01*
X113725000Y-100270000D02*
X112395000Y-100270000D01*
X80705000Y-105470000D02*
X78045000Y-105470000D01*
X80705000Y-102870000D02*
X80705000Y-105470000D01*
X78045000Y-102870000D02*
X78045000Y-105470000D01*
X80705000Y-102870000D02*
X78045000Y-102870000D01*
X80705000Y-101600000D02*
X80705000Y-100270000D01*
X80705000Y-100270000D02*
X79375000Y-100270000D01*
X47685000Y-105470000D02*
X45025000Y-105470000D01*
X47685000Y-102870000D02*
X47685000Y-105470000D01*
X45025000Y-102870000D02*
X45025000Y-105470000D01*
X47685000Y-102870000D02*
X45025000Y-102870000D01*
X47685000Y-101600000D02*
X47685000Y-100270000D01*
X47685000Y-100270000D02*
X46355000Y-100270000D01*
X113725000Y-87690000D02*
X111065000Y-87690000D01*
X113725000Y-85090000D02*
X113725000Y-87690000D01*
X111065000Y-85090000D02*
X111065000Y-87690000D01*
X113725000Y-85090000D02*
X111065000Y-85090000D01*
X113725000Y-83820000D02*
X113725000Y-82490000D01*
X113725000Y-82490000D02*
X112395000Y-82490000D01*
X80705000Y-87690000D02*
X78045000Y-87690000D01*
X80705000Y-85090000D02*
X80705000Y-87690000D01*
X78045000Y-85090000D02*
X78045000Y-87690000D01*
X80705000Y-85090000D02*
X78045000Y-85090000D01*
X80705000Y-83820000D02*
X80705000Y-82490000D01*
X80705000Y-82490000D02*
X79375000Y-82490000D01*
X47685000Y-87690000D02*
X45025000Y-87690000D01*
X47685000Y-85090000D02*
X47685000Y-87690000D01*
X45025000Y-85090000D02*
X45025000Y-87690000D01*
X47685000Y-85090000D02*
X45025000Y-85090000D01*
X47685000Y-83820000D02*
X47685000Y-82490000D01*
X47685000Y-82490000D02*
X46355000Y-82490000D01*
X113725000Y-69910000D02*
X111065000Y-69910000D01*
X113725000Y-67310000D02*
X113725000Y-69910000D01*
X111065000Y-67310000D02*
X111065000Y-69910000D01*
X113725000Y-67310000D02*
X111065000Y-67310000D01*
X113725000Y-66040000D02*
X113725000Y-64710000D01*
X113725000Y-64710000D02*
X112395000Y-64710000D01*
X80705000Y-69910000D02*
X78045000Y-69910000D01*
X80705000Y-67310000D02*
X80705000Y-69910000D01*
X78045000Y-67310000D02*
X78045000Y-69910000D01*
X80705000Y-67310000D02*
X78045000Y-67310000D01*
X80705000Y-66040000D02*
X80705000Y-64710000D01*
X80705000Y-64710000D02*
X79375000Y-64710000D01*
X47685000Y-69910000D02*
X45025000Y-69910000D01*
X47685000Y-67310000D02*
X47685000Y-69910000D01*
X45025000Y-67310000D02*
X45025000Y-69910000D01*
X47685000Y-67310000D02*
X45025000Y-67310000D01*
X47685000Y-66040000D02*
X47685000Y-64710000D01*
X47685000Y-64710000D02*
X46355000Y-64710000D01*
X113725000Y-52130000D02*
X111065000Y-52130000D01*
X113725000Y-49530000D02*
X113725000Y-52130000D01*
X111065000Y-49530000D02*
X111065000Y-52130000D01*
X113725000Y-49530000D02*
X111065000Y-49530000D01*
X113725000Y-48260000D02*
X113725000Y-46930000D01*
X113725000Y-46930000D02*
X112395000Y-46930000D01*
X80705000Y-52130000D02*
X78045000Y-52130000D01*
X80705000Y-49530000D02*
X80705000Y-52130000D01*
X78045000Y-49530000D02*
X78045000Y-52130000D01*
X80705000Y-49530000D02*
X78045000Y-49530000D01*
X80705000Y-48260000D02*
X80705000Y-46930000D01*
X80705000Y-46930000D02*
X79375000Y-46930000D01*
X113725000Y-108490000D02*
X113725000Y-111150000D01*
X111125000Y-108490000D02*
X113725000Y-108490000D01*
X111125000Y-111150000D02*
X113725000Y-111150000D01*
X111125000Y-108490000D02*
X111125000Y-111150000D01*
X109855000Y-108490000D02*
X108525000Y-108490000D01*
X108525000Y-108490000D02*
X108525000Y-109820000D01*
X80705000Y-108490000D02*
X80705000Y-111150000D01*
X78105000Y-108490000D02*
X80705000Y-108490000D01*
X78105000Y-111150000D02*
X80705000Y-111150000D01*
X78105000Y-108490000D02*
X78105000Y-111150000D01*
X76835000Y-108490000D02*
X75505000Y-108490000D01*
X75505000Y-108490000D02*
X75505000Y-109820000D01*
X47685000Y-108490000D02*
X47685000Y-111150000D01*
X45085000Y-108490000D02*
X47685000Y-108490000D01*
X45085000Y-111150000D02*
X47685000Y-111150000D01*
X45085000Y-108490000D02*
X45085000Y-111150000D01*
X43815000Y-108490000D02*
X42485000Y-108490000D01*
X42485000Y-108490000D02*
X42485000Y-109820000D01*
X113725000Y-90710000D02*
X113725000Y-93370000D01*
X111125000Y-90710000D02*
X113725000Y-90710000D01*
X111125000Y-93370000D02*
X113725000Y-93370000D01*
X111125000Y-90710000D02*
X111125000Y-93370000D01*
X109855000Y-90710000D02*
X108525000Y-90710000D01*
X108525000Y-90710000D02*
X108525000Y-92040000D01*
X80705000Y-90710000D02*
X80705000Y-93370000D01*
X78105000Y-90710000D02*
X80705000Y-90710000D01*
X78105000Y-93370000D02*
X80705000Y-93370000D01*
X78105000Y-90710000D02*
X78105000Y-93370000D01*
X76835000Y-90710000D02*
X75505000Y-90710000D01*
X75505000Y-90710000D02*
X75505000Y-92040000D01*
X47685000Y-90710000D02*
X47685000Y-93370000D01*
X45085000Y-90710000D02*
X47685000Y-90710000D01*
X45085000Y-93370000D02*
X47685000Y-93370000D01*
X45085000Y-90710000D02*
X45085000Y-93370000D01*
X43815000Y-90710000D02*
X42485000Y-90710000D01*
X42485000Y-90710000D02*
X42485000Y-92040000D01*
X113725000Y-72930000D02*
X113725000Y-75590000D01*
X111125000Y-72930000D02*
X113725000Y-72930000D01*
X111125000Y-75590000D02*
X113725000Y-75590000D01*
X111125000Y-72930000D02*
X111125000Y-75590000D01*
X109855000Y-72930000D02*
X108525000Y-72930000D01*
X108525000Y-72930000D02*
X108525000Y-74260000D01*
X80705000Y-72930000D02*
X80705000Y-75590000D01*
X78105000Y-72930000D02*
X80705000Y-72930000D01*
X78105000Y-75590000D02*
X80705000Y-75590000D01*
X78105000Y-72930000D02*
X78105000Y-75590000D01*
X76835000Y-72930000D02*
X75505000Y-72930000D01*
X75505000Y-72930000D02*
X75505000Y-74260000D01*
X47685000Y-72930000D02*
X47685000Y-75590000D01*
X45085000Y-72930000D02*
X47685000Y-72930000D01*
X45085000Y-75590000D02*
X47685000Y-75590000D01*
X45085000Y-72930000D02*
X45085000Y-75590000D01*
X43815000Y-72930000D02*
X42485000Y-72930000D01*
X42485000Y-72930000D02*
X42485000Y-74260000D01*
X113725000Y-55150000D02*
X113725000Y-57810000D01*
X111125000Y-55150000D02*
X113725000Y-55150000D01*
X111125000Y-57810000D02*
X113725000Y-57810000D01*
X111125000Y-55150000D02*
X111125000Y-57810000D01*
X109855000Y-55150000D02*
X108525000Y-55150000D01*
X108525000Y-55150000D02*
X108525000Y-56480000D01*
X80705000Y-55150000D02*
X80705000Y-57810000D01*
X78105000Y-55150000D02*
X80705000Y-55150000D01*
X78105000Y-57810000D02*
X80705000Y-57810000D01*
X78105000Y-55150000D02*
X78105000Y-57810000D01*
X76835000Y-55150000D02*
X75505000Y-55150000D01*
X75505000Y-55150000D02*
X75505000Y-56480000D01*
X47685000Y-55150000D02*
X47685000Y-57810000D01*
X45085000Y-55150000D02*
X47685000Y-55150000D01*
X45085000Y-57810000D02*
X47685000Y-57810000D01*
X45085000Y-55150000D02*
X45085000Y-57810000D01*
X43815000Y-55150000D02*
X42485000Y-55150000D01*
X42485000Y-55150000D02*
X42485000Y-56480000D01*
X113725000Y-37370000D02*
X113725000Y-40030000D01*
X111125000Y-37370000D02*
X113725000Y-37370000D01*
X111125000Y-40030000D02*
X113725000Y-40030000D01*
X111125000Y-37370000D02*
X111125000Y-40030000D01*
X109855000Y-37370000D02*
X108525000Y-37370000D01*
X108525000Y-37370000D02*
X108525000Y-38700000D01*
X80705000Y-37370000D02*
X80705000Y-40030000D01*
X78105000Y-37370000D02*
X80705000Y-37370000D01*
X78105000Y-40030000D02*
X80705000Y-40030000D01*
X78105000Y-37370000D02*
X78105000Y-40030000D01*
X76835000Y-37370000D02*
X75505000Y-37370000D01*
X75505000Y-37370000D02*
X75505000Y-38700000D01*
X42485000Y-37370000D02*
X42485000Y-38700000D01*
X43815000Y-37370000D02*
X42485000Y-37370000D01*
X45085000Y-37370000D02*
X45085000Y-40030000D01*
X45085000Y-40030000D02*
X47685000Y-40030000D01*
X45085000Y-37370000D02*
X47685000Y-37370000D01*
X47685000Y-37370000D02*
X47685000Y-40030000D01*
X47685000Y-46930000D02*
X46355000Y-46930000D01*
X47685000Y-48260000D02*
X47685000Y-46930000D01*
X47685000Y-49530000D02*
X45025000Y-49530000D01*
X45025000Y-49530000D02*
X45025000Y-52130000D01*
X47685000Y-49530000D02*
X47685000Y-52130000D01*
X47685000Y-52130000D02*
X45025000Y-52130000D01*
X57725000Y-40030000D02*
X57725000Y-37370000D01*
X60325000Y-40030000D02*
X57725000Y-40030000D01*
X60325000Y-37370000D02*
X57725000Y-37370000D01*
X60325000Y-40030000D02*
X60325000Y-37370000D01*
X61595000Y-40030000D02*
X62925000Y-40030000D01*
X62925000Y-40030000D02*
X62925000Y-38700000D01*
M02*
