M48
; DRILL file {KiCad (5.1.6)-1} date 06/25/20 08:24:41
; FORMAT={3:3/ absolute / metric / suppress leading zeros}
; #@! TF.CreationDate,2020-06-25T08:24:41+09:00
; #@! TF.GenerationSoftware,Kicad,Pcbnew,(5.1.6)-1
FMAT,2
METRIC,TZ
T1C0.700
T2C1.000
%
G90
G05
T1
X43815Y-80010
X46355Y-80010
X109855Y-97790
X112395Y-97790
X76835Y-115570
X79375Y-115570
X43815Y-44450
X46355Y-44450
X125095Y-44450
X127635Y-44450
X125095Y-80010
X127635Y-80010
X92075Y-44450
X94615Y-44450
X92075Y-62230
X94615Y-62230
X76835Y-80010
X79375Y-80010
X59055Y-44450
X61595Y-44450
X59055Y-62230
X61595Y-62230
X59055Y-97790
X61595Y-97790
X76835Y-44450
X79375Y-44450
X92075Y-80010
X94615Y-80010
X125095Y-115570
X127635Y-115570
X109855Y-115570
X112395Y-115570
X109855Y-80010
X112395Y-80010
X43815Y-97790
X46355Y-97790
X43815Y-62230
X46355Y-62230
X92075Y-97790
X94615Y-97790
X125095Y-97790
X127635Y-97790
X109855Y-62230
X112395Y-62230
X76835Y-62230
X79375Y-62230
X59055Y-80010
X61595Y-80010
X92075Y-115570
X94615Y-115570
X43815Y-115570
X46355Y-115570
X76835Y-97790
X79375Y-97790
X109855Y-44450
X112395Y-44450
X125095Y-62230
X127635Y-62230
X59055Y-115570
X61595Y-115570
T2
X114935Y-38100
X114935Y-40640
X114935Y-50800
X122555Y-38100
X122555Y-40640
X122555Y-50800
X59055Y-38700
X61595Y-38700
X109855Y-92040
X112395Y-92040
X43815Y-92040
X46355Y-92040
X43815Y-56480
X46355Y-56480
X99695Y-38100
X99695Y-40640
X99695Y-50800
X107315Y-38100
X107315Y-40640
X107315Y-50800
X92075Y-92040
X94615Y-92040
X79375Y-83820
X79375Y-86360
X79375Y-48260
X79375Y-50800
X112395Y-119380
X112395Y-121920
X125095Y-56480
X127635Y-56480
X33655Y-109220
X33655Y-111760
X33655Y-121920
X41275Y-109220
X41275Y-111760
X41275Y-121920
X46355Y-48260
X46355Y-50800
X109855Y-38700
X112395Y-38700
X48895Y-91440
X48895Y-93980
X48895Y-104140
X56515Y-91440
X56515Y-93980
X56515Y-104140
X43815Y-74260
X46355Y-74260
X59055Y-92040
X61595Y-92040
X99695Y-55880
X99695Y-58420
X99695Y-68580
X107315Y-55880
X107315Y-58420
X107315Y-68580
X46355Y-101600
X46355Y-104140
X92075Y-38700
X94615Y-38700
X112395Y-48260
X112395Y-50800
X66675Y-109220
X66675Y-111760
X66675Y-121920
X74295Y-109220
X74295Y-111760
X74295Y-121920
X81915Y-73660
X81915Y-76200
X81915Y-86360
X89535Y-73660
X89535Y-76200
X89535Y-86360
X48895Y-73660
X48895Y-76200
X48895Y-86360
X56515Y-73660
X56515Y-76200
X56515Y-86360
X43815Y-38700
X46355Y-38700
X109855Y-74260
X112395Y-74260
X109855Y-56480
X112395Y-56480
X76835Y-92040
X79375Y-92040
X66675Y-91440
X66675Y-93980
X66675Y-104140
X74295Y-91440
X74295Y-93980
X74295Y-104140
X92075Y-109820
X94615Y-109820
X46355Y-83820
X46355Y-86360
X92075Y-56480
X94615Y-56480
X48895Y-55880
X48895Y-58420
X48895Y-68580
X56515Y-55880
X56515Y-58420
X56515Y-68580
X48895Y-38100
X48895Y-40640
X48895Y-50800
X56515Y-38100
X56515Y-40640
X56515Y-50800
X81915Y-91440
X81915Y-93980
X81915Y-104140
X89535Y-91440
X89535Y-93980
X89535Y-104140
X48895Y-109220
X48895Y-111760
X48895Y-121920
X56515Y-109220
X56515Y-111760
X56515Y-121920
X66675Y-38100
X66675Y-40640
X66675Y-50800
X74295Y-38100
X74295Y-40640
X74295Y-50800
X43815Y-109820
X46355Y-109820
X99695Y-73660
X99695Y-76200
X99695Y-86360
X107315Y-73660
X107315Y-76200
X107315Y-86360
X125095Y-92040
X127635Y-92040
X112395Y-66040
X112395Y-68580
X109855Y-109820
X112395Y-109820
X99695Y-109220
X99695Y-111760
X99695Y-121920
X107315Y-109220
X107315Y-111760
X107315Y-121920
X114935Y-55880
X114935Y-58420
X114935Y-68580
X122555Y-55880
X122555Y-58420
X122555Y-68580
X81915Y-55880
X81915Y-58420
X81915Y-68580
X89535Y-55880
X89535Y-58420
X89535Y-68580
X114935Y-91440
X114935Y-93980
X114935Y-104140
X122555Y-91440
X122555Y-93980
X122555Y-104140
X114935Y-109220
X114935Y-111760
X114935Y-121920
X122555Y-109220
X122555Y-111760
X122555Y-121920
X66675Y-55880
X66675Y-58420
X66675Y-68580
X74295Y-55880
X74295Y-58420
X74295Y-68580
X66675Y-73660
X66675Y-76200
X66675Y-86360
X74295Y-73660
X74295Y-76200
X74295Y-86360
X33655Y-91440
X33655Y-93980
X33655Y-104140
X41275Y-91440
X41275Y-93980
X41275Y-104140
X125095Y-38700
X127635Y-38700
X76835Y-109820
X79375Y-109820
X112395Y-101600
X112395Y-104140
X76835Y-38700
X79375Y-38700
X76835Y-56480
X79375Y-56480
X33655Y-73660
X33655Y-76200
X33655Y-86360
X41275Y-73660
X41275Y-76200
X41275Y-86360
X59055Y-109820
X61595Y-109820
X46355Y-66040
X46355Y-68580
X125095Y-109820
X127635Y-109820
X59055Y-56480
X61595Y-56480
X112395Y-83820
X112395Y-86360
X46355Y-119380
X46355Y-121920
X99695Y-91440
X99695Y-93980
X99695Y-104140
X107315Y-91440
X107315Y-93980
X107315Y-104140
X81915Y-38100
X81915Y-40640
X81915Y-50800
X89535Y-38100
X89535Y-40640
X89535Y-50800
X114935Y-73660
X114935Y-76200
X114935Y-86360
X122555Y-73660
X122555Y-76200
X122555Y-86360
X33655Y-38100
X33655Y-40640
X33655Y-50800
X41275Y-38100
X41275Y-40640
X41275Y-50800
X76835Y-74260
X79375Y-74260
X81915Y-109220
X81915Y-111760
X81915Y-121920
X89535Y-109220
X89535Y-111760
X89535Y-121920
X92075Y-74260
X94615Y-74260
X33655Y-55880
X33655Y-58420
X33655Y-68580
X41275Y-55880
X41275Y-58420
X41275Y-68580
X79375Y-119380
X79375Y-121920
X125095Y-74260
X127635Y-74260
X59055Y-74260
X61595Y-74260
X79375Y-101600
X79375Y-104140
X79375Y-66040
X79375Y-68580
T0
M30
