G04 #@! TF.GenerationSoftware,KiCad,Pcbnew,(5.1.6)-1*
G04 #@! TF.CreationDate,2020-06-01T08:00:51+09:00*
G04 #@! TF.ProjectId,EXOR,45584f52-2e6b-4696-9361-645f70636258,rev?*
G04 #@! TF.SameCoordinates,Original*
G04 #@! TF.FileFunction,Legend,Bot*
G04 #@! TF.FilePolarity,Positive*
%FSLAX46Y46*%
G04 Gerber Fmt 4.6, Leading zero omitted, Abs format (unit mm)*
G04 Created by KiCad (PCBNEW (5.1.6)-1) date 2020-06-01 08:00:51*
%MOMM*%
%LPD*%
G01*
G04 APERTURE LIST*
%ADD10C,0.120000*%
G04 APERTURE END LIST*
D10*
X26610000Y-27365000D02*
X27940000Y-27365000D01*
X26610000Y-26035000D02*
X26610000Y-27365000D01*
X26610000Y-24765000D02*
X29270000Y-24765000D01*
X29270000Y-24765000D02*
X29270000Y-24705000D01*
X26610000Y-24765000D02*
X26610000Y-24705000D01*
X26610000Y-24705000D02*
X29270000Y-24705000D01*
X26610000Y-27245000D02*
X29270000Y-27245000D01*
X26610000Y-27305000D02*
X26610000Y-27245000D01*
X29270000Y-27305000D02*
X29270000Y-27245000D01*
X26610000Y-27305000D02*
X29270000Y-27305000D01*
X26610000Y-28575000D02*
X26610000Y-29905000D01*
X26610000Y-29905000D02*
X27940000Y-29905000D01*
X41850000Y-17805000D02*
X43180000Y-17805000D01*
X41850000Y-16475000D02*
X41850000Y-17805000D01*
X41850000Y-15205000D02*
X44510000Y-15205000D01*
X44510000Y-15205000D02*
X44510000Y-15145000D01*
X41850000Y-15205000D02*
X41850000Y-15145000D01*
X41850000Y-15145000D02*
X44510000Y-15145000D01*
X39310000Y-15145000D02*
X41970000Y-15145000D01*
X39310000Y-15205000D02*
X39310000Y-15145000D01*
X41970000Y-15205000D02*
X41970000Y-15145000D01*
X39310000Y-15205000D02*
X41970000Y-15205000D01*
X39310000Y-16475000D02*
X39310000Y-17805000D01*
X39310000Y-17805000D02*
X40640000Y-17805000D01*
X26610000Y-17805000D02*
X27940000Y-17805000D01*
X26610000Y-16475000D02*
X26610000Y-17805000D01*
X26610000Y-15205000D02*
X29270000Y-15205000D01*
X29270000Y-15205000D02*
X29270000Y-15145000D01*
X26610000Y-15205000D02*
X26610000Y-15145000D01*
X26610000Y-15145000D02*
X29270000Y-15145000D01*
X24070000Y-15145000D02*
X26730000Y-15145000D01*
X24070000Y-15205000D02*
X24070000Y-15145000D01*
X26730000Y-15205000D02*
X26730000Y-15145000D01*
X24070000Y-15205000D02*
X26730000Y-15205000D01*
X24070000Y-16475000D02*
X24070000Y-17805000D01*
X24070000Y-17805000D02*
X25400000Y-17805000D01*
M02*
