M48
; DRILL file {KiCad (5.1.6)-1} date 06/01/20 08:00:57
; FORMAT={3:3/ absolute / metric / suppress leading zeros}
; #@! TF.CreationDate,2020-06-01T08:00:57+09:00
; #@! TF.GenerationSoftware,Kicad,Pcbnew,(5.1.6)-1
FMAT,2
METRIC,TZ
T1C0.700
T2C1.000
%
G90
G05
T1
X25400Y-22225
X27940Y-22225
X45720Y-19685
X45720Y-22225
T2
X40640Y-16475
X27940Y-28575
X25400Y-16475
X30480Y-15875
X30480Y-18415
X30480Y-28575
X38100Y-15875
X38100Y-18415
X38100Y-28575
X15240Y-15875
X15240Y-18415
X15240Y-28575
X22860Y-15875
X22860Y-18415
X22860Y-28575
X27940Y-16475
X27940Y-26035
X43180Y-16475
T0
M30
