G04 #@! TF.GenerationSoftware,KiCad,Pcbnew,(5.1.6)-1*
G04 #@! TF.CreationDate,2020-06-01T08:00:51+09:00*
G04 #@! TF.ProjectId,EXOR,45584f52-2e6b-4696-9361-645f70636258,rev?*
G04 #@! TF.SameCoordinates,Original*
G04 #@! TF.FileFunction,Copper,L2,Bot*
G04 #@! TF.FilePolarity,Positive*
%FSLAX46Y46*%
G04 Gerber Fmt 4.6, Leading zero omitted, Abs format (unit mm)*
G04 Created by KiCad (PCBNEW (5.1.6)-1) date 2020-06-01 08:00:51*
%MOMM*%
%LPD*%
G01*
G04 APERTURE LIST*
G04 #@! TA.AperFunction,ComponentPad*
%ADD10C,1.524000*%
G04 #@! TD*
G04 #@! TA.AperFunction,ComponentPad*
%ADD11R,1.700000X1.700000*%
G04 #@! TD*
G04 #@! TA.AperFunction,Conductor*
%ADD12C,1.000000*%
G04 #@! TD*
G04 APERTURE END LIST*
D10*
X45720000Y-19685000D03*
X45720000Y-22225000D03*
X27940000Y-22225000D03*
X25400000Y-22225000D03*
D11*
X27940000Y-26035000D03*
X27940000Y-28575000D03*
X43180000Y-16475000D03*
X40640000Y-16475000D03*
X27940000Y-16475000D03*
X25400000Y-16475000D03*
D10*
X38100000Y-28575000D03*
X30480000Y-28575000D03*
X30480000Y-18415000D03*
X38100000Y-18415000D03*
X38100000Y-15875000D03*
X30480000Y-15875000D03*
X15240000Y-15875000D03*
X22860000Y-15875000D03*
X22860000Y-18415000D03*
X15240000Y-18415000D03*
X15240000Y-28575000D03*
X22860000Y-28575000D03*
D12*
X19050000Y-22225000D02*
X15240000Y-18415000D01*
X25400000Y-22225000D02*
X19050000Y-22225000D01*
X27940000Y-22225000D02*
X27940000Y-20955000D01*
X25400000Y-18415000D02*
X22860000Y-18415000D01*
X27940000Y-20955000D02*
X25400000Y-18415000D01*
X39370000Y-19685000D02*
X38100000Y-18415000D01*
X34290000Y-22225000D02*
X30480000Y-18415000D01*
X39370000Y-19685000D02*
X45720000Y-19685000D01*
X34290000Y-22225000D02*
X45720000Y-22225000D01*
M02*
