G04 #@! TF.GenerationSoftware,KiCad,Pcbnew,(5.1.6)-1*
G04 #@! TF.CreationDate,2020-06-01T08:00:51+09:00*
G04 #@! TF.ProjectId,EXOR,45584f52-2e6b-4696-9361-645f70636258,rev?*
G04 #@! TF.SameCoordinates,Original*
G04 #@! TF.FileFunction,Legend,Top*
G04 #@! TF.FilePolarity,Positive*
%FSLAX46Y46*%
G04 Gerber Fmt 4.6, Leading zero omitted, Abs format (unit mm)*
G04 Created by KiCad (PCBNEW (5.1.6)-1) date 2020-06-01 08:00:51*
%MOMM*%
%LPD*%
G01*
G04 APERTURE LIST*
%ADD10C,0.100000*%
%ADD11C,0.200000*%
%ADD12C,0.400000*%
%ADD13C,0.120000*%
G04 APERTURE END LIST*
D10*
X39902142Y-28042857D02*
X40092619Y-28042857D01*
X39973571Y-27876190D02*
X39973571Y-28304761D01*
X39997380Y-28352380D01*
X40045000Y-28376190D01*
X40092619Y-28376190D01*
X40259285Y-28376190D02*
X40259285Y-27876190D01*
X40473571Y-28376190D02*
X40473571Y-28114285D01*
X40449761Y-28066666D01*
X40402142Y-28042857D01*
X40330714Y-28042857D01*
X40283095Y-28066666D01*
X40259285Y-28090476D01*
X40902142Y-28352380D02*
X40854523Y-28376190D01*
X40759285Y-28376190D01*
X40711666Y-28352380D01*
X40687857Y-28304761D01*
X40687857Y-28114285D01*
X40711666Y-28066666D01*
X40759285Y-28042857D01*
X40854523Y-28042857D01*
X40902142Y-28066666D01*
X40925952Y-28114285D01*
X40925952Y-28161904D01*
X40687857Y-28209523D01*
X41497380Y-28352380D02*
X41545000Y-28376190D01*
X41640238Y-28376190D01*
X41687857Y-28352380D01*
X41711666Y-28304761D01*
X41711666Y-28280952D01*
X41687857Y-28233333D01*
X41640238Y-28209523D01*
X41568809Y-28209523D01*
X41521190Y-28185714D01*
X41497380Y-28138095D01*
X41497380Y-28114285D01*
X41521190Y-28066666D01*
X41568809Y-28042857D01*
X41640238Y-28042857D01*
X41687857Y-28066666D01*
X41925952Y-28042857D02*
X41925952Y-28542857D01*
X41925952Y-28066666D02*
X41973571Y-28042857D01*
X42068809Y-28042857D01*
X42116428Y-28066666D01*
X42140238Y-28090476D01*
X42164047Y-28138095D01*
X42164047Y-28280952D01*
X42140238Y-28328571D01*
X42116428Y-28352380D01*
X42068809Y-28376190D01*
X41973571Y-28376190D01*
X41925952Y-28352380D01*
X42592619Y-28376190D02*
X42592619Y-28114285D01*
X42568809Y-28066666D01*
X42521190Y-28042857D01*
X42425952Y-28042857D01*
X42378333Y-28066666D01*
X42592619Y-28352380D02*
X42545000Y-28376190D01*
X42425952Y-28376190D01*
X42378333Y-28352380D01*
X42354523Y-28304761D01*
X42354523Y-28257142D01*
X42378333Y-28209523D01*
X42425952Y-28185714D01*
X42545000Y-28185714D01*
X42592619Y-28161904D01*
X43045000Y-28042857D02*
X43045000Y-28447619D01*
X43021190Y-28495238D01*
X42997380Y-28519047D01*
X42949761Y-28542857D01*
X42878333Y-28542857D01*
X42830714Y-28519047D01*
X43045000Y-28352380D02*
X42997380Y-28376190D01*
X42902142Y-28376190D01*
X42854523Y-28352380D01*
X42830714Y-28328571D01*
X42806904Y-28280952D01*
X42806904Y-28138095D01*
X42830714Y-28090476D01*
X42854523Y-28066666D01*
X42902142Y-28042857D01*
X42997380Y-28042857D01*
X43045000Y-28066666D01*
X43283095Y-28376190D02*
X43283095Y-27876190D01*
X43497380Y-28376190D02*
X43497380Y-28114285D01*
X43473571Y-28066666D01*
X43425952Y-28042857D01*
X43354523Y-28042857D01*
X43306904Y-28066666D01*
X43283095Y-28090476D01*
X43925952Y-28352380D02*
X43878333Y-28376190D01*
X43783095Y-28376190D01*
X43735476Y-28352380D01*
X43711666Y-28304761D01*
X43711666Y-28114285D01*
X43735476Y-28066666D01*
X43783095Y-28042857D01*
X43878333Y-28042857D01*
X43925952Y-28066666D01*
X43949761Y-28114285D01*
X43949761Y-28161904D01*
X43711666Y-28209523D01*
X44092619Y-28042857D02*
X44283095Y-28042857D01*
X44164047Y-27876190D02*
X44164047Y-28304761D01*
X44187857Y-28352380D01*
X44235476Y-28376190D01*
X44283095Y-28376190D01*
X44378333Y-28042857D02*
X44568809Y-28042857D01*
X44449761Y-27876190D02*
X44449761Y-28304761D01*
X44473571Y-28352380D01*
X44521190Y-28376190D01*
X44568809Y-28376190D01*
X44735476Y-28376190D02*
X44735476Y-28042857D01*
X44735476Y-27876190D02*
X44711666Y-27900000D01*
X44735476Y-27923809D01*
X44759285Y-27900000D01*
X44735476Y-27876190D01*
X44735476Y-27923809D01*
X41175952Y-29226190D02*
X41175952Y-28892857D01*
X41175952Y-28940476D02*
X41199761Y-28916666D01*
X41247380Y-28892857D01*
X41318809Y-28892857D01*
X41366428Y-28916666D01*
X41390238Y-28964285D01*
X41390238Y-29226190D01*
X41390238Y-28964285D02*
X41414047Y-28916666D01*
X41461666Y-28892857D01*
X41533095Y-28892857D01*
X41580714Y-28916666D01*
X41604523Y-28964285D01*
X41604523Y-29226190D01*
X42056904Y-29226190D02*
X42056904Y-28964285D01*
X42033095Y-28916666D01*
X41985476Y-28892857D01*
X41890238Y-28892857D01*
X41842619Y-28916666D01*
X42056904Y-29202380D02*
X42009285Y-29226190D01*
X41890238Y-29226190D01*
X41842619Y-29202380D01*
X41818809Y-29154761D01*
X41818809Y-29107142D01*
X41842619Y-29059523D01*
X41890238Y-29035714D01*
X42009285Y-29035714D01*
X42056904Y-29011904D01*
X42509285Y-29226190D02*
X42509285Y-28726190D01*
X42509285Y-29202380D02*
X42461666Y-29226190D01*
X42366428Y-29226190D01*
X42318809Y-29202380D01*
X42295000Y-29178571D01*
X42271190Y-29130952D01*
X42271190Y-28988095D01*
X42295000Y-28940476D01*
X42318809Y-28916666D01*
X42366428Y-28892857D01*
X42461666Y-28892857D01*
X42509285Y-28916666D01*
X42937857Y-29202380D02*
X42890238Y-29226190D01*
X42795000Y-29226190D01*
X42747380Y-29202380D01*
X42723571Y-29154761D01*
X42723571Y-28964285D01*
X42747380Y-28916666D01*
X42795000Y-28892857D01*
X42890238Y-28892857D01*
X42937857Y-28916666D01*
X42961666Y-28964285D01*
X42961666Y-29011904D01*
X42723571Y-29059523D01*
X43628333Y-29226190D02*
X43580714Y-29202380D01*
X43556904Y-29178571D01*
X43533095Y-29130952D01*
X43533095Y-28988095D01*
X43556904Y-28940476D01*
X43580714Y-28916666D01*
X43628333Y-28892857D01*
X43699761Y-28892857D01*
X43747380Y-28916666D01*
X43771190Y-28940476D01*
X43795000Y-28988095D01*
X43795000Y-29130952D01*
X43771190Y-29178571D01*
X43747380Y-29202380D01*
X43699761Y-29226190D01*
X43628333Y-29226190D01*
X43937857Y-28892857D02*
X44128333Y-28892857D01*
X44009285Y-29226190D02*
X44009285Y-28797619D01*
X44033095Y-28750000D01*
X44080714Y-28726190D01*
X44128333Y-28726190D01*
X44890238Y-29202380D02*
X44842619Y-29226190D01*
X44747380Y-29226190D01*
X44699761Y-29202380D01*
X44675952Y-29178571D01*
X44652142Y-29130952D01*
X44652142Y-28988095D01*
X44675952Y-28940476D01*
X44699761Y-28916666D01*
X44747380Y-28892857D01*
X44842619Y-28892857D01*
X44890238Y-28916666D01*
X45175952Y-29226190D02*
X45128333Y-29202380D01*
X45104523Y-29178571D01*
X45080714Y-29130952D01*
X45080714Y-28988095D01*
X45104523Y-28940476D01*
X45128333Y-28916666D01*
X45175952Y-28892857D01*
X45247380Y-28892857D01*
X45295000Y-28916666D01*
X45318809Y-28940476D01*
X45342619Y-28988095D01*
X45342619Y-29130952D01*
X45318809Y-29178571D01*
X45295000Y-29202380D01*
X45247380Y-29226190D01*
X45175952Y-29226190D01*
X45771190Y-29226190D02*
X45771190Y-28726190D01*
X45771190Y-29202380D02*
X45723571Y-29226190D01*
X45628333Y-29226190D01*
X45580714Y-29202380D01*
X45556904Y-29178571D01*
X45533095Y-29130952D01*
X45533095Y-28988095D01*
X45556904Y-28940476D01*
X45580714Y-28916666D01*
X45628333Y-28892857D01*
X45723571Y-28892857D01*
X45771190Y-28916666D01*
X46199761Y-29202380D02*
X46152142Y-29226190D01*
X46056904Y-29226190D01*
X46009285Y-29202380D01*
X45985476Y-29154761D01*
X45985476Y-28964285D01*
X46009285Y-28916666D01*
X46056904Y-28892857D01*
X46152142Y-28892857D01*
X46199761Y-28916666D01*
X46223571Y-28964285D01*
X46223571Y-29011904D01*
X45985476Y-29059523D01*
D11*
X44759523Y-21312142D02*
X44711904Y-21359761D01*
X44569047Y-21407380D01*
X44473809Y-21407380D01*
X44330952Y-21359761D01*
X44235714Y-21264523D01*
X44188095Y-21169285D01*
X44140476Y-20978809D01*
X44140476Y-20835952D01*
X44188095Y-20645476D01*
X44235714Y-20550238D01*
X44330952Y-20455000D01*
X44473809Y-20407380D01*
X44569047Y-20407380D01*
X44711904Y-20455000D01*
X44759523Y-20502619D01*
X25019047Y-28646428D02*
X25780952Y-28646428D01*
X25400000Y-29027380D02*
X25400000Y-28265476D01*
X25019047Y-26106428D02*
X25780952Y-26106428D01*
X26979523Y-21312142D02*
X26931904Y-21359761D01*
X26789047Y-21407380D01*
X26693809Y-21407380D01*
X26550952Y-21359761D01*
X26455714Y-21264523D01*
X26408095Y-21169285D01*
X26360476Y-20978809D01*
X26360476Y-20835952D01*
X26408095Y-20645476D01*
X26455714Y-20550238D01*
X26550952Y-20455000D01*
X26693809Y-20407380D01*
X26789047Y-20407380D01*
X26931904Y-20455000D01*
X26979523Y-20502619D01*
X40910000Y-14057380D02*
X41100476Y-14057380D01*
X41195714Y-14105000D01*
X41290952Y-14200238D01*
X41338571Y-14390714D01*
X41338571Y-14724047D01*
X41290952Y-14914523D01*
X41195714Y-15009761D01*
X41100476Y-15057380D01*
X40910000Y-15057380D01*
X40814761Y-15009761D01*
X40719523Y-14914523D01*
X40671904Y-14724047D01*
X40671904Y-14390714D01*
X40719523Y-14200238D01*
X40814761Y-14105000D01*
X40910000Y-14057380D01*
X41767142Y-14057380D02*
X41767142Y-14866904D01*
X41814761Y-14962142D01*
X41862380Y-15009761D01*
X41957619Y-15057380D01*
X42148095Y-15057380D01*
X42243333Y-15009761D01*
X42290952Y-14962142D01*
X42338571Y-14866904D01*
X42338571Y-14057380D01*
X42671904Y-14057380D02*
X43243333Y-14057380D01*
X42957619Y-15057380D02*
X42957619Y-14057380D01*
X26146190Y-15057380D02*
X26146190Y-14057380D01*
X26622380Y-15057380D02*
X26622380Y-14057380D01*
X27193809Y-15057380D01*
X27193809Y-14057380D01*
D12*
X40465714Y-24939761D02*
X41799047Y-26939761D01*
X41799047Y-24939761D02*
X40465714Y-26939761D01*
X42941904Y-24939761D02*
X43322857Y-24939761D01*
X43513333Y-25035000D01*
X43703809Y-25225476D01*
X43799047Y-25606428D01*
X43799047Y-26273095D01*
X43703809Y-26654047D01*
X43513333Y-26844523D01*
X43322857Y-26939761D01*
X42941904Y-26939761D01*
X42751428Y-26844523D01*
X42560952Y-26654047D01*
X42465714Y-26273095D01*
X42465714Y-25606428D01*
X42560952Y-25225476D01*
X42751428Y-25035000D01*
X42941904Y-24939761D01*
X45799047Y-26939761D02*
X45132380Y-25987380D01*
X44656190Y-26939761D02*
X44656190Y-24939761D01*
X45418095Y-24939761D01*
X45608571Y-25035000D01*
X45703809Y-25130238D01*
X45799047Y-25320714D01*
X45799047Y-25606428D01*
X45703809Y-25796904D01*
X45608571Y-25892142D01*
X45418095Y-25987380D01*
X44656190Y-25987380D01*
D13*
X44958000Y-22987000D02*
X44958000Y-18923000D01*
X44958000Y-18923000D02*
X46482000Y-18923000D01*
X46482000Y-18923000D02*
X46482000Y-22987000D01*
X46482000Y-22987000D02*
X44958000Y-22987000D01*
X24638000Y-21463000D02*
X28702000Y-21463000D01*
X28702000Y-21463000D02*
X28702000Y-22987000D01*
X28702000Y-22987000D02*
X24638000Y-22987000D01*
X24638000Y-22987000D02*
X24638000Y-21463000D01*
X29210000Y-13970000D02*
X39370000Y-13970000D01*
X39370000Y-13970000D02*
X39370000Y-30480000D01*
X39370000Y-30480000D02*
X29210000Y-30480000D01*
X29210000Y-30480000D02*
X29210000Y-13970000D01*
X13970000Y-30480000D02*
X13970000Y-13970000D01*
X24130000Y-30480000D02*
X13970000Y-30480000D01*
X24130000Y-13970000D02*
X24130000Y-30480000D01*
X13970000Y-13970000D02*
X24130000Y-13970000D01*
M02*
