G04 #@! TF.GenerationSoftware,KiCad,Pcbnew,(5.1.6)-1*
G04 #@! TF.CreationDate,2020-06-03T08:18:39+09:00*
G04 #@! TF.ProjectId,XOR___,584f5262-d851-42e6-9b69-6361645f7063,rev?*
G04 #@! TF.SameCoordinates,Original*
G04 #@! TF.FileFunction,Legend,Top*
G04 #@! TF.FilePolarity,Positive*
%FSLAX46Y46*%
G04 Gerber Fmt 4.6, Leading zero omitted, Abs format (unit mm)*
G04 Created by KiCad (PCBNEW (5.1.6)-1) date 2020-06-03 08:18:39*
%MOMM*%
%LPD*%
G01*
G04 APERTURE LIST*
%ADD10C,0.150000*%
%ADD11C,0.100000*%
%ADD12C,0.300000*%
%ADD13C,0.120000*%
G04 APERTURE END LIST*
D10*
X151439523Y-93067142D02*
X151391904Y-93114761D01*
X151249047Y-93162380D01*
X151153809Y-93162380D01*
X151010952Y-93114761D01*
X150915714Y-93019523D01*
X150868095Y-92924285D01*
X150820476Y-92733809D01*
X150820476Y-92590952D01*
X150868095Y-92400476D01*
X150915714Y-92305238D01*
X151010952Y-92210000D01*
X151153809Y-92162380D01*
X151249047Y-92162380D01*
X151391904Y-92210000D01*
X151439523Y-92257619D01*
X118419523Y-93067142D02*
X118371904Y-93114761D01*
X118229047Y-93162380D01*
X118133809Y-93162380D01*
X117990952Y-93114761D01*
X117895714Y-93019523D01*
X117848095Y-92924285D01*
X117800476Y-92733809D01*
X117800476Y-92590952D01*
X117848095Y-92400476D01*
X117895714Y-92305238D01*
X117990952Y-92210000D01*
X118133809Y-92162380D01*
X118229047Y-92162380D01*
X118371904Y-92210000D01*
X118419523Y-92257619D01*
X85399523Y-93067142D02*
X85351904Y-93114761D01*
X85209047Y-93162380D01*
X85113809Y-93162380D01*
X84970952Y-93114761D01*
X84875714Y-93019523D01*
X84828095Y-92924285D01*
X84780476Y-92733809D01*
X84780476Y-92590952D01*
X84828095Y-92400476D01*
X84875714Y-92305238D01*
X84970952Y-92210000D01*
X85113809Y-92162380D01*
X85209047Y-92162380D01*
X85351904Y-92210000D01*
X85399523Y-92257619D01*
X151439523Y-75287142D02*
X151391904Y-75334761D01*
X151249047Y-75382380D01*
X151153809Y-75382380D01*
X151010952Y-75334761D01*
X150915714Y-75239523D01*
X150868095Y-75144285D01*
X150820476Y-74953809D01*
X150820476Y-74810952D01*
X150868095Y-74620476D01*
X150915714Y-74525238D01*
X151010952Y-74430000D01*
X151153809Y-74382380D01*
X151249047Y-74382380D01*
X151391904Y-74430000D01*
X151439523Y-74477619D01*
X118419523Y-75287142D02*
X118371904Y-75334761D01*
X118229047Y-75382380D01*
X118133809Y-75382380D01*
X117990952Y-75334761D01*
X117895714Y-75239523D01*
X117848095Y-75144285D01*
X117800476Y-74953809D01*
X117800476Y-74810952D01*
X117848095Y-74620476D01*
X117895714Y-74525238D01*
X117990952Y-74430000D01*
X118133809Y-74382380D01*
X118229047Y-74382380D01*
X118371904Y-74430000D01*
X118419523Y-74477619D01*
X85399523Y-75287142D02*
X85351904Y-75334761D01*
X85209047Y-75382380D01*
X85113809Y-75382380D01*
X84970952Y-75334761D01*
X84875714Y-75239523D01*
X84828095Y-75144285D01*
X84780476Y-74953809D01*
X84780476Y-74810952D01*
X84828095Y-74620476D01*
X84875714Y-74525238D01*
X84970952Y-74430000D01*
X85113809Y-74382380D01*
X85209047Y-74382380D01*
X85351904Y-74430000D01*
X85399523Y-74477619D01*
X151439523Y-57507142D02*
X151391904Y-57554761D01*
X151249047Y-57602380D01*
X151153809Y-57602380D01*
X151010952Y-57554761D01*
X150915714Y-57459523D01*
X150868095Y-57364285D01*
X150820476Y-57173809D01*
X150820476Y-57030952D01*
X150868095Y-56840476D01*
X150915714Y-56745238D01*
X151010952Y-56650000D01*
X151153809Y-56602380D01*
X151249047Y-56602380D01*
X151391904Y-56650000D01*
X151439523Y-56697619D01*
X118419523Y-57507142D02*
X118371904Y-57554761D01*
X118229047Y-57602380D01*
X118133809Y-57602380D01*
X117990952Y-57554761D01*
X117895714Y-57459523D01*
X117848095Y-57364285D01*
X117800476Y-57173809D01*
X117800476Y-57030952D01*
X117848095Y-56840476D01*
X117895714Y-56745238D01*
X117990952Y-56650000D01*
X118133809Y-56602380D01*
X118229047Y-56602380D01*
X118371904Y-56650000D01*
X118419523Y-56697619D01*
X165370000Y-88352380D02*
X165560476Y-88352380D01*
X165655714Y-88400000D01*
X165750952Y-88495238D01*
X165798571Y-88685714D01*
X165798571Y-89019047D01*
X165750952Y-89209523D01*
X165655714Y-89304761D01*
X165560476Y-89352380D01*
X165370000Y-89352380D01*
X165274761Y-89304761D01*
X165179523Y-89209523D01*
X165131904Y-89019047D01*
X165131904Y-88685714D01*
X165179523Y-88495238D01*
X165274761Y-88400000D01*
X165370000Y-88352380D01*
X166227142Y-88352380D02*
X166227142Y-89161904D01*
X166274761Y-89257142D01*
X166322380Y-89304761D01*
X166417619Y-89352380D01*
X166608095Y-89352380D01*
X166703333Y-89304761D01*
X166750952Y-89257142D01*
X166798571Y-89161904D01*
X166798571Y-88352380D01*
X167131904Y-88352380D02*
X167703333Y-88352380D01*
X167417619Y-89352380D02*
X167417619Y-88352380D01*
X132350000Y-88352380D02*
X132540476Y-88352380D01*
X132635714Y-88400000D01*
X132730952Y-88495238D01*
X132778571Y-88685714D01*
X132778571Y-89019047D01*
X132730952Y-89209523D01*
X132635714Y-89304761D01*
X132540476Y-89352380D01*
X132350000Y-89352380D01*
X132254761Y-89304761D01*
X132159523Y-89209523D01*
X132111904Y-89019047D01*
X132111904Y-88685714D01*
X132159523Y-88495238D01*
X132254761Y-88400000D01*
X132350000Y-88352380D01*
X133207142Y-88352380D02*
X133207142Y-89161904D01*
X133254761Y-89257142D01*
X133302380Y-89304761D01*
X133397619Y-89352380D01*
X133588095Y-89352380D01*
X133683333Y-89304761D01*
X133730952Y-89257142D01*
X133778571Y-89161904D01*
X133778571Y-88352380D01*
X134111904Y-88352380D02*
X134683333Y-88352380D01*
X134397619Y-89352380D02*
X134397619Y-88352380D01*
X99330000Y-88352380D02*
X99520476Y-88352380D01*
X99615714Y-88400000D01*
X99710952Y-88495238D01*
X99758571Y-88685714D01*
X99758571Y-89019047D01*
X99710952Y-89209523D01*
X99615714Y-89304761D01*
X99520476Y-89352380D01*
X99330000Y-89352380D01*
X99234761Y-89304761D01*
X99139523Y-89209523D01*
X99091904Y-89019047D01*
X99091904Y-88685714D01*
X99139523Y-88495238D01*
X99234761Y-88400000D01*
X99330000Y-88352380D01*
X100187142Y-88352380D02*
X100187142Y-89161904D01*
X100234761Y-89257142D01*
X100282380Y-89304761D01*
X100377619Y-89352380D01*
X100568095Y-89352380D01*
X100663333Y-89304761D01*
X100710952Y-89257142D01*
X100758571Y-89161904D01*
X100758571Y-88352380D01*
X101091904Y-88352380D02*
X101663333Y-88352380D01*
X101377619Y-89352380D02*
X101377619Y-88352380D01*
X165370000Y-70572380D02*
X165560476Y-70572380D01*
X165655714Y-70620000D01*
X165750952Y-70715238D01*
X165798571Y-70905714D01*
X165798571Y-71239047D01*
X165750952Y-71429523D01*
X165655714Y-71524761D01*
X165560476Y-71572380D01*
X165370000Y-71572380D01*
X165274761Y-71524761D01*
X165179523Y-71429523D01*
X165131904Y-71239047D01*
X165131904Y-70905714D01*
X165179523Y-70715238D01*
X165274761Y-70620000D01*
X165370000Y-70572380D01*
X166227142Y-70572380D02*
X166227142Y-71381904D01*
X166274761Y-71477142D01*
X166322380Y-71524761D01*
X166417619Y-71572380D01*
X166608095Y-71572380D01*
X166703333Y-71524761D01*
X166750952Y-71477142D01*
X166798571Y-71381904D01*
X166798571Y-70572380D01*
X167131904Y-70572380D02*
X167703333Y-70572380D01*
X167417619Y-71572380D02*
X167417619Y-70572380D01*
X132350000Y-70572380D02*
X132540476Y-70572380D01*
X132635714Y-70620000D01*
X132730952Y-70715238D01*
X132778571Y-70905714D01*
X132778571Y-71239047D01*
X132730952Y-71429523D01*
X132635714Y-71524761D01*
X132540476Y-71572380D01*
X132350000Y-71572380D01*
X132254761Y-71524761D01*
X132159523Y-71429523D01*
X132111904Y-71239047D01*
X132111904Y-70905714D01*
X132159523Y-70715238D01*
X132254761Y-70620000D01*
X132350000Y-70572380D01*
X133207142Y-70572380D02*
X133207142Y-71381904D01*
X133254761Y-71477142D01*
X133302380Y-71524761D01*
X133397619Y-71572380D01*
X133588095Y-71572380D01*
X133683333Y-71524761D01*
X133730952Y-71477142D01*
X133778571Y-71381904D01*
X133778571Y-70572380D01*
X134111904Y-70572380D02*
X134683333Y-70572380D01*
X134397619Y-71572380D02*
X134397619Y-70572380D01*
X99330000Y-70572380D02*
X99520476Y-70572380D01*
X99615714Y-70620000D01*
X99710952Y-70715238D01*
X99758571Y-70905714D01*
X99758571Y-71239047D01*
X99710952Y-71429523D01*
X99615714Y-71524761D01*
X99520476Y-71572380D01*
X99330000Y-71572380D01*
X99234761Y-71524761D01*
X99139523Y-71429523D01*
X99091904Y-71239047D01*
X99091904Y-70905714D01*
X99139523Y-70715238D01*
X99234761Y-70620000D01*
X99330000Y-70572380D01*
X100187142Y-70572380D02*
X100187142Y-71381904D01*
X100234761Y-71477142D01*
X100282380Y-71524761D01*
X100377619Y-71572380D01*
X100568095Y-71572380D01*
X100663333Y-71524761D01*
X100710952Y-71477142D01*
X100758571Y-71381904D01*
X100758571Y-70572380D01*
X101091904Y-70572380D02*
X101663333Y-70572380D01*
X101377619Y-71572380D02*
X101377619Y-70572380D01*
X165370000Y-52792380D02*
X165560476Y-52792380D01*
X165655714Y-52840000D01*
X165750952Y-52935238D01*
X165798571Y-53125714D01*
X165798571Y-53459047D01*
X165750952Y-53649523D01*
X165655714Y-53744761D01*
X165560476Y-53792380D01*
X165370000Y-53792380D01*
X165274761Y-53744761D01*
X165179523Y-53649523D01*
X165131904Y-53459047D01*
X165131904Y-53125714D01*
X165179523Y-52935238D01*
X165274761Y-52840000D01*
X165370000Y-52792380D01*
X166227142Y-52792380D02*
X166227142Y-53601904D01*
X166274761Y-53697142D01*
X166322380Y-53744761D01*
X166417619Y-53792380D01*
X166608095Y-53792380D01*
X166703333Y-53744761D01*
X166750952Y-53697142D01*
X166798571Y-53601904D01*
X166798571Y-52792380D01*
X167131904Y-52792380D02*
X167703333Y-52792380D01*
X167417619Y-53792380D02*
X167417619Y-52792380D01*
X132350000Y-52792380D02*
X132540476Y-52792380D01*
X132635714Y-52840000D01*
X132730952Y-52935238D01*
X132778571Y-53125714D01*
X132778571Y-53459047D01*
X132730952Y-53649523D01*
X132635714Y-53744761D01*
X132540476Y-53792380D01*
X132350000Y-53792380D01*
X132254761Y-53744761D01*
X132159523Y-53649523D01*
X132111904Y-53459047D01*
X132111904Y-53125714D01*
X132159523Y-52935238D01*
X132254761Y-52840000D01*
X132350000Y-52792380D01*
X133207142Y-52792380D02*
X133207142Y-53601904D01*
X133254761Y-53697142D01*
X133302380Y-53744761D01*
X133397619Y-53792380D01*
X133588095Y-53792380D01*
X133683333Y-53744761D01*
X133730952Y-53697142D01*
X133778571Y-53601904D01*
X133778571Y-52792380D01*
X134111904Y-52792380D02*
X134683333Y-52792380D01*
X134397619Y-53792380D02*
X134397619Y-52792380D01*
X151923809Y-89352380D02*
X151923809Y-88352380D01*
X152923809Y-89352380D02*
X152352380Y-89352380D01*
X152638095Y-89352380D02*
X152638095Y-88352380D01*
X152542857Y-88495238D01*
X152447619Y-88590476D01*
X152352380Y-88638095D01*
X118903809Y-89352380D02*
X118903809Y-88352380D01*
X119903809Y-89352380D02*
X119332380Y-89352380D01*
X119618095Y-89352380D02*
X119618095Y-88352380D01*
X119522857Y-88495238D01*
X119427619Y-88590476D01*
X119332380Y-88638095D01*
X85883809Y-89352380D02*
X85883809Y-88352380D01*
X86883809Y-89352380D02*
X86312380Y-89352380D01*
X86598095Y-89352380D02*
X86598095Y-88352380D01*
X86502857Y-88495238D01*
X86407619Y-88590476D01*
X86312380Y-88638095D01*
X151923809Y-71572380D02*
X151923809Y-70572380D01*
X152923809Y-71572380D02*
X152352380Y-71572380D01*
X152638095Y-71572380D02*
X152638095Y-70572380D01*
X152542857Y-70715238D01*
X152447619Y-70810476D01*
X152352380Y-70858095D01*
X118903809Y-71572380D02*
X118903809Y-70572380D01*
X119903809Y-71572380D02*
X119332380Y-71572380D01*
X119618095Y-71572380D02*
X119618095Y-70572380D01*
X119522857Y-70715238D01*
X119427619Y-70810476D01*
X119332380Y-70858095D01*
X85883809Y-71572380D02*
X85883809Y-70572380D01*
X86883809Y-71572380D02*
X86312380Y-71572380D01*
X86598095Y-71572380D02*
X86598095Y-70572380D01*
X86502857Y-70715238D01*
X86407619Y-70810476D01*
X86312380Y-70858095D01*
X151923809Y-53792380D02*
X151923809Y-52792380D01*
X152923809Y-53792380D02*
X152352380Y-53792380D01*
X152638095Y-53792380D02*
X152638095Y-52792380D01*
X152542857Y-52935238D01*
X152447619Y-53030476D01*
X152352380Y-53078095D01*
X118903809Y-53792380D02*
X118903809Y-52792380D01*
X119903809Y-53792380D02*
X119332380Y-53792380D01*
X119618095Y-53792380D02*
X119618095Y-52792380D01*
X119522857Y-52935238D01*
X119427619Y-53030476D01*
X119332380Y-53078095D01*
D11*
X163981142Y-96495857D02*
X164171619Y-96495857D01*
X164052571Y-96329190D02*
X164052571Y-96757761D01*
X164076380Y-96805380D01*
X164124000Y-96829190D01*
X164171619Y-96829190D01*
X164338285Y-96829190D02*
X164338285Y-96329190D01*
X164552571Y-96829190D02*
X164552571Y-96567285D01*
X164528761Y-96519666D01*
X164481142Y-96495857D01*
X164409714Y-96495857D01*
X164362095Y-96519666D01*
X164338285Y-96543476D01*
X164981142Y-96805380D02*
X164933523Y-96829190D01*
X164838285Y-96829190D01*
X164790666Y-96805380D01*
X164766857Y-96757761D01*
X164766857Y-96567285D01*
X164790666Y-96519666D01*
X164838285Y-96495857D01*
X164933523Y-96495857D01*
X164981142Y-96519666D01*
X165004952Y-96567285D01*
X165004952Y-96614904D01*
X164766857Y-96662523D01*
X165576380Y-96805380D02*
X165624000Y-96829190D01*
X165719238Y-96829190D01*
X165766857Y-96805380D01*
X165790666Y-96757761D01*
X165790666Y-96733952D01*
X165766857Y-96686333D01*
X165719238Y-96662523D01*
X165647809Y-96662523D01*
X165600190Y-96638714D01*
X165576380Y-96591095D01*
X165576380Y-96567285D01*
X165600190Y-96519666D01*
X165647809Y-96495857D01*
X165719238Y-96495857D01*
X165766857Y-96519666D01*
X166004952Y-96495857D02*
X166004952Y-96995857D01*
X166004952Y-96519666D02*
X166052571Y-96495857D01*
X166147809Y-96495857D01*
X166195428Y-96519666D01*
X166219238Y-96543476D01*
X166243047Y-96591095D01*
X166243047Y-96733952D01*
X166219238Y-96781571D01*
X166195428Y-96805380D01*
X166147809Y-96829190D01*
X166052571Y-96829190D01*
X166004952Y-96805380D01*
X166671619Y-96829190D02*
X166671619Y-96567285D01*
X166647809Y-96519666D01*
X166600190Y-96495857D01*
X166504952Y-96495857D01*
X166457333Y-96519666D01*
X166671619Y-96805380D02*
X166624000Y-96829190D01*
X166504952Y-96829190D01*
X166457333Y-96805380D01*
X166433523Y-96757761D01*
X166433523Y-96710142D01*
X166457333Y-96662523D01*
X166504952Y-96638714D01*
X166624000Y-96638714D01*
X166671619Y-96614904D01*
X167124000Y-96495857D02*
X167124000Y-96900619D01*
X167100190Y-96948238D01*
X167076380Y-96972047D01*
X167028761Y-96995857D01*
X166957333Y-96995857D01*
X166909714Y-96972047D01*
X167124000Y-96805380D02*
X167076380Y-96829190D01*
X166981142Y-96829190D01*
X166933523Y-96805380D01*
X166909714Y-96781571D01*
X166885904Y-96733952D01*
X166885904Y-96591095D01*
X166909714Y-96543476D01*
X166933523Y-96519666D01*
X166981142Y-96495857D01*
X167076380Y-96495857D01*
X167124000Y-96519666D01*
X167362095Y-96829190D02*
X167362095Y-96329190D01*
X167576380Y-96829190D02*
X167576380Y-96567285D01*
X167552571Y-96519666D01*
X167504952Y-96495857D01*
X167433523Y-96495857D01*
X167385904Y-96519666D01*
X167362095Y-96543476D01*
X168004952Y-96805380D02*
X167957333Y-96829190D01*
X167862095Y-96829190D01*
X167814476Y-96805380D01*
X167790666Y-96757761D01*
X167790666Y-96567285D01*
X167814476Y-96519666D01*
X167862095Y-96495857D01*
X167957333Y-96495857D01*
X168004952Y-96519666D01*
X168028761Y-96567285D01*
X168028761Y-96614904D01*
X167790666Y-96662523D01*
X168171619Y-96495857D02*
X168362095Y-96495857D01*
X168243047Y-96329190D02*
X168243047Y-96757761D01*
X168266857Y-96805380D01*
X168314476Y-96829190D01*
X168362095Y-96829190D01*
X168457333Y-96495857D02*
X168647809Y-96495857D01*
X168528761Y-96329190D02*
X168528761Y-96757761D01*
X168552571Y-96805380D01*
X168600190Y-96829190D01*
X168647809Y-96829190D01*
X168814476Y-96829190D02*
X168814476Y-96495857D01*
X168814476Y-96329190D02*
X168790666Y-96353000D01*
X168814476Y-96376809D01*
X168838285Y-96353000D01*
X168814476Y-96329190D01*
X168814476Y-96376809D01*
X165254952Y-97679190D02*
X165254952Y-97345857D01*
X165254952Y-97393476D02*
X165278761Y-97369666D01*
X165326380Y-97345857D01*
X165397809Y-97345857D01*
X165445428Y-97369666D01*
X165469238Y-97417285D01*
X165469238Y-97679190D01*
X165469238Y-97417285D02*
X165493047Y-97369666D01*
X165540666Y-97345857D01*
X165612095Y-97345857D01*
X165659714Y-97369666D01*
X165683523Y-97417285D01*
X165683523Y-97679190D01*
X166135904Y-97679190D02*
X166135904Y-97417285D01*
X166112095Y-97369666D01*
X166064476Y-97345857D01*
X165969238Y-97345857D01*
X165921619Y-97369666D01*
X166135904Y-97655380D02*
X166088285Y-97679190D01*
X165969238Y-97679190D01*
X165921619Y-97655380D01*
X165897809Y-97607761D01*
X165897809Y-97560142D01*
X165921619Y-97512523D01*
X165969238Y-97488714D01*
X166088285Y-97488714D01*
X166135904Y-97464904D01*
X166588285Y-97679190D02*
X166588285Y-97179190D01*
X166588285Y-97655380D02*
X166540666Y-97679190D01*
X166445428Y-97679190D01*
X166397809Y-97655380D01*
X166374000Y-97631571D01*
X166350190Y-97583952D01*
X166350190Y-97441095D01*
X166374000Y-97393476D01*
X166397809Y-97369666D01*
X166445428Y-97345857D01*
X166540666Y-97345857D01*
X166588285Y-97369666D01*
X167016857Y-97655380D02*
X166969238Y-97679190D01*
X166874000Y-97679190D01*
X166826380Y-97655380D01*
X166802571Y-97607761D01*
X166802571Y-97417285D01*
X166826380Y-97369666D01*
X166874000Y-97345857D01*
X166969238Y-97345857D01*
X167016857Y-97369666D01*
X167040666Y-97417285D01*
X167040666Y-97464904D01*
X166802571Y-97512523D01*
X167707333Y-97679190D02*
X167659714Y-97655380D01*
X167635904Y-97631571D01*
X167612095Y-97583952D01*
X167612095Y-97441095D01*
X167635904Y-97393476D01*
X167659714Y-97369666D01*
X167707333Y-97345857D01*
X167778761Y-97345857D01*
X167826380Y-97369666D01*
X167850190Y-97393476D01*
X167874000Y-97441095D01*
X167874000Y-97583952D01*
X167850190Y-97631571D01*
X167826380Y-97655380D01*
X167778761Y-97679190D01*
X167707333Y-97679190D01*
X168016857Y-97345857D02*
X168207333Y-97345857D01*
X168088285Y-97679190D02*
X168088285Y-97250619D01*
X168112095Y-97203000D01*
X168159714Y-97179190D01*
X168207333Y-97179190D01*
X168969238Y-97655380D02*
X168921619Y-97679190D01*
X168826380Y-97679190D01*
X168778761Y-97655380D01*
X168754952Y-97631571D01*
X168731142Y-97583952D01*
X168731142Y-97441095D01*
X168754952Y-97393476D01*
X168778761Y-97369666D01*
X168826380Y-97345857D01*
X168921619Y-97345857D01*
X168969238Y-97369666D01*
X169254952Y-97679190D02*
X169207333Y-97655380D01*
X169183523Y-97631571D01*
X169159714Y-97583952D01*
X169159714Y-97441095D01*
X169183523Y-97393476D01*
X169207333Y-97369666D01*
X169254952Y-97345857D01*
X169326380Y-97345857D01*
X169374000Y-97369666D01*
X169397809Y-97393476D01*
X169421619Y-97441095D01*
X169421619Y-97583952D01*
X169397809Y-97631571D01*
X169374000Y-97655380D01*
X169326380Y-97679190D01*
X169254952Y-97679190D01*
X169850190Y-97679190D02*
X169850190Y-97179190D01*
X169850190Y-97655380D02*
X169802571Y-97679190D01*
X169707333Y-97679190D01*
X169659714Y-97655380D01*
X169635904Y-97631571D01*
X169612095Y-97583952D01*
X169612095Y-97441095D01*
X169635904Y-97393476D01*
X169659714Y-97369666D01*
X169707333Y-97345857D01*
X169802571Y-97345857D01*
X169850190Y-97369666D01*
X170278761Y-97655380D02*
X170231142Y-97679190D01*
X170135904Y-97679190D01*
X170088285Y-97655380D01*
X170064476Y-97607761D01*
X170064476Y-97417285D01*
X170088285Y-97369666D01*
X170135904Y-97345857D01*
X170231142Y-97345857D01*
X170278761Y-97369666D01*
X170302571Y-97417285D01*
X170302571Y-97464904D01*
X170064476Y-97512523D01*
X130961142Y-96495857D02*
X131151619Y-96495857D01*
X131032571Y-96329190D02*
X131032571Y-96757761D01*
X131056380Y-96805380D01*
X131104000Y-96829190D01*
X131151619Y-96829190D01*
X131318285Y-96829190D02*
X131318285Y-96329190D01*
X131532571Y-96829190D02*
X131532571Y-96567285D01*
X131508761Y-96519666D01*
X131461142Y-96495857D01*
X131389714Y-96495857D01*
X131342095Y-96519666D01*
X131318285Y-96543476D01*
X131961142Y-96805380D02*
X131913523Y-96829190D01*
X131818285Y-96829190D01*
X131770666Y-96805380D01*
X131746857Y-96757761D01*
X131746857Y-96567285D01*
X131770666Y-96519666D01*
X131818285Y-96495857D01*
X131913523Y-96495857D01*
X131961142Y-96519666D01*
X131984952Y-96567285D01*
X131984952Y-96614904D01*
X131746857Y-96662523D01*
X132556380Y-96805380D02*
X132604000Y-96829190D01*
X132699238Y-96829190D01*
X132746857Y-96805380D01*
X132770666Y-96757761D01*
X132770666Y-96733952D01*
X132746857Y-96686333D01*
X132699238Y-96662523D01*
X132627809Y-96662523D01*
X132580190Y-96638714D01*
X132556380Y-96591095D01*
X132556380Y-96567285D01*
X132580190Y-96519666D01*
X132627809Y-96495857D01*
X132699238Y-96495857D01*
X132746857Y-96519666D01*
X132984952Y-96495857D02*
X132984952Y-96995857D01*
X132984952Y-96519666D02*
X133032571Y-96495857D01*
X133127809Y-96495857D01*
X133175428Y-96519666D01*
X133199238Y-96543476D01*
X133223047Y-96591095D01*
X133223047Y-96733952D01*
X133199238Y-96781571D01*
X133175428Y-96805380D01*
X133127809Y-96829190D01*
X133032571Y-96829190D01*
X132984952Y-96805380D01*
X133651619Y-96829190D02*
X133651619Y-96567285D01*
X133627809Y-96519666D01*
X133580190Y-96495857D01*
X133484952Y-96495857D01*
X133437333Y-96519666D01*
X133651619Y-96805380D02*
X133604000Y-96829190D01*
X133484952Y-96829190D01*
X133437333Y-96805380D01*
X133413523Y-96757761D01*
X133413523Y-96710142D01*
X133437333Y-96662523D01*
X133484952Y-96638714D01*
X133604000Y-96638714D01*
X133651619Y-96614904D01*
X134104000Y-96495857D02*
X134104000Y-96900619D01*
X134080190Y-96948238D01*
X134056380Y-96972047D01*
X134008761Y-96995857D01*
X133937333Y-96995857D01*
X133889714Y-96972047D01*
X134104000Y-96805380D02*
X134056380Y-96829190D01*
X133961142Y-96829190D01*
X133913523Y-96805380D01*
X133889714Y-96781571D01*
X133865904Y-96733952D01*
X133865904Y-96591095D01*
X133889714Y-96543476D01*
X133913523Y-96519666D01*
X133961142Y-96495857D01*
X134056380Y-96495857D01*
X134104000Y-96519666D01*
X134342095Y-96829190D02*
X134342095Y-96329190D01*
X134556380Y-96829190D02*
X134556380Y-96567285D01*
X134532571Y-96519666D01*
X134484952Y-96495857D01*
X134413523Y-96495857D01*
X134365904Y-96519666D01*
X134342095Y-96543476D01*
X134984952Y-96805380D02*
X134937333Y-96829190D01*
X134842095Y-96829190D01*
X134794476Y-96805380D01*
X134770666Y-96757761D01*
X134770666Y-96567285D01*
X134794476Y-96519666D01*
X134842095Y-96495857D01*
X134937333Y-96495857D01*
X134984952Y-96519666D01*
X135008761Y-96567285D01*
X135008761Y-96614904D01*
X134770666Y-96662523D01*
X135151619Y-96495857D02*
X135342095Y-96495857D01*
X135223047Y-96329190D02*
X135223047Y-96757761D01*
X135246857Y-96805380D01*
X135294476Y-96829190D01*
X135342095Y-96829190D01*
X135437333Y-96495857D02*
X135627809Y-96495857D01*
X135508761Y-96329190D02*
X135508761Y-96757761D01*
X135532571Y-96805380D01*
X135580190Y-96829190D01*
X135627809Y-96829190D01*
X135794476Y-96829190D02*
X135794476Y-96495857D01*
X135794476Y-96329190D02*
X135770666Y-96353000D01*
X135794476Y-96376809D01*
X135818285Y-96353000D01*
X135794476Y-96329190D01*
X135794476Y-96376809D01*
X132234952Y-97679190D02*
X132234952Y-97345857D01*
X132234952Y-97393476D02*
X132258761Y-97369666D01*
X132306380Y-97345857D01*
X132377809Y-97345857D01*
X132425428Y-97369666D01*
X132449238Y-97417285D01*
X132449238Y-97679190D01*
X132449238Y-97417285D02*
X132473047Y-97369666D01*
X132520666Y-97345857D01*
X132592095Y-97345857D01*
X132639714Y-97369666D01*
X132663523Y-97417285D01*
X132663523Y-97679190D01*
X133115904Y-97679190D02*
X133115904Y-97417285D01*
X133092095Y-97369666D01*
X133044476Y-97345857D01*
X132949238Y-97345857D01*
X132901619Y-97369666D01*
X133115904Y-97655380D02*
X133068285Y-97679190D01*
X132949238Y-97679190D01*
X132901619Y-97655380D01*
X132877809Y-97607761D01*
X132877809Y-97560142D01*
X132901619Y-97512523D01*
X132949238Y-97488714D01*
X133068285Y-97488714D01*
X133115904Y-97464904D01*
X133568285Y-97679190D02*
X133568285Y-97179190D01*
X133568285Y-97655380D02*
X133520666Y-97679190D01*
X133425428Y-97679190D01*
X133377809Y-97655380D01*
X133354000Y-97631571D01*
X133330190Y-97583952D01*
X133330190Y-97441095D01*
X133354000Y-97393476D01*
X133377809Y-97369666D01*
X133425428Y-97345857D01*
X133520666Y-97345857D01*
X133568285Y-97369666D01*
X133996857Y-97655380D02*
X133949238Y-97679190D01*
X133854000Y-97679190D01*
X133806380Y-97655380D01*
X133782571Y-97607761D01*
X133782571Y-97417285D01*
X133806380Y-97369666D01*
X133854000Y-97345857D01*
X133949238Y-97345857D01*
X133996857Y-97369666D01*
X134020666Y-97417285D01*
X134020666Y-97464904D01*
X133782571Y-97512523D01*
X134687333Y-97679190D02*
X134639714Y-97655380D01*
X134615904Y-97631571D01*
X134592095Y-97583952D01*
X134592095Y-97441095D01*
X134615904Y-97393476D01*
X134639714Y-97369666D01*
X134687333Y-97345857D01*
X134758761Y-97345857D01*
X134806380Y-97369666D01*
X134830190Y-97393476D01*
X134854000Y-97441095D01*
X134854000Y-97583952D01*
X134830190Y-97631571D01*
X134806380Y-97655380D01*
X134758761Y-97679190D01*
X134687333Y-97679190D01*
X134996857Y-97345857D02*
X135187333Y-97345857D01*
X135068285Y-97679190D02*
X135068285Y-97250619D01*
X135092095Y-97203000D01*
X135139714Y-97179190D01*
X135187333Y-97179190D01*
X135949238Y-97655380D02*
X135901619Y-97679190D01*
X135806380Y-97679190D01*
X135758761Y-97655380D01*
X135734952Y-97631571D01*
X135711142Y-97583952D01*
X135711142Y-97441095D01*
X135734952Y-97393476D01*
X135758761Y-97369666D01*
X135806380Y-97345857D01*
X135901619Y-97345857D01*
X135949238Y-97369666D01*
X136234952Y-97679190D02*
X136187333Y-97655380D01*
X136163523Y-97631571D01*
X136139714Y-97583952D01*
X136139714Y-97441095D01*
X136163523Y-97393476D01*
X136187333Y-97369666D01*
X136234952Y-97345857D01*
X136306380Y-97345857D01*
X136354000Y-97369666D01*
X136377809Y-97393476D01*
X136401619Y-97441095D01*
X136401619Y-97583952D01*
X136377809Y-97631571D01*
X136354000Y-97655380D01*
X136306380Y-97679190D01*
X136234952Y-97679190D01*
X136830190Y-97679190D02*
X136830190Y-97179190D01*
X136830190Y-97655380D02*
X136782571Y-97679190D01*
X136687333Y-97679190D01*
X136639714Y-97655380D01*
X136615904Y-97631571D01*
X136592095Y-97583952D01*
X136592095Y-97441095D01*
X136615904Y-97393476D01*
X136639714Y-97369666D01*
X136687333Y-97345857D01*
X136782571Y-97345857D01*
X136830190Y-97369666D01*
X137258761Y-97655380D02*
X137211142Y-97679190D01*
X137115904Y-97679190D01*
X137068285Y-97655380D01*
X137044476Y-97607761D01*
X137044476Y-97417285D01*
X137068285Y-97369666D01*
X137115904Y-97345857D01*
X137211142Y-97345857D01*
X137258761Y-97369666D01*
X137282571Y-97417285D01*
X137282571Y-97464904D01*
X137044476Y-97512523D01*
X97941142Y-96495857D02*
X98131619Y-96495857D01*
X98012571Y-96329190D02*
X98012571Y-96757761D01*
X98036380Y-96805380D01*
X98084000Y-96829190D01*
X98131619Y-96829190D01*
X98298285Y-96829190D02*
X98298285Y-96329190D01*
X98512571Y-96829190D02*
X98512571Y-96567285D01*
X98488761Y-96519666D01*
X98441142Y-96495857D01*
X98369714Y-96495857D01*
X98322095Y-96519666D01*
X98298285Y-96543476D01*
X98941142Y-96805380D02*
X98893523Y-96829190D01*
X98798285Y-96829190D01*
X98750666Y-96805380D01*
X98726857Y-96757761D01*
X98726857Y-96567285D01*
X98750666Y-96519666D01*
X98798285Y-96495857D01*
X98893523Y-96495857D01*
X98941142Y-96519666D01*
X98964952Y-96567285D01*
X98964952Y-96614904D01*
X98726857Y-96662523D01*
X99536380Y-96805380D02*
X99584000Y-96829190D01*
X99679238Y-96829190D01*
X99726857Y-96805380D01*
X99750666Y-96757761D01*
X99750666Y-96733952D01*
X99726857Y-96686333D01*
X99679238Y-96662523D01*
X99607809Y-96662523D01*
X99560190Y-96638714D01*
X99536380Y-96591095D01*
X99536380Y-96567285D01*
X99560190Y-96519666D01*
X99607809Y-96495857D01*
X99679238Y-96495857D01*
X99726857Y-96519666D01*
X99964952Y-96495857D02*
X99964952Y-96995857D01*
X99964952Y-96519666D02*
X100012571Y-96495857D01*
X100107809Y-96495857D01*
X100155428Y-96519666D01*
X100179238Y-96543476D01*
X100203047Y-96591095D01*
X100203047Y-96733952D01*
X100179238Y-96781571D01*
X100155428Y-96805380D01*
X100107809Y-96829190D01*
X100012571Y-96829190D01*
X99964952Y-96805380D01*
X100631619Y-96829190D02*
X100631619Y-96567285D01*
X100607809Y-96519666D01*
X100560190Y-96495857D01*
X100464952Y-96495857D01*
X100417333Y-96519666D01*
X100631619Y-96805380D02*
X100584000Y-96829190D01*
X100464952Y-96829190D01*
X100417333Y-96805380D01*
X100393523Y-96757761D01*
X100393523Y-96710142D01*
X100417333Y-96662523D01*
X100464952Y-96638714D01*
X100584000Y-96638714D01*
X100631619Y-96614904D01*
X101084000Y-96495857D02*
X101084000Y-96900619D01*
X101060190Y-96948238D01*
X101036380Y-96972047D01*
X100988761Y-96995857D01*
X100917333Y-96995857D01*
X100869714Y-96972047D01*
X101084000Y-96805380D02*
X101036380Y-96829190D01*
X100941142Y-96829190D01*
X100893523Y-96805380D01*
X100869714Y-96781571D01*
X100845904Y-96733952D01*
X100845904Y-96591095D01*
X100869714Y-96543476D01*
X100893523Y-96519666D01*
X100941142Y-96495857D01*
X101036380Y-96495857D01*
X101084000Y-96519666D01*
X101322095Y-96829190D02*
X101322095Y-96329190D01*
X101536380Y-96829190D02*
X101536380Y-96567285D01*
X101512571Y-96519666D01*
X101464952Y-96495857D01*
X101393523Y-96495857D01*
X101345904Y-96519666D01*
X101322095Y-96543476D01*
X101964952Y-96805380D02*
X101917333Y-96829190D01*
X101822095Y-96829190D01*
X101774476Y-96805380D01*
X101750666Y-96757761D01*
X101750666Y-96567285D01*
X101774476Y-96519666D01*
X101822095Y-96495857D01*
X101917333Y-96495857D01*
X101964952Y-96519666D01*
X101988761Y-96567285D01*
X101988761Y-96614904D01*
X101750666Y-96662523D01*
X102131619Y-96495857D02*
X102322095Y-96495857D01*
X102203047Y-96329190D02*
X102203047Y-96757761D01*
X102226857Y-96805380D01*
X102274476Y-96829190D01*
X102322095Y-96829190D01*
X102417333Y-96495857D02*
X102607809Y-96495857D01*
X102488761Y-96329190D02*
X102488761Y-96757761D01*
X102512571Y-96805380D01*
X102560190Y-96829190D01*
X102607809Y-96829190D01*
X102774476Y-96829190D02*
X102774476Y-96495857D01*
X102774476Y-96329190D02*
X102750666Y-96353000D01*
X102774476Y-96376809D01*
X102798285Y-96353000D01*
X102774476Y-96329190D01*
X102774476Y-96376809D01*
X99214952Y-97679190D02*
X99214952Y-97345857D01*
X99214952Y-97393476D02*
X99238761Y-97369666D01*
X99286380Y-97345857D01*
X99357809Y-97345857D01*
X99405428Y-97369666D01*
X99429238Y-97417285D01*
X99429238Y-97679190D01*
X99429238Y-97417285D02*
X99453047Y-97369666D01*
X99500666Y-97345857D01*
X99572095Y-97345857D01*
X99619714Y-97369666D01*
X99643523Y-97417285D01*
X99643523Y-97679190D01*
X100095904Y-97679190D02*
X100095904Y-97417285D01*
X100072095Y-97369666D01*
X100024476Y-97345857D01*
X99929238Y-97345857D01*
X99881619Y-97369666D01*
X100095904Y-97655380D02*
X100048285Y-97679190D01*
X99929238Y-97679190D01*
X99881619Y-97655380D01*
X99857809Y-97607761D01*
X99857809Y-97560142D01*
X99881619Y-97512523D01*
X99929238Y-97488714D01*
X100048285Y-97488714D01*
X100095904Y-97464904D01*
X100548285Y-97679190D02*
X100548285Y-97179190D01*
X100548285Y-97655380D02*
X100500666Y-97679190D01*
X100405428Y-97679190D01*
X100357809Y-97655380D01*
X100334000Y-97631571D01*
X100310190Y-97583952D01*
X100310190Y-97441095D01*
X100334000Y-97393476D01*
X100357809Y-97369666D01*
X100405428Y-97345857D01*
X100500666Y-97345857D01*
X100548285Y-97369666D01*
X100976857Y-97655380D02*
X100929238Y-97679190D01*
X100834000Y-97679190D01*
X100786380Y-97655380D01*
X100762571Y-97607761D01*
X100762571Y-97417285D01*
X100786380Y-97369666D01*
X100834000Y-97345857D01*
X100929238Y-97345857D01*
X100976857Y-97369666D01*
X101000666Y-97417285D01*
X101000666Y-97464904D01*
X100762571Y-97512523D01*
X101667333Y-97679190D02*
X101619714Y-97655380D01*
X101595904Y-97631571D01*
X101572095Y-97583952D01*
X101572095Y-97441095D01*
X101595904Y-97393476D01*
X101619714Y-97369666D01*
X101667333Y-97345857D01*
X101738761Y-97345857D01*
X101786380Y-97369666D01*
X101810190Y-97393476D01*
X101834000Y-97441095D01*
X101834000Y-97583952D01*
X101810190Y-97631571D01*
X101786380Y-97655380D01*
X101738761Y-97679190D01*
X101667333Y-97679190D01*
X101976857Y-97345857D02*
X102167333Y-97345857D01*
X102048285Y-97679190D02*
X102048285Y-97250619D01*
X102072095Y-97203000D01*
X102119714Y-97179190D01*
X102167333Y-97179190D01*
X102929238Y-97655380D02*
X102881619Y-97679190D01*
X102786380Y-97679190D01*
X102738761Y-97655380D01*
X102714952Y-97631571D01*
X102691142Y-97583952D01*
X102691142Y-97441095D01*
X102714952Y-97393476D01*
X102738761Y-97369666D01*
X102786380Y-97345857D01*
X102881619Y-97345857D01*
X102929238Y-97369666D01*
X103214952Y-97679190D02*
X103167333Y-97655380D01*
X103143523Y-97631571D01*
X103119714Y-97583952D01*
X103119714Y-97441095D01*
X103143523Y-97393476D01*
X103167333Y-97369666D01*
X103214952Y-97345857D01*
X103286380Y-97345857D01*
X103334000Y-97369666D01*
X103357809Y-97393476D01*
X103381619Y-97441095D01*
X103381619Y-97583952D01*
X103357809Y-97631571D01*
X103334000Y-97655380D01*
X103286380Y-97679190D01*
X103214952Y-97679190D01*
X103810190Y-97679190D02*
X103810190Y-97179190D01*
X103810190Y-97655380D02*
X103762571Y-97679190D01*
X103667333Y-97679190D01*
X103619714Y-97655380D01*
X103595904Y-97631571D01*
X103572095Y-97583952D01*
X103572095Y-97441095D01*
X103595904Y-97393476D01*
X103619714Y-97369666D01*
X103667333Y-97345857D01*
X103762571Y-97345857D01*
X103810190Y-97369666D01*
X104238761Y-97655380D02*
X104191142Y-97679190D01*
X104095904Y-97679190D01*
X104048285Y-97655380D01*
X104024476Y-97607761D01*
X104024476Y-97417285D01*
X104048285Y-97369666D01*
X104095904Y-97345857D01*
X104191142Y-97345857D01*
X104238761Y-97369666D01*
X104262571Y-97417285D01*
X104262571Y-97464904D01*
X104024476Y-97512523D01*
X163981142Y-78715857D02*
X164171619Y-78715857D01*
X164052571Y-78549190D02*
X164052571Y-78977761D01*
X164076380Y-79025380D01*
X164124000Y-79049190D01*
X164171619Y-79049190D01*
X164338285Y-79049190D02*
X164338285Y-78549190D01*
X164552571Y-79049190D02*
X164552571Y-78787285D01*
X164528761Y-78739666D01*
X164481142Y-78715857D01*
X164409714Y-78715857D01*
X164362095Y-78739666D01*
X164338285Y-78763476D01*
X164981142Y-79025380D02*
X164933523Y-79049190D01*
X164838285Y-79049190D01*
X164790666Y-79025380D01*
X164766857Y-78977761D01*
X164766857Y-78787285D01*
X164790666Y-78739666D01*
X164838285Y-78715857D01*
X164933523Y-78715857D01*
X164981142Y-78739666D01*
X165004952Y-78787285D01*
X165004952Y-78834904D01*
X164766857Y-78882523D01*
X165576380Y-79025380D02*
X165624000Y-79049190D01*
X165719238Y-79049190D01*
X165766857Y-79025380D01*
X165790666Y-78977761D01*
X165790666Y-78953952D01*
X165766857Y-78906333D01*
X165719238Y-78882523D01*
X165647809Y-78882523D01*
X165600190Y-78858714D01*
X165576380Y-78811095D01*
X165576380Y-78787285D01*
X165600190Y-78739666D01*
X165647809Y-78715857D01*
X165719238Y-78715857D01*
X165766857Y-78739666D01*
X166004952Y-78715857D02*
X166004952Y-79215857D01*
X166004952Y-78739666D02*
X166052571Y-78715857D01*
X166147809Y-78715857D01*
X166195428Y-78739666D01*
X166219238Y-78763476D01*
X166243047Y-78811095D01*
X166243047Y-78953952D01*
X166219238Y-79001571D01*
X166195428Y-79025380D01*
X166147809Y-79049190D01*
X166052571Y-79049190D01*
X166004952Y-79025380D01*
X166671619Y-79049190D02*
X166671619Y-78787285D01*
X166647809Y-78739666D01*
X166600190Y-78715857D01*
X166504952Y-78715857D01*
X166457333Y-78739666D01*
X166671619Y-79025380D02*
X166624000Y-79049190D01*
X166504952Y-79049190D01*
X166457333Y-79025380D01*
X166433523Y-78977761D01*
X166433523Y-78930142D01*
X166457333Y-78882523D01*
X166504952Y-78858714D01*
X166624000Y-78858714D01*
X166671619Y-78834904D01*
X167124000Y-78715857D02*
X167124000Y-79120619D01*
X167100190Y-79168238D01*
X167076380Y-79192047D01*
X167028761Y-79215857D01*
X166957333Y-79215857D01*
X166909714Y-79192047D01*
X167124000Y-79025380D02*
X167076380Y-79049190D01*
X166981142Y-79049190D01*
X166933523Y-79025380D01*
X166909714Y-79001571D01*
X166885904Y-78953952D01*
X166885904Y-78811095D01*
X166909714Y-78763476D01*
X166933523Y-78739666D01*
X166981142Y-78715857D01*
X167076380Y-78715857D01*
X167124000Y-78739666D01*
X167362095Y-79049190D02*
X167362095Y-78549190D01*
X167576380Y-79049190D02*
X167576380Y-78787285D01*
X167552571Y-78739666D01*
X167504952Y-78715857D01*
X167433523Y-78715857D01*
X167385904Y-78739666D01*
X167362095Y-78763476D01*
X168004952Y-79025380D02*
X167957333Y-79049190D01*
X167862095Y-79049190D01*
X167814476Y-79025380D01*
X167790666Y-78977761D01*
X167790666Y-78787285D01*
X167814476Y-78739666D01*
X167862095Y-78715857D01*
X167957333Y-78715857D01*
X168004952Y-78739666D01*
X168028761Y-78787285D01*
X168028761Y-78834904D01*
X167790666Y-78882523D01*
X168171619Y-78715857D02*
X168362095Y-78715857D01*
X168243047Y-78549190D02*
X168243047Y-78977761D01*
X168266857Y-79025380D01*
X168314476Y-79049190D01*
X168362095Y-79049190D01*
X168457333Y-78715857D02*
X168647809Y-78715857D01*
X168528761Y-78549190D02*
X168528761Y-78977761D01*
X168552571Y-79025380D01*
X168600190Y-79049190D01*
X168647809Y-79049190D01*
X168814476Y-79049190D02*
X168814476Y-78715857D01*
X168814476Y-78549190D02*
X168790666Y-78573000D01*
X168814476Y-78596809D01*
X168838285Y-78573000D01*
X168814476Y-78549190D01*
X168814476Y-78596809D01*
X165254952Y-79899190D02*
X165254952Y-79565857D01*
X165254952Y-79613476D02*
X165278761Y-79589666D01*
X165326380Y-79565857D01*
X165397809Y-79565857D01*
X165445428Y-79589666D01*
X165469238Y-79637285D01*
X165469238Y-79899190D01*
X165469238Y-79637285D02*
X165493047Y-79589666D01*
X165540666Y-79565857D01*
X165612095Y-79565857D01*
X165659714Y-79589666D01*
X165683523Y-79637285D01*
X165683523Y-79899190D01*
X166135904Y-79899190D02*
X166135904Y-79637285D01*
X166112095Y-79589666D01*
X166064476Y-79565857D01*
X165969238Y-79565857D01*
X165921619Y-79589666D01*
X166135904Y-79875380D02*
X166088285Y-79899190D01*
X165969238Y-79899190D01*
X165921619Y-79875380D01*
X165897809Y-79827761D01*
X165897809Y-79780142D01*
X165921619Y-79732523D01*
X165969238Y-79708714D01*
X166088285Y-79708714D01*
X166135904Y-79684904D01*
X166588285Y-79899190D02*
X166588285Y-79399190D01*
X166588285Y-79875380D02*
X166540666Y-79899190D01*
X166445428Y-79899190D01*
X166397809Y-79875380D01*
X166374000Y-79851571D01*
X166350190Y-79803952D01*
X166350190Y-79661095D01*
X166374000Y-79613476D01*
X166397809Y-79589666D01*
X166445428Y-79565857D01*
X166540666Y-79565857D01*
X166588285Y-79589666D01*
X167016857Y-79875380D02*
X166969238Y-79899190D01*
X166874000Y-79899190D01*
X166826380Y-79875380D01*
X166802571Y-79827761D01*
X166802571Y-79637285D01*
X166826380Y-79589666D01*
X166874000Y-79565857D01*
X166969238Y-79565857D01*
X167016857Y-79589666D01*
X167040666Y-79637285D01*
X167040666Y-79684904D01*
X166802571Y-79732523D01*
X167707333Y-79899190D02*
X167659714Y-79875380D01*
X167635904Y-79851571D01*
X167612095Y-79803952D01*
X167612095Y-79661095D01*
X167635904Y-79613476D01*
X167659714Y-79589666D01*
X167707333Y-79565857D01*
X167778761Y-79565857D01*
X167826380Y-79589666D01*
X167850190Y-79613476D01*
X167874000Y-79661095D01*
X167874000Y-79803952D01*
X167850190Y-79851571D01*
X167826380Y-79875380D01*
X167778761Y-79899190D01*
X167707333Y-79899190D01*
X168016857Y-79565857D02*
X168207333Y-79565857D01*
X168088285Y-79899190D02*
X168088285Y-79470619D01*
X168112095Y-79423000D01*
X168159714Y-79399190D01*
X168207333Y-79399190D01*
X168969238Y-79875380D02*
X168921619Y-79899190D01*
X168826380Y-79899190D01*
X168778761Y-79875380D01*
X168754952Y-79851571D01*
X168731142Y-79803952D01*
X168731142Y-79661095D01*
X168754952Y-79613476D01*
X168778761Y-79589666D01*
X168826380Y-79565857D01*
X168921619Y-79565857D01*
X168969238Y-79589666D01*
X169254952Y-79899190D02*
X169207333Y-79875380D01*
X169183523Y-79851571D01*
X169159714Y-79803952D01*
X169159714Y-79661095D01*
X169183523Y-79613476D01*
X169207333Y-79589666D01*
X169254952Y-79565857D01*
X169326380Y-79565857D01*
X169374000Y-79589666D01*
X169397809Y-79613476D01*
X169421619Y-79661095D01*
X169421619Y-79803952D01*
X169397809Y-79851571D01*
X169374000Y-79875380D01*
X169326380Y-79899190D01*
X169254952Y-79899190D01*
X169850190Y-79899190D02*
X169850190Y-79399190D01*
X169850190Y-79875380D02*
X169802571Y-79899190D01*
X169707333Y-79899190D01*
X169659714Y-79875380D01*
X169635904Y-79851571D01*
X169612095Y-79803952D01*
X169612095Y-79661095D01*
X169635904Y-79613476D01*
X169659714Y-79589666D01*
X169707333Y-79565857D01*
X169802571Y-79565857D01*
X169850190Y-79589666D01*
X170278761Y-79875380D02*
X170231142Y-79899190D01*
X170135904Y-79899190D01*
X170088285Y-79875380D01*
X170064476Y-79827761D01*
X170064476Y-79637285D01*
X170088285Y-79589666D01*
X170135904Y-79565857D01*
X170231142Y-79565857D01*
X170278761Y-79589666D01*
X170302571Y-79637285D01*
X170302571Y-79684904D01*
X170064476Y-79732523D01*
X130961142Y-78715857D02*
X131151619Y-78715857D01*
X131032571Y-78549190D02*
X131032571Y-78977761D01*
X131056380Y-79025380D01*
X131104000Y-79049190D01*
X131151619Y-79049190D01*
X131318285Y-79049190D02*
X131318285Y-78549190D01*
X131532571Y-79049190D02*
X131532571Y-78787285D01*
X131508761Y-78739666D01*
X131461142Y-78715857D01*
X131389714Y-78715857D01*
X131342095Y-78739666D01*
X131318285Y-78763476D01*
X131961142Y-79025380D02*
X131913523Y-79049190D01*
X131818285Y-79049190D01*
X131770666Y-79025380D01*
X131746857Y-78977761D01*
X131746857Y-78787285D01*
X131770666Y-78739666D01*
X131818285Y-78715857D01*
X131913523Y-78715857D01*
X131961142Y-78739666D01*
X131984952Y-78787285D01*
X131984952Y-78834904D01*
X131746857Y-78882523D01*
X132556380Y-79025380D02*
X132604000Y-79049190D01*
X132699238Y-79049190D01*
X132746857Y-79025380D01*
X132770666Y-78977761D01*
X132770666Y-78953952D01*
X132746857Y-78906333D01*
X132699238Y-78882523D01*
X132627809Y-78882523D01*
X132580190Y-78858714D01*
X132556380Y-78811095D01*
X132556380Y-78787285D01*
X132580190Y-78739666D01*
X132627809Y-78715857D01*
X132699238Y-78715857D01*
X132746857Y-78739666D01*
X132984952Y-78715857D02*
X132984952Y-79215857D01*
X132984952Y-78739666D02*
X133032571Y-78715857D01*
X133127809Y-78715857D01*
X133175428Y-78739666D01*
X133199238Y-78763476D01*
X133223047Y-78811095D01*
X133223047Y-78953952D01*
X133199238Y-79001571D01*
X133175428Y-79025380D01*
X133127809Y-79049190D01*
X133032571Y-79049190D01*
X132984952Y-79025380D01*
X133651619Y-79049190D02*
X133651619Y-78787285D01*
X133627809Y-78739666D01*
X133580190Y-78715857D01*
X133484952Y-78715857D01*
X133437333Y-78739666D01*
X133651619Y-79025380D02*
X133604000Y-79049190D01*
X133484952Y-79049190D01*
X133437333Y-79025380D01*
X133413523Y-78977761D01*
X133413523Y-78930142D01*
X133437333Y-78882523D01*
X133484952Y-78858714D01*
X133604000Y-78858714D01*
X133651619Y-78834904D01*
X134104000Y-78715857D02*
X134104000Y-79120619D01*
X134080190Y-79168238D01*
X134056380Y-79192047D01*
X134008761Y-79215857D01*
X133937333Y-79215857D01*
X133889714Y-79192047D01*
X134104000Y-79025380D02*
X134056380Y-79049190D01*
X133961142Y-79049190D01*
X133913523Y-79025380D01*
X133889714Y-79001571D01*
X133865904Y-78953952D01*
X133865904Y-78811095D01*
X133889714Y-78763476D01*
X133913523Y-78739666D01*
X133961142Y-78715857D01*
X134056380Y-78715857D01*
X134104000Y-78739666D01*
X134342095Y-79049190D02*
X134342095Y-78549190D01*
X134556380Y-79049190D02*
X134556380Y-78787285D01*
X134532571Y-78739666D01*
X134484952Y-78715857D01*
X134413523Y-78715857D01*
X134365904Y-78739666D01*
X134342095Y-78763476D01*
X134984952Y-79025380D02*
X134937333Y-79049190D01*
X134842095Y-79049190D01*
X134794476Y-79025380D01*
X134770666Y-78977761D01*
X134770666Y-78787285D01*
X134794476Y-78739666D01*
X134842095Y-78715857D01*
X134937333Y-78715857D01*
X134984952Y-78739666D01*
X135008761Y-78787285D01*
X135008761Y-78834904D01*
X134770666Y-78882523D01*
X135151619Y-78715857D02*
X135342095Y-78715857D01*
X135223047Y-78549190D02*
X135223047Y-78977761D01*
X135246857Y-79025380D01*
X135294476Y-79049190D01*
X135342095Y-79049190D01*
X135437333Y-78715857D02*
X135627809Y-78715857D01*
X135508761Y-78549190D02*
X135508761Y-78977761D01*
X135532571Y-79025380D01*
X135580190Y-79049190D01*
X135627809Y-79049190D01*
X135794476Y-79049190D02*
X135794476Y-78715857D01*
X135794476Y-78549190D02*
X135770666Y-78573000D01*
X135794476Y-78596809D01*
X135818285Y-78573000D01*
X135794476Y-78549190D01*
X135794476Y-78596809D01*
X132234952Y-79899190D02*
X132234952Y-79565857D01*
X132234952Y-79613476D02*
X132258761Y-79589666D01*
X132306380Y-79565857D01*
X132377809Y-79565857D01*
X132425428Y-79589666D01*
X132449238Y-79637285D01*
X132449238Y-79899190D01*
X132449238Y-79637285D02*
X132473047Y-79589666D01*
X132520666Y-79565857D01*
X132592095Y-79565857D01*
X132639714Y-79589666D01*
X132663523Y-79637285D01*
X132663523Y-79899190D01*
X133115904Y-79899190D02*
X133115904Y-79637285D01*
X133092095Y-79589666D01*
X133044476Y-79565857D01*
X132949238Y-79565857D01*
X132901619Y-79589666D01*
X133115904Y-79875380D02*
X133068285Y-79899190D01*
X132949238Y-79899190D01*
X132901619Y-79875380D01*
X132877809Y-79827761D01*
X132877809Y-79780142D01*
X132901619Y-79732523D01*
X132949238Y-79708714D01*
X133068285Y-79708714D01*
X133115904Y-79684904D01*
X133568285Y-79899190D02*
X133568285Y-79399190D01*
X133568285Y-79875380D02*
X133520666Y-79899190D01*
X133425428Y-79899190D01*
X133377809Y-79875380D01*
X133354000Y-79851571D01*
X133330190Y-79803952D01*
X133330190Y-79661095D01*
X133354000Y-79613476D01*
X133377809Y-79589666D01*
X133425428Y-79565857D01*
X133520666Y-79565857D01*
X133568285Y-79589666D01*
X133996857Y-79875380D02*
X133949238Y-79899190D01*
X133854000Y-79899190D01*
X133806380Y-79875380D01*
X133782571Y-79827761D01*
X133782571Y-79637285D01*
X133806380Y-79589666D01*
X133854000Y-79565857D01*
X133949238Y-79565857D01*
X133996857Y-79589666D01*
X134020666Y-79637285D01*
X134020666Y-79684904D01*
X133782571Y-79732523D01*
X134687333Y-79899190D02*
X134639714Y-79875380D01*
X134615904Y-79851571D01*
X134592095Y-79803952D01*
X134592095Y-79661095D01*
X134615904Y-79613476D01*
X134639714Y-79589666D01*
X134687333Y-79565857D01*
X134758761Y-79565857D01*
X134806380Y-79589666D01*
X134830190Y-79613476D01*
X134854000Y-79661095D01*
X134854000Y-79803952D01*
X134830190Y-79851571D01*
X134806380Y-79875380D01*
X134758761Y-79899190D01*
X134687333Y-79899190D01*
X134996857Y-79565857D02*
X135187333Y-79565857D01*
X135068285Y-79899190D02*
X135068285Y-79470619D01*
X135092095Y-79423000D01*
X135139714Y-79399190D01*
X135187333Y-79399190D01*
X135949238Y-79875380D02*
X135901619Y-79899190D01*
X135806380Y-79899190D01*
X135758761Y-79875380D01*
X135734952Y-79851571D01*
X135711142Y-79803952D01*
X135711142Y-79661095D01*
X135734952Y-79613476D01*
X135758761Y-79589666D01*
X135806380Y-79565857D01*
X135901619Y-79565857D01*
X135949238Y-79589666D01*
X136234952Y-79899190D02*
X136187333Y-79875380D01*
X136163523Y-79851571D01*
X136139714Y-79803952D01*
X136139714Y-79661095D01*
X136163523Y-79613476D01*
X136187333Y-79589666D01*
X136234952Y-79565857D01*
X136306380Y-79565857D01*
X136354000Y-79589666D01*
X136377809Y-79613476D01*
X136401619Y-79661095D01*
X136401619Y-79803952D01*
X136377809Y-79851571D01*
X136354000Y-79875380D01*
X136306380Y-79899190D01*
X136234952Y-79899190D01*
X136830190Y-79899190D02*
X136830190Y-79399190D01*
X136830190Y-79875380D02*
X136782571Y-79899190D01*
X136687333Y-79899190D01*
X136639714Y-79875380D01*
X136615904Y-79851571D01*
X136592095Y-79803952D01*
X136592095Y-79661095D01*
X136615904Y-79613476D01*
X136639714Y-79589666D01*
X136687333Y-79565857D01*
X136782571Y-79565857D01*
X136830190Y-79589666D01*
X137258761Y-79875380D02*
X137211142Y-79899190D01*
X137115904Y-79899190D01*
X137068285Y-79875380D01*
X137044476Y-79827761D01*
X137044476Y-79637285D01*
X137068285Y-79589666D01*
X137115904Y-79565857D01*
X137211142Y-79565857D01*
X137258761Y-79589666D01*
X137282571Y-79637285D01*
X137282571Y-79684904D01*
X137044476Y-79732523D01*
X97941142Y-78715857D02*
X98131619Y-78715857D01*
X98012571Y-78549190D02*
X98012571Y-78977761D01*
X98036380Y-79025380D01*
X98084000Y-79049190D01*
X98131619Y-79049190D01*
X98298285Y-79049190D02*
X98298285Y-78549190D01*
X98512571Y-79049190D02*
X98512571Y-78787285D01*
X98488761Y-78739666D01*
X98441142Y-78715857D01*
X98369714Y-78715857D01*
X98322095Y-78739666D01*
X98298285Y-78763476D01*
X98941142Y-79025380D02*
X98893523Y-79049190D01*
X98798285Y-79049190D01*
X98750666Y-79025380D01*
X98726857Y-78977761D01*
X98726857Y-78787285D01*
X98750666Y-78739666D01*
X98798285Y-78715857D01*
X98893523Y-78715857D01*
X98941142Y-78739666D01*
X98964952Y-78787285D01*
X98964952Y-78834904D01*
X98726857Y-78882523D01*
X99536380Y-79025380D02*
X99584000Y-79049190D01*
X99679238Y-79049190D01*
X99726857Y-79025380D01*
X99750666Y-78977761D01*
X99750666Y-78953952D01*
X99726857Y-78906333D01*
X99679238Y-78882523D01*
X99607809Y-78882523D01*
X99560190Y-78858714D01*
X99536380Y-78811095D01*
X99536380Y-78787285D01*
X99560190Y-78739666D01*
X99607809Y-78715857D01*
X99679238Y-78715857D01*
X99726857Y-78739666D01*
X99964952Y-78715857D02*
X99964952Y-79215857D01*
X99964952Y-78739666D02*
X100012571Y-78715857D01*
X100107809Y-78715857D01*
X100155428Y-78739666D01*
X100179238Y-78763476D01*
X100203047Y-78811095D01*
X100203047Y-78953952D01*
X100179238Y-79001571D01*
X100155428Y-79025380D01*
X100107809Y-79049190D01*
X100012571Y-79049190D01*
X99964952Y-79025380D01*
X100631619Y-79049190D02*
X100631619Y-78787285D01*
X100607809Y-78739666D01*
X100560190Y-78715857D01*
X100464952Y-78715857D01*
X100417333Y-78739666D01*
X100631619Y-79025380D02*
X100584000Y-79049190D01*
X100464952Y-79049190D01*
X100417333Y-79025380D01*
X100393523Y-78977761D01*
X100393523Y-78930142D01*
X100417333Y-78882523D01*
X100464952Y-78858714D01*
X100584000Y-78858714D01*
X100631619Y-78834904D01*
X101084000Y-78715857D02*
X101084000Y-79120619D01*
X101060190Y-79168238D01*
X101036380Y-79192047D01*
X100988761Y-79215857D01*
X100917333Y-79215857D01*
X100869714Y-79192047D01*
X101084000Y-79025380D02*
X101036380Y-79049190D01*
X100941142Y-79049190D01*
X100893523Y-79025380D01*
X100869714Y-79001571D01*
X100845904Y-78953952D01*
X100845904Y-78811095D01*
X100869714Y-78763476D01*
X100893523Y-78739666D01*
X100941142Y-78715857D01*
X101036380Y-78715857D01*
X101084000Y-78739666D01*
X101322095Y-79049190D02*
X101322095Y-78549190D01*
X101536380Y-79049190D02*
X101536380Y-78787285D01*
X101512571Y-78739666D01*
X101464952Y-78715857D01*
X101393523Y-78715857D01*
X101345904Y-78739666D01*
X101322095Y-78763476D01*
X101964952Y-79025380D02*
X101917333Y-79049190D01*
X101822095Y-79049190D01*
X101774476Y-79025380D01*
X101750666Y-78977761D01*
X101750666Y-78787285D01*
X101774476Y-78739666D01*
X101822095Y-78715857D01*
X101917333Y-78715857D01*
X101964952Y-78739666D01*
X101988761Y-78787285D01*
X101988761Y-78834904D01*
X101750666Y-78882523D01*
X102131619Y-78715857D02*
X102322095Y-78715857D01*
X102203047Y-78549190D02*
X102203047Y-78977761D01*
X102226857Y-79025380D01*
X102274476Y-79049190D01*
X102322095Y-79049190D01*
X102417333Y-78715857D02*
X102607809Y-78715857D01*
X102488761Y-78549190D02*
X102488761Y-78977761D01*
X102512571Y-79025380D01*
X102560190Y-79049190D01*
X102607809Y-79049190D01*
X102774476Y-79049190D02*
X102774476Y-78715857D01*
X102774476Y-78549190D02*
X102750666Y-78573000D01*
X102774476Y-78596809D01*
X102798285Y-78573000D01*
X102774476Y-78549190D01*
X102774476Y-78596809D01*
X99214952Y-79899190D02*
X99214952Y-79565857D01*
X99214952Y-79613476D02*
X99238761Y-79589666D01*
X99286380Y-79565857D01*
X99357809Y-79565857D01*
X99405428Y-79589666D01*
X99429238Y-79637285D01*
X99429238Y-79899190D01*
X99429238Y-79637285D02*
X99453047Y-79589666D01*
X99500666Y-79565857D01*
X99572095Y-79565857D01*
X99619714Y-79589666D01*
X99643523Y-79637285D01*
X99643523Y-79899190D01*
X100095904Y-79899190D02*
X100095904Y-79637285D01*
X100072095Y-79589666D01*
X100024476Y-79565857D01*
X99929238Y-79565857D01*
X99881619Y-79589666D01*
X100095904Y-79875380D02*
X100048285Y-79899190D01*
X99929238Y-79899190D01*
X99881619Y-79875380D01*
X99857809Y-79827761D01*
X99857809Y-79780142D01*
X99881619Y-79732523D01*
X99929238Y-79708714D01*
X100048285Y-79708714D01*
X100095904Y-79684904D01*
X100548285Y-79899190D02*
X100548285Y-79399190D01*
X100548285Y-79875380D02*
X100500666Y-79899190D01*
X100405428Y-79899190D01*
X100357809Y-79875380D01*
X100334000Y-79851571D01*
X100310190Y-79803952D01*
X100310190Y-79661095D01*
X100334000Y-79613476D01*
X100357809Y-79589666D01*
X100405428Y-79565857D01*
X100500666Y-79565857D01*
X100548285Y-79589666D01*
X100976857Y-79875380D02*
X100929238Y-79899190D01*
X100834000Y-79899190D01*
X100786380Y-79875380D01*
X100762571Y-79827761D01*
X100762571Y-79637285D01*
X100786380Y-79589666D01*
X100834000Y-79565857D01*
X100929238Y-79565857D01*
X100976857Y-79589666D01*
X101000666Y-79637285D01*
X101000666Y-79684904D01*
X100762571Y-79732523D01*
X101667333Y-79899190D02*
X101619714Y-79875380D01*
X101595904Y-79851571D01*
X101572095Y-79803952D01*
X101572095Y-79661095D01*
X101595904Y-79613476D01*
X101619714Y-79589666D01*
X101667333Y-79565857D01*
X101738761Y-79565857D01*
X101786380Y-79589666D01*
X101810190Y-79613476D01*
X101834000Y-79661095D01*
X101834000Y-79803952D01*
X101810190Y-79851571D01*
X101786380Y-79875380D01*
X101738761Y-79899190D01*
X101667333Y-79899190D01*
X101976857Y-79565857D02*
X102167333Y-79565857D01*
X102048285Y-79899190D02*
X102048285Y-79470619D01*
X102072095Y-79423000D01*
X102119714Y-79399190D01*
X102167333Y-79399190D01*
X102929238Y-79875380D02*
X102881619Y-79899190D01*
X102786380Y-79899190D01*
X102738761Y-79875380D01*
X102714952Y-79851571D01*
X102691142Y-79803952D01*
X102691142Y-79661095D01*
X102714952Y-79613476D01*
X102738761Y-79589666D01*
X102786380Y-79565857D01*
X102881619Y-79565857D01*
X102929238Y-79589666D01*
X103214952Y-79899190D02*
X103167333Y-79875380D01*
X103143523Y-79851571D01*
X103119714Y-79803952D01*
X103119714Y-79661095D01*
X103143523Y-79613476D01*
X103167333Y-79589666D01*
X103214952Y-79565857D01*
X103286380Y-79565857D01*
X103334000Y-79589666D01*
X103357809Y-79613476D01*
X103381619Y-79661095D01*
X103381619Y-79803952D01*
X103357809Y-79851571D01*
X103334000Y-79875380D01*
X103286380Y-79899190D01*
X103214952Y-79899190D01*
X103810190Y-79899190D02*
X103810190Y-79399190D01*
X103810190Y-79875380D02*
X103762571Y-79899190D01*
X103667333Y-79899190D01*
X103619714Y-79875380D01*
X103595904Y-79851571D01*
X103572095Y-79803952D01*
X103572095Y-79661095D01*
X103595904Y-79613476D01*
X103619714Y-79589666D01*
X103667333Y-79565857D01*
X103762571Y-79565857D01*
X103810190Y-79589666D01*
X104238761Y-79875380D02*
X104191142Y-79899190D01*
X104095904Y-79899190D01*
X104048285Y-79875380D01*
X104024476Y-79827761D01*
X104024476Y-79637285D01*
X104048285Y-79589666D01*
X104095904Y-79565857D01*
X104191142Y-79565857D01*
X104238761Y-79589666D01*
X104262571Y-79637285D01*
X104262571Y-79684904D01*
X104024476Y-79732523D01*
X163981142Y-60935857D02*
X164171619Y-60935857D01*
X164052571Y-60769190D02*
X164052571Y-61197761D01*
X164076380Y-61245380D01*
X164124000Y-61269190D01*
X164171619Y-61269190D01*
X164338285Y-61269190D02*
X164338285Y-60769190D01*
X164552571Y-61269190D02*
X164552571Y-61007285D01*
X164528761Y-60959666D01*
X164481142Y-60935857D01*
X164409714Y-60935857D01*
X164362095Y-60959666D01*
X164338285Y-60983476D01*
X164981142Y-61245380D02*
X164933523Y-61269190D01*
X164838285Y-61269190D01*
X164790666Y-61245380D01*
X164766857Y-61197761D01*
X164766857Y-61007285D01*
X164790666Y-60959666D01*
X164838285Y-60935857D01*
X164933523Y-60935857D01*
X164981142Y-60959666D01*
X165004952Y-61007285D01*
X165004952Y-61054904D01*
X164766857Y-61102523D01*
X165576380Y-61245380D02*
X165624000Y-61269190D01*
X165719238Y-61269190D01*
X165766857Y-61245380D01*
X165790666Y-61197761D01*
X165790666Y-61173952D01*
X165766857Y-61126333D01*
X165719238Y-61102523D01*
X165647809Y-61102523D01*
X165600190Y-61078714D01*
X165576380Y-61031095D01*
X165576380Y-61007285D01*
X165600190Y-60959666D01*
X165647809Y-60935857D01*
X165719238Y-60935857D01*
X165766857Y-60959666D01*
X166004952Y-60935857D02*
X166004952Y-61435857D01*
X166004952Y-60959666D02*
X166052571Y-60935857D01*
X166147809Y-60935857D01*
X166195428Y-60959666D01*
X166219238Y-60983476D01*
X166243047Y-61031095D01*
X166243047Y-61173952D01*
X166219238Y-61221571D01*
X166195428Y-61245380D01*
X166147809Y-61269190D01*
X166052571Y-61269190D01*
X166004952Y-61245380D01*
X166671619Y-61269190D02*
X166671619Y-61007285D01*
X166647809Y-60959666D01*
X166600190Y-60935857D01*
X166504952Y-60935857D01*
X166457333Y-60959666D01*
X166671619Y-61245380D02*
X166624000Y-61269190D01*
X166504952Y-61269190D01*
X166457333Y-61245380D01*
X166433523Y-61197761D01*
X166433523Y-61150142D01*
X166457333Y-61102523D01*
X166504952Y-61078714D01*
X166624000Y-61078714D01*
X166671619Y-61054904D01*
X167124000Y-60935857D02*
X167124000Y-61340619D01*
X167100190Y-61388238D01*
X167076380Y-61412047D01*
X167028761Y-61435857D01*
X166957333Y-61435857D01*
X166909714Y-61412047D01*
X167124000Y-61245380D02*
X167076380Y-61269190D01*
X166981142Y-61269190D01*
X166933523Y-61245380D01*
X166909714Y-61221571D01*
X166885904Y-61173952D01*
X166885904Y-61031095D01*
X166909714Y-60983476D01*
X166933523Y-60959666D01*
X166981142Y-60935857D01*
X167076380Y-60935857D01*
X167124000Y-60959666D01*
X167362095Y-61269190D02*
X167362095Y-60769190D01*
X167576380Y-61269190D02*
X167576380Y-61007285D01*
X167552571Y-60959666D01*
X167504952Y-60935857D01*
X167433523Y-60935857D01*
X167385904Y-60959666D01*
X167362095Y-60983476D01*
X168004952Y-61245380D02*
X167957333Y-61269190D01*
X167862095Y-61269190D01*
X167814476Y-61245380D01*
X167790666Y-61197761D01*
X167790666Y-61007285D01*
X167814476Y-60959666D01*
X167862095Y-60935857D01*
X167957333Y-60935857D01*
X168004952Y-60959666D01*
X168028761Y-61007285D01*
X168028761Y-61054904D01*
X167790666Y-61102523D01*
X168171619Y-60935857D02*
X168362095Y-60935857D01*
X168243047Y-60769190D02*
X168243047Y-61197761D01*
X168266857Y-61245380D01*
X168314476Y-61269190D01*
X168362095Y-61269190D01*
X168457333Y-60935857D02*
X168647809Y-60935857D01*
X168528761Y-60769190D02*
X168528761Y-61197761D01*
X168552571Y-61245380D01*
X168600190Y-61269190D01*
X168647809Y-61269190D01*
X168814476Y-61269190D02*
X168814476Y-60935857D01*
X168814476Y-60769190D02*
X168790666Y-60793000D01*
X168814476Y-60816809D01*
X168838285Y-60793000D01*
X168814476Y-60769190D01*
X168814476Y-60816809D01*
X165254952Y-62119190D02*
X165254952Y-61785857D01*
X165254952Y-61833476D02*
X165278761Y-61809666D01*
X165326380Y-61785857D01*
X165397809Y-61785857D01*
X165445428Y-61809666D01*
X165469238Y-61857285D01*
X165469238Y-62119190D01*
X165469238Y-61857285D02*
X165493047Y-61809666D01*
X165540666Y-61785857D01*
X165612095Y-61785857D01*
X165659714Y-61809666D01*
X165683523Y-61857285D01*
X165683523Y-62119190D01*
X166135904Y-62119190D02*
X166135904Y-61857285D01*
X166112095Y-61809666D01*
X166064476Y-61785857D01*
X165969238Y-61785857D01*
X165921619Y-61809666D01*
X166135904Y-62095380D02*
X166088285Y-62119190D01*
X165969238Y-62119190D01*
X165921619Y-62095380D01*
X165897809Y-62047761D01*
X165897809Y-62000142D01*
X165921619Y-61952523D01*
X165969238Y-61928714D01*
X166088285Y-61928714D01*
X166135904Y-61904904D01*
X166588285Y-62119190D02*
X166588285Y-61619190D01*
X166588285Y-62095380D02*
X166540666Y-62119190D01*
X166445428Y-62119190D01*
X166397809Y-62095380D01*
X166374000Y-62071571D01*
X166350190Y-62023952D01*
X166350190Y-61881095D01*
X166374000Y-61833476D01*
X166397809Y-61809666D01*
X166445428Y-61785857D01*
X166540666Y-61785857D01*
X166588285Y-61809666D01*
X167016857Y-62095380D02*
X166969238Y-62119190D01*
X166874000Y-62119190D01*
X166826380Y-62095380D01*
X166802571Y-62047761D01*
X166802571Y-61857285D01*
X166826380Y-61809666D01*
X166874000Y-61785857D01*
X166969238Y-61785857D01*
X167016857Y-61809666D01*
X167040666Y-61857285D01*
X167040666Y-61904904D01*
X166802571Y-61952523D01*
X167707333Y-62119190D02*
X167659714Y-62095380D01*
X167635904Y-62071571D01*
X167612095Y-62023952D01*
X167612095Y-61881095D01*
X167635904Y-61833476D01*
X167659714Y-61809666D01*
X167707333Y-61785857D01*
X167778761Y-61785857D01*
X167826380Y-61809666D01*
X167850190Y-61833476D01*
X167874000Y-61881095D01*
X167874000Y-62023952D01*
X167850190Y-62071571D01*
X167826380Y-62095380D01*
X167778761Y-62119190D01*
X167707333Y-62119190D01*
X168016857Y-61785857D02*
X168207333Y-61785857D01*
X168088285Y-62119190D02*
X168088285Y-61690619D01*
X168112095Y-61643000D01*
X168159714Y-61619190D01*
X168207333Y-61619190D01*
X168969238Y-62095380D02*
X168921619Y-62119190D01*
X168826380Y-62119190D01*
X168778761Y-62095380D01*
X168754952Y-62071571D01*
X168731142Y-62023952D01*
X168731142Y-61881095D01*
X168754952Y-61833476D01*
X168778761Y-61809666D01*
X168826380Y-61785857D01*
X168921619Y-61785857D01*
X168969238Y-61809666D01*
X169254952Y-62119190D02*
X169207333Y-62095380D01*
X169183523Y-62071571D01*
X169159714Y-62023952D01*
X169159714Y-61881095D01*
X169183523Y-61833476D01*
X169207333Y-61809666D01*
X169254952Y-61785857D01*
X169326380Y-61785857D01*
X169374000Y-61809666D01*
X169397809Y-61833476D01*
X169421619Y-61881095D01*
X169421619Y-62023952D01*
X169397809Y-62071571D01*
X169374000Y-62095380D01*
X169326380Y-62119190D01*
X169254952Y-62119190D01*
X169850190Y-62119190D02*
X169850190Y-61619190D01*
X169850190Y-62095380D02*
X169802571Y-62119190D01*
X169707333Y-62119190D01*
X169659714Y-62095380D01*
X169635904Y-62071571D01*
X169612095Y-62023952D01*
X169612095Y-61881095D01*
X169635904Y-61833476D01*
X169659714Y-61809666D01*
X169707333Y-61785857D01*
X169802571Y-61785857D01*
X169850190Y-61809666D01*
X170278761Y-62095380D02*
X170231142Y-62119190D01*
X170135904Y-62119190D01*
X170088285Y-62095380D01*
X170064476Y-62047761D01*
X170064476Y-61857285D01*
X170088285Y-61809666D01*
X170135904Y-61785857D01*
X170231142Y-61785857D01*
X170278761Y-61809666D01*
X170302571Y-61857285D01*
X170302571Y-61904904D01*
X170064476Y-61952523D01*
X130961142Y-60935857D02*
X131151619Y-60935857D01*
X131032571Y-60769190D02*
X131032571Y-61197761D01*
X131056380Y-61245380D01*
X131104000Y-61269190D01*
X131151619Y-61269190D01*
X131318285Y-61269190D02*
X131318285Y-60769190D01*
X131532571Y-61269190D02*
X131532571Y-61007285D01*
X131508761Y-60959666D01*
X131461142Y-60935857D01*
X131389714Y-60935857D01*
X131342095Y-60959666D01*
X131318285Y-60983476D01*
X131961142Y-61245380D02*
X131913523Y-61269190D01*
X131818285Y-61269190D01*
X131770666Y-61245380D01*
X131746857Y-61197761D01*
X131746857Y-61007285D01*
X131770666Y-60959666D01*
X131818285Y-60935857D01*
X131913523Y-60935857D01*
X131961142Y-60959666D01*
X131984952Y-61007285D01*
X131984952Y-61054904D01*
X131746857Y-61102523D01*
X132556380Y-61245380D02*
X132604000Y-61269190D01*
X132699238Y-61269190D01*
X132746857Y-61245380D01*
X132770666Y-61197761D01*
X132770666Y-61173952D01*
X132746857Y-61126333D01*
X132699238Y-61102523D01*
X132627809Y-61102523D01*
X132580190Y-61078714D01*
X132556380Y-61031095D01*
X132556380Y-61007285D01*
X132580190Y-60959666D01*
X132627809Y-60935857D01*
X132699238Y-60935857D01*
X132746857Y-60959666D01*
X132984952Y-60935857D02*
X132984952Y-61435857D01*
X132984952Y-60959666D02*
X133032571Y-60935857D01*
X133127809Y-60935857D01*
X133175428Y-60959666D01*
X133199238Y-60983476D01*
X133223047Y-61031095D01*
X133223047Y-61173952D01*
X133199238Y-61221571D01*
X133175428Y-61245380D01*
X133127809Y-61269190D01*
X133032571Y-61269190D01*
X132984952Y-61245380D01*
X133651619Y-61269190D02*
X133651619Y-61007285D01*
X133627809Y-60959666D01*
X133580190Y-60935857D01*
X133484952Y-60935857D01*
X133437333Y-60959666D01*
X133651619Y-61245380D02*
X133604000Y-61269190D01*
X133484952Y-61269190D01*
X133437333Y-61245380D01*
X133413523Y-61197761D01*
X133413523Y-61150142D01*
X133437333Y-61102523D01*
X133484952Y-61078714D01*
X133604000Y-61078714D01*
X133651619Y-61054904D01*
X134104000Y-60935857D02*
X134104000Y-61340619D01*
X134080190Y-61388238D01*
X134056380Y-61412047D01*
X134008761Y-61435857D01*
X133937333Y-61435857D01*
X133889714Y-61412047D01*
X134104000Y-61245380D02*
X134056380Y-61269190D01*
X133961142Y-61269190D01*
X133913523Y-61245380D01*
X133889714Y-61221571D01*
X133865904Y-61173952D01*
X133865904Y-61031095D01*
X133889714Y-60983476D01*
X133913523Y-60959666D01*
X133961142Y-60935857D01*
X134056380Y-60935857D01*
X134104000Y-60959666D01*
X134342095Y-61269190D02*
X134342095Y-60769190D01*
X134556380Y-61269190D02*
X134556380Y-61007285D01*
X134532571Y-60959666D01*
X134484952Y-60935857D01*
X134413523Y-60935857D01*
X134365904Y-60959666D01*
X134342095Y-60983476D01*
X134984952Y-61245380D02*
X134937333Y-61269190D01*
X134842095Y-61269190D01*
X134794476Y-61245380D01*
X134770666Y-61197761D01*
X134770666Y-61007285D01*
X134794476Y-60959666D01*
X134842095Y-60935857D01*
X134937333Y-60935857D01*
X134984952Y-60959666D01*
X135008761Y-61007285D01*
X135008761Y-61054904D01*
X134770666Y-61102523D01*
X135151619Y-60935857D02*
X135342095Y-60935857D01*
X135223047Y-60769190D02*
X135223047Y-61197761D01*
X135246857Y-61245380D01*
X135294476Y-61269190D01*
X135342095Y-61269190D01*
X135437333Y-60935857D02*
X135627809Y-60935857D01*
X135508761Y-60769190D02*
X135508761Y-61197761D01*
X135532571Y-61245380D01*
X135580190Y-61269190D01*
X135627809Y-61269190D01*
X135794476Y-61269190D02*
X135794476Y-60935857D01*
X135794476Y-60769190D02*
X135770666Y-60793000D01*
X135794476Y-60816809D01*
X135818285Y-60793000D01*
X135794476Y-60769190D01*
X135794476Y-60816809D01*
X132234952Y-62119190D02*
X132234952Y-61785857D01*
X132234952Y-61833476D02*
X132258761Y-61809666D01*
X132306380Y-61785857D01*
X132377809Y-61785857D01*
X132425428Y-61809666D01*
X132449238Y-61857285D01*
X132449238Y-62119190D01*
X132449238Y-61857285D02*
X132473047Y-61809666D01*
X132520666Y-61785857D01*
X132592095Y-61785857D01*
X132639714Y-61809666D01*
X132663523Y-61857285D01*
X132663523Y-62119190D01*
X133115904Y-62119190D02*
X133115904Y-61857285D01*
X133092095Y-61809666D01*
X133044476Y-61785857D01*
X132949238Y-61785857D01*
X132901619Y-61809666D01*
X133115904Y-62095380D02*
X133068285Y-62119190D01*
X132949238Y-62119190D01*
X132901619Y-62095380D01*
X132877809Y-62047761D01*
X132877809Y-62000142D01*
X132901619Y-61952523D01*
X132949238Y-61928714D01*
X133068285Y-61928714D01*
X133115904Y-61904904D01*
X133568285Y-62119190D02*
X133568285Y-61619190D01*
X133568285Y-62095380D02*
X133520666Y-62119190D01*
X133425428Y-62119190D01*
X133377809Y-62095380D01*
X133354000Y-62071571D01*
X133330190Y-62023952D01*
X133330190Y-61881095D01*
X133354000Y-61833476D01*
X133377809Y-61809666D01*
X133425428Y-61785857D01*
X133520666Y-61785857D01*
X133568285Y-61809666D01*
X133996857Y-62095380D02*
X133949238Y-62119190D01*
X133854000Y-62119190D01*
X133806380Y-62095380D01*
X133782571Y-62047761D01*
X133782571Y-61857285D01*
X133806380Y-61809666D01*
X133854000Y-61785857D01*
X133949238Y-61785857D01*
X133996857Y-61809666D01*
X134020666Y-61857285D01*
X134020666Y-61904904D01*
X133782571Y-61952523D01*
X134687333Y-62119190D02*
X134639714Y-62095380D01*
X134615904Y-62071571D01*
X134592095Y-62023952D01*
X134592095Y-61881095D01*
X134615904Y-61833476D01*
X134639714Y-61809666D01*
X134687333Y-61785857D01*
X134758761Y-61785857D01*
X134806380Y-61809666D01*
X134830190Y-61833476D01*
X134854000Y-61881095D01*
X134854000Y-62023952D01*
X134830190Y-62071571D01*
X134806380Y-62095380D01*
X134758761Y-62119190D01*
X134687333Y-62119190D01*
X134996857Y-61785857D02*
X135187333Y-61785857D01*
X135068285Y-62119190D02*
X135068285Y-61690619D01*
X135092095Y-61643000D01*
X135139714Y-61619190D01*
X135187333Y-61619190D01*
X135949238Y-62095380D02*
X135901619Y-62119190D01*
X135806380Y-62119190D01*
X135758761Y-62095380D01*
X135734952Y-62071571D01*
X135711142Y-62023952D01*
X135711142Y-61881095D01*
X135734952Y-61833476D01*
X135758761Y-61809666D01*
X135806380Y-61785857D01*
X135901619Y-61785857D01*
X135949238Y-61809666D01*
X136234952Y-62119190D02*
X136187333Y-62095380D01*
X136163523Y-62071571D01*
X136139714Y-62023952D01*
X136139714Y-61881095D01*
X136163523Y-61833476D01*
X136187333Y-61809666D01*
X136234952Y-61785857D01*
X136306380Y-61785857D01*
X136354000Y-61809666D01*
X136377809Y-61833476D01*
X136401619Y-61881095D01*
X136401619Y-62023952D01*
X136377809Y-62071571D01*
X136354000Y-62095380D01*
X136306380Y-62119190D01*
X136234952Y-62119190D01*
X136830190Y-62119190D02*
X136830190Y-61619190D01*
X136830190Y-62095380D02*
X136782571Y-62119190D01*
X136687333Y-62119190D01*
X136639714Y-62095380D01*
X136615904Y-62071571D01*
X136592095Y-62023952D01*
X136592095Y-61881095D01*
X136615904Y-61833476D01*
X136639714Y-61809666D01*
X136687333Y-61785857D01*
X136782571Y-61785857D01*
X136830190Y-61809666D01*
X137258761Y-62095380D02*
X137211142Y-62119190D01*
X137115904Y-62119190D01*
X137068285Y-62095380D01*
X137044476Y-62047761D01*
X137044476Y-61857285D01*
X137068285Y-61809666D01*
X137115904Y-61785857D01*
X137211142Y-61785857D01*
X137258761Y-61809666D01*
X137282571Y-61857285D01*
X137282571Y-61904904D01*
X137044476Y-61952523D01*
D10*
X149383809Y-89352380D02*
X149383809Y-88352380D01*
X150050476Y-88352380D02*
X150145714Y-88352380D01*
X150240952Y-88400000D01*
X150288571Y-88447619D01*
X150336190Y-88542857D01*
X150383809Y-88733333D01*
X150383809Y-88971428D01*
X150336190Y-89161904D01*
X150288571Y-89257142D01*
X150240952Y-89304761D01*
X150145714Y-89352380D01*
X150050476Y-89352380D01*
X149955238Y-89304761D01*
X149907619Y-89257142D01*
X149860000Y-89161904D01*
X149812380Y-88971428D01*
X149812380Y-88733333D01*
X149860000Y-88542857D01*
X149907619Y-88447619D01*
X149955238Y-88400000D01*
X150050476Y-88352380D01*
X116363809Y-89352380D02*
X116363809Y-88352380D01*
X117030476Y-88352380D02*
X117125714Y-88352380D01*
X117220952Y-88400000D01*
X117268571Y-88447619D01*
X117316190Y-88542857D01*
X117363809Y-88733333D01*
X117363809Y-88971428D01*
X117316190Y-89161904D01*
X117268571Y-89257142D01*
X117220952Y-89304761D01*
X117125714Y-89352380D01*
X117030476Y-89352380D01*
X116935238Y-89304761D01*
X116887619Y-89257142D01*
X116840000Y-89161904D01*
X116792380Y-88971428D01*
X116792380Y-88733333D01*
X116840000Y-88542857D01*
X116887619Y-88447619D01*
X116935238Y-88400000D01*
X117030476Y-88352380D01*
X83343809Y-89352380D02*
X83343809Y-88352380D01*
X84010476Y-88352380D02*
X84105714Y-88352380D01*
X84200952Y-88400000D01*
X84248571Y-88447619D01*
X84296190Y-88542857D01*
X84343809Y-88733333D01*
X84343809Y-88971428D01*
X84296190Y-89161904D01*
X84248571Y-89257142D01*
X84200952Y-89304761D01*
X84105714Y-89352380D01*
X84010476Y-89352380D01*
X83915238Y-89304761D01*
X83867619Y-89257142D01*
X83820000Y-89161904D01*
X83772380Y-88971428D01*
X83772380Y-88733333D01*
X83820000Y-88542857D01*
X83867619Y-88447619D01*
X83915238Y-88400000D01*
X84010476Y-88352380D01*
X149383809Y-71572380D02*
X149383809Y-70572380D01*
X150050476Y-70572380D02*
X150145714Y-70572380D01*
X150240952Y-70620000D01*
X150288571Y-70667619D01*
X150336190Y-70762857D01*
X150383809Y-70953333D01*
X150383809Y-71191428D01*
X150336190Y-71381904D01*
X150288571Y-71477142D01*
X150240952Y-71524761D01*
X150145714Y-71572380D01*
X150050476Y-71572380D01*
X149955238Y-71524761D01*
X149907619Y-71477142D01*
X149860000Y-71381904D01*
X149812380Y-71191428D01*
X149812380Y-70953333D01*
X149860000Y-70762857D01*
X149907619Y-70667619D01*
X149955238Y-70620000D01*
X150050476Y-70572380D01*
X116363809Y-71572380D02*
X116363809Y-70572380D01*
X117030476Y-70572380D02*
X117125714Y-70572380D01*
X117220952Y-70620000D01*
X117268571Y-70667619D01*
X117316190Y-70762857D01*
X117363809Y-70953333D01*
X117363809Y-71191428D01*
X117316190Y-71381904D01*
X117268571Y-71477142D01*
X117220952Y-71524761D01*
X117125714Y-71572380D01*
X117030476Y-71572380D01*
X116935238Y-71524761D01*
X116887619Y-71477142D01*
X116840000Y-71381904D01*
X116792380Y-71191428D01*
X116792380Y-70953333D01*
X116840000Y-70762857D01*
X116887619Y-70667619D01*
X116935238Y-70620000D01*
X117030476Y-70572380D01*
X83343809Y-71572380D02*
X83343809Y-70572380D01*
X84010476Y-70572380D02*
X84105714Y-70572380D01*
X84200952Y-70620000D01*
X84248571Y-70667619D01*
X84296190Y-70762857D01*
X84343809Y-70953333D01*
X84343809Y-71191428D01*
X84296190Y-71381904D01*
X84248571Y-71477142D01*
X84200952Y-71524761D01*
X84105714Y-71572380D01*
X84010476Y-71572380D01*
X83915238Y-71524761D01*
X83867619Y-71477142D01*
X83820000Y-71381904D01*
X83772380Y-71191428D01*
X83772380Y-70953333D01*
X83820000Y-70762857D01*
X83867619Y-70667619D01*
X83915238Y-70620000D01*
X84010476Y-70572380D01*
X149383809Y-53792380D02*
X149383809Y-52792380D01*
X150050476Y-52792380D02*
X150145714Y-52792380D01*
X150240952Y-52840000D01*
X150288571Y-52887619D01*
X150336190Y-52982857D01*
X150383809Y-53173333D01*
X150383809Y-53411428D01*
X150336190Y-53601904D01*
X150288571Y-53697142D01*
X150240952Y-53744761D01*
X150145714Y-53792380D01*
X150050476Y-53792380D01*
X149955238Y-53744761D01*
X149907619Y-53697142D01*
X149860000Y-53601904D01*
X149812380Y-53411428D01*
X149812380Y-53173333D01*
X149860000Y-52982857D01*
X149907619Y-52887619D01*
X149955238Y-52840000D01*
X150050476Y-52792380D01*
X116363809Y-53792380D02*
X116363809Y-52792380D01*
X117030476Y-52792380D02*
X117125714Y-52792380D01*
X117220952Y-52840000D01*
X117268571Y-52887619D01*
X117316190Y-52982857D01*
X117363809Y-53173333D01*
X117363809Y-53411428D01*
X117316190Y-53601904D01*
X117268571Y-53697142D01*
X117220952Y-53744761D01*
X117125714Y-53792380D01*
X117030476Y-53792380D01*
X116935238Y-53744761D01*
X116887619Y-53697142D01*
X116840000Y-53601904D01*
X116792380Y-53411428D01*
X116792380Y-53173333D01*
X116840000Y-52982857D01*
X116887619Y-52887619D01*
X116935238Y-52840000D01*
X117030476Y-52792380D01*
X149479047Y-96591428D02*
X150240952Y-96591428D01*
X116459047Y-96591428D02*
X117220952Y-96591428D01*
X83439047Y-96591428D02*
X84200952Y-96591428D01*
X149479047Y-78811428D02*
X150240952Y-78811428D01*
X116459047Y-78811428D02*
X117220952Y-78811428D01*
X83439047Y-78811428D02*
X84200952Y-78811428D01*
X149479047Y-61031428D02*
X150240952Y-61031428D01*
X116459047Y-61031428D02*
X117220952Y-61031428D01*
X149479047Y-99131428D02*
X150240952Y-99131428D01*
X149860000Y-99512380D02*
X149860000Y-98750476D01*
X116459047Y-99131428D02*
X117220952Y-99131428D01*
X116840000Y-99512380D02*
X116840000Y-98750476D01*
X83439047Y-99131428D02*
X84200952Y-99131428D01*
X83820000Y-99512380D02*
X83820000Y-98750476D01*
X149479047Y-81351428D02*
X150240952Y-81351428D01*
X149860000Y-81732380D02*
X149860000Y-80970476D01*
X116459047Y-81351428D02*
X117220952Y-81351428D01*
X116840000Y-81732380D02*
X116840000Y-80970476D01*
X83439047Y-81351428D02*
X84200952Y-81351428D01*
X83820000Y-81732380D02*
X83820000Y-80970476D01*
X149479047Y-63571428D02*
X150240952Y-63571428D01*
X149860000Y-63952380D02*
X149860000Y-63190476D01*
X116459047Y-63571428D02*
X117220952Y-63571428D01*
X116840000Y-63952380D02*
X116840000Y-63190476D01*
D12*
X164334285Y-94428571D02*
X165334285Y-95928571D01*
X165334285Y-94428571D02*
X164334285Y-95928571D01*
X166191428Y-94428571D02*
X166477142Y-94428571D01*
X166620000Y-94500000D01*
X166762857Y-94642857D01*
X166834285Y-94928571D01*
X166834285Y-95428571D01*
X166762857Y-95714285D01*
X166620000Y-95857142D01*
X166477142Y-95928571D01*
X166191428Y-95928571D01*
X166048571Y-95857142D01*
X165905714Y-95714285D01*
X165834285Y-95428571D01*
X165834285Y-94928571D01*
X165905714Y-94642857D01*
X166048571Y-94500000D01*
X166191428Y-94428571D01*
X168334285Y-95928571D02*
X167834285Y-95214285D01*
X167477142Y-95928571D02*
X167477142Y-94428571D01*
X168048571Y-94428571D01*
X168191428Y-94500000D01*
X168262857Y-94571428D01*
X168334285Y-94714285D01*
X168334285Y-94928571D01*
X168262857Y-95071428D01*
X168191428Y-95142857D01*
X168048571Y-95214285D01*
X167477142Y-95214285D01*
X131314285Y-94428571D02*
X132314285Y-95928571D01*
X132314285Y-94428571D02*
X131314285Y-95928571D01*
X133171428Y-94428571D02*
X133457142Y-94428571D01*
X133600000Y-94500000D01*
X133742857Y-94642857D01*
X133814285Y-94928571D01*
X133814285Y-95428571D01*
X133742857Y-95714285D01*
X133600000Y-95857142D01*
X133457142Y-95928571D01*
X133171428Y-95928571D01*
X133028571Y-95857142D01*
X132885714Y-95714285D01*
X132814285Y-95428571D01*
X132814285Y-94928571D01*
X132885714Y-94642857D01*
X133028571Y-94500000D01*
X133171428Y-94428571D01*
X135314285Y-95928571D02*
X134814285Y-95214285D01*
X134457142Y-95928571D02*
X134457142Y-94428571D01*
X135028571Y-94428571D01*
X135171428Y-94500000D01*
X135242857Y-94571428D01*
X135314285Y-94714285D01*
X135314285Y-94928571D01*
X135242857Y-95071428D01*
X135171428Y-95142857D01*
X135028571Y-95214285D01*
X134457142Y-95214285D01*
X98294285Y-94428571D02*
X99294285Y-95928571D01*
X99294285Y-94428571D02*
X98294285Y-95928571D01*
X100151428Y-94428571D02*
X100437142Y-94428571D01*
X100580000Y-94500000D01*
X100722857Y-94642857D01*
X100794285Y-94928571D01*
X100794285Y-95428571D01*
X100722857Y-95714285D01*
X100580000Y-95857142D01*
X100437142Y-95928571D01*
X100151428Y-95928571D01*
X100008571Y-95857142D01*
X99865714Y-95714285D01*
X99794285Y-95428571D01*
X99794285Y-94928571D01*
X99865714Y-94642857D01*
X100008571Y-94500000D01*
X100151428Y-94428571D01*
X102294285Y-95928571D02*
X101794285Y-95214285D01*
X101437142Y-95928571D02*
X101437142Y-94428571D01*
X102008571Y-94428571D01*
X102151428Y-94500000D01*
X102222857Y-94571428D01*
X102294285Y-94714285D01*
X102294285Y-94928571D01*
X102222857Y-95071428D01*
X102151428Y-95142857D01*
X102008571Y-95214285D01*
X101437142Y-95214285D01*
X164334285Y-76648571D02*
X165334285Y-78148571D01*
X165334285Y-76648571D02*
X164334285Y-78148571D01*
X166191428Y-76648571D02*
X166477142Y-76648571D01*
X166620000Y-76720000D01*
X166762857Y-76862857D01*
X166834285Y-77148571D01*
X166834285Y-77648571D01*
X166762857Y-77934285D01*
X166620000Y-78077142D01*
X166477142Y-78148571D01*
X166191428Y-78148571D01*
X166048571Y-78077142D01*
X165905714Y-77934285D01*
X165834285Y-77648571D01*
X165834285Y-77148571D01*
X165905714Y-76862857D01*
X166048571Y-76720000D01*
X166191428Y-76648571D01*
X168334285Y-78148571D02*
X167834285Y-77434285D01*
X167477142Y-78148571D02*
X167477142Y-76648571D01*
X168048571Y-76648571D01*
X168191428Y-76720000D01*
X168262857Y-76791428D01*
X168334285Y-76934285D01*
X168334285Y-77148571D01*
X168262857Y-77291428D01*
X168191428Y-77362857D01*
X168048571Y-77434285D01*
X167477142Y-77434285D01*
X131314285Y-76648571D02*
X132314285Y-78148571D01*
X132314285Y-76648571D02*
X131314285Y-78148571D01*
X133171428Y-76648571D02*
X133457142Y-76648571D01*
X133600000Y-76720000D01*
X133742857Y-76862857D01*
X133814285Y-77148571D01*
X133814285Y-77648571D01*
X133742857Y-77934285D01*
X133600000Y-78077142D01*
X133457142Y-78148571D01*
X133171428Y-78148571D01*
X133028571Y-78077142D01*
X132885714Y-77934285D01*
X132814285Y-77648571D01*
X132814285Y-77148571D01*
X132885714Y-76862857D01*
X133028571Y-76720000D01*
X133171428Y-76648571D01*
X135314285Y-78148571D02*
X134814285Y-77434285D01*
X134457142Y-78148571D02*
X134457142Y-76648571D01*
X135028571Y-76648571D01*
X135171428Y-76720000D01*
X135242857Y-76791428D01*
X135314285Y-76934285D01*
X135314285Y-77148571D01*
X135242857Y-77291428D01*
X135171428Y-77362857D01*
X135028571Y-77434285D01*
X134457142Y-77434285D01*
X98294285Y-76648571D02*
X99294285Y-78148571D01*
X99294285Y-76648571D02*
X98294285Y-78148571D01*
X100151428Y-76648571D02*
X100437142Y-76648571D01*
X100580000Y-76720000D01*
X100722857Y-76862857D01*
X100794285Y-77148571D01*
X100794285Y-77648571D01*
X100722857Y-77934285D01*
X100580000Y-78077142D01*
X100437142Y-78148571D01*
X100151428Y-78148571D01*
X100008571Y-78077142D01*
X99865714Y-77934285D01*
X99794285Y-77648571D01*
X99794285Y-77148571D01*
X99865714Y-76862857D01*
X100008571Y-76720000D01*
X100151428Y-76648571D01*
X102294285Y-78148571D02*
X101794285Y-77434285D01*
X101437142Y-78148571D02*
X101437142Y-76648571D01*
X102008571Y-76648571D01*
X102151428Y-76720000D01*
X102222857Y-76791428D01*
X102294285Y-76934285D01*
X102294285Y-77148571D01*
X102222857Y-77291428D01*
X102151428Y-77362857D01*
X102008571Y-77434285D01*
X101437142Y-77434285D01*
X164334285Y-58868571D02*
X165334285Y-60368571D01*
X165334285Y-58868571D02*
X164334285Y-60368571D01*
X166191428Y-58868571D02*
X166477142Y-58868571D01*
X166620000Y-58940000D01*
X166762857Y-59082857D01*
X166834285Y-59368571D01*
X166834285Y-59868571D01*
X166762857Y-60154285D01*
X166620000Y-60297142D01*
X166477142Y-60368571D01*
X166191428Y-60368571D01*
X166048571Y-60297142D01*
X165905714Y-60154285D01*
X165834285Y-59868571D01*
X165834285Y-59368571D01*
X165905714Y-59082857D01*
X166048571Y-58940000D01*
X166191428Y-58868571D01*
X168334285Y-60368571D02*
X167834285Y-59654285D01*
X167477142Y-60368571D02*
X167477142Y-58868571D01*
X168048571Y-58868571D01*
X168191428Y-58940000D01*
X168262857Y-59011428D01*
X168334285Y-59154285D01*
X168334285Y-59368571D01*
X168262857Y-59511428D01*
X168191428Y-59582857D01*
X168048571Y-59654285D01*
X167477142Y-59654285D01*
X131314285Y-58868571D02*
X132314285Y-60368571D01*
X132314285Y-58868571D02*
X131314285Y-60368571D01*
X133171428Y-58868571D02*
X133457142Y-58868571D01*
X133600000Y-58940000D01*
X133742857Y-59082857D01*
X133814285Y-59368571D01*
X133814285Y-59868571D01*
X133742857Y-60154285D01*
X133600000Y-60297142D01*
X133457142Y-60368571D01*
X133171428Y-60368571D01*
X133028571Y-60297142D01*
X132885714Y-60154285D01*
X132814285Y-59868571D01*
X132814285Y-59368571D01*
X132885714Y-59082857D01*
X133028571Y-58940000D01*
X133171428Y-58868571D01*
X135314285Y-60368571D02*
X134814285Y-59654285D01*
X134457142Y-60368571D02*
X134457142Y-58868571D01*
X135028571Y-58868571D01*
X135171428Y-58940000D01*
X135242857Y-59011428D01*
X135314285Y-59154285D01*
X135314285Y-59368571D01*
X135242857Y-59511428D01*
X135171428Y-59582857D01*
X135028571Y-59654285D01*
X134457142Y-59654285D01*
D10*
X166679523Y-91797142D02*
X166631904Y-91844761D01*
X166489047Y-91892380D01*
X166393809Y-91892380D01*
X166250952Y-91844761D01*
X166155714Y-91749523D01*
X166108095Y-91654285D01*
X166060476Y-91463809D01*
X166060476Y-91320952D01*
X166108095Y-91130476D01*
X166155714Y-91035238D01*
X166250952Y-90940000D01*
X166393809Y-90892380D01*
X166489047Y-90892380D01*
X166631904Y-90940000D01*
X166679523Y-90987619D01*
X133659523Y-91797142D02*
X133611904Y-91844761D01*
X133469047Y-91892380D01*
X133373809Y-91892380D01*
X133230952Y-91844761D01*
X133135714Y-91749523D01*
X133088095Y-91654285D01*
X133040476Y-91463809D01*
X133040476Y-91320952D01*
X133088095Y-91130476D01*
X133135714Y-91035238D01*
X133230952Y-90940000D01*
X133373809Y-90892380D01*
X133469047Y-90892380D01*
X133611904Y-90940000D01*
X133659523Y-90987619D01*
X100639523Y-91797142D02*
X100591904Y-91844761D01*
X100449047Y-91892380D01*
X100353809Y-91892380D01*
X100210952Y-91844761D01*
X100115714Y-91749523D01*
X100068095Y-91654285D01*
X100020476Y-91463809D01*
X100020476Y-91320952D01*
X100068095Y-91130476D01*
X100115714Y-91035238D01*
X100210952Y-90940000D01*
X100353809Y-90892380D01*
X100449047Y-90892380D01*
X100591904Y-90940000D01*
X100639523Y-90987619D01*
X166679523Y-74017142D02*
X166631904Y-74064761D01*
X166489047Y-74112380D01*
X166393809Y-74112380D01*
X166250952Y-74064761D01*
X166155714Y-73969523D01*
X166108095Y-73874285D01*
X166060476Y-73683809D01*
X166060476Y-73540952D01*
X166108095Y-73350476D01*
X166155714Y-73255238D01*
X166250952Y-73160000D01*
X166393809Y-73112380D01*
X166489047Y-73112380D01*
X166631904Y-73160000D01*
X166679523Y-73207619D01*
X133659523Y-74017142D02*
X133611904Y-74064761D01*
X133469047Y-74112380D01*
X133373809Y-74112380D01*
X133230952Y-74064761D01*
X133135714Y-73969523D01*
X133088095Y-73874285D01*
X133040476Y-73683809D01*
X133040476Y-73540952D01*
X133088095Y-73350476D01*
X133135714Y-73255238D01*
X133230952Y-73160000D01*
X133373809Y-73112380D01*
X133469047Y-73112380D01*
X133611904Y-73160000D01*
X133659523Y-73207619D01*
X100639523Y-74017142D02*
X100591904Y-74064761D01*
X100449047Y-74112380D01*
X100353809Y-74112380D01*
X100210952Y-74064761D01*
X100115714Y-73969523D01*
X100068095Y-73874285D01*
X100020476Y-73683809D01*
X100020476Y-73540952D01*
X100068095Y-73350476D01*
X100115714Y-73255238D01*
X100210952Y-73160000D01*
X100353809Y-73112380D01*
X100449047Y-73112380D01*
X100591904Y-73160000D01*
X100639523Y-73207619D01*
X166679523Y-56237142D02*
X166631904Y-56284761D01*
X166489047Y-56332380D01*
X166393809Y-56332380D01*
X166250952Y-56284761D01*
X166155714Y-56189523D01*
X166108095Y-56094285D01*
X166060476Y-55903809D01*
X166060476Y-55760952D01*
X166108095Y-55570476D01*
X166155714Y-55475238D01*
X166250952Y-55380000D01*
X166393809Y-55332380D01*
X166489047Y-55332380D01*
X166631904Y-55380000D01*
X166679523Y-55427619D01*
X133659523Y-56237142D02*
X133611904Y-56284761D01*
X133469047Y-56332380D01*
X133373809Y-56332380D01*
X133230952Y-56284761D01*
X133135714Y-56189523D01*
X133088095Y-56094285D01*
X133040476Y-55903809D01*
X133040476Y-55760952D01*
X133088095Y-55570476D01*
X133135714Y-55475238D01*
X133230952Y-55380000D01*
X133373809Y-55332380D01*
X133469047Y-55332380D01*
X133611904Y-55380000D01*
X133659523Y-55427619D01*
D11*
X97941142Y-60935857D02*
X98131619Y-60935857D01*
X98012571Y-60769190D02*
X98012571Y-61197761D01*
X98036380Y-61245380D01*
X98084000Y-61269190D01*
X98131619Y-61269190D01*
X98298285Y-61269190D02*
X98298285Y-60769190D01*
X98512571Y-61269190D02*
X98512571Y-61007285D01*
X98488761Y-60959666D01*
X98441142Y-60935857D01*
X98369714Y-60935857D01*
X98322095Y-60959666D01*
X98298285Y-60983476D01*
X98941142Y-61245380D02*
X98893523Y-61269190D01*
X98798285Y-61269190D01*
X98750666Y-61245380D01*
X98726857Y-61197761D01*
X98726857Y-61007285D01*
X98750666Y-60959666D01*
X98798285Y-60935857D01*
X98893523Y-60935857D01*
X98941142Y-60959666D01*
X98964952Y-61007285D01*
X98964952Y-61054904D01*
X98726857Y-61102523D01*
X99536380Y-61245380D02*
X99584000Y-61269190D01*
X99679238Y-61269190D01*
X99726857Y-61245380D01*
X99750666Y-61197761D01*
X99750666Y-61173952D01*
X99726857Y-61126333D01*
X99679238Y-61102523D01*
X99607809Y-61102523D01*
X99560190Y-61078714D01*
X99536380Y-61031095D01*
X99536380Y-61007285D01*
X99560190Y-60959666D01*
X99607809Y-60935857D01*
X99679238Y-60935857D01*
X99726857Y-60959666D01*
X99964952Y-60935857D02*
X99964952Y-61435857D01*
X99964952Y-60959666D02*
X100012571Y-60935857D01*
X100107809Y-60935857D01*
X100155428Y-60959666D01*
X100179238Y-60983476D01*
X100203047Y-61031095D01*
X100203047Y-61173952D01*
X100179238Y-61221571D01*
X100155428Y-61245380D01*
X100107809Y-61269190D01*
X100012571Y-61269190D01*
X99964952Y-61245380D01*
X100631619Y-61269190D02*
X100631619Y-61007285D01*
X100607809Y-60959666D01*
X100560190Y-60935857D01*
X100464952Y-60935857D01*
X100417333Y-60959666D01*
X100631619Y-61245380D02*
X100584000Y-61269190D01*
X100464952Y-61269190D01*
X100417333Y-61245380D01*
X100393523Y-61197761D01*
X100393523Y-61150142D01*
X100417333Y-61102523D01*
X100464952Y-61078714D01*
X100584000Y-61078714D01*
X100631619Y-61054904D01*
X101084000Y-60935857D02*
X101084000Y-61340619D01*
X101060190Y-61388238D01*
X101036380Y-61412047D01*
X100988761Y-61435857D01*
X100917333Y-61435857D01*
X100869714Y-61412047D01*
X101084000Y-61245380D02*
X101036380Y-61269190D01*
X100941142Y-61269190D01*
X100893523Y-61245380D01*
X100869714Y-61221571D01*
X100845904Y-61173952D01*
X100845904Y-61031095D01*
X100869714Y-60983476D01*
X100893523Y-60959666D01*
X100941142Y-60935857D01*
X101036380Y-60935857D01*
X101084000Y-60959666D01*
X101322095Y-61269190D02*
X101322095Y-60769190D01*
X101536380Y-61269190D02*
X101536380Y-61007285D01*
X101512571Y-60959666D01*
X101464952Y-60935857D01*
X101393523Y-60935857D01*
X101345904Y-60959666D01*
X101322095Y-60983476D01*
X101964952Y-61245380D02*
X101917333Y-61269190D01*
X101822095Y-61269190D01*
X101774476Y-61245380D01*
X101750666Y-61197761D01*
X101750666Y-61007285D01*
X101774476Y-60959666D01*
X101822095Y-60935857D01*
X101917333Y-60935857D01*
X101964952Y-60959666D01*
X101988761Y-61007285D01*
X101988761Y-61054904D01*
X101750666Y-61102523D01*
X102131619Y-60935857D02*
X102322095Y-60935857D01*
X102203047Y-60769190D02*
X102203047Y-61197761D01*
X102226857Y-61245380D01*
X102274476Y-61269190D01*
X102322095Y-61269190D01*
X102417333Y-60935857D02*
X102607809Y-60935857D01*
X102488761Y-60769190D02*
X102488761Y-61197761D01*
X102512571Y-61245380D01*
X102560190Y-61269190D01*
X102607809Y-61269190D01*
X102774476Y-61269190D02*
X102774476Y-60935857D01*
X102774476Y-60769190D02*
X102750666Y-60793000D01*
X102774476Y-60816809D01*
X102798285Y-60793000D01*
X102774476Y-60769190D01*
X102774476Y-60816809D01*
X99214952Y-62119190D02*
X99214952Y-61785857D01*
X99214952Y-61833476D02*
X99238761Y-61809666D01*
X99286380Y-61785857D01*
X99357809Y-61785857D01*
X99405428Y-61809666D01*
X99429238Y-61857285D01*
X99429238Y-62119190D01*
X99429238Y-61857285D02*
X99453047Y-61809666D01*
X99500666Y-61785857D01*
X99572095Y-61785857D01*
X99619714Y-61809666D01*
X99643523Y-61857285D01*
X99643523Y-62119190D01*
X100095904Y-62119190D02*
X100095904Y-61857285D01*
X100072095Y-61809666D01*
X100024476Y-61785857D01*
X99929238Y-61785857D01*
X99881619Y-61809666D01*
X100095904Y-62095380D02*
X100048285Y-62119190D01*
X99929238Y-62119190D01*
X99881619Y-62095380D01*
X99857809Y-62047761D01*
X99857809Y-62000142D01*
X99881619Y-61952523D01*
X99929238Y-61928714D01*
X100048285Y-61928714D01*
X100095904Y-61904904D01*
X100548285Y-62119190D02*
X100548285Y-61619190D01*
X100548285Y-62095380D02*
X100500666Y-62119190D01*
X100405428Y-62119190D01*
X100357809Y-62095380D01*
X100334000Y-62071571D01*
X100310190Y-62023952D01*
X100310190Y-61881095D01*
X100334000Y-61833476D01*
X100357809Y-61809666D01*
X100405428Y-61785857D01*
X100500666Y-61785857D01*
X100548285Y-61809666D01*
X100976857Y-62095380D02*
X100929238Y-62119190D01*
X100834000Y-62119190D01*
X100786380Y-62095380D01*
X100762571Y-62047761D01*
X100762571Y-61857285D01*
X100786380Y-61809666D01*
X100834000Y-61785857D01*
X100929238Y-61785857D01*
X100976857Y-61809666D01*
X101000666Y-61857285D01*
X101000666Y-61904904D01*
X100762571Y-61952523D01*
X101667333Y-62119190D02*
X101619714Y-62095380D01*
X101595904Y-62071571D01*
X101572095Y-62023952D01*
X101572095Y-61881095D01*
X101595904Y-61833476D01*
X101619714Y-61809666D01*
X101667333Y-61785857D01*
X101738761Y-61785857D01*
X101786380Y-61809666D01*
X101810190Y-61833476D01*
X101834000Y-61881095D01*
X101834000Y-62023952D01*
X101810190Y-62071571D01*
X101786380Y-62095380D01*
X101738761Y-62119190D01*
X101667333Y-62119190D01*
X101976857Y-61785857D02*
X102167333Y-61785857D01*
X102048285Y-62119190D02*
X102048285Y-61690619D01*
X102072095Y-61643000D01*
X102119714Y-61619190D01*
X102167333Y-61619190D01*
X102929238Y-62095380D02*
X102881619Y-62119190D01*
X102786380Y-62119190D01*
X102738761Y-62095380D01*
X102714952Y-62071571D01*
X102691142Y-62023952D01*
X102691142Y-61881095D01*
X102714952Y-61833476D01*
X102738761Y-61809666D01*
X102786380Y-61785857D01*
X102881619Y-61785857D01*
X102929238Y-61809666D01*
X103214952Y-62119190D02*
X103167333Y-62095380D01*
X103143523Y-62071571D01*
X103119714Y-62023952D01*
X103119714Y-61881095D01*
X103143523Y-61833476D01*
X103167333Y-61809666D01*
X103214952Y-61785857D01*
X103286380Y-61785857D01*
X103334000Y-61809666D01*
X103357809Y-61833476D01*
X103381619Y-61881095D01*
X103381619Y-62023952D01*
X103357809Y-62071571D01*
X103334000Y-62095380D01*
X103286380Y-62119190D01*
X103214952Y-62119190D01*
X103810190Y-62119190D02*
X103810190Y-61619190D01*
X103810190Y-62095380D02*
X103762571Y-62119190D01*
X103667333Y-62119190D01*
X103619714Y-62095380D01*
X103595904Y-62071571D01*
X103572095Y-62023952D01*
X103572095Y-61881095D01*
X103595904Y-61833476D01*
X103619714Y-61809666D01*
X103667333Y-61785857D01*
X103762571Y-61785857D01*
X103810190Y-61809666D01*
X104238761Y-62095380D02*
X104191142Y-62119190D01*
X104095904Y-62119190D01*
X104048285Y-62095380D01*
X104024476Y-62047761D01*
X104024476Y-61857285D01*
X104048285Y-61809666D01*
X104095904Y-61785857D01*
X104191142Y-61785857D01*
X104238761Y-61809666D01*
X104262571Y-61857285D01*
X104262571Y-61904904D01*
X104024476Y-61952523D01*
D12*
X98294285Y-58868571D02*
X99294285Y-60368571D01*
X99294285Y-58868571D02*
X98294285Y-60368571D01*
X100151428Y-58868571D02*
X100437142Y-58868571D01*
X100580000Y-58940000D01*
X100722857Y-59082857D01*
X100794285Y-59368571D01*
X100794285Y-59868571D01*
X100722857Y-60154285D01*
X100580000Y-60297142D01*
X100437142Y-60368571D01*
X100151428Y-60368571D01*
X100008571Y-60297142D01*
X99865714Y-60154285D01*
X99794285Y-59868571D01*
X99794285Y-59368571D01*
X99865714Y-59082857D01*
X100008571Y-58940000D01*
X100151428Y-58868571D01*
X102294285Y-60368571D02*
X101794285Y-59654285D01*
X101437142Y-60368571D02*
X101437142Y-58868571D01*
X102008571Y-58868571D01*
X102151428Y-58940000D01*
X102222857Y-59011428D01*
X102294285Y-59154285D01*
X102294285Y-59368571D01*
X102222857Y-59511428D01*
X102151428Y-59582857D01*
X102008571Y-59654285D01*
X101437142Y-59654285D01*
D10*
X99330000Y-52792380D02*
X99520476Y-52792380D01*
X99615714Y-52840000D01*
X99710952Y-52935238D01*
X99758571Y-53125714D01*
X99758571Y-53459047D01*
X99710952Y-53649523D01*
X99615714Y-53744761D01*
X99520476Y-53792380D01*
X99330000Y-53792380D01*
X99234761Y-53744761D01*
X99139523Y-53649523D01*
X99091904Y-53459047D01*
X99091904Y-53125714D01*
X99139523Y-52935238D01*
X99234761Y-52840000D01*
X99330000Y-52792380D01*
X100187142Y-52792380D02*
X100187142Y-53601904D01*
X100234761Y-53697142D01*
X100282380Y-53744761D01*
X100377619Y-53792380D01*
X100568095Y-53792380D01*
X100663333Y-53744761D01*
X100710952Y-53697142D01*
X100758571Y-53601904D01*
X100758571Y-52792380D01*
X101091904Y-52792380D02*
X101663333Y-52792380D01*
X101377619Y-53792380D02*
X101377619Y-52792380D01*
X100639523Y-56237142D02*
X100591904Y-56284761D01*
X100449047Y-56332380D01*
X100353809Y-56332380D01*
X100210952Y-56284761D01*
X100115714Y-56189523D01*
X100068095Y-56094285D01*
X100020476Y-55903809D01*
X100020476Y-55760952D01*
X100068095Y-55570476D01*
X100115714Y-55475238D01*
X100210952Y-55380000D01*
X100353809Y-55332380D01*
X100449047Y-55332380D01*
X100591904Y-55380000D01*
X100639523Y-55427619D01*
X83439047Y-63571428D02*
X84200952Y-63571428D01*
X83820000Y-63952380D02*
X83820000Y-63190476D01*
X83439047Y-61031428D02*
X84200952Y-61031428D01*
X85399523Y-57507142D02*
X85351904Y-57554761D01*
X85209047Y-57602380D01*
X85113809Y-57602380D01*
X84970952Y-57554761D01*
X84875714Y-57459523D01*
X84828095Y-57364285D01*
X84780476Y-57173809D01*
X84780476Y-57030952D01*
X84828095Y-56840476D01*
X84875714Y-56745238D01*
X84970952Y-56650000D01*
X85113809Y-56602380D01*
X85209047Y-56602380D01*
X85351904Y-56650000D01*
X85399523Y-56697619D01*
X85883809Y-53792380D02*
X85883809Y-52792380D01*
X86883809Y-53792380D02*
X86312380Y-53792380D01*
X86598095Y-53792380D02*
X86598095Y-52792380D01*
X86502857Y-52935238D01*
X86407619Y-53030476D01*
X86312380Y-53078095D01*
X83343809Y-53792380D02*
X83343809Y-52792380D01*
X84010476Y-52792380D02*
X84105714Y-52792380D01*
X84200952Y-52840000D01*
X84248571Y-52887619D01*
X84296190Y-52982857D01*
X84343809Y-53173333D01*
X84343809Y-53411428D01*
X84296190Y-53601904D01*
X84248571Y-53697142D01*
X84200952Y-53744761D01*
X84105714Y-53792380D01*
X84010476Y-53792380D01*
X83915238Y-53744761D01*
X83867619Y-53697142D01*
X83820000Y-53601904D01*
X83772380Y-53411428D01*
X83772380Y-53173333D01*
X83820000Y-52982857D01*
X83867619Y-52887619D01*
X83915238Y-52840000D01*
X84010476Y-52792380D01*
D13*
X138430000Y-100965000D02*
X138430000Y-84455000D01*
X148590000Y-100965000D02*
X138430000Y-100965000D01*
X148590000Y-84455000D02*
X148590000Y-100965000D01*
X138430000Y-84455000D02*
X148590000Y-84455000D01*
X105410000Y-100965000D02*
X105410000Y-84455000D01*
X115570000Y-100965000D02*
X105410000Y-100965000D01*
X115570000Y-84455000D02*
X115570000Y-100965000D01*
X105410000Y-84455000D02*
X115570000Y-84455000D01*
X72390000Y-100965000D02*
X72390000Y-84455000D01*
X82550000Y-100965000D02*
X72390000Y-100965000D01*
X82550000Y-84455000D02*
X82550000Y-100965000D01*
X72390000Y-84455000D02*
X82550000Y-84455000D01*
X138430000Y-83185000D02*
X138430000Y-66675000D01*
X148590000Y-83185000D02*
X138430000Y-83185000D01*
X148590000Y-66675000D02*
X148590000Y-83185000D01*
X138430000Y-66675000D02*
X148590000Y-66675000D01*
X105410000Y-83185000D02*
X105410000Y-66675000D01*
X115570000Y-83185000D02*
X105410000Y-83185000D01*
X115570000Y-66675000D02*
X115570000Y-83185000D01*
X105410000Y-66675000D02*
X115570000Y-66675000D01*
X72390000Y-83185000D02*
X72390000Y-66675000D01*
X82550000Y-83185000D02*
X72390000Y-83185000D01*
X82550000Y-66675000D02*
X82550000Y-83185000D01*
X72390000Y-66675000D02*
X82550000Y-66675000D01*
X138430000Y-65405000D02*
X138430000Y-48895000D01*
X148590000Y-65405000D02*
X138430000Y-65405000D01*
X148590000Y-48895000D02*
X148590000Y-65405000D01*
X138430000Y-48895000D02*
X148590000Y-48895000D01*
X105410000Y-65405000D02*
X105410000Y-48895000D01*
X115570000Y-65405000D02*
X105410000Y-65405000D01*
X115570000Y-48895000D02*
X115570000Y-65405000D01*
X105410000Y-48895000D02*
X115570000Y-48895000D01*
X153670000Y-84455000D02*
X163830000Y-84455000D01*
X163830000Y-84455000D02*
X163830000Y-100965000D01*
X163830000Y-100965000D02*
X153670000Y-100965000D01*
X153670000Y-100965000D02*
X153670000Y-84455000D01*
X120650000Y-84455000D02*
X130810000Y-84455000D01*
X130810000Y-84455000D02*
X130810000Y-100965000D01*
X130810000Y-100965000D02*
X120650000Y-100965000D01*
X120650000Y-100965000D02*
X120650000Y-84455000D01*
X87630000Y-84455000D02*
X97790000Y-84455000D01*
X97790000Y-84455000D02*
X97790000Y-100965000D01*
X97790000Y-100965000D02*
X87630000Y-100965000D01*
X87630000Y-100965000D02*
X87630000Y-84455000D01*
X153670000Y-66675000D02*
X163830000Y-66675000D01*
X163830000Y-66675000D02*
X163830000Y-83185000D01*
X163830000Y-83185000D02*
X153670000Y-83185000D01*
X153670000Y-83185000D02*
X153670000Y-66675000D01*
X120650000Y-66675000D02*
X130810000Y-66675000D01*
X130810000Y-66675000D02*
X130810000Y-83185000D01*
X130810000Y-83185000D02*
X120650000Y-83185000D01*
X120650000Y-83185000D02*
X120650000Y-66675000D01*
X87630000Y-66675000D02*
X97790000Y-66675000D01*
X97790000Y-66675000D02*
X97790000Y-83185000D01*
X97790000Y-83185000D02*
X87630000Y-83185000D01*
X87630000Y-83185000D02*
X87630000Y-66675000D01*
X153670000Y-48895000D02*
X163830000Y-48895000D01*
X163830000Y-48895000D02*
X163830000Y-65405000D01*
X163830000Y-65405000D02*
X153670000Y-65405000D01*
X153670000Y-65405000D02*
X153670000Y-48895000D01*
X120650000Y-48895000D02*
X130810000Y-48895000D01*
X130810000Y-48895000D02*
X130810000Y-65405000D01*
X130810000Y-65405000D02*
X120650000Y-65405000D01*
X120650000Y-65405000D02*
X120650000Y-48895000D01*
X168402000Y-93472000D02*
X164338000Y-93472000D01*
X164338000Y-93472000D02*
X164338000Y-91948000D01*
X164338000Y-91948000D02*
X168402000Y-91948000D01*
X168402000Y-91948000D02*
X168402000Y-93472000D01*
X135382000Y-93472000D02*
X131318000Y-93472000D01*
X131318000Y-93472000D02*
X131318000Y-91948000D01*
X131318000Y-91948000D02*
X135382000Y-91948000D01*
X135382000Y-91948000D02*
X135382000Y-93472000D01*
X102362000Y-93472000D02*
X98298000Y-93472000D01*
X98298000Y-93472000D02*
X98298000Y-91948000D01*
X98298000Y-91948000D02*
X102362000Y-91948000D01*
X102362000Y-91948000D02*
X102362000Y-93472000D01*
X168402000Y-75692000D02*
X164338000Y-75692000D01*
X164338000Y-75692000D02*
X164338000Y-74168000D01*
X164338000Y-74168000D02*
X168402000Y-74168000D01*
X168402000Y-74168000D02*
X168402000Y-75692000D01*
X135382000Y-75692000D02*
X131318000Y-75692000D01*
X131318000Y-75692000D02*
X131318000Y-74168000D01*
X131318000Y-74168000D02*
X135382000Y-74168000D01*
X135382000Y-74168000D02*
X135382000Y-75692000D01*
X102362000Y-75692000D02*
X98298000Y-75692000D01*
X98298000Y-75692000D02*
X98298000Y-74168000D01*
X98298000Y-74168000D02*
X102362000Y-74168000D01*
X102362000Y-74168000D02*
X102362000Y-75692000D01*
X168402000Y-57912000D02*
X164338000Y-57912000D01*
X164338000Y-57912000D02*
X164338000Y-56388000D01*
X164338000Y-56388000D02*
X168402000Y-56388000D01*
X168402000Y-56388000D02*
X168402000Y-57912000D01*
X135382000Y-57912000D02*
X131318000Y-57912000D01*
X131318000Y-57912000D02*
X131318000Y-56388000D01*
X131318000Y-56388000D02*
X135382000Y-56388000D01*
X135382000Y-56388000D02*
X135382000Y-57912000D01*
X153416000Y-93472000D02*
X153416000Y-94996000D01*
X149352000Y-93472000D02*
X153416000Y-93472000D01*
X149352000Y-94996000D02*
X149352000Y-93472000D01*
X153416000Y-94996000D02*
X149352000Y-94996000D01*
X120396000Y-93472000D02*
X120396000Y-94996000D01*
X116332000Y-93472000D02*
X120396000Y-93472000D01*
X116332000Y-94996000D02*
X116332000Y-93472000D01*
X120396000Y-94996000D02*
X116332000Y-94996000D01*
X87376000Y-93472000D02*
X87376000Y-94996000D01*
X83312000Y-93472000D02*
X87376000Y-93472000D01*
X83312000Y-94996000D02*
X83312000Y-93472000D01*
X87376000Y-94996000D02*
X83312000Y-94996000D01*
X153416000Y-75692000D02*
X153416000Y-77216000D01*
X149352000Y-75692000D02*
X153416000Y-75692000D01*
X149352000Y-77216000D02*
X149352000Y-75692000D01*
X153416000Y-77216000D02*
X149352000Y-77216000D01*
X120396000Y-75692000D02*
X120396000Y-77216000D01*
X116332000Y-75692000D02*
X120396000Y-75692000D01*
X116332000Y-77216000D02*
X116332000Y-75692000D01*
X120396000Y-77216000D02*
X116332000Y-77216000D01*
X87376000Y-75692000D02*
X87376000Y-77216000D01*
X83312000Y-75692000D02*
X87376000Y-75692000D01*
X83312000Y-77216000D02*
X83312000Y-75692000D01*
X87376000Y-77216000D02*
X83312000Y-77216000D01*
X153416000Y-57912000D02*
X153416000Y-59436000D01*
X149352000Y-57912000D02*
X153416000Y-57912000D01*
X149352000Y-59436000D02*
X149352000Y-57912000D01*
X153416000Y-59436000D02*
X149352000Y-59436000D01*
X120396000Y-57912000D02*
X120396000Y-59436000D01*
X116332000Y-57912000D02*
X120396000Y-57912000D01*
X116332000Y-59436000D02*
X116332000Y-57912000D01*
X120396000Y-59436000D02*
X116332000Y-59436000D01*
X87376000Y-59436000D02*
X83312000Y-59436000D01*
X83312000Y-59436000D02*
X83312000Y-57912000D01*
X83312000Y-57912000D02*
X87376000Y-57912000D01*
X87376000Y-57912000D02*
X87376000Y-59436000D01*
X102362000Y-56388000D02*
X102362000Y-57912000D01*
X98298000Y-56388000D02*
X102362000Y-56388000D01*
X98298000Y-57912000D02*
X98298000Y-56388000D01*
X102362000Y-57912000D02*
X98298000Y-57912000D01*
X72390000Y-48895000D02*
X82550000Y-48895000D01*
X82550000Y-48895000D02*
X82550000Y-65405000D01*
X82550000Y-65405000D02*
X72390000Y-65405000D01*
X72390000Y-65405000D02*
X72390000Y-48895000D01*
X87630000Y-65405000D02*
X87630000Y-48895000D01*
X97790000Y-65405000D02*
X87630000Y-65405000D01*
X97790000Y-48895000D02*
X97790000Y-65405000D01*
X87630000Y-48895000D02*
X97790000Y-48895000D01*
M02*
