G04 #@! TF.GenerationSoftware,KiCad,Pcbnew,(5.1.6)-1*
G04 #@! TF.CreationDate,2020-06-03T08:18:39+09:00*
G04 #@! TF.ProjectId,XOR___,584f5262-d851-42e6-9b69-6361645f7063,rev?*
G04 #@! TF.SameCoordinates,Original*
G04 #@! TF.FileFunction,Legend,Bot*
G04 #@! TF.FilePolarity,Positive*
%FSLAX46Y46*%
G04 Gerber Fmt 4.6, Leading zero omitted, Abs format (unit mm)*
G04 Created by KiCad (PCBNEW (5.1.6)-1) date 2020-06-03 08:18:39*
%MOMM*%
%LPD*%
G01*
G04 APERTURE LIST*
%ADD10C,0.150000*%
%ADD11C,0.120000*%
G04 APERTURE END LIST*
D10*
X66857857Y-83272380D02*
X67191190Y-84272380D01*
X67524523Y-83272380D01*
X67857857Y-83891428D02*
X68619761Y-83891428D01*
X69667380Y-84177142D02*
X69619761Y-84224761D01*
X69476904Y-84272380D01*
X69381666Y-84272380D01*
X69238809Y-84224761D01*
X69143571Y-84129523D01*
X69095952Y-84034285D01*
X69048333Y-83843809D01*
X69048333Y-83700952D01*
X69095952Y-83510476D01*
X69143571Y-83415238D01*
X69238809Y-83320000D01*
X69381666Y-83272380D01*
X69476904Y-83272380D01*
X69619761Y-83320000D01*
X69667380Y-83367619D01*
X70095952Y-83272380D02*
X70095952Y-84081904D01*
X70143571Y-84177142D01*
X70191190Y-84224761D01*
X70286428Y-84272380D01*
X70476904Y-84272380D01*
X70572142Y-84224761D01*
X70619761Y-84177142D01*
X70667380Y-84081904D01*
X70667380Y-83272380D01*
X71000714Y-83272380D02*
X71572142Y-83272380D01*
X71286428Y-84272380D02*
X71286428Y-83272380D01*
X66857857Y-65492380D02*
X67191190Y-66492380D01*
X67524523Y-65492380D01*
X67857857Y-66111428D02*
X68619761Y-66111428D01*
X69667380Y-66397142D02*
X69619761Y-66444761D01*
X69476904Y-66492380D01*
X69381666Y-66492380D01*
X69238809Y-66444761D01*
X69143571Y-66349523D01*
X69095952Y-66254285D01*
X69048333Y-66063809D01*
X69048333Y-65920952D01*
X69095952Y-65730476D01*
X69143571Y-65635238D01*
X69238809Y-65540000D01*
X69381666Y-65492380D01*
X69476904Y-65492380D01*
X69619761Y-65540000D01*
X69667380Y-65587619D01*
X70095952Y-65492380D02*
X70095952Y-66301904D01*
X70143571Y-66397142D01*
X70191190Y-66444761D01*
X70286428Y-66492380D01*
X70476904Y-66492380D01*
X70572142Y-66444761D01*
X70619761Y-66397142D01*
X70667380Y-66301904D01*
X70667380Y-65492380D01*
X71000714Y-65492380D02*
X71572142Y-65492380D01*
X71286428Y-66492380D02*
X71286428Y-65492380D01*
X135437857Y-47077380D02*
X135771190Y-48077380D01*
X136104523Y-47077380D01*
X136437857Y-47696428D02*
X137199761Y-47696428D01*
X138247380Y-47982142D02*
X138199761Y-48029761D01*
X138056904Y-48077380D01*
X137961666Y-48077380D01*
X137818809Y-48029761D01*
X137723571Y-47934523D01*
X137675952Y-47839285D01*
X137628333Y-47648809D01*
X137628333Y-47505952D01*
X137675952Y-47315476D01*
X137723571Y-47220238D01*
X137818809Y-47125000D01*
X137961666Y-47077380D01*
X138056904Y-47077380D01*
X138199761Y-47125000D01*
X138247380Y-47172619D01*
X138675952Y-47077380D02*
X138675952Y-47886904D01*
X138723571Y-47982142D01*
X138771190Y-48029761D01*
X138866428Y-48077380D01*
X139056904Y-48077380D01*
X139152142Y-48029761D01*
X139199761Y-47982142D01*
X139247380Y-47886904D01*
X139247380Y-47077380D01*
X139580714Y-47077380D02*
X140152142Y-47077380D01*
X139866428Y-48077380D02*
X139866428Y-47077380D01*
X101782857Y-47077380D02*
X102116190Y-48077380D01*
X102449523Y-47077380D01*
X102782857Y-47696428D02*
X103544761Y-47696428D01*
X104592380Y-47982142D02*
X104544761Y-48029761D01*
X104401904Y-48077380D01*
X104306666Y-48077380D01*
X104163809Y-48029761D01*
X104068571Y-47934523D01*
X104020952Y-47839285D01*
X103973333Y-47648809D01*
X103973333Y-47505952D01*
X104020952Y-47315476D01*
X104068571Y-47220238D01*
X104163809Y-47125000D01*
X104306666Y-47077380D01*
X104401904Y-47077380D01*
X104544761Y-47125000D01*
X104592380Y-47172619D01*
X105020952Y-47077380D02*
X105020952Y-47886904D01*
X105068571Y-47982142D01*
X105116190Y-48029761D01*
X105211428Y-48077380D01*
X105401904Y-48077380D01*
X105497142Y-48029761D01*
X105544761Y-47982142D01*
X105592380Y-47886904D01*
X105592380Y-47077380D01*
X105925714Y-47077380D02*
X106497142Y-47077380D01*
X106211428Y-48077380D02*
X106211428Y-47077380D01*
D11*
X170815000Y-83820000D02*
X71755000Y-83820000D01*
X71755000Y-66040000D02*
X170815000Y-66040000D01*
X137795000Y-101600000D02*
X137795000Y-48260000D01*
X104775000Y-48260000D02*
X104775000Y-101600000D01*
X168970000Y-88290000D02*
X168970000Y-86960000D01*
X167640000Y-88290000D02*
X168970000Y-88290000D01*
X166370000Y-88290000D02*
X166370000Y-85630000D01*
X166370000Y-85630000D02*
X163770000Y-85630000D01*
X166370000Y-88290000D02*
X163770000Y-88290000D01*
X163770000Y-88290000D02*
X163770000Y-85630000D01*
X135950000Y-88290000D02*
X135950000Y-86960000D01*
X134620000Y-88290000D02*
X135950000Y-88290000D01*
X133350000Y-88290000D02*
X133350000Y-85630000D01*
X133350000Y-85630000D02*
X130750000Y-85630000D01*
X133350000Y-88290000D02*
X130750000Y-88290000D01*
X130750000Y-88290000D02*
X130750000Y-85630000D01*
X102930000Y-88290000D02*
X102930000Y-86960000D01*
X101600000Y-88290000D02*
X102930000Y-88290000D01*
X100330000Y-88290000D02*
X100330000Y-85630000D01*
X100330000Y-85630000D02*
X97730000Y-85630000D01*
X100330000Y-88290000D02*
X97730000Y-88290000D01*
X97730000Y-88290000D02*
X97730000Y-85630000D01*
X168970000Y-70510000D02*
X168970000Y-69180000D01*
X167640000Y-70510000D02*
X168970000Y-70510000D01*
X166370000Y-70510000D02*
X166370000Y-67850000D01*
X166370000Y-67850000D02*
X163770000Y-67850000D01*
X166370000Y-70510000D02*
X163770000Y-70510000D01*
X163770000Y-70510000D02*
X163770000Y-67850000D01*
X135950000Y-70510000D02*
X135950000Y-69180000D01*
X134620000Y-70510000D02*
X135950000Y-70510000D01*
X133350000Y-70510000D02*
X133350000Y-67850000D01*
X133350000Y-67850000D02*
X130750000Y-67850000D01*
X133350000Y-70510000D02*
X130750000Y-70510000D01*
X130750000Y-70510000D02*
X130750000Y-67850000D01*
X102930000Y-70510000D02*
X102930000Y-69180000D01*
X101600000Y-70510000D02*
X102930000Y-70510000D01*
X100330000Y-70510000D02*
X100330000Y-67850000D01*
X100330000Y-67850000D02*
X97730000Y-67850000D01*
X100330000Y-70510000D02*
X97730000Y-70510000D01*
X97730000Y-70510000D02*
X97730000Y-67850000D01*
X168970000Y-52730000D02*
X168970000Y-51400000D01*
X167640000Y-52730000D02*
X168970000Y-52730000D01*
X166370000Y-52730000D02*
X166370000Y-50070000D01*
X166370000Y-50070000D02*
X163770000Y-50070000D01*
X166370000Y-52730000D02*
X163770000Y-52730000D01*
X163770000Y-52730000D02*
X163770000Y-50070000D01*
X135950000Y-52730000D02*
X135950000Y-51400000D01*
X134620000Y-52730000D02*
X135950000Y-52730000D01*
X133350000Y-52730000D02*
X133350000Y-50070000D01*
X133350000Y-50070000D02*
X130750000Y-50070000D01*
X133350000Y-52730000D02*
X130750000Y-52730000D01*
X130750000Y-52730000D02*
X130750000Y-50070000D01*
X153730000Y-100390000D02*
X151070000Y-100390000D01*
X153730000Y-97790000D02*
X153730000Y-100390000D01*
X151070000Y-97790000D02*
X151070000Y-100390000D01*
X153730000Y-97790000D02*
X151070000Y-97790000D01*
X153730000Y-96520000D02*
X153730000Y-95190000D01*
X153730000Y-95190000D02*
X152400000Y-95190000D01*
X120710000Y-100390000D02*
X118050000Y-100390000D01*
X120710000Y-97790000D02*
X120710000Y-100390000D01*
X118050000Y-97790000D02*
X118050000Y-100390000D01*
X120710000Y-97790000D02*
X118050000Y-97790000D01*
X120710000Y-96520000D02*
X120710000Y-95190000D01*
X120710000Y-95190000D02*
X119380000Y-95190000D01*
X87690000Y-100390000D02*
X85030000Y-100390000D01*
X87690000Y-97790000D02*
X87690000Y-100390000D01*
X85030000Y-97790000D02*
X85030000Y-100390000D01*
X87690000Y-97790000D02*
X85030000Y-97790000D01*
X87690000Y-96520000D02*
X87690000Y-95190000D01*
X87690000Y-95190000D02*
X86360000Y-95190000D01*
X153730000Y-82610000D02*
X151070000Y-82610000D01*
X153730000Y-80010000D02*
X153730000Y-82610000D01*
X151070000Y-80010000D02*
X151070000Y-82610000D01*
X153730000Y-80010000D02*
X151070000Y-80010000D01*
X153730000Y-78740000D02*
X153730000Y-77410000D01*
X153730000Y-77410000D02*
X152400000Y-77410000D01*
X120710000Y-82610000D02*
X118050000Y-82610000D01*
X120710000Y-80010000D02*
X120710000Y-82610000D01*
X118050000Y-80010000D02*
X118050000Y-82610000D01*
X120710000Y-80010000D02*
X118050000Y-80010000D01*
X120710000Y-78740000D02*
X120710000Y-77410000D01*
X120710000Y-77410000D02*
X119380000Y-77410000D01*
X87690000Y-82610000D02*
X85030000Y-82610000D01*
X87690000Y-80010000D02*
X87690000Y-82610000D01*
X85030000Y-80010000D02*
X85030000Y-82610000D01*
X87690000Y-80010000D02*
X85030000Y-80010000D01*
X87690000Y-78740000D02*
X87690000Y-77410000D01*
X87690000Y-77410000D02*
X86360000Y-77410000D01*
X153730000Y-64830000D02*
X151070000Y-64830000D01*
X153730000Y-62230000D02*
X153730000Y-64830000D01*
X151070000Y-62230000D02*
X151070000Y-64830000D01*
X153730000Y-62230000D02*
X151070000Y-62230000D01*
X153730000Y-60960000D02*
X153730000Y-59630000D01*
X153730000Y-59630000D02*
X152400000Y-59630000D01*
X120710000Y-64830000D02*
X118050000Y-64830000D01*
X120710000Y-62230000D02*
X120710000Y-64830000D01*
X118050000Y-62230000D02*
X118050000Y-64830000D01*
X120710000Y-62230000D02*
X118050000Y-62230000D01*
X120710000Y-60960000D02*
X120710000Y-59630000D01*
X120710000Y-59630000D02*
X119380000Y-59630000D01*
X153730000Y-85630000D02*
X153730000Y-88290000D01*
X151130000Y-85630000D02*
X153730000Y-85630000D01*
X151130000Y-88290000D02*
X153730000Y-88290000D01*
X151130000Y-85630000D02*
X151130000Y-88290000D01*
X149860000Y-85630000D02*
X148530000Y-85630000D01*
X148530000Y-85630000D02*
X148530000Y-86960000D01*
X120710000Y-85630000D02*
X120710000Y-88290000D01*
X118110000Y-85630000D02*
X120710000Y-85630000D01*
X118110000Y-88290000D02*
X120710000Y-88290000D01*
X118110000Y-85630000D02*
X118110000Y-88290000D01*
X116840000Y-85630000D02*
X115510000Y-85630000D01*
X115510000Y-85630000D02*
X115510000Y-86960000D01*
X87690000Y-85630000D02*
X87690000Y-88290000D01*
X85090000Y-85630000D02*
X87690000Y-85630000D01*
X85090000Y-88290000D02*
X87690000Y-88290000D01*
X85090000Y-85630000D02*
X85090000Y-88290000D01*
X83820000Y-85630000D02*
X82490000Y-85630000D01*
X82490000Y-85630000D02*
X82490000Y-86960000D01*
X153730000Y-67850000D02*
X153730000Y-70510000D01*
X151130000Y-67850000D02*
X153730000Y-67850000D01*
X151130000Y-70510000D02*
X153730000Y-70510000D01*
X151130000Y-67850000D02*
X151130000Y-70510000D01*
X149860000Y-67850000D02*
X148530000Y-67850000D01*
X148530000Y-67850000D02*
X148530000Y-69180000D01*
X120710000Y-67850000D02*
X120710000Y-70510000D01*
X118110000Y-67850000D02*
X120710000Y-67850000D01*
X118110000Y-70510000D02*
X120710000Y-70510000D01*
X118110000Y-67850000D02*
X118110000Y-70510000D01*
X116840000Y-67850000D02*
X115510000Y-67850000D01*
X115510000Y-67850000D02*
X115510000Y-69180000D01*
X87690000Y-67850000D02*
X87690000Y-70510000D01*
X85090000Y-67850000D02*
X87690000Y-67850000D01*
X85090000Y-70510000D02*
X87690000Y-70510000D01*
X85090000Y-67850000D02*
X85090000Y-70510000D01*
X83820000Y-67850000D02*
X82490000Y-67850000D01*
X82490000Y-67850000D02*
X82490000Y-69180000D01*
X153730000Y-50070000D02*
X153730000Y-52730000D01*
X151130000Y-50070000D02*
X153730000Y-50070000D01*
X151130000Y-52730000D02*
X153730000Y-52730000D01*
X151130000Y-50070000D02*
X151130000Y-52730000D01*
X149860000Y-50070000D02*
X148530000Y-50070000D01*
X148530000Y-50070000D02*
X148530000Y-51400000D01*
X120710000Y-50070000D02*
X120710000Y-52730000D01*
X118110000Y-50070000D02*
X120710000Y-50070000D01*
X118110000Y-52730000D02*
X120710000Y-52730000D01*
X118110000Y-50070000D02*
X118110000Y-52730000D01*
X116840000Y-50070000D02*
X115510000Y-50070000D01*
X115510000Y-50070000D02*
X115510000Y-51400000D01*
X82490000Y-50070000D02*
X82490000Y-51400000D01*
X83820000Y-50070000D02*
X82490000Y-50070000D01*
X85090000Y-50070000D02*
X85090000Y-52730000D01*
X85090000Y-52730000D02*
X87690000Y-52730000D01*
X85090000Y-50070000D02*
X87690000Y-50070000D01*
X87690000Y-50070000D02*
X87690000Y-52730000D01*
X87690000Y-59630000D02*
X86360000Y-59630000D01*
X87690000Y-60960000D02*
X87690000Y-59630000D01*
X87690000Y-62230000D02*
X85030000Y-62230000D01*
X85030000Y-62230000D02*
X85030000Y-64830000D01*
X87690000Y-62230000D02*
X87690000Y-64830000D01*
X87690000Y-64830000D02*
X85030000Y-64830000D01*
X97730000Y-52730000D02*
X97730000Y-50070000D01*
X100330000Y-52730000D02*
X97730000Y-52730000D01*
X100330000Y-50070000D02*
X97730000Y-50070000D01*
X100330000Y-52730000D02*
X100330000Y-50070000D01*
X101600000Y-52730000D02*
X102930000Y-52730000D01*
X102930000Y-52730000D02*
X102930000Y-51400000D01*
M02*
