G04 #@! TF.GenerationSoftware,KiCad,Pcbnew,(5.1.6)-1*
G04 #@! TF.CreationDate,2020-06-25T08:13:42+09:00*
G04 #@! TF.ProjectId,AND___,414e4462-d851-42e6-9b69-6361645f7063,rev?*
G04 #@! TF.SameCoordinates,Original*
G04 #@! TF.FileFunction,Legend,Top*
G04 #@! TF.FilePolarity,Positive*
%FSLAX46Y46*%
G04 Gerber Fmt 4.6, Leading zero omitted, Abs format (unit mm)*
G04 Created by KiCad (PCBNEW (5.1.6)-1) date 2020-06-25 08:13:42*
%MOMM*%
%LPD*%
G01*
G04 APERTURE LIST*
%ADD10C,0.150000*%
%ADD11C,0.300000*%
%ADD12C,0.050000*%
%ADD13C,0.120000*%
G04 APERTURE END LIST*
D10*
X125888809Y-117292380D02*
X125888809Y-116292380D01*
X126555476Y-116292380D02*
X126650714Y-116292380D01*
X126745952Y-116340000D01*
X126793571Y-116387619D01*
X126841190Y-116482857D01*
X126888809Y-116673333D01*
X126888809Y-116911428D01*
X126841190Y-117101904D01*
X126793571Y-117197142D01*
X126745952Y-117244761D01*
X126650714Y-117292380D01*
X126555476Y-117292380D01*
X126460238Y-117244761D01*
X126412619Y-117197142D01*
X126365000Y-117101904D01*
X126317380Y-116911428D01*
X126317380Y-116673333D01*
X126365000Y-116482857D01*
X126412619Y-116387619D01*
X126460238Y-116340000D01*
X126555476Y-116292380D01*
X92868809Y-117292380D02*
X92868809Y-116292380D01*
X93535476Y-116292380D02*
X93630714Y-116292380D01*
X93725952Y-116340000D01*
X93773571Y-116387619D01*
X93821190Y-116482857D01*
X93868809Y-116673333D01*
X93868809Y-116911428D01*
X93821190Y-117101904D01*
X93773571Y-117197142D01*
X93725952Y-117244761D01*
X93630714Y-117292380D01*
X93535476Y-117292380D01*
X93440238Y-117244761D01*
X93392619Y-117197142D01*
X93345000Y-117101904D01*
X93297380Y-116911428D01*
X93297380Y-116673333D01*
X93345000Y-116482857D01*
X93392619Y-116387619D01*
X93440238Y-116340000D01*
X93535476Y-116292380D01*
X59848809Y-117292380D02*
X59848809Y-116292380D01*
X60515476Y-116292380D02*
X60610714Y-116292380D01*
X60705952Y-116340000D01*
X60753571Y-116387619D01*
X60801190Y-116482857D01*
X60848809Y-116673333D01*
X60848809Y-116911428D01*
X60801190Y-117101904D01*
X60753571Y-117197142D01*
X60705952Y-117244761D01*
X60610714Y-117292380D01*
X60515476Y-117292380D01*
X60420238Y-117244761D01*
X60372619Y-117197142D01*
X60325000Y-117101904D01*
X60277380Y-116911428D01*
X60277380Y-116673333D01*
X60325000Y-116482857D01*
X60372619Y-116387619D01*
X60420238Y-116340000D01*
X60515476Y-116292380D01*
X125888809Y-99512380D02*
X125888809Y-98512380D01*
X126555476Y-98512380D02*
X126650714Y-98512380D01*
X126745952Y-98560000D01*
X126793571Y-98607619D01*
X126841190Y-98702857D01*
X126888809Y-98893333D01*
X126888809Y-99131428D01*
X126841190Y-99321904D01*
X126793571Y-99417142D01*
X126745952Y-99464761D01*
X126650714Y-99512380D01*
X126555476Y-99512380D01*
X126460238Y-99464761D01*
X126412619Y-99417142D01*
X126365000Y-99321904D01*
X126317380Y-99131428D01*
X126317380Y-98893333D01*
X126365000Y-98702857D01*
X126412619Y-98607619D01*
X126460238Y-98560000D01*
X126555476Y-98512380D01*
X92868809Y-99512380D02*
X92868809Y-98512380D01*
X93535476Y-98512380D02*
X93630714Y-98512380D01*
X93725952Y-98560000D01*
X93773571Y-98607619D01*
X93821190Y-98702857D01*
X93868809Y-98893333D01*
X93868809Y-99131428D01*
X93821190Y-99321904D01*
X93773571Y-99417142D01*
X93725952Y-99464761D01*
X93630714Y-99512380D01*
X93535476Y-99512380D01*
X93440238Y-99464761D01*
X93392619Y-99417142D01*
X93345000Y-99321904D01*
X93297380Y-99131428D01*
X93297380Y-98893333D01*
X93345000Y-98702857D01*
X93392619Y-98607619D01*
X93440238Y-98560000D01*
X93535476Y-98512380D01*
X59848809Y-99512380D02*
X59848809Y-98512380D01*
X60515476Y-98512380D02*
X60610714Y-98512380D01*
X60705952Y-98560000D01*
X60753571Y-98607619D01*
X60801190Y-98702857D01*
X60848809Y-98893333D01*
X60848809Y-99131428D01*
X60801190Y-99321904D01*
X60753571Y-99417142D01*
X60705952Y-99464761D01*
X60610714Y-99512380D01*
X60515476Y-99512380D01*
X60420238Y-99464761D01*
X60372619Y-99417142D01*
X60325000Y-99321904D01*
X60277380Y-99131428D01*
X60277380Y-98893333D01*
X60325000Y-98702857D01*
X60372619Y-98607619D01*
X60420238Y-98560000D01*
X60515476Y-98512380D01*
X125888809Y-81732380D02*
X125888809Y-80732380D01*
X126555476Y-80732380D02*
X126650714Y-80732380D01*
X126745952Y-80780000D01*
X126793571Y-80827619D01*
X126841190Y-80922857D01*
X126888809Y-81113333D01*
X126888809Y-81351428D01*
X126841190Y-81541904D01*
X126793571Y-81637142D01*
X126745952Y-81684761D01*
X126650714Y-81732380D01*
X126555476Y-81732380D01*
X126460238Y-81684761D01*
X126412619Y-81637142D01*
X126365000Y-81541904D01*
X126317380Y-81351428D01*
X126317380Y-81113333D01*
X126365000Y-80922857D01*
X126412619Y-80827619D01*
X126460238Y-80780000D01*
X126555476Y-80732380D01*
X92868809Y-81732380D02*
X92868809Y-80732380D01*
X93535476Y-80732380D02*
X93630714Y-80732380D01*
X93725952Y-80780000D01*
X93773571Y-80827619D01*
X93821190Y-80922857D01*
X93868809Y-81113333D01*
X93868809Y-81351428D01*
X93821190Y-81541904D01*
X93773571Y-81637142D01*
X93725952Y-81684761D01*
X93630714Y-81732380D01*
X93535476Y-81732380D01*
X93440238Y-81684761D01*
X93392619Y-81637142D01*
X93345000Y-81541904D01*
X93297380Y-81351428D01*
X93297380Y-81113333D01*
X93345000Y-80922857D01*
X93392619Y-80827619D01*
X93440238Y-80780000D01*
X93535476Y-80732380D01*
X59848809Y-81732380D02*
X59848809Y-80732380D01*
X60515476Y-80732380D02*
X60610714Y-80732380D01*
X60705952Y-80780000D01*
X60753571Y-80827619D01*
X60801190Y-80922857D01*
X60848809Y-81113333D01*
X60848809Y-81351428D01*
X60801190Y-81541904D01*
X60753571Y-81637142D01*
X60705952Y-81684761D01*
X60610714Y-81732380D01*
X60515476Y-81732380D01*
X60420238Y-81684761D01*
X60372619Y-81637142D01*
X60325000Y-81541904D01*
X60277380Y-81351428D01*
X60277380Y-81113333D01*
X60325000Y-80922857D01*
X60372619Y-80827619D01*
X60420238Y-80780000D01*
X60515476Y-80732380D01*
X125888809Y-63952380D02*
X125888809Y-62952380D01*
X126555476Y-62952380D02*
X126650714Y-62952380D01*
X126745952Y-63000000D01*
X126793571Y-63047619D01*
X126841190Y-63142857D01*
X126888809Y-63333333D01*
X126888809Y-63571428D01*
X126841190Y-63761904D01*
X126793571Y-63857142D01*
X126745952Y-63904761D01*
X126650714Y-63952380D01*
X126555476Y-63952380D01*
X126460238Y-63904761D01*
X126412619Y-63857142D01*
X126365000Y-63761904D01*
X126317380Y-63571428D01*
X126317380Y-63333333D01*
X126365000Y-63142857D01*
X126412619Y-63047619D01*
X126460238Y-63000000D01*
X126555476Y-62952380D01*
X92868809Y-63952380D02*
X92868809Y-62952380D01*
X93535476Y-62952380D02*
X93630714Y-62952380D01*
X93725952Y-63000000D01*
X93773571Y-63047619D01*
X93821190Y-63142857D01*
X93868809Y-63333333D01*
X93868809Y-63571428D01*
X93821190Y-63761904D01*
X93773571Y-63857142D01*
X93725952Y-63904761D01*
X93630714Y-63952380D01*
X93535476Y-63952380D01*
X93440238Y-63904761D01*
X93392619Y-63857142D01*
X93345000Y-63761904D01*
X93297380Y-63571428D01*
X93297380Y-63333333D01*
X93345000Y-63142857D01*
X93392619Y-63047619D01*
X93440238Y-63000000D01*
X93535476Y-62952380D01*
X59848809Y-63952380D02*
X59848809Y-62952380D01*
X60515476Y-62952380D02*
X60610714Y-62952380D01*
X60705952Y-63000000D01*
X60753571Y-63047619D01*
X60801190Y-63142857D01*
X60848809Y-63333333D01*
X60848809Y-63571428D01*
X60801190Y-63761904D01*
X60753571Y-63857142D01*
X60705952Y-63904761D01*
X60610714Y-63952380D01*
X60515476Y-63952380D01*
X60420238Y-63904761D01*
X60372619Y-63857142D01*
X60325000Y-63761904D01*
X60277380Y-63571428D01*
X60277380Y-63333333D01*
X60325000Y-63142857D01*
X60372619Y-63047619D01*
X60420238Y-63000000D01*
X60515476Y-62952380D01*
X125888809Y-46172380D02*
X125888809Y-45172380D01*
X126555476Y-45172380D02*
X126650714Y-45172380D01*
X126745952Y-45220000D01*
X126793571Y-45267619D01*
X126841190Y-45362857D01*
X126888809Y-45553333D01*
X126888809Y-45791428D01*
X126841190Y-45981904D01*
X126793571Y-46077142D01*
X126745952Y-46124761D01*
X126650714Y-46172380D01*
X126555476Y-46172380D01*
X126460238Y-46124761D01*
X126412619Y-46077142D01*
X126365000Y-45981904D01*
X126317380Y-45791428D01*
X126317380Y-45553333D01*
X126365000Y-45362857D01*
X126412619Y-45267619D01*
X126460238Y-45220000D01*
X126555476Y-45172380D01*
X92868809Y-46172380D02*
X92868809Y-45172380D01*
X93535476Y-45172380D02*
X93630714Y-45172380D01*
X93725952Y-45220000D01*
X93773571Y-45267619D01*
X93821190Y-45362857D01*
X93868809Y-45553333D01*
X93868809Y-45791428D01*
X93821190Y-45981904D01*
X93773571Y-46077142D01*
X93725952Y-46124761D01*
X93630714Y-46172380D01*
X93535476Y-46172380D01*
X93440238Y-46124761D01*
X93392619Y-46077142D01*
X93345000Y-45981904D01*
X93297380Y-45791428D01*
X93297380Y-45553333D01*
X93345000Y-45362857D01*
X93392619Y-45267619D01*
X93440238Y-45220000D01*
X93535476Y-45172380D01*
X143184523Y-119737142D02*
X143136904Y-119784761D01*
X142994047Y-119832380D01*
X142898809Y-119832380D01*
X142755952Y-119784761D01*
X142660714Y-119689523D01*
X142613095Y-119594285D01*
X142565476Y-119403809D01*
X142565476Y-119260952D01*
X142613095Y-119070476D01*
X142660714Y-118975238D01*
X142755952Y-118880000D01*
X142898809Y-118832380D01*
X142994047Y-118832380D01*
X143136904Y-118880000D01*
X143184523Y-118927619D01*
X110164523Y-119737142D02*
X110116904Y-119784761D01*
X109974047Y-119832380D01*
X109878809Y-119832380D01*
X109735952Y-119784761D01*
X109640714Y-119689523D01*
X109593095Y-119594285D01*
X109545476Y-119403809D01*
X109545476Y-119260952D01*
X109593095Y-119070476D01*
X109640714Y-118975238D01*
X109735952Y-118880000D01*
X109878809Y-118832380D01*
X109974047Y-118832380D01*
X110116904Y-118880000D01*
X110164523Y-118927619D01*
X77144523Y-119737142D02*
X77096904Y-119784761D01*
X76954047Y-119832380D01*
X76858809Y-119832380D01*
X76715952Y-119784761D01*
X76620714Y-119689523D01*
X76573095Y-119594285D01*
X76525476Y-119403809D01*
X76525476Y-119260952D01*
X76573095Y-119070476D01*
X76620714Y-118975238D01*
X76715952Y-118880000D01*
X76858809Y-118832380D01*
X76954047Y-118832380D01*
X77096904Y-118880000D01*
X77144523Y-118927619D01*
X143184523Y-101957142D02*
X143136904Y-102004761D01*
X142994047Y-102052380D01*
X142898809Y-102052380D01*
X142755952Y-102004761D01*
X142660714Y-101909523D01*
X142613095Y-101814285D01*
X142565476Y-101623809D01*
X142565476Y-101480952D01*
X142613095Y-101290476D01*
X142660714Y-101195238D01*
X142755952Y-101100000D01*
X142898809Y-101052380D01*
X142994047Y-101052380D01*
X143136904Y-101100000D01*
X143184523Y-101147619D01*
X110164523Y-101957142D02*
X110116904Y-102004761D01*
X109974047Y-102052380D01*
X109878809Y-102052380D01*
X109735952Y-102004761D01*
X109640714Y-101909523D01*
X109593095Y-101814285D01*
X109545476Y-101623809D01*
X109545476Y-101480952D01*
X109593095Y-101290476D01*
X109640714Y-101195238D01*
X109735952Y-101100000D01*
X109878809Y-101052380D01*
X109974047Y-101052380D01*
X110116904Y-101100000D01*
X110164523Y-101147619D01*
X77144523Y-101957142D02*
X77096904Y-102004761D01*
X76954047Y-102052380D01*
X76858809Y-102052380D01*
X76715952Y-102004761D01*
X76620714Y-101909523D01*
X76573095Y-101814285D01*
X76525476Y-101623809D01*
X76525476Y-101480952D01*
X76573095Y-101290476D01*
X76620714Y-101195238D01*
X76715952Y-101100000D01*
X76858809Y-101052380D01*
X76954047Y-101052380D01*
X77096904Y-101100000D01*
X77144523Y-101147619D01*
X143184523Y-84177142D02*
X143136904Y-84224761D01*
X142994047Y-84272380D01*
X142898809Y-84272380D01*
X142755952Y-84224761D01*
X142660714Y-84129523D01*
X142613095Y-84034285D01*
X142565476Y-83843809D01*
X142565476Y-83700952D01*
X142613095Y-83510476D01*
X142660714Y-83415238D01*
X142755952Y-83320000D01*
X142898809Y-83272380D01*
X142994047Y-83272380D01*
X143136904Y-83320000D01*
X143184523Y-83367619D01*
X110164523Y-84177142D02*
X110116904Y-84224761D01*
X109974047Y-84272380D01*
X109878809Y-84272380D01*
X109735952Y-84224761D01*
X109640714Y-84129523D01*
X109593095Y-84034285D01*
X109545476Y-83843809D01*
X109545476Y-83700952D01*
X109593095Y-83510476D01*
X109640714Y-83415238D01*
X109735952Y-83320000D01*
X109878809Y-83272380D01*
X109974047Y-83272380D01*
X110116904Y-83320000D01*
X110164523Y-83367619D01*
X77144523Y-84177142D02*
X77096904Y-84224761D01*
X76954047Y-84272380D01*
X76858809Y-84272380D01*
X76715952Y-84224761D01*
X76620714Y-84129523D01*
X76573095Y-84034285D01*
X76525476Y-83843809D01*
X76525476Y-83700952D01*
X76573095Y-83510476D01*
X76620714Y-83415238D01*
X76715952Y-83320000D01*
X76858809Y-83272380D01*
X76954047Y-83272380D01*
X77096904Y-83320000D01*
X77144523Y-83367619D01*
X143184523Y-66397142D02*
X143136904Y-66444761D01*
X142994047Y-66492380D01*
X142898809Y-66492380D01*
X142755952Y-66444761D01*
X142660714Y-66349523D01*
X142613095Y-66254285D01*
X142565476Y-66063809D01*
X142565476Y-65920952D01*
X142613095Y-65730476D01*
X142660714Y-65635238D01*
X142755952Y-65540000D01*
X142898809Y-65492380D01*
X142994047Y-65492380D01*
X143136904Y-65540000D01*
X143184523Y-65587619D01*
X110164523Y-66397142D02*
X110116904Y-66444761D01*
X109974047Y-66492380D01*
X109878809Y-66492380D01*
X109735952Y-66444761D01*
X109640714Y-66349523D01*
X109593095Y-66254285D01*
X109545476Y-66063809D01*
X109545476Y-65920952D01*
X109593095Y-65730476D01*
X109640714Y-65635238D01*
X109735952Y-65540000D01*
X109878809Y-65492380D01*
X109974047Y-65492380D01*
X110116904Y-65540000D01*
X110164523Y-65587619D01*
X77144523Y-66397142D02*
X77096904Y-66444761D01*
X76954047Y-66492380D01*
X76858809Y-66492380D01*
X76715952Y-66444761D01*
X76620714Y-66349523D01*
X76573095Y-66254285D01*
X76525476Y-66063809D01*
X76525476Y-65920952D01*
X76573095Y-65730476D01*
X76620714Y-65635238D01*
X76715952Y-65540000D01*
X76858809Y-65492380D01*
X76954047Y-65492380D01*
X77096904Y-65540000D01*
X77144523Y-65587619D01*
X143184523Y-48617142D02*
X143136904Y-48664761D01*
X142994047Y-48712380D01*
X142898809Y-48712380D01*
X142755952Y-48664761D01*
X142660714Y-48569523D01*
X142613095Y-48474285D01*
X142565476Y-48283809D01*
X142565476Y-48140952D01*
X142613095Y-47950476D01*
X142660714Y-47855238D01*
X142755952Y-47760000D01*
X142898809Y-47712380D01*
X142994047Y-47712380D01*
X143136904Y-47760000D01*
X143184523Y-47807619D01*
X110164523Y-48617142D02*
X110116904Y-48664761D01*
X109974047Y-48712380D01*
X109878809Y-48712380D01*
X109735952Y-48664761D01*
X109640714Y-48569523D01*
X109593095Y-48474285D01*
X109545476Y-48283809D01*
X109545476Y-48140952D01*
X109593095Y-47950476D01*
X109640714Y-47855238D01*
X109735952Y-47760000D01*
X109878809Y-47712380D01*
X109974047Y-47712380D01*
X110116904Y-47760000D01*
X110164523Y-47807619D01*
D11*
X140982142Y-123440000D02*
X141696428Y-123440000D01*
X140839285Y-123868571D02*
X141339285Y-122368571D01*
X141839285Y-123868571D01*
X142339285Y-123868571D02*
X142339285Y-122368571D01*
X143196428Y-123868571D01*
X143196428Y-122368571D01*
X143910714Y-123868571D02*
X143910714Y-122368571D01*
X144267857Y-122368571D01*
X144482142Y-122440000D01*
X144625000Y-122582857D01*
X144696428Y-122725714D01*
X144767857Y-123011428D01*
X144767857Y-123225714D01*
X144696428Y-123511428D01*
X144625000Y-123654285D01*
X144482142Y-123797142D01*
X144267857Y-123868571D01*
X143910714Y-123868571D01*
X107962142Y-123440000D02*
X108676428Y-123440000D01*
X107819285Y-123868571D02*
X108319285Y-122368571D01*
X108819285Y-123868571D01*
X109319285Y-123868571D02*
X109319285Y-122368571D01*
X110176428Y-123868571D01*
X110176428Y-122368571D01*
X110890714Y-123868571D02*
X110890714Y-122368571D01*
X111247857Y-122368571D01*
X111462142Y-122440000D01*
X111605000Y-122582857D01*
X111676428Y-122725714D01*
X111747857Y-123011428D01*
X111747857Y-123225714D01*
X111676428Y-123511428D01*
X111605000Y-123654285D01*
X111462142Y-123797142D01*
X111247857Y-123868571D01*
X110890714Y-123868571D01*
X74942142Y-123440000D02*
X75656428Y-123440000D01*
X74799285Y-123868571D02*
X75299285Y-122368571D01*
X75799285Y-123868571D01*
X76299285Y-123868571D02*
X76299285Y-122368571D01*
X77156428Y-123868571D01*
X77156428Y-122368571D01*
X77870714Y-123868571D02*
X77870714Y-122368571D01*
X78227857Y-122368571D01*
X78442142Y-122440000D01*
X78585000Y-122582857D01*
X78656428Y-122725714D01*
X78727857Y-123011428D01*
X78727857Y-123225714D01*
X78656428Y-123511428D01*
X78585000Y-123654285D01*
X78442142Y-123797142D01*
X78227857Y-123868571D01*
X77870714Y-123868571D01*
X140982142Y-105660000D02*
X141696428Y-105660000D01*
X140839285Y-106088571D02*
X141339285Y-104588571D01*
X141839285Y-106088571D01*
X142339285Y-106088571D02*
X142339285Y-104588571D01*
X143196428Y-106088571D01*
X143196428Y-104588571D01*
X143910714Y-106088571D02*
X143910714Y-104588571D01*
X144267857Y-104588571D01*
X144482142Y-104660000D01*
X144625000Y-104802857D01*
X144696428Y-104945714D01*
X144767857Y-105231428D01*
X144767857Y-105445714D01*
X144696428Y-105731428D01*
X144625000Y-105874285D01*
X144482142Y-106017142D01*
X144267857Y-106088571D01*
X143910714Y-106088571D01*
X107962142Y-105660000D02*
X108676428Y-105660000D01*
X107819285Y-106088571D02*
X108319285Y-104588571D01*
X108819285Y-106088571D01*
X109319285Y-106088571D02*
X109319285Y-104588571D01*
X110176428Y-106088571D01*
X110176428Y-104588571D01*
X110890714Y-106088571D02*
X110890714Y-104588571D01*
X111247857Y-104588571D01*
X111462142Y-104660000D01*
X111605000Y-104802857D01*
X111676428Y-104945714D01*
X111747857Y-105231428D01*
X111747857Y-105445714D01*
X111676428Y-105731428D01*
X111605000Y-105874285D01*
X111462142Y-106017142D01*
X111247857Y-106088571D01*
X110890714Y-106088571D01*
X74942142Y-105660000D02*
X75656428Y-105660000D01*
X74799285Y-106088571D02*
X75299285Y-104588571D01*
X75799285Y-106088571D01*
X76299285Y-106088571D02*
X76299285Y-104588571D01*
X77156428Y-106088571D01*
X77156428Y-104588571D01*
X77870714Y-106088571D02*
X77870714Y-104588571D01*
X78227857Y-104588571D01*
X78442142Y-104660000D01*
X78585000Y-104802857D01*
X78656428Y-104945714D01*
X78727857Y-105231428D01*
X78727857Y-105445714D01*
X78656428Y-105731428D01*
X78585000Y-105874285D01*
X78442142Y-106017142D01*
X78227857Y-106088571D01*
X77870714Y-106088571D01*
X140982142Y-87880000D02*
X141696428Y-87880000D01*
X140839285Y-88308571D02*
X141339285Y-86808571D01*
X141839285Y-88308571D01*
X142339285Y-88308571D02*
X142339285Y-86808571D01*
X143196428Y-88308571D01*
X143196428Y-86808571D01*
X143910714Y-88308571D02*
X143910714Y-86808571D01*
X144267857Y-86808571D01*
X144482142Y-86880000D01*
X144625000Y-87022857D01*
X144696428Y-87165714D01*
X144767857Y-87451428D01*
X144767857Y-87665714D01*
X144696428Y-87951428D01*
X144625000Y-88094285D01*
X144482142Y-88237142D01*
X144267857Y-88308571D01*
X143910714Y-88308571D01*
X107962142Y-87880000D02*
X108676428Y-87880000D01*
X107819285Y-88308571D02*
X108319285Y-86808571D01*
X108819285Y-88308571D01*
X109319285Y-88308571D02*
X109319285Y-86808571D01*
X110176428Y-88308571D01*
X110176428Y-86808571D01*
X110890714Y-88308571D02*
X110890714Y-86808571D01*
X111247857Y-86808571D01*
X111462142Y-86880000D01*
X111605000Y-87022857D01*
X111676428Y-87165714D01*
X111747857Y-87451428D01*
X111747857Y-87665714D01*
X111676428Y-87951428D01*
X111605000Y-88094285D01*
X111462142Y-88237142D01*
X111247857Y-88308571D01*
X110890714Y-88308571D01*
X74942142Y-87880000D02*
X75656428Y-87880000D01*
X74799285Y-88308571D02*
X75299285Y-86808571D01*
X75799285Y-88308571D01*
X76299285Y-88308571D02*
X76299285Y-86808571D01*
X77156428Y-88308571D01*
X77156428Y-86808571D01*
X77870714Y-88308571D02*
X77870714Y-86808571D01*
X78227857Y-86808571D01*
X78442142Y-86880000D01*
X78585000Y-87022857D01*
X78656428Y-87165714D01*
X78727857Y-87451428D01*
X78727857Y-87665714D01*
X78656428Y-87951428D01*
X78585000Y-88094285D01*
X78442142Y-88237142D01*
X78227857Y-88308571D01*
X77870714Y-88308571D01*
X140982142Y-70100000D02*
X141696428Y-70100000D01*
X140839285Y-70528571D02*
X141339285Y-69028571D01*
X141839285Y-70528571D01*
X142339285Y-70528571D02*
X142339285Y-69028571D01*
X143196428Y-70528571D01*
X143196428Y-69028571D01*
X143910714Y-70528571D02*
X143910714Y-69028571D01*
X144267857Y-69028571D01*
X144482142Y-69100000D01*
X144625000Y-69242857D01*
X144696428Y-69385714D01*
X144767857Y-69671428D01*
X144767857Y-69885714D01*
X144696428Y-70171428D01*
X144625000Y-70314285D01*
X144482142Y-70457142D01*
X144267857Y-70528571D01*
X143910714Y-70528571D01*
X107962142Y-70100000D02*
X108676428Y-70100000D01*
X107819285Y-70528571D02*
X108319285Y-69028571D01*
X108819285Y-70528571D01*
X109319285Y-70528571D02*
X109319285Y-69028571D01*
X110176428Y-70528571D01*
X110176428Y-69028571D01*
X110890714Y-70528571D02*
X110890714Y-69028571D01*
X111247857Y-69028571D01*
X111462142Y-69100000D01*
X111605000Y-69242857D01*
X111676428Y-69385714D01*
X111747857Y-69671428D01*
X111747857Y-69885714D01*
X111676428Y-70171428D01*
X111605000Y-70314285D01*
X111462142Y-70457142D01*
X111247857Y-70528571D01*
X110890714Y-70528571D01*
X74942142Y-70100000D02*
X75656428Y-70100000D01*
X74799285Y-70528571D02*
X75299285Y-69028571D01*
X75799285Y-70528571D01*
X76299285Y-70528571D02*
X76299285Y-69028571D01*
X77156428Y-70528571D01*
X77156428Y-69028571D01*
X77870714Y-70528571D02*
X77870714Y-69028571D01*
X78227857Y-69028571D01*
X78442142Y-69100000D01*
X78585000Y-69242857D01*
X78656428Y-69385714D01*
X78727857Y-69671428D01*
X78727857Y-69885714D01*
X78656428Y-70171428D01*
X78585000Y-70314285D01*
X78442142Y-70457142D01*
X78227857Y-70528571D01*
X77870714Y-70528571D01*
X140982142Y-52320000D02*
X141696428Y-52320000D01*
X140839285Y-52748571D02*
X141339285Y-51248571D01*
X141839285Y-52748571D01*
X142339285Y-52748571D02*
X142339285Y-51248571D01*
X143196428Y-52748571D01*
X143196428Y-51248571D01*
X143910714Y-52748571D02*
X143910714Y-51248571D01*
X144267857Y-51248571D01*
X144482142Y-51320000D01*
X144625000Y-51462857D01*
X144696428Y-51605714D01*
X144767857Y-51891428D01*
X144767857Y-52105714D01*
X144696428Y-52391428D01*
X144625000Y-52534285D01*
X144482142Y-52677142D01*
X144267857Y-52748571D01*
X143910714Y-52748571D01*
X107962142Y-52320000D02*
X108676428Y-52320000D01*
X107819285Y-52748571D02*
X108319285Y-51248571D01*
X108819285Y-52748571D01*
X109319285Y-52748571D02*
X109319285Y-51248571D01*
X110176428Y-52748571D01*
X110176428Y-51248571D01*
X110890714Y-52748571D02*
X110890714Y-51248571D01*
X111247857Y-51248571D01*
X111462142Y-51320000D01*
X111605000Y-51462857D01*
X111676428Y-51605714D01*
X111747857Y-51891428D01*
X111747857Y-52105714D01*
X111676428Y-52391428D01*
X111605000Y-52534285D01*
X111462142Y-52677142D01*
X111247857Y-52748571D01*
X110890714Y-52748571D01*
D10*
X125984047Y-124531428D02*
X126745952Y-124531428D01*
X92964047Y-124531428D02*
X93725952Y-124531428D01*
X59944047Y-124531428D02*
X60705952Y-124531428D01*
X125984047Y-106751428D02*
X126745952Y-106751428D01*
X92964047Y-106751428D02*
X93725952Y-106751428D01*
X59944047Y-106751428D02*
X60705952Y-106751428D01*
X125984047Y-88971428D02*
X126745952Y-88971428D01*
X92964047Y-88971428D02*
X93725952Y-88971428D01*
X59944047Y-88971428D02*
X60705952Y-88971428D01*
X125984047Y-71191428D02*
X126745952Y-71191428D01*
X92964047Y-71191428D02*
X93725952Y-71191428D01*
X59944047Y-71191428D02*
X60705952Y-71191428D01*
X125984047Y-53411428D02*
X126745952Y-53411428D01*
X92964047Y-53411428D02*
X93725952Y-53411428D01*
X127944523Y-119737142D02*
X127896904Y-119784761D01*
X127754047Y-119832380D01*
X127658809Y-119832380D01*
X127515952Y-119784761D01*
X127420714Y-119689523D01*
X127373095Y-119594285D01*
X127325476Y-119403809D01*
X127325476Y-119260952D01*
X127373095Y-119070476D01*
X127420714Y-118975238D01*
X127515952Y-118880000D01*
X127658809Y-118832380D01*
X127754047Y-118832380D01*
X127896904Y-118880000D01*
X127944523Y-118927619D01*
X94924523Y-119737142D02*
X94876904Y-119784761D01*
X94734047Y-119832380D01*
X94638809Y-119832380D01*
X94495952Y-119784761D01*
X94400714Y-119689523D01*
X94353095Y-119594285D01*
X94305476Y-119403809D01*
X94305476Y-119260952D01*
X94353095Y-119070476D01*
X94400714Y-118975238D01*
X94495952Y-118880000D01*
X94638809Y-118832380D01*
X94734047Y-118832380D01*
X94876904Y-118880000D01*
X94924523Y-118927619D01*
X61904523Y-119737142D02*
X61856904Y-119784761D01*
X61714047Y-119832380D01*
X61618809Y-119832380D01*
X61475952Y-119784761D01*
X61380714Y-119689523D01*
X61333095Y-119594285D01*
X61285476Y-119403809D01*
X61285476Y-119260952D01*
X61333095Y-119070476D01*
X61380714Y-118975238D01*
X61475952Y-118880000D01*
X61618809Y-118832380D01*
X61714047Y-118832380D01*
X61856904Y-118880000D01*
X61904523Y-118927619D01*
X127944523Y-101957142D02*
X127896904Y-102004761D01*
X127754047Y-102052380D01*
X127658809Y-102052380D01*
X127515952Y-102004761D01*
X127420714Y-101909523D01*
X127373095Y-101814285D01*
X127325476Y-101623809D01*
X127325476Y-101480952D01*
X127373095Y-101290476D01*
X127420714Y-101195238D01*
X127515952Y-101100000D01*
X127658809Y-101052380D01*
X127754047Y-101052380D01*
X127896904Y-101100000D01*
X127944523Y-101147619D01*
X94924523Y-101957142D02*
X94876904Y-102004761D01*
X94734047Y-102052380D01*
X94638809Y-102052380D01*
X94495952Y-102004761D01*
X94400714Y-101909523D01*
X94353095Y-101814285D01*
X94305476Y-101623809D01*
X94305476Y-101480952D01*
X94353095Y-101290476D01*
X94400714Y-101195238D01*
X94495952Y-101100000D01*
X94638809Y-101052380D01*
X94734047Y-101052380D01*
X94876904Y-101100000D01*
X94924523Y-101147619D01*
X61904523Y-101957142D02*
X61856904Y-102004761D01*
X61714047Y-102052380D01*
X61618809Y-102052380D01*
X61475952Y-102004761D01*
X61380714Y-101909523D01*
X61333095Y-101814285D01*
X61285476Y-101623809D01*
X61285476Y-101480952D01*
X61333095Y-101290476D01*
X61380714Y-101195238D01*
X61475952Y-101100000D01*
X61618809Y-101052380D01*
X61714047Y-101052380D01*
X61856904Y-101100000D01*
X61904523Y-101147619D01*
X127944523Y-84177142D02*
X127896904Y-84224761D01*
X127754047Y-84272380D01*
X127658809Y-84272380D01*
X127515952Y-84224761D01*
X127420714Y-84129523D01*
X127373095Y-84034285D01*
X127325476Y-83843809D01*
X127325476Y-83700952D01*
X127373095Y-83510476D01*
X127420714Y-83415238D01*
X127515952Y-83320000D01*
X127658809Y-83272380D01*
X127754047Y-83272380D01*
X127896904Y-83320000D01*
X127944523Y-83367619D01*
X94924523Y-84177142D02*
X94876904Y-84224761D01*
X94734047Y-84272380D01*
X94638809Y-84272380D01*
X94495952Y-84224761D01*
X94400714Y-84129523D01*
X94353095Y-84034285D01*
X94305476Y-83843809D01*
X94305476Y-83700952D01*
X94353095Y-83510476D01*
X94400714Y-83415238D01*
X94495952Y-83320000D01*
X94638809Y-83272380D01*
X94734047Y-83272380D01*
X94876904Y-83320000D01*
X94924523Y-83367619D01*
X61904523Y-84177142D02*
X61856904Y-84224761D01*
X61714047Y-84272380D01*
X61618809Y-84272380D01*
X61475952Y-84224761D01*
X61380714Y-84129523D01*
X61333095Y-84034285D01*
X61285476Y-83843809D01*
X61285476Y-83700952D01*
X61333095Y-83510476D01*
X61380714Y-83415238D01*
X61475952Y-83320000D01*
X61618809Y-83272380D01*
X61714047Y-83272380D01*
X61856904Y-83320000D01*
X61904523Y-83367619D01*
X127944523Y-66397142D02*
X127896904Y-66444761D01*
X127754047Y-66492380D01*
X127658809Y-66492380D01*
X127515952Y-66444761D01*
X127420714Y-66349523D01*
X127373095Y-66254285D01*
X127325476Y-66063809D01*
X127325476Y-65920952D01*
X127373095Y-65730476D01*
X127420714Y-65635238D01*
X127515952Y-65540000D01*
X127658809Y-65492380D01*
X127754047Y-65492380D01*
X127896904Y-65540000D01*
X127944523Y-65587619D01*
X94924523Y-66397142D02*
X94876904Y-66444761D01*
X94734047Y-66492380D01*
X94638809Y-66492380D01*
X94495952Y-66444761D01*
X94400714Y-66349523D01*
X94353095Y-66254285D01*
X94305476Y-66063809D01*
X94305476Y-65920952D01*
X94353095Y-65730476D01*
X94400714Y-65635238D01*
X94495952Y-65540000D01*
X94638809Y-65492380D01*
X94734047Y-65492380D01*
X94876904Y-65540000D01*
X94924523Y-65587619D01*
X61904523Y-66397142D02*
X61856904Y-66444761D01*
X61714047Y-66492380D01*
X61618809Y-66492380D01*
X61475952Y-66444761D01*
X61380714Y-66349523D01*
X61333095Y-66254285D01*
X61285476Y-66063809D01*
X61285476Y-65920952D01*
X61333095Y-65730476D01*
X61380714Y-65635238D01*
X61475952Y-65540000D01*
X61618809Y-65492380D01*
X61714047Y-65492380D01*
X61856904Y-65540000D01*
X61904523Y-65587619D01*
X127944523Y-48617142D02*
X127896904Y-48664761D01*
X127754047Y-48712380D01*
X127658809Y-48712380D01*
X127515952Y-48664761D01*
X127420714Y-48569523D01*
X127373095Y-48474285D01*
X127325476Y-48283809D01*
X127325476Y-48140952D01*
X127373095Y-47950476D01*
X127420714Y-47855238D01*
X127515952Y-47760000D01*
X127658809Y-47712380D01*
X127754047Y-47712380D01*
X127896904Y-47760000D01*
X127944523Y-47807619D01*
X94924523Y-48617142D02*
X94876904Y-48664761D01*
X94734047Y-48712380D01*
X94638809Y-48712380D01*
X94495952Y-48664761D01*
X94400714Y-48569523D01*
X94353095Y-48474285D01*
X94305476Y-48283809D01*
X94305476Y-48140952D01*
X94353095Y-47950476D01*
X94400714Y-47855238D01*
X94495952Y-47760000D01*
X94638809Y-47712380D01*
X94734047Y-47712380D01*
X94876904Y-47760000D01*
X94924523Y-47807619D01*
X141875000Y-116292380D02*
X142065476Y-116292380D01*
X142160714Y-116340000D01*
X142255952Y-116435238D01*
X142303571Y-116625714D01*
X142303571Y-116959047D01*
X142255952Y-117149523D01*
X142160714Y-117244761D01*
X142065476Y-117292380D01*
X141875000Y-117292380D01*
X141779761Y-117244761D01*
X141684523Y-117149523D01*
X141636904Y-116959047D01*
X141636904Y-116625714D01*
X141684523Y-116435238D01*
X141779761Y-116340000D01*
X141875000Y-116292380D01*
X142732142Y-116292380D02*
X142732142Y-117101904D01*
X142779761Y-117197142D01*
X142827380Y-117244761D01*
X142922619Y-117292380D01*
X143113095Y-117292380D01*
X143208333Y-117244761D01*
X143255952Y-117197142D01*
X143303571Y-117101904D01*
X143303571Y-116292380D01*
X143636904Y-116292380D02*
X144208333Y-116292380D01*
X143922619Y-117292380D02*
X143922619Y-116292380D01*
X108855000Y-116292380D02*
X109045476Y-116292380D01*
X109140714Y-116340000D01*
X109235952Y-116435238D01*
X109283571Y-116625714D01*
X109283571Y-116959047D01*
X109235952Y-117149523D01*
X109140714Y-117244761D01*
X109045476Y-117292380D01*
X108855000Y-117292380D01*
X108759761Y-117244761D01*
X108664523Y-117149523D01*
X108616904Y-116959047D01*
X108616904Y-116625714D01*
X108664523Y-116435238D01*
X108759761Y-116340000D01*
X108855000Y-116292380D01*
X109712142Y-116292380D02*
X109712142Y-117101904D01*
X109759761Y-117197142D01*
X109807380Y-117244761D01*
X109902619Y-117292380D01*
X110093095Y-117292380D01*
X110188333Y-117244761D01*
X110235952Y-117197142D01*
X110283571Y-117101904D01*
X110283571Y-116292380D01*
X110616904Y-116292380D02*
X111188333Y-116292380D01*
X110902619Y-117292380D02*
X110902619Y-116292380D01*
X75835000Y-116292380D02*
X76025476Y-116292380D01*
X76120714Y-116340000D01*
X76215952Y-116435238D01*
X76263571Y-116625714D01*
X76263571Y-116959047D01*
X76215952Y-117149523D01*
X76120714Y-117244761D01*
X76025476Y-117292380D01*
X75835000Y-117292380D01*
X75739761Y-117244761D01*
X75644523Y-117149523D01*
X75596904Y-116959047D01*
X75596904Y-116625714D01*
X75644523Y-116435238D01*
X75739761Y-116340000D01*
X75835000Y-116292380D01*
X76692142Y-116292380D02*
X76692142Y-117101904D01*
X76739761Y-117197142D01*
X76787380Y-117244761D01*
X76882619Y-117292380D01*
X77073095Y-117292380D01*
X77168333Y-117244761D01*
X77215952Y-117197142D01*
X77263571Y-117101904D01*
X77263571Y-116292380D01*
X77596904Y-116292380D02*
X78168333Y-116292380D01*
X77882619Y-117292380D02*
X77882619Y-116292380D01*
X141875000Y-98512380D02*
X142065476Y-98512380D01*
X142160714Y-98560000D01*
X142255952Y-98655238D01*
X142303571Y-98845714D01*
X142303571Y-99179047D01*
X142255952Y-99369523D01*
X142160714Y-99464761D01*
X142065476Y-99512380D01*
X141875000Y-99512380D01*
X141779761Y-99464761D01*
X141684523Y-99369523D01*
X141636904Y-99179047D01*
X141636904Y-98845714D01*
X141684523Y-98655238D01*
X141779761Y-98560000D01*
X141875000Y-98512380D01*
X142732142Y-98512380D02*
X142732142Y-99321904D01*
X142779761Y-99417142D01*
X142827380Y-99464761D01*
X142922619Y-99512380D01*
X143113095Y-99512380D01*
X143208333Y-99464761D01*
X143255952Y-99417142D01*
X143303571Y-99321904D01*
X143303571Y-98512380D01*
X143636904Y-98512380D02*
X144208333Y-98512380D01*
X143922619Y-99512380D02*
X143922619Y-98512380D01*
X108855000Y-98512380D02*
X109045476Y-98512380D01*
X109140714Y-98560000D01*
X109235952Y-98655238D01*
X109283571Y-98845714D01*
X109283571Y-99179047D01*
X109235952Y-99369523D01*
X109140714Y-99464761D01*
X109045476Y-99512380D01*
X108855000Y-99512380D01*
X108759761Y-99464761D01*
X108664523Y-99369523D01*
X108616904Y-99179047D01*
X108616904Y-98845714D01*
X108664523Y-98655238D01*
X108759761Y-98560000D01*
X108855000Y-98512380D01*
X109712142Y-98512380D02*
X109712142Y-99321904D01*
X109759761Y-99417142D01*
X109807380Y-99464761D01*
X109902619Y-99512380D01*
X110093095Y-99512380D01*
X110188333Y-99464761D01*
X110235952Y-99417142D01*
X110283571Y-99321904D01*
X110283571Y-98512380D01*
X110616904Y-98512380D02*
X111188333Y-98512380D01*
X110902619Y-99512380D02*
X110902619Y-98512380D01*
X75835000Y-98512380D02*
X76025476Y-98512380D01*
X76120714Y-98560000D01*
X76215952Y-98655238D01*
X76263571Y-98845714D01*
X76263571Y-99179047D01*
X76215952Y-99369523D01*
X76120714Y-99464761D01*
X76025476Y-99512380D01*
X75835000Y-99512380D01*
X75739761Y-99464761D01*
X75644523Y-99369523D01*
X75596904Y-99179047D01*
X75596904Y-98845714D01*
X75644523Y-98655238D01*
X75739761Y-98560000D01*
X75835000Y-98512380D01*
X76692142Y-98512380D02*
X76692142Y-99321904D01*
X76739761Y-99417142D01*
X76787380Y-99464761D01*
X76882619Y-99512380D01*
X77073095Y-99512380D01*
X77168333Y-99464761D01*
X77215952Y-99417142D01*
X77263571Y-99321904D01*
X77263571Y-98512380D01*
X77596904Y-98512380D02*
X78168333Y-98512380D01*
X77882619Y-99512380D02*
X77882619Y-98512380D01*
X141875000Y-80732380D02*
X142065476Y-80732380D01*
X142160714Y-80780000D01*
X142255952Y-80875238D01*
X142303571Y-81065714D01*
X142303571Y-81399047D01*
X142255952Y-81589523D01*
X142160714Y-81684761D01*
X142065476Y-81732380D01*
X141875000Y-81732380D01*
X141779761Y-81684761D01*
X141684523Y-81589523D01*
X141636904Y-81399047D01*
X141636904Y-81065714D01*
X141684523Y-80875238D01*
X141779761Y-80780000D01*
X141875000Y-80732380D01*
X142732142Y-80732380D02*
X142732142Y-81541904D01*
X142779761Y-81637142D01*
X142827380Y-81684761D01*
X142922619Y-81732380D01*
X143113095Y-81732380D01*
X143208333Y-81684761D01*
X143255952Y-81637142D01*
X143303571Y-81541904D01*
X143303571Y-80732380D01*
X143636904Y-80732380D02*
X144208333Y-80732380D01*
X143922619Y-81732380D02*
X143922619Y-80732380D01*
X108855000Y-80732380D02*
X109045476Y-80732380D01*
X109140714Y-80780000D01*
X109235952Y-80875238D01*
X109283571Y-81065714D01*
X109283571Y-81399047D01*
X109235952Y-81589523D01*
X109140714Y-81684761D01*
X109045476Y-81732380D01*
X108855000Y-81732380D01*
X108759761Y-81684761D01*
X108664523Y-81589523D01*
X108616904Y-81399047D01*
X108616904Y-81065714D01*
X108664523Y-80875238D01*
X108759761Y-80780000D01*
X108855000Y-80732380D01*
X109712142Y-80732380D02*
X109712142Y-81541904D01*
X109759761Y-81637142D01*
X109807380Y-81684761D01*
X109902619Y-81732380D01*
X110093095Y-81732380D01*
X110188333Y-81684761D01*
X110235952Y-81637142D01*
X110283571Y-81541904D01*
X110283571Y-80732380D01*
X110616904Y-80732380D02*
X111188333Y-80732380D01*
X110902619Y-81732380D02*
X110902619Y-80732380D01*
X75835000Y-80732380D02*
X76025476Y-80732380D01*
X76120714Y-80780000D01*
X76215952Y-80875238D01*
X76263571Y-81065714D01*
X76263571Y-81399047D01*
X76215952Y-81589523D01*
X76120714Y-81684761D01*
X76025476Y-81732380D01*
X75835000Y-81732380D01*
X75739761Y-81684761D01*
X75644523Y-81589523D01*
X75596904Y-81399047D01*
X75596904Y-81065714D01*
X75644523Y-80875238D01*
X75739761Y-80780000D01*
X75835000Y-80732380D01*
X76692142Y-80732380D02*
X76692142Y-81541904D01*
X76739761Y-81637142D01*
X76787380Y-81684761D01*
X76882619Y-81732380D01*
X77073095Y-81732380D01*
X77168333Y-81684761D01*
X77215952Y-81637142D01*
X77263571Y-81541904D01*
X77263571Y-80732380D01*
X77596904Y-80732380D02*
X78168333Y-80732380D01*
X77882619Y-81732380D02*
X77882619Y-80732380D01*
X141875000Y-62952380D02*
X142065476Y-62952380D01*
X142160714Y-63000000D01*
X142255952Y-63095238D01*
X142303571Y-63285714D01*
X142303571Y-63619047D01*
X142255952Y-63809523D01*
X142160714Y-63904761D01*
X142065476Y-63952380D01*
X141875000Y-63952380D01*
X141779761Y-63904761D01*
X141684523Y-63809523D01*
X141636904Y-63619047D01*
X141636904Y-63285714D01*
X141684523Y-63095238D01*
X141779761Y-63000000D01*
X141875000Y-62952380D01*
X142732142Y-62952380D02*
X142732142Y-63761904D01*
X142779761Y-63857142D01*
X142827380Y-63904761D01*
X142922619Y-63952380D01*
X143113095Y-63952380D01*
X143208333Y-63904761D01*
X143255952Y-63857142D01*
X143303571Y-63761904D01*
X143303571Y-62952380D01*
X143636904Y-62952380D02*
X144208333Y-62952380D01*
X143922619Y-63952380D02*
X143922619Y-62952380D01*
X108855000Y-62952380D02*
X109045476Y-62952380D01*
X109140714Y-63000000D01*
X109235952Y-63095238D01*
X109283571Y-63285714D01*
X109283571Y-63619047D01*
X109235952Y-63809523D01*
X109140714Y-63904761D01*
X109045476Y-63952380D01*
X108855000Y-63952380D01*
X108759761Y-63904761D01*
X108664523Y-63809523D01*
X108616904Y-63619047D01*
X108616904Y-63285714D01*
X108664523Y-63095238D01*
X108759761Y-63000000D01*
X108855000Y-62952380D01*
X109712142Y-62952380D02*
X109712142Y-63761904D01*
X109759761Y-63857142D01*
X109807380Y-63904761D01*
X109902619Y-63952380D01*
X110093095Y-63952380D01*
X110188333Y-63904761D01*
X110235952Y-63857142D01*
X110283571Y-63761904D01*
X110283571Y-62952380D01*
X110616904Y-62952380D02*
X111188333Y-62952380D01*
X110902619Y-63952380D02*
X110902619Y-62952380D01*
X75835000Y-62952380D02*
X76025476Y-62952380D01*
X76120714Y-63000000D01*
X76215952Y-63095238D01*
X76263571Y-63285714D01*
X76263571Y-63619047D01*
X76215952Y-63809523D01*
X76120714Y-63904761D01*
X76025476Y-63952380D01*
X75835000Y-63952380D01*
X75739761Y-63904761D01*
X75644523Y-63809523D01*
X75596904Y-63619047D01*
X75596904Y-63285714D01*
X75644523Y-63095238D01*
X75739761Y-63000000D01*
X75835000Y-62952380D01*
X76692142Y-62952380D02*
X76692142Y-63761904D01*
X76739761Y-63857142D01*
X76787380Y-63904761D01*
X76882619Y-63952380D01*
X77073095Y-63952380D01*
X77168333Y-63904761D01*
X77215952Y-63857142D01*
X77263571Y-63761904D01*
X77263571Y-62952380D01*
X77596904Y-62952380D02*
X78168333Y-62952380D01*
X77882619Y-63952380D02*
X77882619Y-62952380D01*
X141875000Y-45172380D02*
X142065476Y-45172380D01*
X142160714Y-45220000D01*
X142255952Y-45315238D01*
X142303571Y-45505714D01*
X142303571Y-45839047D01*
X142255952Y-46029523D01*
X142160714Y-46124761D01*
X142065476Y-46172380D01*
X141875000Y-46172380D01*
X141779761Y-46124761D01*
X141684523Y-46029523D01*
X141636904Y-45839047D01*
X141636904Y-45505714D01*
X141684523Y-45315238D01*
X141779761Y-45220000D01*
X141875000Y-45172380D01*
X142732142Y-45172380D02*
X142732142Y-45981904D01*
X142779761Y-46077142D01*
X142827380Y-46124761D01*
X142922619Y-46172380D01*
X143113095Y-46172380D01*
X143208333Y-46124761D01*
X143255952Y-46077142D01*
X143303571Y-45981904D01*
X143303571Y-45172380D01*
X143636904Y-45172380D02*
X144208333Y-45172380D01*
X143922619Y-46172380D02*
X143922619Y-45172380D01*
X108855000Y-45172380D02*
X109045476Y-45172380D01*
X109140714Y-45220000D01*
X109235952Y-45315238D01*
X109283571Y-45505714D01*
X109283571Y-45839047D01*
X109235952Y-46029523D01*
X109140714Y-46124761D01*
X109045476Y-46172380D01*
X108855000Y-46172380D01*
X108759761Y-46124761D01*
X108664523Y-46029523D01*
X108616904Y-45839047D01*
X108616904Y-45505714D01*
X108664523Y-45315238D01*
X108759761Y-45220000D01*
X108855000Y-45172380D01*
X109712142Y-45172380D02*
X109712142Y-45981904D01*
X109759761Y-46077142D01*
X109807380Y-46124761D01*
X109902619Y-46172380D01*
X110093095Y-46172380D01*
X110188333Y-46124761D01*
X110235952Y-46077142D01*
X110283571Y-45981904D01*
X110283571Y-45172380D01*
X110616904Y-45172380D02*
X111188333Y-45172380D01*
X110902619Y-46172380D02*
X110902619Y-45172380D01*
X128428809Y-117292380D02*
X128428809Y-116292380D01*
X129428809Y-117292380D02*
X128857380Y-117292380D01*
X129143095Y-117292380D02*
X129143095Y-116292380D01*
X129047857Y-116435238D01*
X128952619Y-116530476D01*
X128857380Y-116578095D01*
X95408809Y-117292380D02*
X95408809Y-116292380D01*
X96408809Y-117292380D02*
X95837380Y-117292380D01*
X96123095Y-117292380D02*
X96123095Y-116292380D01*
X96027857Y-116435238D01*
X95932619Y-116530476D01*
X95837380Y-116578095D01*
X62388809Y-117292380D02*
X62388809Y-116292380D01*
X63388809Y-117292380D02*
X62817380Y-117292380D01*
X63103095Y-117292380D02*
X63103095Y-116292380D01*
X63007857Y-116435238D01*
X62912619Y-116530476D01*
X62817380Y-116578095D01*
X128428809Y-99512380D02*
X128428809Y-98512380D01*
X129428809Y-99512380D02*
X128857380Y-99512380D01*
X129143095Y-99512380D02*
X129143095Y-98512380D01*
X129047857Y-98655238D01*
X128952619Y-98750476D01*
X128857380Y-98798095D01*
X95408809Y-99512380D02*
X95408809Y-98512380D01*
X96408809Y-99512380D02*
X95837380Y-99512380D01*
X96123095Y-99512380D02*
X96123095Y-98512380D01*
X96027857Y-98655238D01*
X95932619Y-98750476D01*
X95837380Y-98798095D01*
X62388809Y-99512380D02*
X62388809Y-98512380D01*
X63388809Y-99512380D02*
X62817380Y-99512380D01*
X63103095Y-99512380D02*
X63103095Y-98512380D01*
X63007857Y-98655238D01*
X62912619Y-98750476D01*
X62817380Y-98798095D01*
X128428809Y-81732380D02*
X128428809Y-80732380D01*
X129428809Y-81732380D02*
X128857380Y-81732380D01*
X129143095Y-81732380D02*
X129143095Y-80732380D01*
X129047857Y-80875238D01*
X128952619Y-80970476D01*
X128857380Y-81018095D01*
X95408809Y-81732380D02*
X95408809Y-80732380D01*
X96408809Y-81732380D02*
X95837380Y-81732380D01*
X96123095Y-81732380D02*
X96123095Y-80732380D01*
X96027857Y-80875238D01*
X95932619Y-80970476D01*
X95837380Y-81018095D01*
X62388809Y-81732380D02*
X62388809Y-80732380D01*
X63388809Y-81732380D02*
X62817380Y-81732380D01*
X63103095Y-81732380D02*
X63103095Y-80732380D01*
X63007857Y-80875238D01*
X62912619Y-80970476D01*
X62817380Y-81018095D01*
X128428809Y-63952380D02*
X128428809Y-62952380D01*
X129428809Y-63952380D02*
X128857380Y-63952380D01*
X129143095Y-63952380D02*
X129143095Y-62952380D01*
X129047857Y-63095238D01*
X128952619Y-63190476D01*
X128857380Y-63238095D01*
X95408809Y-63952380D02*
X95408809Y-62952380D01*
X96408809Y-63952380D02*
X95837380Y-63952380D01*
X96123095Y-63952380D02*
X96123095Y-62952380D01*
X96027857Y-63095238D01*
X95932619Y-63190476D01*
X95837380Y-63238095D01*
X62388809Y-63952380D02*
X62388809Y-62952380D01*
X63388809Y-63952380D02*
X62817380Y-63952380D01*
X63103095Y-63952380D02*
X63103095Y-62952380D01*
X63007857Y-63095238D01*
X62912619Y-63190476D01*
X62817380Y-63238095D01*
X128428809Y-46172380D02*
X128428809Y-45172380D01*
X129428809Y-46172380D02*
X128857380Y-46172380D01*
X129143095Y-46172380D02*
X129143095Y-45172380D01*
X129047857Y-45315238D01*
X128952619Y-45410476D01*
X128857380Y-45458095D01*
X95408809Y-46172380D02*
X95408809Y-45172380D01*
X96408809Y-46172380D02*
X95837380Y-46172380D01*
X96123095Y-46172380D02*
X96123095Y-45172380D01*
X96027857Y-45315238D01*
X95932619Y-45410476D01*
X95837380Y-45458095D01*
X125984047Y-127071428D02*
X126745952Y-127071428D01*
X126365000Y-127452380D02*
X126365000Y-126690476D01*
X92964047Y-127071428D02*
X93725952Y-127071428D01*
X93345000Y-127452380D02*
X93345000Y-126690476D01*
X59944047Y-127071428D02*
X60705952Y-127071428D01*
X60325000Y-127452380D02*
X60325000Y-126690476D01*
X125984047Y-109291428D02*
X126745952Y-109291428D01*
X126365000Y-109672380D02*
X126365000Y-108910476D01*
X92964047Y-109291428D02*
X93725952Y-109291428D01*
X93345000Y-109672380D02*
X93345000Y-108910476D01*
X59944047Y-109291428D02*
X60705952Y-109291428D01*
X60325000Y-109672380D02*
X60325000Y-108910476D01*
X125984047Y-91511428D02*
X126745952Y-91511428D01*
X126365000Y-91892380D02*
X126365000Y-91130476D01*
X92964047Y-91511428D02*
X93725952Y-91511428D01*
X93345000Y-91892380D02*
X93345000Y-91130476D01*
X59944047Y-91511428D02*
X60705952Y-91511428D01*
X60325000Y-91892380D02*
X60325000Y-91130476D01*
X125984047Y-73731428D02*
X126745952Y-73731428D01*
X126365000Y-74112380D02*
X126365000Y-73350476D01*
X92964047Y-73731428D02*
X93725952Y-73731428D01*
X93345000Y-74112380D02*
X93345000Y-73350476D01*
X59944047Y-73731428D02*
X60705952Y-73731428D01*
X60325000Y-74112380D02*
X60325000Y-73350476D01*
X125984047Y-55951428D02*
X126745952Y-55951428D01*
X126365000Y-56332380D02*
X126365000Y-55570476D01*
X92964047Y-55951428D02*
X93725952Y-55951428D01*
X93345000Y-56332380D02*
X93345000Y-55570476D01*
D12*
X140740142Y-124714857D02*
X140930619Y-124714857D01*
X140811571Y-124548190D02*
X140811571Y-124976761D01*
X140835380Y-125024380D01*
X140883000Y-125048190D01*
X140930619Y-125048190D01*
X141097285Y-125048190D02*
X141097285Y-124548190D01*
X141311571Y-125048190D02*
X141311571Y-124786285D01*
X141287761Y-124738666D01*
X141240142Y-124714857D01*
X141168714Y-124714857D01*
X141121095Y-124738666D01*
X141097285Y-124762476D01*
X141740142Y-125024380D02*
X141692523Y-125048190D01*
X141597285Y-125048190D01*
X141549666Y-125024380D01*
X141525857Y-124976761D01*
X141525857Y-124786285D01*
X141549666Y-124738666D01*
X141597285Y-124714857D01*
X141692523Y-124714857D01*
X141740142Y-124738666D01*
X141763952Y-124786285D01*
X141763952Y-124833904D01*
X141525857Y-124881523D01*
X142335380Y-125024380D02*
X142383000Y-125048190D01*
X142478238Y-125048190D01*
X142525857Y-125024380D01*
X142549666Y-124976761D01*
X142549666Y-124952952D01*
X142525857Y-124905333D01*
X142478238Y-124881523D01*
X142406809Y-124881523D01*
X142359190Y-124857714D01*
X142335380Y-124810095D01*
X142335380Y-124786285D01*
X142359190Y-124738666D01*
X142406809Y-124714857D01*
X142478238Y-124714857D01*
X142525857Y-124738666D01*
X142763952Y-124714857D02*
X142763952Y-125214857D01*
X142763952Y-124738666D02*
X142811571Y-124714857D01*
X142906809Y-124714857D01*
X142954428Y-124738666D01*
X142978238Y-124762476D01*
X143002047Y-124810095D01*
X143002047Y-124952952D01*
X142978238Y-125000571D01*
X142954428Y-125024380D01*
X142906809Y-125048190D01*
X142811571Y-125048190D01*
X142763952Y-125024380D01*
X143430619Y-125048190D02*
X143430619Y-124786285D01*
X143406809Y-124738666D01*
X143359190Y-124714857D01*
X143263952Y-124714857D01*
X143216333Y-124738666D01*
X143430619Y-125024380D02*
X143383000Y-125048190D01*
X143263952Y-125048190D01*
X143216333Y-125024380D01*
X143192523Y-124976761D01*
X143192523Y-124929142D01*
X143216333Y-124881523D01*
X143263952Y-124857714D01*
X143383000Y-124857714D01*
X143430619Y-124833904D01*
X143883000Y-124714857D02*
X143883000Y-125119619D01*
X143859190Y-125167238D01*
X143835380Y-125191047D01*
X143787761Y-125214857D01*
X143716333Y-125214857D01*
X143668714Y-125191047D01*
X143883000Y-125024380D02*
X143835380Y-125048190D01*
X143740142Y-125048190D01*
X143692523Y-125024380D01*
X143668714Y-125000571D01*
X143644904Y-124952952D01*
X143644904Y-124810095D01*
X143668714Y-124762476D01*
X143692523Y-124738666D01*
X143740142Y-124714857D01*
X143835380Y-124714857D01*
X143883000Y-124738666D01*
X144121095Y-125048190D02*
X144121095Y-124548190D01*
X144335380Y-125048190D02*
X144335380Y-124786285D01*
X144311571Y-124738666D01*
X144263952Y-124714857D01*
X144192523Y-124714857D01*
X144144904Y-124738666D01*
X144121095Y-124762476D01*
X144763952Y-125024380D02*
X144716333Y-125048190D01*
X144621095Y-125048190D01*
X144573476Y-125024380D01*
X144549666Y-124976761D01*
X144549666Y-124786285D01*
X144573476Y-124738666D01*
X144621095Y-124714857D01*
X144716333Y-124714857D01*
X144763952Y-124738666D01*
X144787761Y-124786285D01*
X144787761Y-124833904D01*
X144549666Y-124881523D01*
X144930619Y-124714857D02*
X145121095Y-124714857D01*
X145002047Y-124548190D02*
X145002047Y-124976761D01*
X145025857Y-125024380D01*
X145073476Y-125048190D01*
X145121095Y-125048190D01*
X145216333Y-124714857D02*
X145406809Y-124714857D01*
X145287761Y-124548190D02*
X145287761Y-124976761D01*
X145311571Y-125024380D01*
X145359190Y-125048190D01*
X145406809Y-125048190D01*
X145573476Y-125048190D02*
X145573476Y-124714857D01*
X145573476Y-124548190D02*
X145549666Y-124572000D01*
X145573476Y-124595809D01*
X145597285Y-124572000D01*
X145573476Y-124548190D01*
X145573476Y-124595809D01*
X142013952Y-125848190D02*
X142013952Y-125514857D01*
X142013952Y-125562476D02*
X142037761Y-125538666D01*
X142085380Y-125514857D01*
X142156809Y-125514857D01*
X142204428Y-125538666D01*
X142228238Y-125586285D01*
X142228238Y-125848190D01*
X142228238Y-125586285D02*
X142252047Y-125538666D01*
X142299666Y-125514857D01*
X142371095Y-125514857D01*
X142418714Y-125538666D01*
X142442523Y-125586285D01*
X142442523Y-125848190D01*
X142894904Y-125848190D02*
X142894904Y-125586285D01*
X142871095Y-125538666D01*
X142823476Y-125514857D01*
X142728238Y-125514857D01*
X142680619Y-125538666D01*
X142894904Y-125824380D02*
X142847285Y-125848190D01*
X142728238Y-125848190D01*
X142680619Y-125824380D01*
X142656809Y-125776761D01*
X142656809Y-125729142D01*
X142680619Y-125681523D01*
X142728238Y-125657714D01*
X142847285Y-125657714D01*
X142894904Y-125633904D01*
X143347285Y-125848190D02*
X143347285Y-125348190D01*
X143347285Y-125824380D02*
X143299666Y-125848190D01*
X143204428Y-125848190D01*
X143156809Y-125824380D01*
X143133000Y-125800571D01*
X143109190Y-125752952D01*
X143109190Y-125610095D01*
X143133000Y-125562476D01*
X143156809Y-125538666D01*
X143204428Y-125514857D01*
X143299666Y-125514857D01*
X143347285Y-125538666D01*
X143775857Y-125824380D02*
X143728238Y-125848190D01*
X143633000Y-125848190D01*
X143585380Y-125824380D01*
X143561571Y-125776761D01*
X143561571Y-125586285D01*
X143585380Y-125538666D01*
X143633000Y-125514857D01*
X143728238Y-125514857D01*
X143775857Y-125538666D01*
X143799666Y-125586285D01*
X143799666Y-125633904D01*
X143561571Y-125681523D01*
X144466333Y-125848190D02*
X144418714Y-125824380D01*
X144394904Y-125800571D01*
X144371095Y-125752952D01*
X144371095Y-125610095D01*
X144394904Y-125562476D01*
X144418714Y-125538666D01*
X144466333Y-125514857D01*
X144537761Y-125514857D01*
X144585380Y-125538666D01*
X144609190Y-125562476D01*
X144633000Y-125610095D01*
X144633000Y-125752952D01*
X144609190Y-125800571D01*
X144585380Y-125824380D01*
X144537761Y-125848190D01*
X144466333Y-125848190D01*
X144775857Y-125514857D02*
X144966333Y-125514857D01*
X144847285Y-125848190D02*
X144847285Y-125419619D01*
X144871095Y-125372000D01*
X144918714Y-125348190D01*
X144966333Y-125348190D01*
X145728238Y-125824380D02*
X145680619Y-125848190D01*
X145585380Y-125848190D01*
X145537761Y-125824380D01*
X145513952Y-125800571D01*
X145490142Y-125752952D01*
X145490142Y-125610095D01*
X145513952Y-125562476D01*
X145537761Y-125538666D01*
X145585380Y-125514857D01*
X145680619Y-125514857D01*
X145728238Y-125538666D01*
X146013952Y-125848190D02*
X145966333Y-125824380D01*
X145942523Y-125800571D01*
X145918714Y-125752952D01*
X145918714Y-125610095D01*
X145942523Y-125562476D01*
X145966333Y-125538666D01*
X146013952Y-125514857D01*
X146085380Y-125514857D01*
X146133000Y-125538666D01*
X146156809Y-125562476D01*
X146180619Y-125610095D01*
X146180619Y-125752952D01*
X146156809Y-125800571D01*
X146133000Y-125824380D01*
X146085380Y-125848190D01*
X146013952Y-125848190D01*
X146609190Y-125848190D02*
X146609190Y-125348190D01*
X146609190Y-125824380D02*
X146561571Y-125848190D01*
X146466333Y-125848190D01*
X146418714Y-125824380D01*
X146394904Y-125800571D01*
X146371095Y-125752952D01*
X146371095Y-125610095D01*
X146394904Y-125562476D01*
X146418714Y-125538666D01*
X146466333Y-125514857D01*
X146561571Y-125514857D01*
X146609190Y-125538666D01*
X147037761Y-125824380D02*
X146990142Y-125848190D01*
X146894904Y-125848190D01*
X146847285Y-125824380D01*
X146823476Y-125776761D01*
X146823476Y-125586285D01*
X146847285Y-125538666D01*
X146894904Y-125514857D01*
X146990142Y-125514857D01*
X147037761Y-125538666D01*
X147061571Y-125586285D01*
X147061571Y-125633904D01*
X146823476Y-125681523D01*
X107720142Y-124714857D02*
X107910619Y-124714857D01*
X107791571Y-124548190D02*
X107791571Y-124976761D01*
X107815380Y-125024380D01*
X107863000Y-125048190D01*
X107910619Y-125048190D01*
X108077285Y-125048190D02*
X108077285Y-124548190D01*
X108291571Y-125048190D02*
X108291571Y-124786285D01*
X108267761Y-124738666D01*
X108220142Y-124714857D01*
X108148714Y-124714857D01*
X108101095Y-124738666D01*
X108077285Y-124762476D01*
X108720142Y-125024380D02*
X108672523Y-125048190D01*
X108577285Y-125048190D01*
X108529666Y-125024380D01*
X108505857Y-124976761D01*
X108505857Y-124786285D01*
X108529666Y-124738666D01*
X108577285Y-124714857D01*
X108672523Y-124714857D01*
X108720142Y-124738666D01*
X108743952Y-124786285D01*
X108743952Y-124833904D01*
X108505857Y-124881523D01*
X109315380Y-125024380D02*
X109363000Y-125048190D01*
X109458238Y-125048190D01*
X109505857Y-125024380D01*
X109529666Y-124976761D01*
X109529666Y-124952952D01*
X109505857Y-124905333D01*
X109458238Y-124881523D01*
X109386809Y-124881523D01*
X109339190Y-124857714D01*
X109315380Y-124810095D01*
X109315380Y-124786285D01*
X109339190Y-124738666D01*
X109386809Y-124714857D01*
X109458238Y-124714857D01*
X109505857Y-124738666D01*
X109743952Y-124714857D02*
X109743952Y-125214857D01*
X109743952Y-124738666D02*
X109791571Y-124714857D01*
X109886809Y-124714857D01*
X109934428Y-124738666D01*
X109958238Y-124762476D01*
X109982047Y-124810095D01*
X109982047Y-124952952D01*
X109958238Y-125000571D01*
X109934428Y-125024380D01*
X109886809Y-125048190D01*
X109791571Y-125048190D01*
X109743952Y-125024380D01*
X110410619Y-125048190D02*
X110410619Y-124786285D01*
X110386809Y-124738666D01*
X110339190Y-124714857D01*
X110243952Y-124714857D01*
X110196333Y-124738666D01*
X110410619Y-125024380D02*
X110363000Y-125048190D01*
X110243952Y-125048190D01*
X110196333Y-125024380D01*
X110172523Y-124976761D01*
X110172523Y-124929142D01*
X110196333Y-124881523D01*
X110243952Y-124857714D01*
X110363000Y-124857714D01*
X110410619Y-124833904D01*
X110863000Y-124714857D02*
X110863000Y-125119619D01*
X110839190Y-125167238D01*
X110815380Y-125191047D01*
X110767761Y-125214857D01*
X110696333Y-125214857D01*
X110648714Y-125191047D01*
X110863000Y-125024380D02*
X110815380Y-125048190D01*
X110720142Y-125048190D01*
X110672523Y-125024380D01*
X110648714Y-125000571D01*
X110624904Y-124952952D01*
X110624904Y-124810095D01*
X110648714Y-124762476D01*
X110672523Y-124738666D01*
X110720142Y-124714857D01*
X110815380Y-124714857D01*
X110863000Y-124738666D01*
X111101095Y-125048190D02*
X111101095Y-124548190D01*
X111315380Y-125048190D02*
X111315380Y-124786285D01*
X111291571Y-124738666D01*
X111243952Y-124714857D01*
X111172523Y-124714857D01*
X111124904Y-124738666D01*
X111101095Y-124762476D01*
X111743952Y-125024380D02*
X111696333Y-125048190D01*
X111601095Y-125048190D01*
X111553476Y-125024380D01*
X111529666Y-124976761D01*
X111529666Y-124786285D01*
X111553476Y-124738666D01*
X111601095Y-124714857D01*
X111696333Y-124714857D01*
X111743952Y-124738666D01*
X111767761Y-124786285D01*
X111767761Y-124833904D01*
X111529666Y-124881523D01*
X111910619Y-124714857D02*
X112101095Y-124714857D01*
X111982047Y-124548190D02*
X111982047Y-124976761D01*
X112005857Y-125024380D01*
X112053476Y-125048190D01*
X112101095Y-125048190D01*
X112196333Y-124714857D02*
X112386809Y-124714857D01*
X112267761Y-124548190D02*
X112267761Y-124976761D01*
X112291571Y-125024380D01*
X112339190Y-125048190D01*
X112386809Y-125048190D01*
X112553476Y-125048190D02*
X112553476Y-124714857D01*
X112553476Y-124548190D02*
X112529666Y-124572000D01*
X112553476Y-124595809D01*
X112577285Y-124572000D01*
X112553476Y-124548190D01*
X112553476Y-124595809D01*
X108993952Y-125848190D02*
X108993952Y-125514857D01*
X108993952Y-125562476D02*
X109017761Y-125538666D01*
X109065380Y-125514857D01*
X109136809Y-125514857D01*
X109184428Y-125538666D01*
X109208238Y-125586285D01*
X109208238Y-125848190D01*
X109208238Y-125586285D02*
X109232047Y-125538666D01*
X109279666Y-125514857D01*
X109351095Y-125514857D01*
X109398714Y-125538666D01*
X109422523Y-125586285D01*
X109422523Y-125848190D01*
X109874904Y-125848190D02*
X109874904Y-125586285D01*
X109851095Y-125538666D01*
X109803476Y-125514857D01*
X109708238Y-125514857D01*
X109660619Y-125538666D01*
X109874904Y-125824380D02*
X109827285Y-125848190D01*
X109708238Y-125848190D01*
X109660619Y-125824380D01*
X109636809Y-125776761D01*
X109636809Y-125729142D01*
X109660619Y-125681523D01*
X109708238Y-125657714D01*
X109827285Y-125657714D01*
X109874904Y-125633904D01*
X110327285Y-125848190D02*
X110327285Y-125348190D01*
X110327285Y-125824380D02*
X110279666Y-125848190D01*
X110184428Y-125848190D01*
X110136809Y-125824380D01*
X110113000Y-125800571D01*
X110089190Y-125752952D01*
X110089190Y-125610095D01*
X110113000Y-125562476D01*
X110136809Y-125538666D01*
X110184428Y-125514857D01*
X110279666Y-125514857D01*
X110327285Y-125538666D01*
X110755857Y-125824380D02*
X110708238Y-125848190D01*
X110613000Y-125848190D01*
X110565380Y-125824380D01*
X110541571Y-125776761D01*
X110541571Y-125586285D01*
X110565380Y-125538666D01*
X110613000Y-125514857D01*
X110708238Y-125514857D01*
X110755857Y-125538666D01*
X110779666Y-125586285D01*
X110779666Y-125633904D01*
X110541571Y-125681523D01*
X111446333Y-125848190D02*
X111398714Y-125824380D01*
X111374904Y-125800571D01*
X111351095Y-125752952D01*
X111351095Y-125610095D01*
X111374904Y-125562476D01*
X111398714Y-125538666D01*
X111446333Y-125514857D01*
X111517761Y-125514857D01*
X111565380Y-125538666D01*
X111589190Y-125562476D01*
X111613000Y-125610095D01*
X111613000Y-125752952D01*
X111589190Y-125800571D01*
X111565380Y-125824380D01*
X111517761Y-125848190D01*
X111446333Y-125848190D01*
X111755857Y-125514857D02*
X111946333Y-125514857D01*
X111827285Y-125848190D02*
X111827285Y-125419619D01*
X111851095Y-125372000D01*
X111898714Y-125348190D01*
X111946333Y-125348190D01*
X112708238Y-125824380D02*
X112660619Y-125848190D01*
X112565380Y-125848190D01*
X112517761Y-125824380D01*
X112493952Y-125800571D01*
X112470142Y-125752952D01*
X112470142Y-125610095D01*
X112493952Y-125562476D01*
X112517761Y-125538666D01*
X112565380Y-125514857D01*
X112660619Y-125514857D01*
X112708238Y-125538666D01*
X112993952Y-125848190D02*
X112946333Y-125824380D01*
X112922523Y-125800571D01*
X112898714Y-125752952D01*
X112898714Y-125610095D01*
X112922523Y-125562476D01*
X112946333Y-125538666D01*
X112993952Y-125514857D01*
X113065380Y-125514857D01*
X113113000Y-125538666D01*
X113136809Y-125562476D01*
X113160619Y-125610095D01*
X113160619Y-125752952D01*
X113136809Y-125800571D01*
X113113000Y-125824380D01*
X113065380Y-125848190D01*
X112993952Y-125848190D01*
X113589190Y-125848190D02*
X113589190Y-125348190D01*
X113589190Y-125824380D02*
X113541571Y-125848190D01*
X113446333Y-125848190D01*
X113398714Y-125824380D01*
X113374904Y-125800571D01*
X113351095Y-125752952D01*
X113351095Y-125610095D01*
X113374904Y-125562476D01*
X113398714Y-125538666D01*
X113446333Y-125514857D01*
X113541571Y-125514857D01*
X113589190Y-125538666D01*
X114017761Y-125824380D02*
X113970142Y-125848190D01*
X113874904Y-125848190D01*
X113827285Y-125824380D01*
X113803476Y-125776761D01*
X113803476Y-125586285D01*
X113827285Y-125538666D01*
X113874904Y-125514857D01*
X113970142Y-125514857D01*
X114017761Y-125538666D01*
X114041571Y-125586285D01*
X114041571Y-125633904D01*
X113803476Y-125681523D01*
X74700142Y-124714857D02*
X74890619Y-124714857D01*
X74771571Y-124548190D02*
X74771571Y-124976761D01*
X74795380Y-125024380D01*
X74843000Y-125048190D01*
X74890619Y-125048190D01*
X75057285Y-125048190D02*
X75057285Y-124548190D01*
X75271571Y-125048190D02*
X75271571Y-124786285D01*
X75247761Y-124738666D01*
X75200142Y-124714857D01*
X75128714Y-124714857D01*
X75081095Y-124738666D01*
X75057285Y-124762476D01*
X75700142Y-125024380D02*
X75652523Y-125048190D01*
X75557285Y-125048190D01*
X75509666Y-125024380D01*
X75485857Y-124976761D01*
X75485857Y-124786285D01*
X75509666Y-124738666D01*
X75557285Y-124714857D01*
X75652523Y-124714857D01*
X75700142Y-124738666D01*
X75723952Y-124786285D01*
X75723952Y-124833904D01*
X75485857Y-124881523D01*
X76295380Y-125024380D02*
X76343000Y-125048190D01*
X76438238Y-125048190D01*
X76485857Y-125024380D01*
X76509666Y-124976761D01*
X76509666Y-124952952D01*
X76485857Y-124905333D01*
X76438238Y-124881523D01*
X76366809Y-124881523D01*
X76319190Y-124857714D01*
X76295380Y-124810095D01*
X76295380Y-124786285D01*
X76319190Y-124738666D01*
X76366809Y-124714857D01*
X76438238Y-124714857D01*
X76485857Y-124738666D01*
X76723952Y-124714857D02*
X76723952Y-125214857D01*
X76723952Y-124738666D02*
X76771571Y-124714857D01*
X76866809Y-124714857D01*
X76914428Y-124738666D01*
X76938238Y-124762476D01*
X76962047Y-124810095D01*
X76962047Y-124952952D01*
X76938238Y-125000571D01*
X76914428Y-125024380D01*
X76866809Y-125048190D01*
X76771571Y-125048190D01*
X76723952Y-125024380D01*
X77390619Y-125048190D02*
X77390619Y-124786285D01*
X77366809Y-124738666D01*
X77319190Y-124714857D01*
X77223952Y-124714857D01*
X77176333Y-124738666D01*
X77390619Y-125024380D02*
X77343000Y-125048190D01*
X77223952Y-125048190D01*
X77176333Y-125024380D01*
X77152523Y-124976761D01*
X77152523Y-124929142D01*
X77176333Y-124881523D01*
X77223952Y-124857714D01*
X77343000Y-124857714D01*
X77390619Y-124833904D01*
X77843000Y-124714857D02*
X77843000Y-125119619D01*
X77819190Y-125167238D01*
X77795380Y-125191047D01*
X77747761Y-125214857D01*
X77676333Y-125214857D01*
X77628714Y-125191047D01*
X77843000Y-125024380D02*
X77795380Y-125048190D01*
X77700142Y-125048190D01*
X77652523Y-125024380D01*
X77628714Y-125000571D01*
X77604904Y-124952952D01*
X77604904Y-124810095D01*
X77628714Y-124762476D01*
X77652523Y-124738666D01*
X77700142Y-124714857D01*
X77795380Y-124714857D01*
X77843000Y-124738666D01*
X78081095Y-125048190D02*
X78081095Y-124548190D01*
X78295380Y-125048190D02*
X78295380Y-124786285D01*
X78271571Y-124738666D01*
X78223952Y-124714857D01*
X78152523Y-124714857D01*
X78104904Y-124738666D01*
X78081095Y-124762476D01*
X78723952Y-125024380D02*
X78676333Y-125048190D01*
X78581095Y-125048190D01*
X78533476Y-125024380D01*
X78509666Y-124976761D01*
X78509666Y-124786285D01*
X78533476Y-124738666D01*
X78581095Y-124714857D01*
X78676333Y-124714857D01*
X78723952Y-124738666D01*
X78747761Y-124786285D01*
X78747761Y-124833904D01*
X78509666Y-124881523D01*
X78890619Y-124714857D02*
X79081095Y-124714857D01*
X78962047Y-124548190D02*
X78962047Y-124976761D01*
X78985857Y-125024380D01*
X79033476Y-125048190D01*
X79081095Y-125048190D01*
X79176333Y-124714857D02*
X79366809Y-124714857D01*
X79247761Y-124548190D02*
X79247761Y-124976761D01*
X79271571Y-125024380D01*
X79319190Y-125048190D01*
X79366809Y-125048190D01*
X79533476Y-125048190D02*
X79533476Y-124714857D01*
X79533476Y-124548190D02*
X79509666Y-124572000D01*
X79533476Y-124595809D01*
X79557285Y-124572000D01*
X79533476Y-124548190D01*
X79533476Y-124595809D01*
X75973952Y-125848190D02*
X75973952Y-125514857D01*
X75973952Y-125562476D02*
X75997761Y-125538666D01*
X76045380Y-125514857D01*
X76116809Y-125514857D01*
X76164428Y-125538666D01*
X76188238Y-125586285D01*
X76188238Y-125848190D01*
X76188238Y-125586285D02*
X76212047Y-125538666D01*
X76259666Y-125514857D01*
X76331095Y-125514857D01*
X76378714Y-125538666D01*
X76402523Y-125586285D01*
X76402523Y-125848190D01*
X76854904Y-125848190D02*
X76854904Y-125586285D01*
X76831095Y-125538666D01*
X76783476Y-125514857D01*
X76688238Y-125514857D01*
X76640619Y-125538666D01*
X76854904Y-125824380D02*
X76807285Y-125848190D01*
X76688238Y-125848190D01*
X76640619Y-125824380D01*
X76616809Y-125776761D01*
X76616809Y-125729142D01*
X76640619Y-125681523D01*
X76688238Y-125657714D01*
X76807285Y-125657714D01*
X76854904Y-125633904D01*
X77307285Y-125848190D02*
X77307285Y-125348190D01*
X77307285Y-125824380D02*
X77259666Y-125848190D01*
X77164428Y-125848190D01*
X77116809Y-125824380D01*
X77093000Y-125800571D01*
X77069190Y-125752952D01*
X77069190Y-125610095D01*
X77093000Y-125562476D01*
X77116809Y-125538666D01*
X77164428Y-125514857D01*
X77259666Y-125514857D01*
X77307285Y-125538666D01*
X77735857Y-125824380D02*
X77688238Y-125848190D01*
X77593000Y-125848190D01*
X77545380Y-125824380D01*
X77521571Y-125776761D01*
X77521571Y-125586285D01*
X77545380Y-125538666D01*
X77593000Y-125514857D01*
X77688238Y-125514857D01*
X77735857Y-125538666D01*
X77759666Y-125586285D01*
X77759666Y-125633904D01*
X77521571Y-125681523D01*
X78426333Y-125848190D02*
X78378714Y-125824380D01*
X78354904Y-125800571D01*
X78331095Y-125752952D01*
X78331095Y-125610095D01*
X78354904Y-125562476D01*
X78378714Y-125538666D01*
X78426333Y-125514857D01*
X78497761Y-125514857D01*
X78545380Y-125538666D01*
X78569190Y-125562476D01*
X78593000Y-125610095D01*
X78593000Y-125752952D01*
X78569190Y-125800571D01*
X78545380Y-125824380D01*
X78497761Y-125848190D01*
X78426333Y-125848190D01*
X78735857Y-125514857D02*
X78926333Y-125514857D01*
X78807285Y-125848190D02*
X78807285Y-125419619D01*
X78831095Y-125372000D01*
X78878714Y-125348190D01*
X78926333Y-125348190D01*
X79688238Y-125824380D02*
X79640619Y-125848190D01*
X79545380Y-125848190D01*
X79497761Y-125824380D01*
X79473952Y-125800571D01*
X79450142Y-125752952D01*
X79450142Y-125610095D01*
X79473952Y-125562476D01*
X79497761Y-125538666D01*
X79545380Y-125514857D01*
X79640619Y-125514857D01*
X79688238Y-125538666D01*
X79973952Y-125848190D02*
X79926333Y-125824380D01*
X79902523Y-125800571D01*
X79878714Y-125752952D01*
X79878714Y-125610095D01*
X79902523Y-125562476D01*
X79926333Y-125538666D01*
X79973952Y-125514857D01*
X80045380Y-125514857D01*
X80093000Y-125538666D01*
X80116809Y-125562476D01*
X80140619Y-125610095D01*
X80140619Y-125752952D01*
X80116809Y-125800571D01*
X80093000Y-125824380D01*
X80045380Y-125848190D01*
X79973952Y-125848190D01*
X80569190Y-125848190D02*
X80569190Y-125348190D01*
X80569190Y-125824380D02*
X80521571Y-125848190D01*
X80426333Y-125848190D01*
X80378714Y-125824380D01*
X80354904Y-125800571D01*
X80331095Y-125752952D01*
X80331095Y-125610095D01*
X80354904Y-125562476D01*
X80378714Y-125538666D01*
X80426333Y-125514857D01*
X80521571Y-125514857D01*
X80569190Y-125538666D01*
X80997761Y-125824380D02*
X80950142Y-125848190D01*
X80854904Y-125848190D01*
X80807285Y-125824380D01*
X80783476Y-125776761D01*
X80783476Y-125586285D01*
X80807285Y-125538666D01*
X80854904Y-125514857D01*
X80950142Y-125514857D01*
X80997761Y-125538666D01*
X81021571Y-125586285D01*
X81021571Y-125633904D01*
X80783476Y-125681523D01*
X140740142Y-106934857D02*
X140930619Y-106934857D01*
X140811571Y-106768190D02*
X140811571Y-107196761D01*
X140835380Y-107244380D01*
X140883000Y-107268190D01*
X140930619Y-107268190D01*
X141097285Y-107268190D02*
X141097285Y-106768190D01*
X141311571Y-107268190D02*
X141311571Y-107006285D01*
X141287761Y-106958666D01*
X141240142Y-106934857D01*
X141168714Y-106934857D01*
X141121095Y-106958666D01*
X141097285Y-106982476D01*
X141740142Y-107244380D02*
X141692523Y-107268190D01*
X141597285Y-107268190D01*
X141549666Y-107244380D01*
X141525857Y-107196761D01*
X141525857Y-107006285D01*
X141549666Y-106958666D01*
X141597285Y-106934857D01*
X141692523Y-106934857D01*
X141740142Y-106958666D01*
X141763952Y-107006285D01*
X141763952Y-107053904D01*
X141525857Y-107101523D01*
X142335380Y-107244380D02*
X142383000Y-107268190D01*
X142478238Y-107268190D01*
X142525857Y-107244380D01*
X142549666Y-107196761D01*
X142549666Y-107172952D01*
X142525857Y-107125333D01*
X142478238Y-107101523D01*
X142406809Y-107101523D01*
X142359190Y-107077714D01*
X142335380Y-107030095D01*
X142335380Y-107006285D01*
X142359190Y-106958666D01*
X142406809Y-106934857D01*
X142478238Y-106934857D01*
X142525857Y-106958666D01*
X142763952Y-106934857D02*
X142763952Y-107434857D01*
X142763952Y-106958666D02*
X142811571Y-106934857D01*
X142906809Y-106934857D01*
X142954428Y-106958666D01*
X142978238Y-106982476D01*
X143002047Y-107030095D01*
X143002047Y-107172952D01*
X142978238Y-107220571D01*
X142954428Y-107244380D01*
X142906809Y-107268190D01*
X142811571Y-107268190D01*
X142763952Y-107244380D01*
X143430619Y-107268190D02*
X143430619Y-107006285D01*
X143406809Y-106958666D01*
X143359190Y-106934857D01*
X143263952Y-106934857D01*
X143216333Y-106958666D01*
X143430619Y-107244380D02*
X143383000Y-107268190D01*
X143263952Y-107268190D01*
X143216333Y-107244380D01*
X143192523Y-107196761D01*
X143192523Y-107149142D01*
X143216333Y-107101523D01*
X143263952Y-107077714D01*
X143383000Y-107077714D01*
X143430619Y-107053904D01*
X143883000Y-106934857D02*
X143883000Y-107339619D01*
X143859190Y-107387238D01*
X143835380Y-107411047D01*
X143787761Y-107434857D01*
X143716333Y-107434857D01*
X143668714Y-107411047D01*
X143883000Y-107244380D02*
X143835380Y-107268190D01*
X143740142Y-107268190D01*
X143692523Y-107244380D01*
X143668714Y-107220571D01*
X143644904Y-107172952D01*
X143644904Y-107030095D01*
X143668714Y-106982476D01*
X143692523Y-106958666D01*
X143740142Y-106934857D01*
X143835380Y-106934857D01*
X143883000Y-106958666D01*
X144121095Y-107268190D02*
X144121095Y-106768190D01*
X144335380Y-107268190D02*
X144335380Y-107006285D01*
X144311571Y-106958666D01*
X144263952Y-106934857D01*
X144192523Y-106934857D01*
X144144904Y-106958666D01*
X144121095Y-106982476D01*
X144763952Y-107244380D02*
X144716333Y-107268190D01*
X144621095Y-107268190D01*
X144573476Y-107244380D01*
X144549666Y-107196761D01*
X144549666Y-107006285D01*
X144573476Y-106958666D01*
X144621095Y-106934857D01*
X144716333Y-106934857D01*
X144763952Y-106958666D01*
X144787761Y-107006285D01*
X144787761Y-107053904D01*
X144549666Y-107101523D01*
X144930619Y-106934857D02*
X145121095Y-106934857D01*
X145002047Y-106768190D02*
X145002047Y-107196761D01*
X145025857Y-107244380D01*
X145073476Y-107268190D01*
X145121095Y-107268190D01*
X145216333Y-106934857D02*
X145406809Y-106934857D01*
X145287761Y-106768190D02*
X145287761Y-107196761D01*
X145311571Y-107244380D01*
X145359190Y-107268190D01*
X145406809Y-107268190D01*
X145573476Y-107268190D02*
X145573476Y-106934857D01*
X145573476Y-106768190D02*
X145549666Y-106792000D01*
X145573476Y-106815809D01*
X145597285Y-106792000D01*
X145573476Y-106768190D01*
X145573476Y-106815809D01*
X142013952Y-108068190D02*
X142013952Y-107734857D01*
X142013952Y-107782476D02*
X142037761Y-107758666D01*
X142085380Y-107734857D01*
X142156809Y-107734857D01*
X142204428Y-107758666D01*
X142228238Y-107806285D01*
X142228238Y-108068190D01*
X142228238Y-107806285D02*
X142252047Y-107758666D01*
X142299666Y-107734857D01*
X142371095Y-107734857D01*
X142418714Y-107758666D01*
X142442523Y-107806285D01*
X142442523Y-108068190D01*
X142894904Y-108068190D02*
X142894904Y-107806285D01*
X142871095Y-107758666D01*
X142823476Y-107734857D01*
X142728238Y-107734857D01*
X142680619Y-107758666D01*
X142894904Y-108044380D02*
X142847285Y-108068190D01*
X142728238Y-108068190D01*
X142680619Y-108044380D01*
X142656809Y-107996761D01*
X142656809Y-107949142D01*
X142680619Y-107901523D01*
X142728238Y-107877714D01*
X142847285Y-107877714D01*
X142894904Y-107853904D01*
X143347285Y-108068190D02*
X143347285Y-107568190D01*
X143347285Y-108044380D02*
X143299666Y-108068190D01*
X143204428Y-108068190D01*
X143156809Y-108044380D01*
X143133000Y-108020571D01*
X143109190Y-107972952D01*
X143109190Y-107830095D01*
X143133000Y-107782476D01*
X143156809Y-107758666D01*
X143204428Y-107734857D01*
X143299666Y-107734857D01*
X143347285Y-107758666D01*
X143775857Y-108044380D02*
X143728238Y-108068190D01*
X143633000Y-108068190D01*
X143585380Y-108044380D01*
X143561571Y-107996761D01*
X143561571Y-107806285D01*
X143585380Y-107758666D01*
X143633000Y-107734857D01*
X143728238Y-107734857D01*
X143775857Y-107758666D01*
X143799666Y-107806285D01*
X143799666Y-107853904D01*
X143561571Y-107901523D01*
X144466333Y-108068190D02*
X144418714Y-108044380D01*
X144394904Y-108020571D01*
X144371095Y-107972952D01*
X144371095Y-107830095D01*
X144394904Y-107782476D01*
X144418714Y-107758666D01*
X144466333Y-107734857D01*
X144537761Y-107734857D01*
X144585380Y-107758666D01*
X144609190Y-107782476D01*
X144633000Y-107830095D01*
X144633000Y-107972952D01*
X144609190Y-108020571D01*
X144585380Y-108044380D01*
X144537761Y-108068190D01*
X144466333Y-108068190D01*
X144775857Y-107734857D02*
X144966333Y-107734857D01*
X144847285Y-108068190D02*
X144847285Y-107639619D01*
X144871095Y-107592000D01*
X144918714Y-107568190D01*
X144966333Y-107568190D01*
X145728238Y-108044380D02*
X145680619Y-108068190D01*
X145585380Y-108068190D01*
X145537761Y-108044380D01*
X145513952Y-108020571D01*
X145490142Y-107972952D01*
X145490142Y-107830095D01*
X145513952Y-107782476D01*
X145537761Y-107758666D01*
X145585380Y-107734857D01*
X145680619Y-107734857D01*
X145728238Y-107758666D01*
X146013952Y-108068190D02*
X145966333Y-108044380D01*
X145942523Y-108020571D01*
X145918714Y-107972952D01*
X145918714Y-107830095D01*
X145942523Y-107782476D01*
X145966333Y-107758666D01*
X146013952Y-107734857D01*
X146085380Y-107734857D01*
X146133000Y-107758666D01*
X146156809Y-107782476D01*
X146180619Y-107830095D01*
X146180619Y-107972952D01*
X146156809Y-108020571D01*
X146133000Y-108044380D01*
X146085380Y-108068190D01*
X146013952Y-108068190D01*
X146609190Y-108068190D02*
X146609190Y-107568190D01*
X146609190Y-108044380D02*
X146561571Y-108068190D01*
X146466333Y-108068190D01*
X146418714Y-108044380D01*
X146394904Y-108020571D01*
X146371095Y-107972952D01*
X146371095Y-107830095D01*
X146394904Y-107782476D01*
X146418714Y-107758666D01*
X146466333Y-107734857D01*
X146561571Y-107734857D01*
X146609190Y-107758666D01*
X147037761Y-108044380D02*
X146990142Y-108068190D01*
X146894904Y-108068190D01*
X146847285Y-108044380D01*
X146823476Y-107996761D01*
X146823476Y-107806285D01*
X146847285Y-107758666D01*
X146894904Y-107734857D01*
X146990142Y-107734857D01*
X147037761Y-107758666D01*
X147061571Y-107806285D01*
X147061571Y-107853904D01*
X146823476Y-107901523D01*
X107720142Y-106934857D02*
X107910619Y-106934857D01*
X107791571Y-106768190D02*
X107791571Y-107196761D01*
X107815380Y-107244380D01*
X107863000Y-107268190D01*
X107910619Y-107268190D01*
X108077285Y-107268190D02*
X108077285Y-106768190D01*
X108291571Y-107268190D02*
X108291571Y-107006285D01*
X108267761Y-106958666D01*
X108220142Y-106934857D01*
X108148714Y-106934857D01*
X108101095Y-106958666D01*
X108077285Y-106982476D01*
X108720142Y-107244380D02*
X108672523Y-107268190D01*
X108577285Y-107268190D01*
X108529666Y-107244380D01*
X108505857Y-107196761D01*
X108505857Y-107006285D01*
X108529666Y-106958666D01*
X108577285Y-106934857D01*
X108672523Y-106934857D01*
X108720142Y-106958666D01*
X108743952Y-107006285D01*
X108743952Y-107053904D01*
X108505857Y-107101523D01*
X109315380Y-107244380D02*
X109363000Y-107268190D01*
X109458238Y-107268190D01*
X109505857Y-107244380D01*
X109529666Y-107196761D01*
X109529666Y-107172952D01*
X109505857Y-107125333D01*
X109458238Y-107101523D01*
X109386809Y-107101523D01*
X109339190Y-107077714D01*
X109315380Y-107030095D01*
X109315380Y-107006285D01*
X109339190Y-106958666D01*
X109386809Y-106934857D01*
X109458238Y-106934857D01*
X109505857Y-106958666D01*
X109743952Y-106934857D02*
X109743952Y-107434857D01*
X109743952Y-106958666D02*
X109791571Y-106934857D01*
X109886809Y-106934857D01*
X109934428Y-106958666D01*
X109958238Y-106982476D01*
X109982047Y-107030095D01*
X109982047Y-107172952D01*
X109958238Y-107220571D01*
X109934428Y-107244380D01*
X109886809Y-107268190D01*
X109791571Y-107268190D01*
X109743952Y-107244380D01*
X110410619Y-107268190D02*
X110410619Y-107006285D01*
X110386809Y-106958666D01*
X110339190Y-106934857D01*
X110243952Y-106934857D01*
X110196333Y-106958666D01*
X110410619Y-107244380D02*
X110363000Y-107268190D01*
X110243952Y-107268190D01*
X110196333Y-107244380D01*
X110172523Y-107196761D01*
X110172523Y-107149142D01*
X110196333Y-107101523D01*
X110243952Y-107077714D01*
X110363000Y-107077714D01*
X110410619Y-107053904D01*
X110863000Y-106934857D02*
X110863000Y-107339619D01*
X110839190Y-107387238D01*
X110815380Y-107411047D01*
X110767761Y-107434857D01*
X110696333Y-107434857D01*
X110648714Y-107411047D01*
X110863000Y-107244380D02*
X110815380Y-107268190D01*
X110720142Y-107268190D01*
X110672523Y-107244380D01*
X110648714Y-107220571D01*
X110624904Y-107172952D01*
X110624904Y-107030095D01*
X110648714Y-106982476D01*
X110672523Y-106958666D01*
X110720142Y-106934857D01*
X110815380Y-106934857D01*
X110863000Y-106958666D01*
X111101095Y-107268190D02*
X111101095Y-106768190D01*
X111315380Y-107268190D02*
X111315380Y-107006285D01*
X111291571Y-106958666D01*
X111243952Y-106934857D01*
X111172523Y-106934857D01*
X111124904Y-106958666D01*
X111101095Y-106982476D01*
X111743952Y-107244380D02*
X111696333Y-107268190D01*
X111601095Y-107268190D01*
X111553476Y-107244380D01*
X111529666Y-107196761D01*
X111529666Y-107006285D01*
X111553476Y-106958666D01*
X111601095Y-106934857D01*
X111696333Y-106934857D01*
X111743952Y-106958666D01*
X111767761Y-107006285D01*
X111767761Y-107053904D01*
X111529666Y-107101523D01*
X111910619Y-106934857D02*
X112101095Y-106934857D01*
X111982047Y-106768190D02*
X111982047Y-107196761D01*
X112005857Y-107244380D01*
X112053476Y-107268190D01*
X112101095Y-107268190D01*
X112196333Y-106934857D02*
X112386809Y-106934857D01*
X112267761Y-106768190D02*
X112267761Y-107196761D01*
X112291571Y-107244380D01*
X112339190Y-107268190D01*
X112386809Y-107268190D01*
X112553476Y-107268190D02*
X112553476Y-106934857D01*
X112553476Y-106768190D02*
X112529666Y-106792000D01*
X112553476Y-106815809D01*
X112577285Y-106792000D01*
X112553476Y-106768190D01*
X112553476Y-106815809D01*
X108993952Y-108068190D02*
X108993952Y-107734857D01*
X108993952Y-107782476D02*
X109017761Y-107758666D01*
X109065380Y-107734857D01*
X109136809Y-107734857D01*
X109184428Y-107758666D01*
X109208238Y-107806285D01*
X109208238Y-108068190D01*
X109208238Y-107806285D02*
X109232047Y-107758666D01*
X109279666Y-107734857D01*
X109351095Y-107734857D01*
X109398714Y-107758666D01*
X109422523Y-107806285D01*
X109422523Y-108068190D01*
X109874904Y-108068190D02*
X109874904Y-107806285D01*
X109851095Y-107758666D01*
X109803476Y-107734857D01*
X109708238Y-107734857D01*
X109660619Y-107758666D01*
X109874904Y-108044380D02*
X109827285Y-108068190D01*
X109708238Y-108068190D01*
X109660619Y-108044380D01*
X109636809Y-107996761D01*
X109636809Y-107949142D01*
X109660619Y-107901523D01*
X109708238Y-107877714D01*
X109827285Y-107877714D01*
X109874904Y-107853904D01*
X110327285Y-108068190D02*
X110327285Y-107568190D01*
X110327285Y-108044380D02*
X110279666Y-108068190D01*
X110184428Y-108068190D01*
X110136809Y-108044380D01*
X110113000Y-108020571D01*
X110089190Y-107972952D01*
X110089190Y-107830095D01*
X110113000Y-107782476D01*
X110136809Y-107758666D01*
X110184428Y-107734857D01*
X110279666Y-107734857D01*
X110327285Y-107758666D01*
X110755857Y-108044380D02*
X110708238Y-108068190D01*
X110613000Y-108068190D01*
X110565380Y-108044380D01*
X110541571Y-107996761D01*
X110541571Y-107806285D01*
X110565380Y-107758666D01*
X110613000Y-107734857D01*
X110708238Y-107734857D01*
X110755857Y-107758666D01*
X110779666Y-107806285D01*
X110779666Y-107853904D01*
X110541571Y-107901523D01*
X111446333Y-108068190D02*
X111398714Y-108044380D01*
X111374904Y-108020571D01*
X111351095Y-107972952D01*
X111351095Y-107830095D01*
X111374904Y-107782476D01*
X111398714Y-107758666D01*
X111446333Y-107734857D01*
X111517761Y-107734857D01*
X111565380Y-107758666D01*
X111589190Y-107782476D01*
X111613000Y-107830095D01*
X111613000Y-107972952D01*
X111589190Y-108020571D01*
X111565380Y-108044380D01*
X111517761Y-108068190D01*
X111446333Y-108068190D01*
X111755857Y-107734857D02*
X111946333Y-107734857D01*
X111827285Y-108068190D02*
X111827285Y-107639619D01*
X111851095Y-107592000D01*
X111898714Y-107568190D01*
X111946333Y-107568190D01*
X112708238Y-108044380D02*
X112660619Y-108068190D01*
X112565380Y-108068190D01*
X112517761Y-108044380D01*
X112493952Y-108020571D01*
X112470142Y-107972952D01*
X112470142Y-107830095D01*
X112493952Y-107782476D01*
X112517761Y-107758666D01*
X112565380Y-107734857D01*
X112660619Y-107734857D01*
X112708238Y-107758666D01*
X112993952Y-108068190D02*
X112946333Y-108044380D01*
X112922523Y-108020571D01*
X112898714Y-107972952D01*
X112898714Y-107830095D01*
X112922523Y-107782476D01*
X112946333Y-107758666D01*
X112993952Y-107734857D01*
X113065380Y-107734857D01*
X113113000Y-107758666D01*
X113136809Y-107782476D01*
X113160619Y-107830095D01*
X113160619Y-107972952D01*
X113136809Y-108020571D01*
X113113000Y-108044380D01*
X113065380Y-108068190D01*
X112993952Y-108068190D01*
X113589190Y-108068190D02*
X113589190Y-107568190D01*
X113589190Y-108044380D02*
X113541571Y-108068190D01*
X113446333Y-108068190D01*
X113398714Y-108044380D01*
X113374904Y-108020571D01*
X113351095Y-107972952D01*
X113351095Y-107830095D01*
X113374904Y-107782476D01*
X113398714Y-107758666D01*
X113446333Y-107734857D01*
X113541571Y-107734857D01*
X113589190Y-107758666D01*
X114017761Y-108044380D02*
X113970142Y-108068190D01*
X113874904Y-108068190D01*
X113827285Y-108044380D01*
X113803476Y-107996761D01*
X113803476Y-107806285D01*
X113827285Y-107758666D01*
X113874904Y-107734857D01*
X113970142Y-107734857D01*
X114017761Y-107758666D01*
X114041571Y-107806285D01*
X114041571Y-107853904D01*
X113803476Y-107901523D01*
X74700142Y-106934857D02*
X74890619Y-106934857D01*
X74771571Y-106768190D02*
X74771571Y-107196761D01*
X74795380Y-107244380D01*
X74843000Y-107268190D01*
X74890619Y-107268190D01*
X75057285Y-107268190D02*
X75057285Y-106768190D01*
X75271571Y-107268190D02*
X75271571Y-107006285D01*
X75247761Y-106958666D01*
X75200142Y-106934857D01*
X75128714Y-106934857D01*
X75081095Y-106958666D01*
X75057285Y-106982476D01*
X75700142Y-107244380D02*
X75652523Y-107268190D01*
X75557285Y-107268190D01*
X75509666Y-107244380D01*
X75485857Y-107196761D01*
X75485857Y-107006285D01*
X75509666Y-106958666D01*
X75557285Y-106934857D01*
X75652523Y-106934857D01*
X75700142Y-106958666D01*
X75723952Y-107006285D01*
X75723952Y-107053904D01*
X75485857Y-107101523D01*
X76295380Y-107244380D02*
X76343000Y-107268190D01*
X76438238Y-107268190D01*
X76485857Y-107244380D01*
X76509666Y-107196761D01*
X76509666Y-107172952D01*
X76485857Y-107125333D01*
X76438238Y-107101523D01*
X76366809Y-107101523D01*
X76319190Y-107077714D01*
X76295380Y-107030095D01*
X76295380Y-107006285D01*
X76319190Y-106958666D01*
X76366809Y-106934857D01*
X76438238Y-106934857D01*
X76485857Y-106958666D01*
X76723952Y-106934857D02*
X76723952Y-107434857D01*
X76723952Y-106958666D02*
X76771571Y-106934857D01*
X76866809Y-106934857D01*
X76914428Y-106958666D01*
X76938238Y-106982476D01*
X76962047Y-107030095D01*
X76962047Y-107172952D01*
X76938238Y-107220571D01*
X76914428Y-107244380D01*
X76866809Y-107268190D01*
X76771571Y-107268190D01*
X76723952Y-107244380D01*
X77390619Y-107268190D02*
X77390619Y-107006285D01*
X77366809Y-106958666D01*
X77319190Y-106934857D01*
X77223952Y-106934857D01*
X77176333Y-106958666D01*
X77390619Y-107244380D02*
X77343000Y-107268190D01*
X77223952Y-107268190D01*
X77176333Y-107244380D01*
X77152523Y-107196761D01*
X77152523Y-107149142D01*
X77176333Y-107101523D01*
X77223952Y-107077714D01*
X77343000Y-107077714D01*
X77390619Y-107053904D01*
X77843000Y-106934857D02*
X77843000Y-107339619D01*
X77819190Y-107387238D01*
X77795380Y-107411047D01*
X77747761Y-107434857D01*
X77676333Y-107434857D01*
X77628714Y-107411047D01*
X77843000Y-107244380D02*
X77795380Y-107268190D01*
X77700142Y-107268190D01*
X77652523Y-107244380D01*
X77628714Y-107220571D01*
X77604904Y-107172952D01*
X77604904Y-107030095D01*
X77628714Y-106982476D01*
X77652523Y-106958666D01*
X77700142Y-106934857D01*
X77795380Y-106934857D01*
X77843000Y-106958666D01*
X78081095Y-107268190D02*
X78081095Y-106768190D01*
X78295380Y-107268190D02*
X78295380Y-107006285D01*
X78271571Y-106958666D01*
X78223952Y-106934857D01*
X78152523Y-106934857D01*
X78104904Y-106958666D01*
X78081095Y-106982476D01*
X78723952Y-107244380D02*
X78676333Y-107268190D01*
X78581095Y-107268190D01*
X78533476Y-107244380D01*
X78509666Y-107196761D01*
X78509666Y-107006285D01*
X78533476Y-106958666D01*
X78581095Y-106934857D01*
X78676333Y-106934857D01*
X78723952Y-106958666D01*
X78747761Y-107006285D01*
X78747761Y-107053904D01*
X78509666Y-107101523D01*
X78890619Y-106934857D02*
X79081095Y-106934857D01*
X78962047Y-106768190D02*
X78962047Y-107196761D01*
X78985857Y-107244380D01*
X79033476Y-107268190D01*
X79081095Y-107268190D01*
X79176333Y-106934857D02*
X79366809Y-106934857D01*
X79247761Y-106768190D02*
X79247761Y-107196761D01*
X79271571Y-107244380D01*
X79319190Y-107268190D01*
X79366809Y-107268190D01*
X79533476Y-107268190D02*
X79533476Y-106934857D01*
X79533476Y-106768190D02*
X79509666Y-106792000D01*
X79533476Y-106815809D01*
X79557285Y-106792000D01*
X79533476Y-106768190D01*
X79533476Y-106815809D01*
X75973952Y-108068190D02*
X75973952Y-107734857D01*
X75973952Y-107782476D02*
X75997761Y-107758666D01*
X76045380Y-107734857D01*
X76116809Y-107734857D01*
X76164428Y-107758666D01*
X76188238Y-107806285D01*
X76188238Y-108068190D01*
X76188238Y-107806285D02*
X76212047Y-107758666D01*
X76259666Y-107734857D01*
X76331095Y-107734857D01*
X76378714Y-107758666D01*
X76402523Y-107806285D01*
X76402523Y-108068190D01*
X76854904Y-108068190D02*
X76854904Y-107806285D01*
X76831095Y-107758666D01*
X76783476Y-107734857D01*
X76688238Y-107734857D01*
X76640619Y-107758666D01*
X76854904Y-108044380D02*
X76807285Y-108068190D01*
X76688238Y-108068190D01*
X76640619Y-108044380D01*
X76616809Y-107996761D01*
X76616809Y-107949142D01*
X76640619Y-107901523D01*
X76688238Y-107877714D01*
X76807285Y-107877714D01*
X76854904Y-107853904D01*
X77307285Y-108068190D02*
X77307285Y-107568190D01*
X77307285Y-108044380D02*
X77259666Y-108068190D01*
X77164428Y-108068190D01*
X77116809Y-108044380D01*
X77093000Y-108020571D01*
X77069190Y-107972952D01*
X77069190Y-107830095D01*
X77093000Y-107782476D01*
X77116809Y-107758666D01*
X77164428Y-107734857D01*
X77259666Y-107734857D01*
X77307285Y-107758666D01*
X77735857Y-108044380D02*
X77688238Y-108068190D01*
X77593000Y-108068190D01*
X77545380Y-108044380D01*
X77521571Y-107996761D01*
X77521571Y-107806285D01*
X77545380Y-107758666D01*
X77593000Y-107734857D01*
X77688238Y-107734857D01*
X77735857Y-107758666D01*
X77759666Y-107806285D01*
X77759666Y-107853904D01*
X77521571Y-107901523D01*
X78426333Y-108068190D02*
X78378714Y-108044380D01*
X78354904Y-108020571D01*
X78331095Y-107972952D01*
X78331095Y-107830095D01*
X78354904Y-107782476D01*
X78378714Y-107758666D01*
X78426333Y-107734857D01*
X78497761Y-107734857D01*
X78545380Y-107758666D01*
X78569190Y-107782476D01*
X78593000Y-107830095D01*
X78593000Y-107972952D01*
X78569190Y-108020571D01*
X78545380Y-108044380D01*
X78497761Y-108068190D01*
X78426333Y-108068190D01*
X78735857Y-107734857D02*
X78926333Y-107734857D01*
X78807285Y-108068190D02*
X78807285Y-107639619D01*
X78831095Y-107592000D01*
X78878714Y-107568190D01*
X78926333Y-107568190D01*
X79688238Y-108044380D02*
X79640619Y-108068190D01*
X79545380Y-108068190D01*
X79497761Y-108044380D01*
X79473952Y-108020571D01*
X79450142Y-107972952D01*
X79450142Y-107830095D01*
X79473952Y-107782476D01*
X79497761Y-107758666D01*
X79545380Y-107734857D01*
X79640619Y-107734857D01*
X79688238Y-107758666D01*
X79973952Y-108068190D02*
X79926333Y-108044380D01*
X79902523Y-108020571D01*
X79878714Y-107972952D01*
X79878714Y-107830095D01*
X79902523Y-107782476D01*
X79926333Y-107758666D01*
X79973952Y-107734857D01*
X80045380Y-107734857D01*
X80093000Y-107758666D01*
X80116809Y-107782476D01*
X80140619Y-107830095D01*
X80140619Y-107972952D01*
X80116809Y-108020571D01*
X80093000Y-108044380D01*
X80045380Y-108068190D01*
X79973952Y-108068190D01*
X80569190Y-108068190D02*
X80569190Y-107568190D01*
X80569190Y-108044380D02*
X80521571Y-108068190D01*
X80426333Y-108068190D01*
X80378714Y-108044380D01*
X80354904Y-108020571D01*
X80331095Y-107972952D01*
X80331095Y-107830095D01*
X80354904Y-107782476D01*
X80378714Y-107758666D01*
X80426333Y-107734857D01*
X80521571Y-107734857D01*
X80569190Y-107758666D01*
X80997761Y-108044380D02*
X80950142Y-108068190D01*
X80854904Y-108068190D01*
X80807285Y-108044380D01*
X80783476Y-107996761D01*
X80783476Y-107806285D01*
X80807285Y-107758666D01*
X80854904Y-107734857D01*
X80950142Y-107734857D01*
X80997761Y-107758666D01*
X81021571Y-107806285D01*
X81021571Y-107853904D01*
X80783476Y-107901523D01*
X140740142Y-89154857D02*
X140930619Y-89154857D01*
X140811571Y-88988190D02*
X140811571Y-89416761D01*
X140835380Y-89464380D01*
X140883000Y-89488190D01*
X140930619Y-89488190D01*
X141097285Y-89488190D02*
X141097285Y-88988190D01*
X141311571Y-89488190D02*
X141311571Y-89226285D01*
X141287761Y-89178666D01*
X141240142Y-89154857D01*
X141168714Y-89154857D01*
X141121095Y-89178666D01*
X141097285Y-89202476D01*
X141740142Y-89464380D02*
X141692523Y-89488190D01*
X141597285Y-89488190D01*
X141549666Y-89464380D01*
X141525857Y-89416761D01*
X141525857Y-89226285D01*
X141549666Y-89178666D01*
X141597285Y-89154857D01*
X141692523Y-89154857D01*
X141740142Y-89178666D01*
X141763952Y-89226285D01*
X141763952Y-89273904D01*
X141525857Y-89321523D01*
X142335380Y-89464380D02*
X142383000Y-89488190D01*
X142478238Y-89488190D01*
X142525857Y-89464380D01*
X142549666Y-89416761D01*
X142549666Y-89392952D01*
X142525857Y-89345333D01*
X142478238Y-89321523D01*
X142406809Y-89321523D01*
X142359190Y-89297714D01*
X142335380Y-89250095D01*
X142335380Y-89226285D01*
X142359190Y-89178666D01*
X142406809Y-89154857D01*
X142478238Y-89154857D01*
X142525857Y-89178666D01*
X142763952Y-89154857D02*
X142763952Y-89654857D01*
X142763952Y-89178666D02*
X142811571Y-89154857D01*
X142906809Y-89154857D01*
X142954428Y-89178666D01*
X142978238Y-89202476D01*
X143002047Y-89250095D01*
X143002047Y-89392952D01*
X142978238Y-89440571D01*
X142954428Y-89464380D01*
X142906809Y-89488190D01*
X142811571Y-89488190D01*
X142763952Y-89464380D01*
X143430619Y-89488190D02*
X143430619Y-89226285D01*
X143406809Y-89178666D01*
X143359190Y-89154857D01*
X143263952Y-89154857D01*
X143216333Y-89178666D01*
X143430619Y-89464380D02*
X143383000Y-89488190D01*
X143263952Y-89488190D01*
X143216333Y-89464380D01*
X143192523Y-89416761D01*
X143192523Y-89369142D01*
X143216333Y-89321523D01*
X143263952Y-89297714D01*
X143383000Y-89297714D01*
X143430619Y-89273904D01*
X143883000Y-89154857D02*
X143883000Y-89559619D01*
X143859190Y-89607238D01*
X143835380Y-89631047D01*
X143787761Y-89654857D01*
X143716333Y-89654857D01*
X143668714Y-89631047D01*
X143883000Y-89464380D02*
X143835380Y-89488190D01*
X143740142Y-89488190D01*
X143692523Y-89464380D01*
X143668714Y-89440571D01*
X143644904Y-89392952D01*
X143644904Y-89250095D01*
X143668714Y-89202476D01*
X143692523Y-89178666D01*
X143740142Y-89154857D01*
X143835380Y-89154857D01*
X143883000Y-89178666D01*
X144121095Y-89488190D02*
X144121095Y-88988190D01*
X144335380Y-89488190D02*
X144335380Y-89226285D01*
X144311571Y-89178666D01*
X144263952Y-89154857D01*
X144192523Y-89154857D01*
X144144904Y-89178666D01*
X144121095Y-89202476D01*
X144763952Y-89464380D02*
X144716333Y-89488190D01*
X144621095Y-89488190D01*
X144573476Y-89464380D01*
X144549666Y-89416761D01*
X144549666Y-89226285D01*
X144573476Y-89178666D01*
X144621095Y-89154857D01*
X144716333Y-89154857D01*
X144763952Y-89178666D01*
X144787761Y-89226285D01*
X144787761Y-89273904D01*
X144549666Y-89321523D01*
X144930619Y-89154857D02*
X145121095Y-89154857D01*
X145002047Y-88988190D02*
X145002047Y-89416761D01*
X145025857Y-89464380D01*
X145073476Y-89488190D01*
X145121095Y-89488190D01*
X145216333Y-89154857D02*
X145406809Y-89154857D01*
X145287761Y-88988190D02*
X145287761Y-89416761D01*
X145311571Y-89464380D01*
X145359190Y-89488190D01*
X145406809Y-89488190D01*
X145573476Y-89488190D02*
X145573476Y-89154857D01*
X145573476Y-88988190D02*
X145549666Y-89012000D01*
X145573476Y-89035809D01*
X145597285Y-89012000D01*
X145573476Y-88988190D01*
X145573476Y-89035809D01*
X142013952Y-90288190D02*
X142013952Y-89954857D01*
X142013952Y-90002476D02*
X142037761Y-89978666D01*
X142085380Y-89954857D01*
X142156809Y-89954857D01*
X142204428Y-89978666D01*
X142228238Y-90026285D01*
X142228238Y-90288190D01*
X142228238Y-90026285D02*
X142252047Y-89978666D01*
X142299666Y-89954857D01*
X142371095Y-89954857D01*
X142418714Y-89978666D01*
X142442523Y-90026285D01*
X142442523Y-90288190D01*
X142894904Y-90288190D02*
X142894904Y-90026285D01*
X142871095Y-89978666D01*
X142823476Y-89954857D01*
X142728238Y-89954857D01*
X142680619Y-89978666D01*
X142894904Y-90264380D02*
X142847285Y-90288190D01*
X142728238Y-90288190D01*
X142680619Y-90264380D01*
X142656809Y-90216761D01*
X142656809Y-90169142D01*
X142680619Y-90121523D01*
X142728238Y-90097714D01*
X142847285Y-90097714D01*
X142894904Y-90073904D01*
X143347285Y-90288190D02*
X143347285Y-89788190D01*
X143347285Y-90264380D02*
X143299666Y-90288190D01*
X143204428Y-90288190D01*
X143156809Y-90264380D01*
X143133000Y-90240571D01*
X143109190Y-90192952D01*
X143109190Y-90050095D01*
X143133000Y-90002476D01*
X143156809Y-89978666D01*
X143204428Y-89954857D01*
X143299666Y-89954857D01*
X143347285Y-89978666D01*
X143775857Y-90264380D02*
X143728238Y-90288190D01*
X143633000Y-90288190D01*
X143585380Y-90264380D01*
X143561571Y-90216761D01*
X143561571Y-90026285D01*
X143585380Y-89978666D01*
X143633000Y-89954857D01*
X143728238Y-89954857D01*
X143775857Y-89978666D01*
X143799666Y-90026285D01*
X143799666Y-90073904D01*
X143561571Y-90121523D01*
X144466333Y-90288190D02*
X144418714Y-90264380D01*
X144394904Y-90240571D01*
X144371095Y-90192952D01*
X144371095Y-90050095D01*
X144394904Y-90002476D01*
X144418714Y-89978666D01*
X144466333Y-89954857D01*
X144537761Y-89954857D01*
X144585380Y-89978666D01*
X144609190Y-90002476D01*
X144633000Y-90050095D01*
X144633000Y-90192952D01*
X144609190Y-90240571D01*
X144585380Y-90264380D01*
X144537761Y-90288190D01*
X144466333Y-90288190D01*
X144775857Y-89954857D02*
X144966333Y-89954857D01*
X144847285Y-90288190D02*
X144847285Y-89859619D01*
X144871095Y-89812000D01*
X144918714Y-89788190D01*
X144966333Y-89788190D01*
X145728238Y-90264380D02*
X145680619Y-90288190D01*
X145585380Y-90288190D01*
X145537761Y-90264380D01*
X145513952Y-90240571D01*
X145490142Y-90192952D01*
X145490142Y-90050095D01*
X145513952Y-90002476D01*
X145537761Y-89978666D01*
X145585380Y-89954857D01*
X145680619Y-89954857D01*
X145728238Y-89978666D01*
X146013952Y-90288190D02*
X145966333Y-90264380D01*
X145942523Y-90240571D01*
X145918714Y-90192952D01*
X145918714Y-90050095D01*
X145942523Y-90002476D01*
X145966333Y-89978666D01*
X146013952Y-89954857D01*
X146085380Y-89954857D01*
X146133000Y-89978666D01*
X146156809Y-90002476D01*
X146180619Y-90050095D01*
X146180619Y-90192952D01*
X146156809Y-90240571D01*
X146133000Y-90264380D01*
X146085380Y-90288190D01*
X146013952Y-90288190D01*
X146609190Y-90288190D02*
X146609190Y-89788190D01*
X146609190Y-90264380D02*
X146561571Y-90288190D01*
X146466333Y-90288190D01*
X146418714Y-90264380D01*
X146394904Y-90240571D01*
X146371095Y-90192952D01*
X146371095Y-90050095D01*
X146394904Y-90002476D01*
X146418714Y-89978666D01*
X146466333Y-89954857D01*
X146561571Y-89954857D01*
X146609190Y-89978666D01*
X147037761Y-90264380D02*
X146990142Y-90288190D01*
X146894904Y-90288190D01*
X146847285Y-90264380D01*
X146823476Y-90216761D01*
X146823476Y-90026285D01*
X146847285Y-89978666D01*
X146894904Y-89954857D01*
X146990142Y-89954857D01*
X147037761Y-89978666D01*
X147061571Y-90026285D01*
X147061571Y-90073904D01*
X146823476Y-90121523D01*
X107720142Y-89154857D02*
X107910619Y-89154857D01*
X107791571Y-88988190D02*
X107791571Y-89416761D01*
X107815380Y-89464380D01*
X107863000Y-89488190D01*
X107910619Y-89488190D01*
X108077285Y-89488190D02*
X108077285Y-88988190D01*
X108291571Y-89488190D02*
X108291571Y-89226285D01*
X108267761Y-89178666D01*
X108220142Y-89154857D01*
X108148714Y-89154857D01*
X108101095Y-89178666D01*
X108077285Y-89202476D01*
X108720142Y-89464380D02*
X108672523Y-89488190D01*
X108577285Y-89488190D01*
X108529666Y-89464380D01*
X108505857Y-89416761D01*
X108505857Y-89226285D01*
X108529666Y-89178666D01*
X108577285Y-89154857D01*
X108672523Y-89154857D01*
X108720142Y-89178666D01*
X108743952Y-89226285D01*
X108743952Y-89273904D01*
X108505857Y-89321523D01*
X109315380Y-89464380D02*
X109363000Y-89488190D01*
X109458238Y-89488190D01*
X109505857Y-89464380D01*
X109529666Y-89416761D01*
X109529666Y-89392952D01*
X109505857Y-89345333D01*
X109458238Y-89321523D01*
X109386809Y-89321523D01*
X109339190Y-89297714D01*
X109315380Y-89250095D01*
X109315380Y-89226285D01*
X109339190Y-89178666D01*
X109386809Y-89154857D01*
X109458238Y-89154857D01*
X109505857Y-89178666D01*
X109743952Y-89154857D02*
X109743952Y-89654857D01*
X109743952Y-89178666D02*
X109791571Y-89154857D01*
X109886809Y-89154857D01*
X109934428Y-89178666D01*
X109958238Y-89202476D01*
X109982047Y-89250095D01*
X109982047Y-89392952D01*
X109958238Y-89440571D01*
X109934428Y-89464380D01*
X109886809Y-89488190D01*
X109791571Y-89488190D01*
X109743952Y-89464380D01*
X110410619Y-89488190D02*
X110410619Y-89226285D01*
X110386809Y-89178666D01*
X110339190Y-89154857D01*
X110243952Y-89154857D01*
X110196333Y-89178666D01*
X110410619Y-89464380D02*
X110363000Y-89488190D01*
X110243952Y-89488190D01*
X110196333Y-89464380D01*
X110172523Y-89416761D01*
X110172523Y-89369142D01*
X110196333Y-89321523D01*
X110243952Y-89297714D01*
X110363000Y-89297714D01*
X110410619Y-89273904D01*
X110863000Y-89154857D02*
X110863000Y-89559619D01*
X110839190Y-89607238D01*
X110815380Y-89631047D01*
X110767761Y-89654857D01*
X110696333Y-89654857D01*
X110648714Y-89631047D01*
X110863000Y-89464380D02*
X110815380Y-89488190D01*
X110720142Y-89488190D01*
X110672523Y-89464380D01*
X110648714Y-89440571D01*
X110624904Y-89392952D01*
X110624904Y-89250095D01*
X110648714Y-89202476D01*
X110672523Y-89178666D01*
X110720142Y-89154857D01*
X110815380Y-89154857D01*
X110863000Y-89178666D01*
X111101095Y-89488190D02*
X111101095Y-88988190D01*
X111315380Y-89488190D02*
X111315380Y-89226285D01*
X111291571Y-89178666D01*
X111243952Y-89154857D01*
X111172523Y-89154857D01*
X111124904Y-89178666D01*
X111101095Y-89202476D01*
X111743952Y-89464380D02*
X111696333Y-89488190D01*
X111601095Y-89488190D01*
X111553476Y-89464380D01*
X111529666Y-89416761D01*
X111529666Y-89226285D01*
X111553476Y-89178666D01*
X111601095Y-89154857D01*
X111696333Y-89154857D01*
X111743952Y-89178666D01*
X111767761Y-89226285D01*
X111767761Y-89273904D01*
X111529666Y-89321523D01*
X111910619Y-89154857D02*
X112101095Y-89154857D01*
X111982047Y-88988190D02*
X111982047Y-89416761D01*
X112005857Y-89464380D01*
X112053476Y-89488190D01*
X112101095Y-89488190D01*
X112196333Y-89154857D02*
X112386809Y-89154857D01*
X112267761Y-88988190D02*
X112267761Y-89416761D01*
X112291571Y-89464380D01*
X112339190Y-89488190D01*
X112386809Y-89488190D01*
X112553476Y-89488190D02*
X112553476Y-89154857D01*
X112553476Y-88988190D02*
X112529666Y-89012000D01*
X112553476Y-89035809D01*
X112577285Y-89012000D01*
X112553476Y-88988190D01*
X112553476Y-89035809D01*
X108993952Y-90288190D02*
X108993952Y-89954857D01*
X108993952Y-90002476D02*
X109017761Y-89978666D01*
X109065380Y-89954857D01*
X109136809Y-89954857D01*
X109184428Y-89978666D01*
X109208238Y-90026285D01*
X109208238Y-90288190D01*
X109208238Y-90026285D02*
X109232047Y-89978666D01*
X109279666Y-89954857D01*
X109351095Y-89954857D01*
X109398714Y-89978666D01*
X109422523Y-90026285D01*
X109422523Y-90288190D01*
X109874904Y-90288190D02*
X109874904Y-90026285D01*
X109851095Y-89978666D01*
X109803476Y-89954857D01*
X109708238Y-89954857D01*
X109660619Y-89978666D01*
X109874904Y-90264380D02*
X109827285Y-90288190D01*
X109708238Y-90288190D01*
X109660619Y-90264380D01*
X109636809Y-90216761D01*
X109636809Y-90169142D01*
X109660619Y-90121523D01*
X109708238Y-90097714D01*
X109827285Y-90097714D01*
X109874904Y-90073904D01*
X110327285Y-90288190D02*
X110327285Y-89788190D01*
X110327285Y-90264380D02*
X110279666Y-90288190D01*
X110184428Y-90288190D01*
X110136809Y-90264380D01*
X110113000Y-90240571D01*
X110089190Y-90192952D01*
X110089190Y-90050095D01*
X110113000Y-90002476D01*
X110136809Y-89978666D01*
X110184428Y-89954857D01*
X110279666Y-89954857D01*
X110327285Y-89978666D01*
X110755857Y-90264380D02*
X110708238Y-90288190D01*
X110613000Y-90288190D01*
X110565380Y-90264380D01*
X110541571Y-90216761D01*
X110541571Y-90026285D01*
X110565380Y-89978666D01*
X110613000Y-89954857D01*
X110708238Y-89954857D01*
X110755857Y-89978666D01*
X110779666Y-90026285D01*
X110779666Y-90073904D01*
X110541571Y-90121523D01*
X111446333Y-90288190D02*
X111398714Y-90264380D01*
X111374904Y-90240571D01*
X111351095Y-90192952D01*
X111351095Y-90050095D01*
X111374904Y-90002476D01*
X111398714Y-89978666D01*
X111446333Y-89954857D01*
X111517761Y-89954857D01*
X111565380Y-89978666D01*
X111589190Y-90002476D01*
X111613000Y-90050095D01*
X111613000Y-90192952D01*
X111589190Y-90240571D01*
X111565380Y-90264380D01*
X111517761Y-90288190D01*
X111446333Y-90288190D01*
X111755857Y-89954857D02*
X111946333Y-89954857D01*
X111827285Y-90288190D02*
X111827285Y-89859619D01*
X111851095Y-89812000D01*
X111898714Y-89788190D01*
X111946333Y-89788190D01*
X112708238Y-90264380D02*
X112660619Y-90288190D01*
X112565380Y-90288190D01*
X112517761Y-90264380D01*
X112493952Y-90240571D01*
X112470142Y-90192952D01*
X112470142Y-90050095D01*
X112493952Y-90002476D01*
X112517761Y-89978666D01*
X112565380Y-89954857D01*
X112660619Y-89954857D01*
X112708238Y-89978666D01*
X112993952Y-90288190D02*
X112946333Y-90264380D01*
X112922523Y-90240571D01*
X112898714Y-90192952D01*
X112898714Y-90050095D01*
X112922523Y-90002476D01*
X112946333Y-89978666D01*
X112993952Y-89954857D01*
X113065380Y-89954857D01*
X113113000Y-89978666D01*
X113136809Y-90002476D01*
X113160619Y-90050095D01*
X113160619Y-90192952D01*
X113136809Y-90240571D01*
X113113000Y-90264380D01*
X113065380Y-90288190D01*
X112993952Y-90288190D01*
X113589190Y-90288190D02*
X113589190Y-89788190D01*
X113589190Y-90264380D02*
X113541571Y-90288190D01*
X113446333Y-90288190D01*
X113398714Y-90264380D01*
X113374904Y-90240571D01*
X113351095Y-90192952D01*
X113351095Y-90050095D01*
X113374904Y-90002476D01*
X113398714Y-89978666D01*
X113446333Y-89954857D01*
X113541571Y-89954857D01*
X113589190Y-89978666D01*
X114017761Y-90264380D02*
X113970142Y-90288190D01*
X113874904Y-90288190D01*
X113827285Y-90264380D01*
X113803476Y-90216761D01*
X113803476Y-90026285D01*
X113827285Y-89978666D01*
X113874904Y-89954857D01*
X113970142Y-89954857D01*
X114017761Y-89978666D01*
X114041571Y-90026285D01*
X114041571Y-90073904D01*
X113803476Y-90121523D01*
X74700142Y-89154857D02*
X74890619Y-89154857D01*
X74771571Y-88988190D02*
X74771571Y-89416761D01*
X74795380Y-89464380D01*
X74843000Y-89488190D01*
X74890619Y-89488190D01*
X75057285Y-89488190D02*
X75057285Y-88988190D01*
X75271571Y-89488190D02*
X75271571Y-89226285D01*
X75247761Y-89178666D01*
X75200142Y-89154857D01*
X75128714Y-89154857D01*
X75081095Y-89178666D01*
X75057285Y-89202476D01*
X75700142Y-89464380D02*
X75652523Y-89488190D01*
X75557285Y-89488190D01*
X75509666Y-89464380D01*
X75485857Y-89416761D01*
X75485857Y-89226285D01*
X75509666Y-89178666D01*
X75557285Y-89154857D01*
X75652523Y-89154857D01*
X75700142Y-89178666D01*
X75723952Y-89226285D01*
X75723952Y-89273904D01*
X75485857Y-89321523D01*
X76295380Y-89464380D02*
X76343000Y-89488190D01*
X76438238Y-89488190D01*
X76485857Y-89464380D01*
X76509666Y-89416761D01*
X76509666Y-89392952D01*
X76485857Y-89345333D01*
X76438238Y-89321523D01*
X76366809Y-89321523D01*
X76319190Y-89297714D01*
X76295380Y-89250095D01*
X76295380Y-89226285D01*
X76319190Y-89178666D01*
X76366809Y-89154857D01*
X76438238Y-89154857D01*
X76485857Y-89178666D01*
X76723952Y-89154857D02*
X76723952Y-89654857D01*
X76723952Y-89178666D02*
X76771571Y-89154857D01*
X76866809Y-89154857D01*
X76914428Y-89178666D01*
X76938238Y-89202476D01*
X76962047Y-89250095D01*
X76962047Y-89392952D01*
X76938238Y-89440571D01*
X76914428Y-89464380D01*
X76866809Y-89488190D01*
X76771571Y-89488190D01*
X76723952Y-89464380D01*
X77390619Y-89488190D02*
X77390619Y-89226285D01*
X77366809Y-89178666D01*
X77319190Y-89154857D01*
X77223952Y-89154857D01*
X77176333Y-89178666D01*
X77390619Y-89464380D02*
X77343000Y-89488190D01*
X77223952Y-89488190D01*
X77176333Y-89464380D01*
X77152523Y-89416761D01*
X77152523Y-89369142D01*
X77176333Y-89321523D01*
X77223952Y-89297714D01*
X77343000Y-89297714D01*
X77390619Y-89273904D01*
X77843000Y-89154857D02*
X77843000Y-89559619D01*
X77819190Y-89607238D01*
X77795380Y-89631047D01*
X77747761Y-89654857D01*
X77676333Y-89654857D01*
X77628714Y-89631047D01*
X77843000Y-89464380D02*
X77795380Y-89488190D01*
X77700142Y-89488190D01*
X77652523Y-89464380D01*
X77628714Y-89440571D01*
X77604904Y-89392952D01*
X77604904Y-89250095D01*
X77628714Y-89202476D01*
X77652523Y-89178666D01*
X77700142Y-89154857D01*
X77795380Y-89154857D01*
X77843000Y-89178666D01*
X78081095Y-89488190D02*
X78081095Y-88988190D01*
X78295380Y-89488190D02*
X78295380Y-89226285D01*
X78271571Y-89178666D01*
X78223952Y-89154857D01*
X78152523Y-89154857D01*
X78104904Y-89178666D01*
X78081095Y-89202476D01*
X78723952Y-89464380D02*
X78676333Y-89488190D01*
X78581095Y-89488190D01*
X78533476Y-89464380D01*
X78509666Y-89416761D01*
X78509666Y-89226285D01*
X78533476Y-89178666D01*
X78581095Y-89154857D01*
X78676333Y-89154857D01*
X78723952Y-89178666D01*
X78747761Y-89226285D01*
X78747761Y-89273904D01*
X78509666Y-89321523D01*
X78890619Y-89154857D02*
X79081095Y-89154857D01*
X78962047Y-88988190D02*
X78962047Y-89416761D01*
X78985857Y-89464380D01*
X79033476Y-89488190D01*
X79081095Y-89488190D01*
X79176333Y-89154857D02*
X79366809Y-89154857D01*
X79247761Y-88988190D02*
X79247761Y-89416761D01*
X79271571Y-89464380D01*
X79319190Y-89488190D01*
X79366809Y-89488190D01*
X79533476Y-89488190D02*
X79533476Y-89154857D01*
X79533476Y-88988190D02*
X79509666Y-89012000D01*
X79533476Y-89035809D01*
X79557285Y-89012000D01*
X79533476Y-88988190D01*
X79533476Y-89035809D01*
X75973952Y-90288190D02*
X75973952Y-89954857D01*
X75973952Y-90002476D02*
X75997761Y-89978666D01*
X76045380Y-89954857D01*
X76116809Y-89954857D01*
X76164428Y-89978666D01*
X76188238Y-90026285D01*
X76188238Y-90288190D01*
X76188238Y-90026285D02*
X76212047Y-89978666D01*
X76259666Y-89954857D01*
X76331095Y-89954857D01*
X76378714Y-89978666D01*
X76402523Y-90026285D01*
X76402523Y-90288190D01*
X76854904Y-90288190D02*
X76854904Y-90026285D01*
X76831095Y-89978666D01*
X76783476Y-89954857D01*
X76688238Y-89954857D01*
X76640619Y-89978666D01*
X76854904Y-90264380D02*
X76807285Y-90288190D01*
X76688238Y-90288190D01*
X76640619Y-90264380D01*
X76616809Y-90216761D01*
X76616809Y-90169142D01*
X76640619Y-90121523D01*
X76688238Y-90097714D01*
X76807285Y-90097714D01*
X76854904Y-90073904D01*
X77307285Y-90288190D02*
X77307285Y-89788190D01*
X77307285Y-90264380D02*
X77259666Y-90288190D01*
X77164428Y-90288190D01*
X77116809Y-90264380D01*
X77093000Y-90240571D01*
X77069190Y-90192952D01*
X77069190Y-90050095D01*
X77093000Y-90002476D01*
X77116809Y-89978666D01*
X77164428Y-89954857D01*
X77259666Y-89954857D01*
X77307285Y-89978666D01*
X77735857Y-90264380D02*
X77688238Y-90288190D01*
X77593000Y-90288190D01*
X77545380Y-90264380D01*
X77521571Y-90216761D01*
X77521571Y-90026285D01*
X77545380Y-89978666D01*
X77593000Y-89954857D01*
X77688238Y-89954857D01*
X77735857Y-89978666D01*
X77759666Y-90026285D01*
X77759666Y-90073904D01*
X77521571Y-90121523D01*
X78426333Y-90288190D02*
X78378714Y-90264380D01*
X78354904Y-90240571D01*
X78331095Y-90192952D01*
X78331095Y-90050095D01*
X78354904Y-90002476D01*
X78378714Y-89978666D01*
X78426333Y-89954857D01*
X78497761Y-89954857D01*
X78545380Y-89978666D01*
X78569190Y-90002476D01*
X78593000Y-90050095D01*
X78593000Y-90192952D01*
X78569190Y-90240571D01*
X78545380Y-90264380D01*
X78497761Y-90288190D01*
X78426333Y-90288190D01*
X78735857Y-89954857D02*
X78926333Y-89954857D01*
X78807285Y-90288190D02*
X78807285Y-89859619D01*
X78831095Y-89812000D01*
X78878714Y-89788190D01*
X78926333Y-89788190D01*
X79688238Y-90264380D02*
X79640619Y-90288190D01*
X79545380Y-90288190D01*
X79497761Y-90264380D01*
X79473952Y-90240571D01*
X79450142Y-90192952D01*
X79450142Y-90050095D01*
X79473952Y-90002476D01*
X79497761Y-89978666D01*
X79545380Y-89954857D01*
X79640619Y-89954857D01*
X79688238Y-89978666D01*
X79973952Y-90288190D02*
X79926333Y-90264380D01*
X79902523Y-90240571D01*
X79878714Y-90192952D01*
X79878714Y-90050095D01*
X79902523Y-90002476D01*
X79926333Y-89978666D01*
X79973952Y-89954857D01*
X80045380Y-89954857D01*
X80093000Y-89978666D01*
X80116809Y-90002476D01*
X80140619Y-90050095D01*
X80140619Y-90192952D01*
X80116809Y-90240571D01*
X80093000Y-90264380D01*
X80045380Y-90288190D01*
X79973952Y-90288190D01*
X80569190Y-90288190D02*
X80569190Y-89788190D01*
X80569190Y-90264380D02*
X80521571Y-90288190D01*
X80426333Y-90288190D01*
X80378714Y-90264380D01*
X80354904Y-90240571D01*
X80331095Y-90192952D01*
X80331095Y-90050095D01*
X80354904Y-90002476D01*
X80378714Y-89978666D01*
X80426333Y-89954857D01*
X80521571Y-89954857D01*
X80569190Y-89978666D01*
X80997761Y-90264380D02*
X80950142Y-90288190D01*
X80854904Y-90288190D01*
X80807285Y-90264380D01*
X80783476Y-90216761D01*
X80783476Y-90026285D01*
X80807285Y-89978666D01*
X80854904Y-89954857D01*
X80950142Y-89954857D01*
X80997761Y-89978666D01*
X81021571Y-90026285D01*
X81021571Y-90073904D01*
X80783476Y-90121523D01*
X140740142Y-71374857D02*
X140930619Y-71374857D01*
X140811571Y-71208190D02*
X140811571Y-71636761D01*
X140835380Y-71684380D01*
X140883000Y-71708190D01*
X140930619Y-71708190D01*
X141097285Y-71708190D02*
X141097285Y-71208190D01*
X141311571Y-71708190D02*
X141311571Y-71446285D01*
X141287761Y-71398666D01*
X141240142Y-71374857D01*
X141168714Y-71374857D01*
X141121095Y-71398666D01*
X141097285Y-71422476D01*
X141740142Y-71684380D02*
X141692523Y-71708190D01*
X141597285Y-71708190D01*
X141549666Y-71684380D01*
X141525857Y-71636761D01*
X141525857Y-71446285D01*
X141549666Y-71398666D01*
X141597285Y-71374857D01*
X141692523Y-71374857D01*
X141740142Y-71398666D01*
X141763952Y-71446285D01*
X141763952Y-71493904D01*
X141525857Y-71541523D01*
X142335380Y-71684380D02*
X142383000Y-71708190D01*
X142478238Y-71708190D01*
X142525857Y-71684380D01*
X142549666Y-71636761D01*
X142549666Y-71612952D01*
X142525857Y-71565333D01*
X142478238Y-71541523D01*
X142406809Y-71541523D01*
X142359190Y-71517714D01*
X142335380Y-71470095D01*
X142335380Y-71446285D01*
X142359190Y-71398666D01*
X142406809Y-71374857D01*
X142478238Y-71374857D01*
X142525857Y-71398666D01*
X142763952Y-71374857D02*
X142763952Y-71874857D01*
X142763952Y-71398666D02*
X142811571Y-71374857D01*
X142906809Y-71374857D01*
X142954428Y-71398666D01*
X142978238Y-71422476D01*
X143002047Y-71470095D01*
X143002047Y-71612952D01*
X142978238Y-71660571D01*
X142954428Y-71684380D01*
X142906809Y-71708190D01*
X142811571Y-71708190D01*
X142763952Y-71684380D01*
X143430619Y-71708190D02*
X143430619Y-71446285D01*
X143406809Y-71398666D01*
X143359190Y-71374857D01*
X143263952Y-71374857D01*
X143216333Y-71398666D01*
X143430619Y-71684380D02*
X143383000Y-71708190D01*
X143263952Y-71708190D01*
X143216333Y-71684380D01*
X143192523Y-71636761D01*
X143192523Y-71589142D01*
X143216333Y-71541523D01*
X143263952Y-71517714D01*
X143383000Y-71517714D01*
X143430619Y-71493904D01*
X143883000Y-71374857D02*
X143883000Y-71779619D01*
X143859190Y-71827238D01*
X143835380Y-71851047D01*
X143787761Y-71874857D01*
X143716333Y-71874857D01*
X143668714Y-71851047D01*
X143883000Y-71684380D02*
X143835380Y-71708190D01*
X143740142Y-71708190D01*
X143692523Y-71684380D01*
X143668714Y-71660571D01*
X143644904Y-71612952D01*
X143644904Y-71470095D01*
X143668714Y-71422476D01*
X143692523Y-71398666D01*
X143740142Y-71374857D01*
X143835380Y-71374857D01*
X143883000Y-71398666D01*
X144121095Y-71708190D02*
X144121095Y-71208190D01*
X144335380Y-71708190D02*
X144335380Y-71446285D01*
X144311571Y-71398666D01*
X144263952Y-71374857D01*
X144192523Y-71374857D01*
X144144904Y-71398666D01*
X144121095Y-71422476D01*
X144763952Y-71684380D02*
X144716333Y-71708190D01*
X144621095Y-71708190D01*
X144573476Y-71684380D01*
X144549666Y-71636761D01*
X144549666Y-71446285D01*
X144573476Y-71398666D01*
X144621095Y-71374857D01*
X144716333Y-71374857D01*
X144763952Y-71398666D01*
X144787761Y-71446285D01*
X144787761Y-71493904D01*
X144549666Y-71541523D01*
X144930619Y-71374857D02*
X145121095Y-71374857D01*
X145002047Y-71208190D02*
X145002047Y-71636761D01*
X145025857Y-71684380D01*
X145073476Y-71708190D01*
X145121095Y-71708190D01*
X145216333Y-71374857D02*
X145406809Y-71374857D01*
X145287761Y-71208190D02*
X145287761Y-71636761D01*
X145311571Y-71684380D01*
X145359190Y-71708190D01*
X145406809Y-71708190D01*
X145573476Y-71708190D02*
X145573476Y-71374857D01*
X145573476Y-71208190D02*
X145549666Y-71232000D01*
X145573476Y-71255809D01*
X145597285Y-71232000D01*
X145573476Y-71208190D01*
X145573476Y-71255809D01*
X142013952Y-72508190D02*
X142013952Y-72174857D01*
X142013952Y-72222476D02*
X142037761Y-72198666D01*
X142085380Y-72174857D01*
X142156809Y-72174857D01*
X142204428Y-72198666D01*
X142228238Y-72246285D01*
X142228238Y-72508190D01*
X142228238Y-72246285D02*
X142252047Y-72198666D01*
X142299666Y-72174857D01*
X142371095Y-72174857D01*
X142418714Y-72198666D01*
X142442523Y-72246285D01*
X142442523Y-72508190D01*
X142894904Y-72508190D02*
X142894904Y-72246285D01*
X142871095Y-72198666D01*
X142823476Y-72174857D01*
X142728238Y-72174857D01*
X142680619Y-72198666D01*
X142894904Y-72484380D02*
X142847285Y-72508190D01*
X142728238Y-72508190D01*
X142680619Y-72484380D01*
X142656809Y-72436761D01*
X142656809Y-72389142D01*
X142680619Y-72341523D01*
X142728238Y-72317714D01*
X142847285Y-72317714D01*
X142894904Y-72293904D01*
X143347285Y-72508190D02*
X143347285Y-72008190D01*
X143347285Y-72484380D02*
X143299666Y-72508190D01*
X143204428Y-72508190D01*
X143156809Y-72484380D01*
X143133000Y-72460571D01*
X143109190Y-72412952D01*
X143109190Y-72270095D01*
X143133000Y-72222476D01*
X143156809Y-72198666D01*
X143204428Y-72174857D01*
X143299666Y-72174857D01*
X143347285Y-72198666D01*
X143775857Y-72484380D02*
X143728238Y-72508190D01*
X143633000Y-72508190D01*
X143585380Y-72484380D01*
X143561571Y-72436761D01*
X143561571Y-72246285D01*
X143585380Y-72198666D01*
X143633000Y-72174857D01*
X143728238Y-72174857D01*
X143775857Y-72198666D01*
X143799666Y-72246285D01*
X143799666Y-72293904D01*
X143561571Y-72341523D01*
X144466333Y-72508190D02*
X144418714Y-72484380D01*
X144394904Y-72460571D01*
X144371095Y-72412952D01*
X144371095Y-72270095D01*
X144394904Y-72222476D01*
X144418714Y-72198666D01*
X144466333Y-72174857D01*
X144537761Y-72174857D01*
X144585380Y-72198666D01*
X144609190Y-72222476D01*
X144633000Y-72270095D01*
X144633000Y-72412952D01*
X144609190Y-72460571D01*
X144585380Y-72484380D01*
X144537761Y-72508190D01*
X144466333Y-72508190D01*
X144775857Y-72174857D02*
X144966333Y-72174857D01*
X144847285Y-72508190D02*
X144847285Y-72079619D01*
X144871095Y-72032000D01*
X144918714Y-72008190D01*
X144966333Y-72008190D01*
X145728238Y-72484380D02*
X145680619Y-72508190D01*
X145585380Y-72508190D01*
X145537761Y-72484380D01*
X145513952Y-72460571D01*
X145490142Y-72412952D01*
X145490142Y-72270095D01*
X145513952Y-72222476D01*
X145537761Y-72198666D01*
X145585380Y-72174857D01*
X145680619Y-72174857D01*
X145728238Y-72198666D01*
X146013952Y-72508190D02*
X145966333Y-72484380D01*
X145942523Y-72460571D01*
X145918714Y-72412952D01*
X145918714Y-72270095D01*
X145942523Y-72222476D01*
X145966333Y-72198666D01*
X146013952Y-72174857D01*
X146085380Y-72174857D01*
X146133000Y-72198666D01*
X146156809Y-72222476D01*
X146180619Y-72270095D01*
X146180619Y-72412952D01*
X146156809Y-72460571D01*
X146133000Y-72484380D01*
X146085380Y-72508190D01*
X146013952Y-72508190D01*
X146609190Y-72508190D02*
X146609190Y-72008190D01*
X146609190Y-72484380D02*
X146561571Y-72508190D01*
X146466333Y-72508190D01*
X146418714Y-72484380D01*
X146394904Y-72460571D01*
X146371095Y-72412952D01*
X146371095Y-72270095D01*
X146394904Y-72222476D01*
X146418714Y-72198666D01*
X146466333Y-72174857D01*
X146561571Y-72174857D01*
X146609190Y-72198666D01*
X147037761Y-72484380D02*
X146990142Y-72508190D01*
X146894904Y-72508190D01*
X146847285Y-72484380D01*
X146823476Y-72436761D01*
X146823476Y-72246285D01*
X146847285Y-72198666D01*
X146894904Y-72174857D01*
X146990142Y-72174857D01*
X147037761Y-72198666D01*
X147061571Y-72246285D01*
X147061571Y-72293904D01*
X146823476Y-72341523D01*
X107720142Y-71374857D02*
X107910619Y-71374857D01*
X107791571Y-71208190D02*
X107791571Y-71636761D01*
X107815380Y-71684380D01*
X107863000Y-71708190D01*
X107910619Y-71708190D01*
X108077285Y-71708190D02*
X108077285Y-71208190D01*
X108291571Y-71708190D02*
X108291571Y-71446285D01*
X108267761Y-71398666D01*
X108220142Y-71374857D01*
X108148714Y-71374857D01*
X108101095Y-71398666D01*
X108077285Y-71422476D01*
X108720142Y-71684380D02*
X108672523Y-71708190D01*
X108577285Y-71708190D01*
X108529666Y-71684380D01*
X108505857Y-71636761D01*
X108505857Y-71446285D01*
X108529666Y-71398666D01*
X108577285Y-71374857D01*
X108672523Y-71374857D01*
X108720142Y-71398666D01*
X108743952Y-71446285D01*
X108743952Y-71493904D01*
X108505857Y-71541523D01*
X109315380Y-71684380D02*
X109363000Y-71708190D01*
X109458238Y-71708190D01*
X109505857Y-71684380D01*
X109529666Y-71636761D01*
X109529666Y-71612952D01*
X109505857Y-71565333D01*
X109458238Y-71541523D01*
X109386809Y-71541523D01*
X109339190Y-71517714D01*
X109315380Y-71470095D01*
X109315380Y-71446285D01*
X109339190Y-71398666D01*
X109386809Y-71374857D01*
X109458238Y-71374857D01*
X109505857Y-71398666D01*
X109743952Y-71374857D02*
X109743952Y-71874857D01*
X109743952Y-71398666D02*
X109791571Y-71374857D01*
X109886809Y-71374857D01*
X109934428Y-71398666D01*
X109958238Y-71422476D01*
X109982047Y-71470095D01*
X109982047Y-71612952D01*
X109958238Y-71660571D01*
X109934428Y-71684380D01*
X109886809Y-71708190D01*
X109791571Y-71708190D01*
X109743952Y-71684380D01*
X110410619Y-71708190D02*
X110410619Y-71446285D01*
X110386809Y-71398666D01*
X110339190Y-71374857D01*
X110243952Y-71374857D01*
X110196333Y-71398666D01*
X110410619Y-71684380D02*
X110363000Y-71708190D01*
X110243952Y-71708190D01*
X110196333Y-71684380D01*
X110172523Y-71636761D01*
X110172523Y-71589142D01*
X110196333Y-71541523D01*
X110243952Y-71517714D01*
X110363000Y-71517714D01*
X110410619Y-71493904D01*
X110863000Y-71374857D02*
X110863000Y-71779619D01*
X110839190Y-71827238D01*
X110815380Y-71851047D01*
X110767761Y-71874857D01*
X110696333Y-71874857D01*
X110648714Y-71851047D01*
X110863000Y-71684380D02*
X110815380Y-71708190D01*
X110720142Y-71708190D01*
X110672523Y-71684380D01*
X110648714Y-71660571D01*
X110624904Y-71612952D01*
X110624904Y-71470095D01*
X110648714Y-71422476D01*
X110672523Y-71398666D01*
X110720142Y-71374857D01*
X110815380Y-71374857D01*
X110863000Y-71398666D01*
X111101095Y-71708190D02*
X111101095Y-71208190D01*
X111315380Y-71708190D02*
X111315380Y-71446285D01*
X111291571Y-71398666D01*
X111243952Y-71374857D01*
X111172523Y-71374857D01*
X111124904Y-71398666D01*
X111101095Y-71422476D01*
X111743952Y-71684380D02*
X111696333Y-71708190D01*
X111601095Y-71708190D01*
X111553476Y-71684380D01*
X111529666Y-71636761D01*
X111529666Y-71446285D01*
X111553476Y-71398666D01*
X111601095Y-71374857D01*
X111696333Y-71374857D01*
X111743952Y-71398666D01*
X111767761Y-71446285D01*
X111767761Y-71493904D01*
X111529666Y-71541523D01*
X111910619Y-71374857D02*
X112101095Y-71374857D01*
X111982047Y-71208190D02*
X111982047Y-71636761D01*
X112005857Y-71684380D01*
X112053476Y-71708190D01*
X112101095Y-71708190D01*
X112196333Y-71374857D02*
X112386809Y-71374857D01*
X112267761Y-71208190D02*
X112267761Y-71636761D01*
X112291571Y-71684380D01*
X112339190Y-71708190D01*
X112386809Y-71708190D01*
X112553476Y-71708190D02*
X112553476Y-71374857D01*
X112553476Y-71208190D02*
X112529666Y-71232000D01*
X112553476Y-71255809D01*
X112577285Y-71232000D01*
X112553476Y-71208190D01*
X112553476Y-71255809D01*
X108993952Y-72508190D02*
X108993952Y-72174857D01*
X108993952Y-72222476D02*
X109017761Y-72198666D01*
X109065380Y-72174857D01*
X109136809Y-72174857D01*
X109184428Y-72198666D01*
X109208238Y-72246285D01*
X109208238Y-72508190D01*
X109208238Y-72246285D02*
X109232047Y-72198666D01*
X109279666Y-72174857D01*
X109351095Y-72174857D01*
X109398714Y-72198666D01*
X109422523Y-72246285D01*
X109422523Y-72508190D01*
X109874904Y-72508190D02*
X109874904Y-72246285D01*
X109851095Y-72198666D01*
X109803476Y-72174857D01*
X109708238Y-72174857D01*
X109660619Y-72198666D01*
X109874904Y-72484380D02*
X109827285Y-72508190D01*
X109708238Y-72508190D01*
X109660619Y-72484380D01*
X109636809Y-72436761D01*
X109636809Y-72389142D01*
X109660619Y-72341523D01*
X109708238Y-72317714D01*
X109827285Y-72317714D01*
X109874904Y-72293904D01*
X110327285Y-72508190D02*
X110327285Y-72008190D01*
X110327285Y-72484380D02*
X110279666Y-72508190D01*
X110184428Y-72508190D01*
X110136809Y-72484380D01*
X110113000Y-72460571D01*
X110089190Y-72412952D01*
X110089190Y-72270095D01*
X110113000Y-72222476D01*
X110136809Y-72198666D01*
X110184428Y-72174857D01*
X110279666Y-72174857D01*
X110327285Y-72198666D01*
X110755857Y-72484380D02*
X110708238Y-72508190D01*
X110613000Y-72508190D01*
X110565380Y-72484380D01*
X110541571Y-72436761D01*
X110541571Y-72246285D01*
X110565380Y-72198666D01*
X110613000Y-72174857D01*
X110708238Y-72174857D01*
X110755857Y-72198666D01*
X110779666Y-72246285D01*
X110779666Y-72293904D01*
X110541571Y-72341523D01*
X111446333Y-72508190D02*
X111398714Y-72484380D01*
X111374904Y-72460571D01*
X111351095Y-72412952D01*
X111351095Y-72270095D01*
X111374904Y-72222476D01*
X111398714Y-72198666D01*
X111446333Y-72174857D01*
X111517761Y-72174857D01*
X111565380Y-72198666D01*
X111589190Y-72222476D01*
X111613000Y-72270095D01*
X111613000Y-72412952D01*
X111589190Y-72460571D01*
X111565380Y-72484380D01*
X111517761Y-72508190D01*
X111446333Y-72508190D01*
X111755857Y-72174857D02*
X111946333Y-72174857D01*
X111827285Y-72508190D02*
X111827285Y-72079619D01*
X111851095Y-72032000D01*
X111898714Y-72008190D01*
X111946333Y-72008190D01*
X112708238Y-72484380D02*
X112660619Y-72508190D01*
X112565380Y-72508190D01*
X112517761Y-72484380D01*
X112493952Y-72460571D01*
X112470142Y-72412952D01*
X112470142Y-72270095D01*
X112493952Y-72222476D01*
X112517761Y-72198666D01*
X112565380Y-72174857D01*
X112660619Y-72174857D01*
X112708238Y-72198666D01*
X112993952Y-72508190D02*
X112946333Y-72484380D01*
X112922523Y-72460571D01*
X112898714Y-72412952D01*
X112898714Y-72270095D01*
X112922523Y-72222476D01*
X112946333Y-72198666D01*
X112993952Y-72174857D01*
X113065380Y-72174857D01*
X113113000Y-72198666D01*
X113136809Y-72222476D01*
X113160619Y-72270095D01*
X113160619Y-72412952D01*
X113136809Y-72460571D01*
X113113000Y-72484380D01*
X113065380Y-72508190D01*
X112993952Y-72508190D01*
X113589190Y-72508190D02*
X113589190Y-72008190D01*
X113589190Y-72484380D02*
X113541571Y-72508190D01*
X113446333Y-72508190D01*
X113398714Y-72484380D01*
X113374904Y-72460571D01*
X113351095Y-72412952D01*
X113351095Y-72270095D01*
X113374904Y-72222476D01*
X113398714Y-72198666D01*
X113446333Y-72174857D01*
X113541571Y-72174857D01*
X113589190Y-72198666D01*
X114017761Y-72484380D02*
X113970142Y-72508190D01*
X113874904Y-72508190D01*
X113827285Y-72484380D01*
X113803476Y-72436761D01*
X113803476Y-72246285D01*
X113827285Y-72198666D01*
X113874904Y-72174857D01*
X113970142Y-72174857D01*
X114017761Y-72198666D01*
X114041571Y-72246285D01*
X114041571Y-72293904D01*
X113803476Y-72341523D01*
X74700142Y-71374857D02*
X74890619Y-71374857D01*
X74771571Y-71208190D02*
X74771571Y-71636761D01*
X74795380Y-71684380D01*
X74843000Y-71708190D01*
X74890619Y-71708190D01*
X75057285Y-71708190D02*
X75057285Y-71208190D01*
X75271571Y-71708190D02*
X75271571Y-71446285D01*
X75247761Y-71398666D01*
X75200142Y-71374857D01*
X75128714Y-71374857D01*
X75081095Y-71398666D01*
X75057285Y-71422476D01*
X75700142Y-71684380D02*
X75652523Y-71708190D01*
X75557285Y-71708190D01*
X75509666Y-71684380D01*
X75485857Y-71636761D01*
X75485857Y-71446285D01*
X75509666Y-71398666D01*
X75557285Y-71374857D01*
X75652523Y-71374857D01*
X75700142Y-71398666D01*
X75723952Y-71446285D01*
X75723952Y-71493904D01*
X75485857Y-71541523D01*
X76295380Y-71684380D02*
X76343000Y-71708190D01*
X76438238Y-71708190D01*
X76485857Y-71684380D01*
X76509666Y-71636761D01*
X76509666Y-71612952D01*
X76485857Y-71565333D01*
X76438238Y-71541523D01*
X76366809Y-71541523D01*
X76319190Y-71517714D01*
X76295380Y-71470095D01*
X76295380Y-71446285D01*
X76319190Y-71398666D01*
X76366809Y-71374857D01*
X76438238Y-71374857D01*
X76485857Y-71398666D01*
X76723952Y-71374857D02*
X76723952Y-71874857D01*
X76723952Y-71398666D02*
X76771571Y-71374857D01*
X76866809Y-71374857D01*
X76914428Y-71398666D01*
X76938238Y-71422476D01*
X76962047Y-71470095D01*
X76962047Y-71612952D01*
X76938238Y-71660571D01*
X76914428Y-71684380D01*
X76866809Y-71708190D01*
X76771571Y-71708190D01*
X76723952Y-71684380D01*
X77390619Y-71708190D02*
X77390619Y-71446285D01*
X77366809Y-71398666D01*
X77319190Y-71374857D01*
X77223952Y-71374857D01*
X77176333Y-71398666D01*
X77390619Y-71684380D02*
X77343000Y-71708190D01*
X77223952Y-71708190D01*
X77176333Y-71684380D01*
X77152523Y-71636761D01*
X77152523Y-71589142D01*
X77176333Y-71541523D01*
X77223952Y-71517714D01*
X77343000Y-71517714D01*
X77390619Y-71493904D01*
X77843000Y-71374857D02*
X77843000Y-71779619D01*
X77819190Y-71827238D01*
X77795380Y-71851047D01*
X77747761Y-71874857D01*
X77676333Y-71874857D01*
X77628714Y-71851047D01*
X77843000Y-71684380D02*
X77795380Y-71708190D01*
X77700142Y-71708190D01*
X77652523Y-71684380D01*
X77628714Y-71660571D01*
X77604904Y-71612952D01*
X77604904Y-71470095D01*
X77628714Y-71422476D01*
X77652523Y-71398666D01*
X77700142Y-71374857D01*
X77795380Y-71374857D01*
X77843000Y-71398666D01*
X78081095Y-71708190D02*
X78081095Y-71208190D01*
X78295380Y-71708190D02*
X78295380Y-71446285D01*
X78271571Y-71398666D01*
X78223952Y-71374857D01*
X78152523Y-71374857D01*
X78104904Y-71398666D01*
X78081095Y-71422476D01*
X78723952Y-71684380D02*
X78676333Y-71708190D01*
X78581095Y-71708190D01*
X78533476Y-71684380D01*
X78509666Y-71636761D01*
X78509666Y-71446285D01*
X78533476Y-71398666D01*
X78581095Y-71374857D01*
X78676333Y-71374857D01*
X78723952Y-71398666D01*
X78747761Y-71446285D01*
X78747761Y-71493904D01*
X78509666Y-71541523D01*
X78890619Y-71374857D02*
X79081095Y-71374857D01*
X78962047Y-71208190D02*
X78962047Y-71636761D01*
X78985857Y-71684380D01*
X79033476Y-71708190D01*
X79081095Y-71708190D01*
X79176333Y-71374857D02*
X79366809Y-71374857D01*
X79247761Y-71208190D02*
X79247761Y-71636761D01*
X79271571Y-71684380D01*
X79319190Y-71708190D01*
X79366809Y-71708190D01*
X79533476Y-71708190D02*
X79533476Y-71374857D01*
X79533476Y-71208190D02*
X79509666Y-71232000D01*
X79533476Y-71255809D01*
X79557285Y-71232000D01*
X79533476Y-71208190D01*
X79533476Y-71255809D01*
X75973952Y-72508190D02*
X75973952Y-72174857D01*
X75973952Y-72222476D02*
X75997761Y-72198666D01*
X76045380Y-72174857D01*
X76116809Y-72174857D01*
X76164428Y-72198666D01*
X76188238Y-72246285D01*
X76188238Y-72508190D01*
X76188238Y-72246285D02*
X76212047Y-72198666D01*
X76259666Y-72174857D01*
X76331095Y-72174857D01*
X76378714Y-72198666D01*
X76402523Y-72246285D01*
X76402523Y-72508190D01*
X76854904Y-72508190D02*
X76854904Y-72246285D01*
X76831095Y-72198666D01*
X76783476Y-72174857D01*
X76688238Y-72174857D01*
X76640619Y-72198666D01*
X76854904Y-72484380D02*
X76807285Y-72508190D01*
X76688238Y-72508190D01*
X76640619Y-72484380D01*
X76616809Y-72436761D01*
X76616809Y-72389142D01*
X76640619Y-72341523D01*
X76688238Y-72317714D01*
X76807285Y-72317714D01*
X76854904Y-72293904D01*
X77307285Y-72508190D02*
X77307285Y-72008190D01*
X77307285Y-72484380D02*
X77259666Y-72508190D01*
X77164428Y-72508190D01*
X77116809Y-72484380D01*
X77093000Y-72460571D01*
X77069190Y-72412952D01*
X77069190Y-72270095D01*
X77093000Y-72222476D01*
X77116809Y-72198666D01*
X77164428Y-72174857D01*
X77259666Y-72174857D01*
X77307285Y-72198666D01*
X77735857Y-72484380D02*
X77688238Y-72508190D01*
X77593000Y-72508190D01*
X77545380Y-72484380D01*
X77521571Y-72436761D01*
X77521571Y-72246285D01*
X77545380Y-72198666D01*
X77593000Y-72174857D01*
X77688238Y-72174857D01*
X77735857Y-72198666D01*
X77759666Y-72246285D01*
X77759666Y-72293904D01*
X77521571Y-72341523D01*
X78426333Y-72508190D02*
X78378714Y-72484380D01*
X78354904Y-72460571D01*
X78331095Y-72412952D01*
X78331095Y-72270095D01*
X78354904Y-72222476D01*
X78378714Y-72198666D01*
X78426333Y-72174857D01*
X78497761Y-72174857D01*
X78545380Y-72198666D01*
X78569190Y-72222476D01*
X78593000Y-72270095D01*
X78593000Y-72412952D01*
X78569190Y-72460571D01*
X78545380Y-72484380D01*
X78497761Y-72508190D01*
X78426333Y-72508190D01*
X78735857Y-72174857D02*
X78926333Y-72174857D01*
X78807285Y-72508190D02*
X78807285Y-72079619D01*
X78831095Y-72032000D01*
X78878714Y-72008190D01*
X78926333Y-72008190D01*
X79688238Y-72484380D02*
X79640619Y-72508190D01*
X79545380Y-72508190D01*
X79497761Y-72484380D01*
X79473952Y-72460571D01*
X79450142Y-72412952D01*
X79450142Y-72270095D01*
X79473952Y-72222476D01*
X79497761Y-72198666D01*
X79545380Y-72174857D01*
X79640619Y-72174857D01*
X79688238Y-72198666D01*
X79973952Y-72508190D02*
X79926333Y-72484380D01*
X79902523Y-72460571D01*
X79878714Y-72412952D01*
X79878714Y-72270095D01*
X79902523Y-72222476D01*
X79926333Y-72198666D01*
X79973952Y-72174857D01*
X80045380Y-72174857D01*
X80093000Y-72198666D01*
X80116809Y-72222476D01*
X80140619Y-72270095D01*
X80140619Y-72412952D01*
X80116809Y-72460571D01*
X80093000Y-72484380D01*
X80045380Y-72508190D01*
X79973952Y-72508190D01*
X80569190Y-72508190D02*
X80569190Y-72008190D01*
X80569190Y-72484380D02*
X80521571Y-72508190D01*
X80426333Y-72508190D01*
X80378714Y-72484380D01*
X80354904Y-72460571D01*
X80331095Y-72412952D01*
X80331095Y-72270095D01*
X80354904Y-72222476D01*
X80378714Y-72198666D01*
X80426333Y-72174857D01*
X80521571Y-72174857D01*
X80569190Y-72198666D01*
X80997761Y-72484380D02*
X80950142Y-72508190D01*
X80854904Y-72508190D01*
X80807285Y-72484380D01*
X80783476Y-72436761D01*
X80783476Y-72246285D01*
X80807285Y-72198666D01*
X80854904Y-72174857D01*
X80950142Y-72174857D01*
X80997761Y-72198666D01*
X81021571Y-72246285D01*
X81021571Y-72293904D01*
X80783476Y-72341523D01*
X140740142Y-53594857D02*
X140930619Y-53594857D01*
X140811571Y-53428190D02*
X140811571Y-53856761D01*
X140835380Y-53904380D01*
X140883000Y-53928190D01*
X140930619Y-53928190D01*
X141097285Y-53928190D02*
X141097285Y-53428190D01*
X141311571Y-53928190D02*
X141311571Y-53666285D01*
X141287761Y-53618666D01*
X141240142Y-53594857D01*
X141168714Y-53594857D01*
X141121095Y-53618666D01*
X141097285Y-53642476D01*
X141740142Y-53904380D02*
X141692523Y-53928190D01*
X141597285Y-53928190D01*
X141549666Y-53904380D01*
X141525857Y-53856761D01*
X141525857Y-53666285D01*
X141549666Y-53618666D01*
X141597285Y-53594857D01*
X141692523Y-53594857D01*
X141740142Y-53618666D01*
X141763952Y-53666285D01*
X141763952Y-53713904D01*
X141525857Y-53761523D01*
X142335380Y-53904380D02*
X142383000Y-53928190D01*
X142478238Y-53928190D01*
X142525857Y-53904380D01*
X142549666Y-53856761D01*
X142549666Y-53832952D01*
X142525857Y-53785333D01*
X142478238Y-53761523D01*
X142406809Y-53761523D01*
X142359190Y-53737714D01*
X142335380Y-53690095D01*
X142335380Y-53666285D01*
X142359190Y-53618666D01*
X142406809Y-53594857D01*
X142478238Y-53594857D01*
X142525857Y-53618666D01*
X142763952Y-53594857D02*
X142763952Y-54094857D01*
X142763952Y-53618666D02*
X142811571Y-53594857D01*
X142906809Y-53594857D01*
X142954428Y-53618666D01*
X142978238Y-53642476D01*
X143002047Y-53690095D01*
X143002047Y-53832952D01*
X142978238Y-53880571D01*
X142954428Y-53904380D01*
X142906809Y-53928190D01*
X142811571Y-53928190D01*
X142763952Y-53904380D01*
X143430619Y-53928190D02*
X143430619Y-53666285D01*
X143406809Y-53618666D01*
X143359190Y-53594857D01*
X143263952Y-53594857D01*
X143216333Y-53618666D01*
X143430619Y-53904380D02*
X143383000Y-53928190D01*
X143263952Y-53928190D01*
X143216333Y-53904380D01*
X143192523Y-53856761D01*
X143192523Y-53809142D01*
X143216333Y-53761523D01*
X143263952Y-53737714D01*
X143383000Y-53737714D01*
X143430619Y-53713904D01*
X143883000Y-53594857D02*
X143883000Y-53999619D01*
X143859190Y-54047238D01*
X143835380Y-54071047D01*
X143787761Y-54094857D01*
X143716333Y-54094857D01*
X143668714Y-54071047D01*
X143883000Y-53904380D02*
X143835380Y-53928190D01*
X143740142Y-53928190D01*
X143692523Y-53904380D01*
X143668714Y-53880571D01*
X143644904Y-53832952D01*
X143644904Y-53690095D01*
X143668714Y-53642476D01*
X143692523Y-53618666D01*
X143740142Y-53594857D01*
X143835380Y-53594857D01*
X143883000Y-53618666D01*
X144121095Y-53928190D02*
X144121095Y-53428190D01*
X144335380Y-53928190D02*
X144335380Y-53666285D01*
X144311571Y-53618666D01*
X144263952Y-53594857D01*
X144192523Y-53594857D01*
X144144904Y-53618666D01*
X144121095Y-53642476D01*
X144763952Y-53904380D02*
X144716333Y-53928190D01*
X144621095Y-53928190D01*
X144573476Y-53904380D01*
X144549666Y-53856761D01*
X144549666Y-53666285D01*
X144573476Y-53618666D01*
X144621095Y-53594857D01*
X144716333Y-53594857D01*
X144763952Y-53618666D01*
X144787761Y-53666285D01*
X144787761Y-53713904D01*
X144549666Y-53761523D01*
X144930619Y-53594857D02*
X145121095Y-53594857D01*
X145002047Y-53428190D02*
X145002047Y-53856761D01*
X145025857Y-53904380D01*
X145073476Y-53928190D01*
X145121095Y-53928190D01*
X145216333Y-53594857D02*
X145406809Y-53594857D01*
X145287761Y-53428190D02*
X145287761Y-53856761D01*
X145311571Y-53904380D01*
X145359190Y-53928190D01*
X145406809Y-53928190D01*
X145573476Y-53928190D02*
X145573476Y-53594857D01*
X145573476Y-53428190D02*
X145549666Y-53452000D01*
X145573476Y-53475809D01*
X145597285Y-53452000D01*
X145573476Y-53428190D01*
X145573476Y-53475809D01*
X142013952Y-54728190D02*
X142013952Y-54394857D01*
X142013952Y-54442476D02*
X142037761Y-54418666D01*
X142085380Y-54394857D01*
X142156809Y-54394857D01*
X142204428Y-54418666D01*
X142228238Y-54466285D01*
X142228238Y-54728190D01*
X142228238Y-54466285D02*
X142252047Y-54418666D01*
X142299666Y-54394857D01*
X142371095Y-54394857D01*
X142418714Y-54418666D01*
X142442523Y-54466285D01*
X142442523Y-54728190D01*
X142894904Y-54728190D02*
X142894904Y-54466285D01*
X142871095Y-54418666D01*
X142823476Y-54394857D01*
X142728238Y-54394857D01*
X142680619Y-54418666D01*
X142894904Y-54704380D02*
X142847285Y-54728190D01*
X142728238Y-54728190D01*
X142680619Y-54704380D01*
X142656809Y-54656761D01*
X142656809Y-54609142D01*
X142680619Y-54561523D01*
X142728238Y-54537714D01*
X142847285Y-54537714D01*
X142894904Y-54513904D01*
X143347285Y-54728190D02*
X143347285Y-54228190D01*
X143347285Y-54704380D02*
X143299666Y-54728190D01*
X143204428Y-54728190D01*
X143156809Y-54704380D01*
X143133000Y-54680571D01*
X143109190Y-54632952D01*
X143109190Y-54490095D01*
X143133000Y-54442476D01*
X143156809Y-54418666D01*
X143204428Y-54394857D01*
X143299666Y-54394857D01*
X143347285Y-54418666D01*
X143775857Y-54704380D02*
X143728238Y-54728190D01*
X143633000Y-54728190D01*
X143585380Y-54704380D01*
X143561571Y-54656761D01*
X143561571Y-54466285D01*
X143585380Y-54418666D01*
X143633000Y-54394857D01*
X143728238Y-54394857D01*
X143775857Y-54418666D01*
X143799666Y-54466285D01*
X143799666Y-54513904D01*
X143561571Y-54561523D01*
X144466333Y-54728190D02*
X144418714Y-54704380D01*
X144394904Y-54680571D01*
X144371095Y-54632952D01*
X144371095Y-54490095D01*
X144394904Y-54442476D01*
X144418714Y-54418666D01*
X144466333Y-54394857D01*
X144537761Y-54394857D01*
X144585380Y-54418666D01*
X144609190Y-54442476D01*
X144633000Y-54490095D01*
X144633000Y-54632952D01*
X144609190Y-54680571D01*
X144585380Y-54704380D01*
X144537761Y-54728190D01*
X144466333Y-54728190D01*
X144775857Y-54394857D02*
X144966333Y-54394857D01*
X144847285Y-54728190D02*
X144847285Y-54299619D01*
X144871095Y-54252000D01*
X144918714Y-54228190D01*
X144966333Y-54228190D01*
X145728238Y-54704380D02*
X145680619Y-54728190D01*
X145585380Y-54728190D01*
X145537761Y-54704380D01*
X145513952Y-54680571D01*
X145490142Y-54632952D01*
X145490142Y-54490095D01*
X145513952Y-54442476D01*
X145537761Y-54418666D01*
X145585380Y-54394857D01*
X145680619Y-54394857D01*
X145728238Y-54418666D01*
X146013952Y-54728190D02*
X145966333Y-54704380D01*
X145942523Y-54680571D01*
X145918714Y-54632952D01*
X145918714Y-54490095D01*
X145942523Y-54442476D01*
X145966333Y-54418666D01*
X146013952Y-54394857D01*
X146085380Y-54394857D01*
X146133000Y-54418666D01*
X146156809Y-54442476D01*
X146180619Y-54490095D01*
X146180619Y-54632952D01*
X146156809Y-54680571D01*
X146133000Y-54704380D01*
X146085380Y-54728190D01*
X146013952Y-54728190D01*
X146609190Y-54728190D02*
X146609190Y-54228190D01*
X146609190Y-54704380D02*
X146561571Y-54728190D01*
X146466333Y-54728190D01*
X146418714Y-54704380D01*
X146394904Y-54680571D01*
X146371095Y-54632952D01*
X146371095Y-54490095D01*
X146394904Y-54442476D01*
X146418714Y-54418666D01*
X146466333Y-54394857D01*
X146561571Y-54394857D01*
X146609190Y-54418666D01*
X147037761Y-54704380D02*
X146990142Y-54728190D01*
X146894904Y-54728190D01*
X146847285Y-54704380D01*
X146823476Y-54656761D01*
X146823476Y-54466285D01*
X146847285Y-54418666D01*
X146894904Y-54394857D01*
X146990142Y-54394857D01*
X147037761Y-54418666D01*
X147061571Y-54466285D01*
X147061571Y-54513904D01*
X146823476Y-54561523D01*
X107720142Y-53594857D02*
X107910619Y-53594857D01*
X107791571Y-53428190D02*
X107791571Y-53856761D01*
X107815380Y-53904380D01*
X107863000Y-53928190D01*
X107910619Y-53928190D01*
X108077285Y-53928190D02*
X108077285Y-53428190D01*
X108291571Y-53928190D02*
X108291571Y-53666285D01*
X108267761Y-53618666D01*
X108220142Y-53594857D01*
X108148714Y-53594857D01*
X108101095Y-53618666D01*
X108077285Y-53642476D01*
X108720142Y-53904380D02*
X108672523Y-53928190D01*
X108577285Y-53928190D01*
X108529666Y-53904380D01*
X108505857Y-53856761D01*
X108505857Y-53666285D01*
X108529666Y-53618666D01*
X108577285Y-53594857D01*
X108672523Y-53594857D01*
X108720142Y-53618666D01*
X108743952Y-53666285D01*
X108743952Y-53713904D01*
X108505857Y-53761523D01*
X109315380Y-53904380D02*
X109363000Y-53928190D01*
X109458238Y-53928190D01*
X109505857Y-53904380D01*
X109529666Y-53856761D01*
X109529666Y-53832952D01*
X109505857Y-53785333D01*
X109458238Y-53761523D01*
X109386809Y-53761523D01*
X109339190Y-53737714D01*
X109315380Y-53690095D01*
X109315380Y-53666285D01*
X109339190Y-53618666D01*
X109386809Y-53594857D01*
X109458238Y-53594857D01*
X109505857Y-53618666D01*
X109743952Y-53594857D02*
X109743952Y-54094857D01*
X109743952Y-53618666D02*
X109791571Y-53594857D01*
X109886809Y-53594857D01*
X109934428Y-53618666D01*
X109958238Y-53642476D01*
X109982047Y-53690095D01*
X109982047Y-53832952D01*
X109958238Y-53880571D01*
X109934428Y-53904380D01*
X109886809Y-53928190D01*
X109791571Y-53928190D01*
X109743952Y-53904380D01*
X110410619Y-53928190D02*
X110410619Y-53666285D01*
X110386809Y-53618666D01*
X110339190Y-53594857D01*
X110243952Y-53594857D01*
X110196333Y-53618666D01*
X110410619Y-53904380D02*
X110363000Y-53928190D01*
X110243952Y-53928190D01*
X110196333Y-53904380D01*
X110172523Y-53856761D01*
X110172523Y-53809142D01*
X110196333Y-53761523D01*
X110243952Y-53737714D01*
X110363000Y-53737714D01*
X110410619Y-53713904D01*
X110863000Y-53594857D02*
X110863000Y-53999619D01*
X110839190Y-54047238D01*
X110815380Y-54071047D01*
X110767761Y-54094857D01*
X110696333Y-54094857D01*
X110648714Y-54071047D01*
X110863000Y-53904380D02*
X110815380Y-53928190D01*
X110720142Y-53928190D01*
X110672523Y-53904380D01*
X110648714Y-53880571D01*
X110624904Y-53832952D01*
X110624904Y-53690095D01*
X110648714Y-53642476D01*
X110672523Y-53618666D01*
X110720142Y-53594857D01*
X110815380Y-53594857D01*
X110863000Y-53618666D01*
X111101095Y-53928190D02*
X111101095Y-53428190D01*
X111315380Y-53928190D02*
X111315380Y-53666285D01*
X111291571Y-53618666D01*
X111243952Y-53594857D01*
X111172523Y-53594857D01*
X111124904Y-53618666D01*
X111101095Y-53642476D01*
X111743952Y-53904380D02*
X111696333Y-53928190D01*
X111601095Y-53928190D01*
X111553476Y-53904380D01*
X111529666Y-53856761D01*
X111529666Y-53666285D01*
X111553476Y-53618666D01*
X111601095Y-53594857D01*
X111696333Y-53594857D01*
X111743952Y-53618666D01*
X111767761Y-53666285D01*
X111767761Y-53713904D01*
X111529666Y-53761523D01*
X111910619Y-53594857D02*
X112101095Y-53594857D01*
X111982047Y-53428190D02*
X111982047Y-53856761D01*
X112005857Y-53904380D01*
X112053476Y-53928190D01*
X112101095Y-53928190D01*
X112196333Y-53594857D02*
X112386809Y-53594857D01*
X112267761Y-53428190D02*
X112267761Y-53856761D01*
X112291571Y-53904380D01*
X112339190Y-53928190D01*
X112386809Y-53928190D01*
X112553476Y-53928190D02*
X112553476Y-53594857D01*
X112553476Y-53428190D02*
X112529666Y-53452000D01*
X112553476Y-53475809D01*
X112577285Y-53452000D01*
X112553476Y-53428190D01*
X112553476Y-53475809D01*
X108993952Y-54728190D02*
X108993952Y-54394857D01*
X108993952Y-54442476D02*
X109017761Y-54418666D01*
X109065380Y-54394857D01*
X109136809Y-54394857D01*
X109184428Y-54418666D01*
X109208238Y-54466285D01*
X109208238Y-54728190D01*
X109208238Y-54466285D02*
X109232047Y-54418666D01*
X109279666Y-54394857D01*
X109351095Y-54394857D01*
X109398714Y-54418666D01*
X109422523Y-54466285D01*
X109422523Y-54728190D01*
X109874904Y-54728190D02*
X109874904Y-54466285D01*
X109851095Y-54418666D01*
X109803476Y-54394857D01*
X109708238Y-54394857D01*
X109660619Y-54418666D01*
X109874904Y-54704380D02*
X109827285Y-54728190D01*
X109708238Y-54728190D01*
X109660619Y-54704380D01*
X109636809Y-54656761D01*
X109636809Y-54609142D01*
X109660619Y-54561523D01*
X109708238Y-54537714D01*
X109827285Y-54537714D01*
X109874904Y-54513904D01*
X110327285Y-54728190D02*
X110327285Y-54228190D01*
X110327285Y-54704380D02*
X110279666Y-54728190D01*
X110184428Y-54728190D01*
X110136809Y-54704380D01*
X110113000Y-54680571D01*
X110089190Y-54632952D01*
X110089190Y-54490095D01*
X110113000Y-54442476D01*
X110136809Y-54418666D01*
X110184428Y-54394857D01*
X110279666Y-54394857D01*
X110327285Y-54418666D01*
X110755857Y-54704380D02*
X110708238Y-54728190D01*
X110613000Y-54728190D01*
X110565380Y-54704380D01*
X110541571Y-54656761D01*
X110541571Y-54466285D01*
X110565380Y-54418666D01*
X110613000Y-54394857D01*
X110708238Y-54394857D01*
X110755857Y-54418666D01*
X110779666Y-54466285D01*
X110779666Y-54513904D01*
X110541571Y-54561523D01*
X111446333Y-54728190D02*
X111398714Y-54704380D01*
X111374904Y-54680571D01*
X111351095Y-54632952D01*
X111351095Y-54490095D01*
X111374904Y-54442476D01*
X111398714Y-54418666D01*
X111446333Y-54394857D01*
X111517761Y-54394857D01*
X111565380Y-54418666D01*
X111589190Y-54442476D01*
X111613000Y-54490095D01*
X111613000Y-54632952D01*
X111589190Y-54680571D01*
X111565380Y-54704380D01*
X111517761Y-54728190D01*
X111446333Y-54728190D01*
X111755857Y-54394857D02*
X111946333Y-54394857D01*
X111827285Y-54728190D02*
X111827285Y-54299619D01*
X111851095Y-54252000D01*
X111898714Y-54228190D01*
X111946333Y-54228190D01*
X112708238Y-54704380D02*
X112660619Y-54728190D01*
X112565380Y-54728190D01*
X112517761Y-54704380D01*
X112493952Y-54680571D01*
X112470142Y-54632952D01*
X112470142Y-54490095D01*
X112493952Y-54442476D01*
X112517761Y-54418666D01*
X112565380Y-54394857D01*
X112660619Y-54394857D01*
X112708238Y-54418666D01*
X112993952Y-54728190D02*
X112946333Y-54704380D01*
X112922523Y-54680571D01*
X112898714Y-54632952D01*
X112898714Y-54490095D01*
X112922523Y-54442476D01*
X112946333Y-54418666D01*
X112993952Y-54394857D01*
X113065380Y-54394857D01*
X113113000Y-54418666D01*
X113136809Y-54442476D01*
X113160619Y-54490095D01*
X113160619Y-54632952D01*
X113136809Y-54680571D01*
X113113000Y-54704380D01*
X113065380Y-54728190D01*
X112993952Y-54728190D01*
X113589190Y-54728190D02*
X113589190Y-54228190D01*
X113589190Y-54704380D02*
X113541571Y-54728190D01*
X113446333Y-54728190D01*
X113398714Y-54704380D01*
X113374904Y-54680571D01*
X113351095Y-54632952D01*
X113351095Y-54490095D01*
X113374904Y-54442476D01*
X113398714Y-54418666D01*
X113446333Y-54394857D01*
X113541571Y-54394857D01*
X113589190Y-54418666D01*
X114017761Y-54704380D02*
X113970142Y-54728190D01*
X113874904Y-54728190D01*
X113827285Y-54704380D01*
X113803476Y-54656761D01*
X113803476Y-54466285D01*
X113827285Y-54418666D01*
X113874904Y-54394857D01*
X113970142Y-54394857D01*
X114017761Y-54418666D01*
X114041571Y-54466285D01*
X114041571Y-54513904D01*
X113803476Y-54561523D01*
D10*
X61904523Y-48617142D02*
X61856904Y-48664761D01*
X61714047Y-48712380D01*
X61618809Y-48712380D01*
X61475952Y-48664761D01*
X61380714Y-48569523D01*
X61333095Y-48474285D01*
X61285476Y-48283809D01*
X61285476Y-48140952D01*
X61333095Y-47950476D01*
X61380714Y-47855238D01*
X61475952Y-47760000D01*
X61618809Y-47712380D01*
X61714047Y-47712380D01*
X61856904Y-47760000D01*
X61904523Y-47807619D01*
X77144523Y-48617142D02*
X77096904Y-48664761D01*
X76954047Y-48712380D01*
X76858809Y-48712380D01*
X76715952Y-48664761D01*
X76620714Y-48569523D01*
X76573095Y-48474285D01*
X76525476Y-48283809D01*
X76525476Y-48140952D01*
X76573095Y-47950476D01*
X76620714Y-47855238D01*
X76715952Y-47760000D01*
X76858809Y-47712380D01*
X76954047Y-47712380D01*
X77096904Y-47760000D01*
X77144523Y-47807619D01*
X75835000Y-45172380D02*
X76025476Y-45172380D01*
X76120714Y-45220000D01*
X76215952Y-45315238D01*
X76263571Y-45505714D01*
X76263571Y-45839047D01*
X76215952Y-46029523D01*
X76120714Y-46124761D01*
X76025476Y-46172380D01*
X75835000Y-46172380D01*
X75739761Y-46124761D01*
X75644523Y-46029523D01*
X75596904Y-45839047D01*
X75596904Y-45505714D01*
X75644523Y-45315238D01*
X75739761Y-45220000D01*
X75835000Y-45172380D01*
X76692142Y-45172380D02*
X76692142Y-45981904D01*
X76739761Y-46077142D01*
X76787380Y-46124761D01*
X76882619Y-46172380D01*
X77073095Y-46172380D01*
X77168333Y-46124761D01*
X77215952Y-46077142D01*
X77263571Y-45981904D01*
X77263571Y-45172380D01*
X77596904Y-45172380D02*
X78168333Y-45172380D01*
X77882619Y-46172380D02*
X77882619Y-45172380D01*
X59944047Y-55951428D02*
X60705952Y-55951428D01*
X60325000Y-56332380D02*
X60325000Y-55570476D01*
X59944047Y-53411428D02*
X60705952Y-53411428D01*
X62388809Y-46172380D02*
X62388809Y-45172380D01*
X63388809Y-46172380D02*
X62817380Y-46172380D01*
X63103095Y-46172380D02*
X63103095Y-45172380D01*
X63007857Y-45315238D01*
X62912619Y-45410476D01*
X62817380Y-45458095D01*
X59848809Y-46172380D02*
X59848809Y-45172380D01*
X60515476Y-45172380D02*
X60610714Y-45172380D01*
X60705952Y-45220000D01*
X60753571Y-45267619D01*
X60801190Y-45362857D01*
X60848809Y-45553333D01*
X60848809Y-45791428D01*
X60801190Y-45981904D01*
X60753571Y-46077142D01*
X60705952Y-46124761D01*
X60610714Y-46172380D01*
X60515476Y-46172380D01*
X60420238Y-46124761D01*
X60372619Y-46077142D01*
X60325000Y-45981904D01*
X60277380Y-45791428D01*
X60277380Y-45553333D01*
X60325000Y-45362857D01*
X60372619Y-45267619D01*
X60420238Y-45220000D01*
X60515476Y-45172380D01*
D12*
X74700142Y-53594857D02*
X74890619Y-53594857D01*
X74771571Y-53428190D02*
X74771571Y-53856761D01*
X74795380Y-53904380D01*
X74843000Y-53928190D01*
X74890619Y-53928190D01*
X75057285Y-53928190D02*
X75057285Y-53428190D01*
X75271571Y-53928190D02*
X75271571Y-53666285D01*
X75247761Y-53618666D01*
X75200142Y-53594857D01*
X75128714Y-53594857D01*
X75081095Y-53618666D01*
X75057285Y-53642476D01*
X75700142Y-53904380D02*
X75652523Y-53928190D01*
X75557285Y-53928190D01*
X75509666Y-53904380D01*
X75485857Y-53856761D01*
X75485857Y-53666285D01*
X75509666Y-53618666D01*
X75557285Y-53594857D01*
X75652523Y-53594857D01*
X75700142Y-53618666D01*
X75723952Y-53666285D01*
X75723952Y-53713904D01*
X75485857Y-53761523D01*
X76295380Y-53904380D02*
X76343000Y-53928190D01*
X76438238Y-53928190D01*
X76485857Y-53904380D01*
X76509666Y-53856761D01*
X76509666Y-53832952D01*
X76485857Y-53785333D01*
X76438238Y-53761523D01*
X76366809Y-53761523D01*
X76319190Y-53737714D01*
X76295380Y-53690095D01*
X76295380Y-53666285D01*
X76319190Y-53618666D01*
X76366809Y-53594857D01*
X76438238Y-53594857D01*
X76485857Y-53618666D01*
X76723952Y-53594857D02*
X76723952Y-54094857D01*
X76723952Y-53618666D02*
X76771571Y-53594857D01*
X76866809Y-53594857D01*
X76914428Y-53618666D01*
X76938238Y-53642476D01*
X76962047Y-53690095D01*
X76962047Y-53832952D01*
X76938238Y-53880571D01*
X76914428Y-53904380D01*
X76866809Y-53928190D01*
X76771571Y-53928190D01*
X76723952Y-53904380D01*
X77390619Y-53928190D02*
X77390619Y-53666285D01*
X77366809Y-53618666D01*
X77319190Y-53594857D01*
X77223952Y-53594857D01*
X77176333Y-53618666D01*
X77390619Y-53904380D02*
X77343000Y-53928190D01*
X77223952Y-53928190D01*
X77176333Y-53904380D01*
X77152523Y-53856761D01*
X77152523Y-53809142D01*
X77176333Y-53761523D01*
X77223952Y-53737714D01*
X77343000Y-53737714D01*
X77390619Y-53713904D01*
X77843000Y-53594857D02*
X77843000Y-53999619D01*
X77819190Y-54047238D01*
X77795380Y-54071047D01*
X77747761Y-54094857D01*
X77676333Y-54094857D01*
X77628714Y-54071047D01*
X77843000Y-53904380D02*
X77795380Y-53928190D01*
X77700142Y-53928190D01*
X77652523Y-53904380D01*
X77628714Y-53880571D01*
X77604904Y-53832952D01*
X77604904Y-53690095D01*
X77628714Y-53642476D01*
X77652523Y-53618666D01*
X77700142Y-53594857D01*
X77795380Y-53594857D01*
X77843000Y-53618666D01*
X78081095Y-53928190D02*
X78081095Y-53428190D01*
X78295380Y-53928190D02*
X78295380Y-53666285D01*
X78271571Y-53618666D01*
X78223952Y-53594857D01*
X78152523Y-53594857D01*
X78104904Y-53618666D01*
X78081095Y-53642476D01*
X78723952Y-53904380D02*
X78676333Y-53928190D01*
X78581095Y-53928190D01*
X78533476Y-53904380D01*
X78509666Y-53856761D01*
X78509666Y-53666285D01*
X78533476Y-53618666D01*
X78581095Y-53594857D01*
X78676333Y-53594857D01*
X78723952Y-53618666D01*
X78747761Y-53666285D01*
X78747761Y-53713904D01*
X78509666Y-53761523D01*
X78890619Y-53594857D02*
X79081095Y-53594857D01*
X78962047Y-53428190D02*
X78962047Y-53856761D01*
X78985857Y-53904380D01*
X79033476Y-53928190D01*
X79081095Y-53928190D01*
X79176333Y-53594857D02*
X79366809Y-53594857D01*
X79247761Y-53428190D02*
X79247761Y-53856761D01*
X79271571Y-53904380D01*
X79319190Y-53928190D01*
X79366809Y-53928190D01*
X79533476Y-53928190D02*
X79533476Y-53594857D01*
X79533476Y-53428190D02*
X79509666Y-53452000D01*
X79533476Y-53475809D01*
X79557285Y-53452000D01*
X79533476Y-53428190D01*
X79533476Y-53475809D01*
X75973952Y-54728190D02*
X75973952Y-54394857D01*
X75973952Y-54442476D02*
X75997761Y-54418666D01*
X76045380Y-54394857D01*
X76116809Y-54394857D01*
X76164428Y-54418666D01*
X76188238Y-54466285D01*
X76188238Y-54728190D01*
X76188238Y-54466285D02*
X76212047Y-54418666D01*
X76259666Y-54394857D01*
X76331095Y-54394857D01*
X76378714Y-54418666D01*
X76402523Y-54466285D01*
X76402523Y-54728190D01*
X76854904Y-54728190D02*
X76854904Y-54466285D01*
X76831095Y-54418666D01*
X76783476Y-54394857D01*
X76688238Y-54394857D01*
X76640619Y-54418666D01*
X76854904Y-54704380D02*
X76807285Y-54728190D01*
X76688238Y-54728190D01*
X76640619Y-54704380D01*
X76616809Y-54656761D01*
X76616809Y-54609142D01*
X76640619Y-54561523D01*
X76688238Y-54537714D01*
X76807285Y-54537714D01*
X76854904Y-54513904D01*
X77307285Y-54728190D02*
X77307285Y-54228190D01*
X77307285Y-54704380D02*
X77259666Y-54728190D01*
X77164428Y-54728190D01*
X77116809Y-54704380D01*
X77093000Y-54680571D01*
X77069190Y-54632952D01*
X77069190Y-54490095D01*
X77093000Y-54442476D01*
X77116809Y-54418666D01*
X77164428Y-54394857D01*
X77259666Y-54394857D01*
X77307285Y-54418666D01*
X77735857Y-54704380D02*
X77688238Y-54728190D01*
X77593000Y-54728190D01*
X77545380Y-54704380D01*
X77521571Y-54656761D01*
X77521571Y-54466285D01*
X77545380Y-54418666D01*
X77593000Y-54394857D01*
X77688238Y-54394857D01*
X77735857Y-54418666D01*
X77759666Y-54466285D01*
X77759666Y-54513904D01*
X77521571Y-54561523D01*
X78426333Y-54728190D02*
X78378714Y-54704380D01*
X78354904Y-54680571D01*
X78331095Y-54632952D01*
X78331095Y-54490095D01*
X78354904Y-54442476D01*
X78378714Y-54418666D01*
X78426333Y-54394857D01*
X78497761Y-54394857D01*
X78545380Y-54418666D01*
X78569190Y-54442476D01*
X78593000Y-54490095D01*
X78593000Y-54632952D01*
X78569190Y-54680571D01*
X78545380Y-54704380D01*
X78497761Y-54728190D01*
X78426333Y-54728190D01*
X78735857Y-54394857D02*
X78926333Y-54394857D01*
X78807285Y-54728190D02*
X78807285Y-54299619D01*
X78831095Y-54252000D01*
X78878714Y-54228190D01*
X78926333Y-54228190D01*
X79688238Y-54704380D02*
X79640619Y-54728190D01*
X79545380Y-54728190D01*
X79497761Y-54704380D01*
X79473952Y-54680571D01*
X79450142Y-54632952D01*
X79450142Y-54490095D01*
X79473952Y-54442476D01*
X79497761Y-54418666D01*
X79545380Y-54394857D01*
X79640619Y-54394857D01*
X79688238Y-54418666D01*
X79973952Y-54728190D02*
X79926333Y-54704380D01*
X79902523Y-54680571D01*
X79878714Y-54632952D01*
X79878714Y-54490095D01*
X79902523Y-54442476D01*
X79926333Y-54418666D01*
X79973952Y-54394857D01*
X80045380Y-54394857D01*
X80093000Y-54418666D01*
X80116809Y-54442476D01*
X80140619Y-54490095D01*
X80140619Y-54632952D01*
X80116809Y-54680571D01*
X80093000Y-54704380D01*
X80045380Y-54728190D01*
X79973952Y-54728190D01*
X80569190Y-54728190D02*
X80569190Y-54228190D01*
X80569190Y-54704380D02*
X80521571Y-54728190D01*
X80426333Y-54728190D01*
X80378714Y-54704380D01*
X80354904Y-54680571D01*
X80331095Y-54632952D01*
X80331095Y-54490095D01*
X80354904Y-54442476D01*
X80378714Y-54418666D01*
X80426333Y-54394857D01*
X80521571Y-54394857D01*
X80569190Y-54418666D01*
X80997761Y-54704380D02*
X80950142Y-54728190D01*
X80854904Y-54728190D01*
X80807285Y-54704380D01*
X80783476Y-54656761D01*
X80783476Y-54466285D01*
X80807285Y-54418666D01*
X80854904Y-54394857D01*
X80950142Y-54394857D01*
X80997761Y-54418666D01*
X81021571Y-54466285D01*
X81021571Y-54513904D01*
X80783476Y-54561523D01*
D11*
X74942142Y-52320000D02*
X75656428Y-52320000D01*
X74799285Y-52748571D02*
X75299285Y-51248571D01*
X75799285Y-52748571D01*
X76299285Y-52748571D02*
X76299285Y-51248571D01*
X77156428Y-52748571D01*
X77156428Y-51248571D01*
X77870714Y-52748571D02*
X77870714Y-51248571D01*
X78227857Y-51248571D01*
X78442142Y-51320000D01*
X78585000Y-51462857D01*
X78656428Y-51605714D01*
X78727857Y-51891428D01*
X78727857Y-52105714D01*
X78656428Y-52391428D01*
X78585000Y-52534285D01*
X78442142Y-52677142D01*
X78227857Y-52748571D01*
X77870714Y-52748571D01*
D13*
X114935000Y-112395000D02*
X125095000Y-112395000D01*
X125095000Y-112395000D02*
X125095000Y-128905000D01*
X125095000Y-128905000D02*
X114935000Y-128905000D01*
X114935000Y-128905000D02*
X114935000Y-112395000D01*
X81915000Y-112395000D02*
X92075000Y-112395000D01*
X92075000Y-112395000D02*
X92075000Y-128905000D01*
X92075000Y-128905000D02*
X81915000Y-128905000D01*
X81915000Y-128905000D02*
X81915000Y-112395000D01*
X48895000Y-112395000D02*
X59055000Y-112395000D01*
X59055000Y-112395000D02*
X59055000Y-128905000D01*
X59055000Y-128905000D02*
X48895000Y-128905000D01*
X48895000Y-128905000D02*
X48895000Y-112395000D01*
X114935000Y-94615000D02*
X125095000Y-94615000D01*
X125095000Y-94615000D02*
X125095000Y-111125000D01*
X125095000Y-111125000D02*
X114935000Y-111125000D01*
X114935000Y-111125000D02*
X114935000Y-94615000D01*
X81915000Y-94615000D02*
X92075000Y-94615000D01*
X92075000Y-94615000D02*
X92075000Y-111125000D01*
X92075000Y-111125000D02*
X81915000Y-111125000D01*
X81915000Y-111125000D02*
X81915000Y-94615000D01*
X48895000Y-94615000D02*
X59055000Y-94615000D01*
X59055000Y-94615000D02*
X59055000Y-111125000D01*
X59055000Y-111125000D02*
X48895000Y-111125000D01*
X48895000Y-111125000D02*
X48895000Y-94615000D01*
X114935000Y-76835000D02*
X125095000Y-76835000D01*
X125095000Y-76835000D02*
X125095000Y-93345000D01*
X125095000Y-93345000D02*
X114935000Y-93345000D01*
X114935000Y-93345000D02*
X114935000Y-76835000D01*
X81915000Y-76835000D02*
X92075000Y-76835000D01*
X92075000Y-76835000D02*
X92075000Y-93345000D01*
X92075000Y-93345000D02*
X81915000Y-93345000D01*
X81915000Y-93345000D02*
X81915000Y-76835000D01*
X48895000Y-76835000D02*
X59055000Y-76835000D01*
X59055000Y-76835000D02*
X59055000Y-93345000D01*
X59055000Y-93345000D02*
X48895000Y-93345000D01*
X48895000Y-93345000D02*
X48895000Y-76835000D01*
X114935000Y-59055000D02*
X125095000Y-59055000D01*
X125095000Y-59055000D02*
X125095000Y-75565000D01*
X125095000Y-75565000D02*
X114935000Y-75565000D01*
X114935000Y-75565000D02*
X114935000Y-59055000D01*
X81915000Y-59055000D02*
X92075000Y-59055000D01*
X92075000Y-59055000D02*
X92075000Y-75565000D01*
X92075000Y-75565000D02*
X81915000Y-75565000D01*
X81915000Y-75565000D02*
X81915000Y-59055000D01*
X48895000Y-59055000D02*
X59055000Y-59055000D01*
X59055000Y-59055000D02*
X59055000Y-75565000D01*
X59055000Y-75565000D02*
X48895000Y-75565000D01*
X48895000Y-75565000D02*
X48895000Y-59055000D01*
X114935000Y-41275000D02*
X125095000Y-41275000D01*
X125095000Y-41275000D02*
X125095000Y-57785000D01*
X125095000Y-57785000D02*
X114935000Y-57785000D01*
X114935000Y-57785000D02*
X114935000Y-41275000D01*
X81915000Y-41275000D02*
X92075000Y-41275000D01*
X92075000Y-41275000D02*
X92075000Y-57785000D01*
X92075000Y-57785000D02*
X81915000Y-57785000D01*
X81915000Y-57785000D02*
X81915000Y-41275000D01*
X129667000Y-122047000D02*
X125603000Y-122047000D01*
X125603000Y-122047000D02*
X125603000Y-120523000D01*
X125603000Y-120523000D02*
X129667000Y-120523000D01*
X129667000Y-120523000D02*
X129667000Y-122047000D01*
X96647000Y-122047000D02*
X92583000Y-122047000D01*
X92583000Y-122047000D02*
X92583000Y-120523000D01*
X92583000Y-120523000D02*
X96647000Y-120523000D01*
X96647000Y-120523000D02*
X96647000Y-122047000D01*
X63627000Y-122047000D02*
X59563000Y-122047000D01*
X59563000Y-122047000D02*
X59563000Y-120523000D01*
X59563000Y-120523000D02*
X63627000Y-120523000D01*
X63627000Y-120523000D02*
X63627000Y-122047000D01*
X129667000Y-104267000D02*
X125603000Y-104267000D01*
X125603000Y-104267000D02*
X125603000Y-102743000D01*
X125603000Y-102743000D02*
X129667000Y-102743000D01*
X129667000Y-102743000D02*
X129667000Y-104267000D01*
X96647000Y-104267000D02*
X92583000Y-104267000D01*
X92583000Y-104267000D02*
X92583000Y-102743000D01*
X92583000Y-102743000D02*
X96647000Y-102743000D01*
X96647000Y-102743000D02*
X96647000Y-104267000D01*
X63627000Y-104267000D02*
X59563000Y-104267000D01*
X59563000Y-104267000D02*
X59563000Y-102743000D01*
X59563000Y-102743000D02*
X63627000Y-102743000D01*
X63627000Y-102743000D02*
X63627000Y-104267000D01*
X129667000Y-86487000D02*
X125603000Y-86487000D01*
X125603000Y-86487000D02*
X125603000Y-84963000D01*
X125603000Y-84963000D02*
X129667000Y-84963000D01*
X129667000Y-84963000D02*
X129667000Y-86487000D01*
X96647000Y-86487000D02*
X92583000Y-86487000D01*
X92583000Y-86487000D02*
X92583000Y-84963000D01*
X92583000Y-84963000D02*
X96647000Y-84963000D01*
X96647000Y-84963000D02*
X96647000Y-86487000D01*
X63627000Y-86487000D02*
X59563000Y-86487000D01*
X59563000Y-86487000D02*
X59563000Y-84963000D01*
X59563000Y-84963000D02*
X63627000Y-84963000D01*
X63627000Y-84963000D02*
X63627000Y-86487000D01*
X129667000Y-68707000D02*
X125603000Y-68707000D01*
X125603000Y-68707000D02*
X125603000Y-67183000D01*
X125603000Y-67183000D02*
X129667000Y-67183000D01*
X129667000Y-67183000D02*
X129667000Y-68707000D01*
X96647000Y-68707000D02*
X92583000Y-68707000D01*
X92583000Y-68707000D02*
X92583000Y-67183000D01*
X92583000Y-67183000D02*
X96647000Y-67183000D01*
X96647000Y-67183000D02*
X96647000Y-68707000D01*
X63627000Y-68707000D02*
X59563000Y-68707000D01*
X59563000Y-68707000D02*
X59563000Y-67183000D01*
X59563000Y-67183000D02*
X63627000Y-67183000D01*
X63627000Y-67183000D02*
X63627000Y-68707000D01*
X129667000Y-50927000D02*
X125603000Y-50927000D01*
X125603000Y-50927000D02*
X125603000Y-49403000D01*
X125603000Y-49403000D02*
X129667000Y-49403000D01*
X129667000Y-49403000D02*
X129667000Y-50927000D01*
X96647000Y-50927000D02*
X92583000Y-50927000D01*
X92583000Y-50927000D02*
X92583000Y-49403000D01*
X92583000Y-49403000D02*
X96647000Y-49403000D01*
X96647000Y-49403000D02*
X96647000Y-50927000D01*
X144907000Y-119888000D02*
X144907000Y-121412000D01*
X140843000Y-119888000D02*
X144907000Y-119888000D01*
X140843000Y-121412000D02*
X140843000Y-119888000D01*
X144907000Y-121412000D02*
X140843000Y-121412000D01*
X111887000Y-119888000D02*
X111887000Y-121412000D01*
X107823000Y-119888000D02*
X111887000Y-119888000D01*
X107823000Y-121412000D02*
X107823000Y-119888000D01*
X111887000Y-121412000D02*
X107823000Y-121412000D01*
X78867000Y-119888000D02*
X78867000Y-121412000D01*
X74803000Y-119888000D02*
X78867000Y-119888000D01*
X74803000Y-121412000D02*
X74803000Y-119888000D01*
X78867000Y-121412000D02*
X74803000Y-121412000D01*
X144907000Y-102108000D02*
X144907000Y-103632000D01*
X140843000Y-102108000D02*
X144907000Y-102108000D01*
X140843000Y-103632000D02*
X140843000Y-102108000D01*
X144907000Y-103632000D02*
X140843000Y-103632000D01*
X111887000Y-102108000D02*
X111887000Y-103632000D01*
X107823000Y-102108000D02*
X111887000Y-102108000D01*
X107823000Y-103632000D02*
X107823000Y-102108000D01*
X111887000Y-103632000D02*
X107823000Y-103632000D01*
X78867000Y-102108000D02*
X78867000Y-103632000D01*
X74803000Y-102108000D02*
X78867000Y-102108000D01*
X74803000Y-103632000D02*
X74803000Y-102108000D01*
X78867000Y-103632000D02*
X74803000Y-103632000D01*
X144907000Y-84328000D02*
X144907000Y-85852000D01*
X140843000Y-84328000D02*
X144907000Y-84328000D01*
X140843000Y-85852000D02*
X140843000Y-84328000D01*
X144907000Y-85852000D02*
X140843000Y-85852000D01*
X111887000Y-84328000D02*
X111887000Y-85852000D01*
X107823000Y-84328000D02*
X111887000Y-84328000D01*
X107823000Y-85852000D02*
X107823000Y-84328000D01*
X111887000Y-85852000D02*
X107823000Y-85852000D01*
X78867000Y-84328000D02*
X78867000Y-85852000D01*
X74803000Y-84328000D02*
X78867000Y-84328000D01*
X74803000Y-85852000D02*
X74803000Y-84328000D01*
X78867000Y-85852000D02*
X74803000Y-85852000D01*
X144907000Y-66548000D02*
X144907000Y-68072000D01*
X140843000Y-66548000D02*
X144907000Y-66548000D01*
X140843000Y-68072000D02*
X140843000Y-66548000D01*
X144907000Y-68072000D02*
X140843000Y-68072000D01*
X111887000Y-66548000D02*
X111887000Y-68072000D01*
X107823000Y-66548000D02*
X111887000Y-66548000D01*
X107823000Y-68072000D02*
X107823000Y-66548000D01*
X111887000Y-68072000D02*
X107823000Y-68072000D01*
X78867000Y-66548000D02*
X78867000Y-68072000D01*
X74803000Y-66548000D02*
X78867000Y-66548000D01*
X74803000Y-68072000D02*
X74803000Y-66548000D01*
X78867000Y-68072000D02*
X74803000Y-68072000D01*
X144907000Y-48768000D02*
X144907000Y-50292000D01*
X140843000Y-48768000D02*
X144907000Y-48768000D01*
X140843000Y-50292000D02*
X140843000Y-48768000D01*
X144907000Y-50292000D02*
X140843000Y-50292000D01*
X111887000Y-48768000D02*
X111887000Y-50292000D01*
X107823000Y-48768000D02*
X111887000Y-48768000D01*
X107823000Y-50292000D02*
X107823000Y-48768000D01*
X111887000Y-50292000D02*
X107823000Y-50292000D01*
X130175000Y-128905000D02*
X130175000Y-112395000D01*
X140335000Y-128905000D02*
X130175000Y-128905000D01*
X140335000Y-112395000D02*
X140335000Y-128905000D01*
X130175000Y-112395000D02*
X140335000Y-112395000D01*
X97155000Y-128905000D02*
X97155000Y-112395000D01*
X107315000Y-128905000D02*
X97155000Y-128905000D01*
X107315000Y-112395000D02*
X107315000Y-128905000D01*
X97155000Y-112395000D02*
X107315000Y-112395000D01*
X64135000Y-128905000D02*
X64135000Y-112395000D01*
X74295000Y-128905000D02*
X64135000Y-128905000D01*
X74295000Y-112395000D02*
X74295000Y-128905000D01*
X64135000Y-112395000D02*
X74295000Y-112395000D01*
X130175000Y-111125000D02*
X130175000Y-94615000D01*
X140335000Y-111125000D02*
X130175000Y-111125000D01*
X140335000Y-94615000D02*
X140335000Y-111125000D01*
X130175000Y-94615000D02*
X140335000Y-94615000D01*
X97155000Y-111125000D02*
X97155000Y-94615000D01*
X107315000Y-111125000D02*
X97155000Y-111125000D01*
X107315000Y-94615000D02*
X107315000Y-111125000D01*
X97155000Y-94615000D02*
X107315000Y-94615000D01*
X64135000Y-111125000D02*
X64135000Y-94615000D01*
X74295000Y-111125000D02*
X64135000Y-111125000D01*
X74295000Y-94615000D02*
X74295000Y-111125000D01*
X64135000Y-94615000D02*
X74295000Y-94615000D01*
X130175000Y-93345000D02*
X130175000Y-76835000D01*
X140335000Y-93345000D02*
X130175000Y-93345000D01*
X140335000Y-76835000D02*
X140335000Y-93345000D01*
X130175000Y-76835000D02*
X140335000Y-76835000D01*
X97155000Y-93345000D02*
X97155000Y-76835000D01*
X107315000Y-93345000D02*
X97155000Y-93345000D01*
X107315000Y-76835000D02*
X107315000Y-93345000D01*
X97155000Y-76835000D02*
X107315000Y-76835000D01*
X64135000Y-93345000D02*
X64135000Y-76835000D01*
X74295000Y-93345000D02*
X64135000Y-93345000D01*
X74295000Y-76835000D02*
X74295000Y-93345000D01*
X64135000Y-76835000D02*
X74295000Y-76835000D01*
X130175000Y-75565000D02*
X130175000Y-59055000D01*
X140335000Y-75565000D02*
X130175000Y-75565000D01*
X140335000Y-59055000D02*
X140335000Y-75565000D01*
X130175000Y-59055000D02*
X140335000Y-59055000D01*
X97155000Y-75565000D02*
X97155000Y-59055000D01*
X107315000Y-75565000D02*
X97155000Y-75565000D01*
X107315000Y-59055000D02*
X107315000Y-75565000D01*
X97155000Y-59055000D02*
X107315000Y-59055000D01*
X64135000Y-75565000D02*
X64135000Y-59055000D01*
X74295000Y-75565000D02*
X64135000Y-75565000D01*
X74295000Y-59055000D02*
X74295000Y-75565000D01*
X64135000Y-59055000D02*
X74295000Y-59055000D01*
X130175000Y-57785000D02*
X130175000Y-41275000D01*
X140335000Y-57785000D02*
X130175000Y-57785000D01*
X140335000Y-41275000D02*
X140335000Y-57785000D01*
X130175000Y-41275000D02*
X140335000Y-41275000D01*
X97155000Y-57785000D02*
X97155000Y-41275000D01*
X107315000Y-57785000D02*
X97155000Y-57785000D01*
X107315000Y-41275000D02*
X107315000Y-57785000D01*
X97155000Y-41275000D02*
X107315000Y-41275000D01*
X63627000Y-49403000D02*
X63627000Y-50927000D01*
X59563000Y-49403000D02*
X63627000Y-49403000D01*
X59563000Y-50927000D02*
X59563000Y-49403000D01*
X63627000Y-50927000D02*
X59563000Y-50927000D01*
X78867000Y-50292000D02*
X74803000Y-50292000D01*
X74803000Y-50292000D02*
X74803000Y-48768000D01*
X74803000Y-48768000D02*
X78867000Y-48768000D01*
X78867000Y-48768000D02*
X78867000Y-50292000D01*
X48895000Y-57785000D02*
X48895000Y-41275000D01*
X59055000Y-57785000D02*
X48895000Y-57785000D01*
X59055000Y-41275000D02*
X59055000Y-57785000D01*
X48895000Y-41275000D02*
X59055000Y-41275000D01*
X64135000Y-41275000D02*
X74295000Y-41275000D01*
X74295000Y-41275000D02*
X74295000Y-57785000D01*
X74295000Y-57785000D02*
X64135000Y-57785000D01*
X64135000Y-57785000D02*
X64135000Y-41275000D01*
M02*
