G04 #@! TF.GenerationSoftware,KiCad,Pcbnew,(5.1.6)-1*
G04 #@! TF.CreationDate,2020-06-25T08:13:42+09:00*
G04 #@! TF.ProjectId,AND___,414e4462-d851-42e6-9b69-6361645f7063,rev?*
G04 #@! TF.SameCoordinates,Original*
G04 #@! TF.FileFunction,Soldermask,Top*
G04 #@! TF.FilePolarity,Negative*
%FSLAX46Y46*%
G04 Gerber Fmt 4.6, Leading zero omitted, Abs format (unit mm)*
G04 Created by KiCad (PCBNEW (5.1.6)-1) date 2020-06-25 08:13:42*
%MOMM*%
%LPD*%
G01*
G04 APERTURE LIST*
%ADD10C,1.624000*%
%ADD11R,1.800000X1.800000*%
%ADD12O,1.800000X1.800000*%
G04 APERTURE END LIST*
D10*
X116205000Y-114300000D03*
X123825000Y-114300000D03*
X123825000Y-116840000D03*
X116205000Y-116840000D03*
X116205000Y-127000000D03*
X123825000Y-127000000D03*
X83185000Y-114300000D03*
X90805000Y-114300000D03*
X90805000Y-116840000D03*
X83185000Y-116840000D03*
X83185000Y-127000000D03*
X90805000Y-127000000D03*
X50165000Y-114300000D03*
X57785000Y-114300000D03*
X57785000Y-116840000D03*
X50165000Y-116840000D03*
X50165000Y-127000000D03*
X57785000Y-127000000D03*
X116205000Y-96520000D03*
X123825000Y-96520000D03*
X123825000Y-99060000D03*
X116205000Y-99060000D03*
X116205000Y-109220000D03*
X123825000Y-109220000D03*
X83185000Y-96520000D03*
X90805000Y-96520000D03*
X90805000Y-99060000D03*
X83185000Y-99060000D03*
X83185000Y-109220000D03*
X90805000Y-109220000D03*
X50165000Y-96520000D03*
X57785000Y-96520000D03*
X57785000Y-99060000D03*
X50165000Y-99060000D03*
X50165000Y-109220000D03*
X57785000Y-109220000D03*
X116205000Y-78740000D03*
X123825000Y-78740000D03*
X123825000Y-81280000D03*
X116205000Y-81280000D03*
X116205000Y-91440000D03*
X123825000Y-91440000D03*
X83185000Y-78740000D03*
X90805000Y-78740000D03*
X90805000Y-81280000D03*
X83185000Y-81280000D03*
X83185000Y-91440000D03*
X90805000Y-91440000D03*
X50165000Y-78740000D03*
X57785000Y-78740000D03*
X57785000Y-81280000D03*
X50165000Y-81280000D03*
X50165000Y-91440000D03*
X57785000Y-91440000D03*
X116205000Y-60960000D03*
X123825000Y-60960000D03*
X123825000Y-63500000D03*
X116205000Y-63500000D03*
X116205000Y-73660000D03*
X123825000Y-73660000D03*
X83185000Y-60960000D03*
X90805000Y-60960000D03*
X90805000Y-63500000D03*
X83185000Y-63500000D03*
X83185000Y-73660000D03*
X90805000Y-73660000D03*
X50165000Y-60960000D03*
X57785000Y-60960000D03*
X57785000Y-63500000D03*
X50165000Y-63500000D03*
X50165000Y-73660000D03*
X57785000Y-73660000D03*
X116205000Y-43180000D03*
X123825000Y-43180000D03*
X123825000Y-45720000D03*
X116205000Y-45720000D03*
X116205000Y-55880000D03*
X123825000Y-55880000D03*
X83185000Y-43180000D03*
X90805000Y-43180000D03*
X90805000Y-45720000D03*
X83185000Y-45720000D03*
X83185000Y-55880000D03*
X90805000Y-55880000D03*
X128905000Y-121285000D03*
X126365000Y-121285000D03*
X95885000Y-121285000D03*
X93345000Y-121285000D03*
X62865000Y-121285000D03*
X60325000Y-121285000D03*
X128905000Y-103505000D03*
X126365000Y-103505000D03*
X95885000Y-103505000D03*
X93345000Y-103505000D03*
X62865000Y-103505000D03*
X60325000Y-103505000D03*
X128905000Y-85725000D03*
X126365000Y-85725000D03*
X95885000Y-85725000D03*
X93345000Y-85725000D03*
X62865000Y-85725000D03*
X60325000Y-85725000D03*
X128905000Y-67945000D03*
X126365000Y-67945000D03*
X95885000Y-67945000D03*
X93345000Y-67945000D03*
X62865000Y-67945000D03*
X60325000Y-67945000D03*
X128905000Y-50165000D03*
X126365000Y-50165000D03*
X95885000Y-50165000D03*
X93345000Y-50165000D03*
D11*
X144145000Y-114900000D03*
D12*
X141605000Y-114900000D03*
D11*
X111125000Y-114900000D03*
D12*
X108585000Y-114900000D03*
D11*
X78105000Y-114900000D03*
D12*
X75565000Y-114900000D03*
D11*
X144145000Y-97120000D03*
D12*
X141605000Y-97120000D03*
D11*
X111125000Y-97120000D03*
D12*
X108585000Y-97120000D03*
D11*
X78105000Y-97120000D03*
D12*
X75565000Y-97120000D03*
D11*
X144145000Y-79340000D03*
D12*
X141605000Y-79340000D03*
D11*
X111125000Y-79340000D03*
D12*
X108585000Y-79340000D03*
D11*
X78105000Y-79340000D03*
D12*
X75565000Y-79340000D03*
D11*
X144145000Y-61560000D03*
D12*
X141605000Y-61560000D03*
D11*
X111125000Y-61560000D03*
D12*
X108585000Y-61560000D03*
D11*
X78105000Y-61560000D03*
D12*
X75565000Y-61560000D03*
D11*
X144145000Y-43780000D03*
D12*
X141605000Y-43780000D03*
D11*
X111125000Y-43780000D03*
D12*
X108585000Y-43780000D03*
X128905000Y-127000000D03*
D11*
X128905000Y-124460000D03*
D12*
X95885000Y-127000000D03*
D11*
X95885000Y-124460000D03*
D12*
X62865000Y-127000000D03*
D11*
X62865000Y-124460000D03*
D12*
X128905000Y-109220000D03*
D11*
X128905000Y-106680000D03*
D12*
X95885000Y-109220000D03*
D11*
X95885000Y-106680000D03*
D12*
X62865000Y-109220000D03*
D11*
X62865000Y-106680000D03*
D12*
X128905000Y-91440000D03*
D11*
X128905000Y-88900000D03*
D12*
X95885000Y-91440000D03*
D11*
X95885000Y-88900000D03*
D12*
X62865000Y-91440000D03*
D11*
X62865000Y-88900000D03*
D12*
X128905000Y-73660000D03*
D11*
X128905000Y-71120000D03*
D12*
X95885000Y-73660000D03*
D11*
X95885000Y-71120000D03*
D12*
X62865000Y-73660000D03*
D11*
X62865000Y-71120000D03*
D12*
X128905000Y-55880000D03*
D11*
X128905000Y-53340000D03*
D12*
X95885000Y-55880000D03*
D11*
X95885000Y-53340000D03*
D12*
X128905000Y-114900000D03*
D11*
X126365000Y-114900000D03*
D12*
X95885000Y-114900000D03*
D11*
X93345000Y-114900000D03*
D12*
X62865000Y-114900000D03*
D11*
X60325000Y-114900000D03*
D12*
X128905000Y-97120000D03*
D11*
X126365000Y-97120000D03*
D12*
X95885000Y-97120000D03*
D11*
X93345000Y-97120000D03*
D12*
X62865000Y-97120000D03*
D11*
X60325000Y-97120000D03*
D12*
X128905000Y-79340000D03*
D11*
X126365000Y-79340000D03*
D12*
X95885000Y-79340000D03*
D11*
X93345000Y-79340000D03*
D12*
X62865000Y-79340000D03*
D11*
X60325000Y-79340000D03*
D12*
X128905000Y-61560000D03*
D11*
X126365000Y-61560000D03*
D12*
X95885000Y-61560000D03*
D11*
X93345000Y-61560000D03*
D12*
X62865000Y-61560000D03*
D11*
X60325000Y-61560000D03*
D12*
X128905000Y-43780000D03*
D11*
X126365000Y-43780000D03*
D12*
X95885000Y-43780000D03*
D11*
X93345000Y-43780000D03*
D10*
X141605000Y-120650000D03*
X144145000Y-120650000D03*
X108585000Y-120650000D03*
X111125000Y-120650000D03*
X75565000Y-120650000D03*
X78105000Y-120650000D03*
X141605000Y-102870000D03*
X144145000Y-102870000D03*
X108585000Y-102870000D03*
X111125000Y-102870000D03*
X75565000Y-102870000D03*
X78105000Y-102870000D03*
X141605000Y-85090000D03*
X144145000Y-85090000D03*
X108585000Y-85090000D03*
X111125000Y-85090000D03*
X75565000Y-85090000D03*
X78105000Y-85090000D03*
X141605000Y-67310000D03*
X144145000Y-67310000D03*
X108585000Y-67310000D03*
X111125000Y-67310000D03*
X75565000Y-67310000D03*
X78105000Y-67310000D03*
X141605000Y-49530000D03*
X144145000Y-49530000D03*
X108585000Y-49530000D03*
X111125000Y-49530000D03*
X139065000Y-127000000D03*
X131445000Y-127000000D03*
X131445000Y-116840000D03*
X139065000Y-116840000D03*
X139065000Y-114300000D03*
X131445000Y-114300000D03*
X106045000Y-127000000D03*
X98425000Y-127000000D03*
X98425000Y-116840000D03*
X106045000Y-116840000D03*
X106045000Y-114300000D03*
X98425000Y-114300000D03*
X73025000Y-127000000D03*
X65405000Y-127000000D03*
X65405000Y-116840000D03*
X73025000Y-116840000D03*
X73025000Y-114300000D03*
X65405000Y-114300000D03*
X139065000Y-109220000D03*
X131445000Y-109220000D03*
X131445000Y-99060000D03*
X139065000Y-99060000D03*
X139065000Y-96520000D03*
X131445000Y-96520000D03*
X106045000Y-109220000D03*
X98425000Y-109220000D03*
X98425000Y-99060000D03*
X106045000Y-99060000D03*
X106045000Y-96520000D03*
X98425000Y-96520000D03*
X73025000Y-109220000D03*
X65405000Y-109220000D03*
X65405000Y-99060000D03*
X73025000Y-99060000D03*
X73025000Y-96520000D03*
X65405000Y-96520000D03*
X139065000Y-91440000D03*
X131445000Y-91440000D03*
X131445000Y-81280000D03*
X139065000Y-81280000D03*
X139065000Y-78740000D03*
X131445000Y-78740000D03*
X106045000Y-91440000D03*
X98425000Y-91440000D03*
X98425000Y-81280000D03*
X106045000Y-81280000D03*
X106045000Y-78740000D03*
X98425000Y-78740000D03*
X73025000Y-91440000D03*
X65405000Y-91440000D03*
X65405000Y-81280000D03*
X73025000Y-81280000D03*
X73025000Y-78740000D03*
X65405000Y-78740000D03*
X139065000Y-73660000D03*
X131445000Y-73660000D03*
X131445000Y-63500000D03*
X139065000Y-63500000D03*
X139065000Y-60960000D03*
X131445000Y-60960000D03*
X106045000Y-73660000D03*
X98425000Y-73660000D03*
X98425000Y-63500000D03*
X106045000Y-63500000D03*
X106045000Y-60960000D03*
X98425000Y-60960000D03*
X73025000Y-73660000D03*
X65405000Y-73660000D03*
X65405000Y-63500000D03*
X73025000Y-63500000D03*
X73025000Y-60960000D03*
X65405000Y-60960000D03*
X139065000Y-55880000D03*
X131445000Y-55880000D03*
X131445000Y-45720000D03*
X139065000Y-45720000D03*
X139065000Y-43180000D03*
X131445000Y-43180000D03*
X106045000Y-55880000D03*
X98425000Y-55880000D03*
X98425000Y-45720000D03*
X106045000Y-45720000D03*
X106045000Y-43180000D03*
X98425000Y-43180000D03*
X60325000Y-50165000D03*
X62865000Y-50165000D03*
X78105000Y-49530000D03*
X75565000Y-49530000D03*
D11*
X60325000Y-43780000D03*
D12*
X62865000Y-43780000D03*
D11*
X62865000Y-53340000D03*
D12*
X62865000Y-55880000D03*
X75565000Y-43780000D03*
D11*
X78105000Y-43780000D03*
D10*
X57785000Y-55880000D03*
X50165000Y-55880000D03*
X50165000Y-45720000D03*
X57785000Y-45720000D03*
X57785000Y-43180000D03*
X50165000Y-43180000D03*
X65405000Y-43180000D03*
X73025000Y-43180000D03*
X73025000Y-45720000D03*
X65405000Y-45720000D03*
X65405000Y-55880000D03*
X73025000Y-55880000D03*
M02*
