M48
; DRILL file {KiCad (5.1.6)-1} date 06/25/20 08:14:06
; FORMAT={3:3/ absolute / metric / suppress leading zeros}
; #@! TF.CreationDate,2020-06-25T08:14:06+09:00
; #@! TF.GenerationSoftware,Kicad,Pcbnew,(5.1.6)-1
FMAT,2
METRIC,TZ
T1C0.700
T2C1.000
%
G90
G05
T1
X75565Y-85090
X78105Y-85090
X75565Y-120650
X78105Y-120650
X93345Y-67945
X95885Y-67945
X141605Y-49530
X144145Y-49530
X108585Y-85090
X111125Y-85090
X93345Y-103505
X95885Y-103505
X93345Y-85725
X95885Y-85725
X60325Y-121285
X62865Y-121285
X108585Y-102870
X111125Y-102870
X141605Y-102870
X144145Y-102870
X108585Y-67310
X111125Y-67310
X126365Y-85725
X128905Y-85725
X126365Y-67945
X128905Y-67945
X75565Y-67310
X78105Y-67310
X141605Y-85090
X144145Y-85090
X60325Y-103505
X62865Y-103505
X75565Y-49530
X78105Y-49530
X60325Y-50165
X62865Y-50165
X141605Y-67310
X144145Y-67310
X108585Y-49530
X111125Y-49530
X60325Y-85725
X62865Y-85725
X93345Y-50165
X95885Y-50165
X126365Y-121285
X128905Y-121285
X75565Y-102870
X78105Y-102870
X126365Y-103505
X128905Y-103505
X93345Y-121285
X95885Y-121285
X108585Y-120650
X111125Y-120650
X141605Y-120650
X144145Y-120650
X60325Y-67945
X62865Y-67945
X126365Y-50165
X128905Y-50165
T2
X128905Y-106680
X128905Y-109220
X141605Y-43780
X144145Y-43780
X108585Y-79340
X111125Y-79340
X65405Y-114300
X65405Y-116840
X65405Y-127000
X73025Y-114300
X73025Y-116840
X73025Y-127000
X131445Y-96520
X131445Y-99060
X131445Y-109220
X139065Y-96520
X139065Y-99060
X139065Y-109220
X131445Y-114300
X131445Y-116840
X131445Y-127000
X139065Y-114300
X139065Y-116840
X139065Y-127000
X141605Y-114900
X144145Y-114900
X95885Y-71120
X95885Y-73660
X83185Y-43180
X83185Y-45720
X83185Y-55880
X90805Y-43180
X90805Y-45720
X90805Y-55880
X126365Y-79340
X128905Y-79340
X60325Y-114900
X62865Y-114900
X62865Y-106680
X62865Y-109220
X75565Y-61560
X78105Y-61560
X108585Y-97120
X111125Y-97120
X131445Y-78740
X131445Y-81280
X131445Y-91440
X139065Y-78740
X139065Y-81280
X139065Y-91440
X50165Y-114300
X50165Y-116840
X50165Y-127000
X57785Y-114300
X57785Y-116840
X57785Y-127000
X126365Y-43780
X128905Y-43780
X62865Y-88900
X62865Y-91440
X60325Y-79340
X62865Y-79340
X95885Y-106680
X95885Y-109220
X108585Y-61560
X111125Y-61560
X98425Y-114300
X98425Y-116840
X98425Y-127000
X106045Y-114300
X106045Y-116840
X106045Y-127000
X98425Y-43180
X98425Y-45720
X98425Y-55880
X106045Y-43180
X106045Y-45720
X106045Y-55880
X116205Y-114300
X116205Y-116840
X116205Y-127000
X123825Y-114300
X123825Y-116840
X123825Y-127000
X131445Y-43180
X131445Y-45720
X131445Y-55880
X139065Y-43180
X139065Y-45720
X139065Y-55880
X116205Y-96520
X116205Y-99060
X116205Y-109220
X123825Y-96520
X123825Y-99060
X123825Y-109220
X60325Y-61560
X62865Y-61560
X50165Y-60960
X50165Y-63500
X50165Y-73660
X57785Y-60960
X57785Y-63500
X57785Y-73660
X126365Y-114900
X128905Y-114900
X62865Y-71120
X62865Y-73660
X95885Y-124460
X95885Y-127000
X75565Y-79340
X78105Y-79340
X65405Y-43180
X65405Y-45720
X65405Y-55880
X73025Y-43180
X73025Y-45720
X73025Y-55880
X65405Y-60960
X65405Y-63500
X65405Y-73660
X73025Y-60960
X73025Y-63500
X73025Y-73660
X65405Y-78740
X65405Y-81280
X65405Y-91440
X73025Y-78740
X73025Y-81280
X73025Y-91440
X50165Y-78740
X50165Y-81280
X50165Y-91440
X57785Y-78740
X57785Y-81280
X57785Y-91440
X65405Y-96520
X65405Y-99060
X65405Y-109220
X73025Y-96520
X73025Y-99060
X73025Y-109220
X83185Y-96520
X83185Y-99060
X83185Y-109220
X90805Y-96520
X90805Y-99060
X90805Y-109220
X116205Y-60960
X116205Y-63500
X116205Y-73660
X123825Y-60960
X123825Y-63500
X123825Y-73660
X126365Y-61560
X128905Y-61560
X93345Y-97120
X95885Y-97120
X128905Y-124460
X128905Y-127000
X75565Y-97120
X78105Y-97120
X62865Y-53340
X62865Y-55880
X98425Y-96520
X98425Y-99060
X98425Y-109220
X106045Y-96520
X106045Y-99060
X106045Y-109220
X83185Y-78740
X83185Y-81280
X83185Y-91440
X90805Y-78740
X90805Y-81280
X90805Y-91440
X75565Y-43780
X78105Y-43780
X116205Y-43180
X116205Y-45720
X116205Y-55880
X123825Y-43180
X123825Y-45720
X123825Y-55880
X83185Y-114300
X83185Y-116840
X83185Y-127000
X90805Y-114300
X90805Y-116840
X90805Y-127000
X128905Y-53340
X128905Y-55880
X75565Y-114900
X78105Y-114900
X95885Y-88900
X95885Y-91440
X93345Y-79340
X95885Y-79340
X128905Y-88900
X128905Y-91440
X141605Y-97120
X144145Y-97120
X141605Y-79340
X144145Y-79340
X50165Y-43180
X50165Y-45720
X50165Y-55880
X57785Y-43180
X57785Y-45720
X57785Y-55880
X98425Y-60960
X98425Y-63500
X98425Y-73660
X106045Y-60960
X106045Y-63500
X106045Y-73660
X131445Y-60960
X131445Y-63500
X131445Y-73660
X139065Y-60960
X139065Y-63500
X139065Y-73660
X116205Y-78740
X116205Y-81280
X116205Y-91440
X123825Y-78740
X123825Y-81280
X123825Y-91440
X83185Y-60960
X83185Y-63500
X83185Y-73660
X90805Y-60960
X90805Y-63500
X90805Y-73660
X93345Y-43780
X95885Y-43780
X128905Y-71120
X128905Y-73660
X126365Y-97120
X128905Y-97120
X60325Y-97120
X62865Y-97120
X62865Y-124460
X62865Y-127000
X108585Y-43780
X111125Y-43780
X141605Y-61560
X144145Y-61560
X60325Y-43780
X62865Y-43780
X98425Y-78740
X98425Y-81280
X98425Y-91440
X106045Y-78740
X106045Y-81280
X106045Y-91440
X50165Y-96520
X50165Y-99060
X50165Y-109220
X57785Y-96520
X57785Y-99060
X57785Y-109220
X108585Y-114900
X111125Y-114900
X93345Y-61560
X95885Y-61560
X93345Y-114900
X95885Y-114900
X95885Y-53340
X95885Y-55880
T0
M30
