M48
; DRILL file {KiCad (5.1.6)-1} date 06/25/20 08:47:57
; FORMAT={3:3/ absolute / metric / suppress leading zeros}
; #@! TF.CreationDate,2020-06-25T08:47:57+09:00
; #@! TF.GenerationSoftware,Kicad,Pcbnew,(5.1.6)-1
FMAT,2
METRIC,TZ
T1C0.700
T2C1.000
%
G90
G05
T1
X41910Y-58415
X44450Y-58415
X41910Y-40005
X44450Y-40005
X41910Y-95235
X44450Y-95235
X73660Y-76825
X76200Y-76825
X46990Y-40005
X49530Y-40005
X46990Y-76825
X49530Y-76825
X73660Y-58415
X76200Y-58415
X46990Y-113645
X49530Y-113645
X46990Y-95235
X49530Y-95235
X41910Y-113645
X44450Y-113645
X73660Y-113645
X76200Y-113645
X46990Y-58415
X49530Y-58415
X73660Y-40005
X76200Y-40005
X41910Y-76825
X44450Y-76825
X73660Y-95235
X76200Y-95235
T2
X74930Y-52030
X77470Y-52030
X52070Y-51430
X52070Y-53970
X52070Y-64130
X59690Y-51430
X59690Y-53970
X59690Y-64130
X46990Y-52030
X49530Y-52030
X63500Y-51430
X63500Y-53970
X63500Y-64130
X71120Y-51430
X71120Y-53970
X71120Y-64130
X63500Y-106660
X63500Y-109200
X63500Y-119360
X71120Y-106660
X71120Y-109200
X71120Y-119360
X49530Y-80000
X49530Y-82540
X49530Y-98410
X49530Y-100950
X74930Y-33620
X77470Y-33620
X63500Y-88250
X63500Y-90790
X63500Y-100950
X71120Y-88250
X71120Y-90790
X71120Y-100950
X46990Y-107260
X49530Y-107260
X49530Y-61590
X49530Y-64130
X31750Y-51430
X31750Y-53970
X31750Y-64130
X39370Y-51430
X39370Y-53970
X39370Y-64130
X52070Y-33020
X52070Y-35560
X52070Y-45720
X59690Y-33020
X59690Y-35560
X59690Y-45720
X49530Y-116820
X49530Y-119360
X41910Y-88850
X44450Y-88850
X41910Y-107260
X44450Y-107260
X63500Y-33020
X63500Y-35560
X63500Y-45720
X71120Y-33020
X71120Y-35560
X71120Y-45720
X31750Y-33020
X31750Y-35560
X31750Y-45720
X39370Y-33020
X39370Y-35560
X39370Y-45720
X31750Y-88250
X31750Y-90790
X31750Y-100950
X39370Y-88250
X39370Y-90790
X39370Y-100950
X52070Y-106660
X52070Y-109200
X52070Y-119360
X59690Y-106660
X59690Y-109200
X59690Y-119360
X46990Y-70440
X49530Y-70440
X31750Y-69840
X31750Y-72380
X31750Y-82540
X39370Y-69840
X39370Y-72380
X39370Y-82540
X41910Y-33620
X44450Y-33620
X74930Y-88850
X77470Y-88850
X31750Y-106660
X31750Y-109200
X31750Y-119360
X39370Y-106660
X39370Y-109200
X39370Y-119360
X46990Y-88850
X49530Y-88850
X52070Y-69840
X52070Y-72380
X52070Y-82540
X59690Y-69840
X59690Y-72380
X59690Y-82540
X46990Y-33620
X49530Y-33620
X63500Y-69840
X63500Y-72380
X63500Y-82540
X71120Y-69840
X71120Y-72380
X71120Y-82540
X74930Y-70440
X77470Y-70440
X74930Y-107260
X77470Y-107260
X41910Y-52030
X44450Y-52030
X52070Y-88250
X52070Y-90790
X52070Y-100950
X59690Y-88250
X59690Y-90790
X59690Y-100950
X41910Y-70440
X44450Y-70440
X49530Y-43180
X49530Y-45720
T0
M30
