G04 #@! TF.GenerationSoftware,KiCad,Pcbnew,(5.1.6)-1*
G04 #@! TF.CreationDate,2020-06-25T08:47:51+09:00*
G04 #@! TF.ProjectId,4P-AND,34502d41-4e44-42e6-9b69-6361645f7063,rev?*
G04 #@! TF.SameCoordinates,Original*
G04 #@! TF.FileFunction,Soldermask,Top*
G04 #@! TF.FilePolarity,Negative*
%FSLAX46Y46*%
G04 Gerber Fmt 4.6, Leading zero omitted, Abs format (unit mm)*
G04 Created by KiCad (PCBNEW (5.1.6)-1) date 2020-06-25 08:47:51*
%MOMM*%
%LPD*%
G01*
G04 APERTURE LIST*
%ADD10R,1.800000X1.800000*%
%ADD11O,1.800000X1.800000*%
%ADD12C,1.624000*%
G04 APERTURE END LIST*
D10*
X77470000Y-107260000D03*
D11*
X74930000Y-107260000D03*
D10*
X77470000Y-88850000D03*
D11*
X74930000Y-88850000D03*
D10*
X77470000Y-70440000D03*
D11*
X74930000Y-70440000D03*
D10*
X77470000Y-52030000D03*
D11*
X74930000Y-52030000D03*
D12*
X71120000Y-119360000D03*
X63500000Y-119360000D03*
X63500000Y-109200000D03*
X71120000Y-109200000D03*
X71120000Y-106660000D03*
X63500000Y-106660000D03*
X71120000Y-100950000D03*
X63500000Y-100950000D03*
X63500000Y-90790000D03*
X71120000Y-90790000D03*
X71120000Y-88250000D03*
X63500000Y-88250000D03*
X71120000Y-82540000D03*
X63500000Y-82540000D03*
X63500000Y-72380000D03*
X71120000Y-72380000D03*
X71120000Y-69840000D03*
X63500000Y-69840000D03*
X71120000Y-64130000D03*
X63500000Y-64130000D03*
X63500000Y-53970000D03*
X71120000Y-53970000D03*
X71120000Y-51430000D03*
X63500000Y-51430000D03*
X44450000Y-113645000D03*
X41910000Y-113645000D03*
X44450000Y-95235000D03*
X41910000Y-95235000D03*
X44450000Y-76825000D03*
X41910000Y-76825000D03*
X44450000Y-58415000D03*
X41910000Y-58415000D03*
X49530000Y-113645000D03*
X46990000Y-113645000D03*
X49530000Y-95235000D03*
X46990000Y-95235000D03*
X49530000Y-76825000D03*
X46990000Y-76825000D03*
X49530000Y-58415000D03*
X46990000Y-58415000D03*
X59690000Y-119360000D03*
X52070000Y-119360000D03*
X52070000Y-109200000D03*
X59690000Y-109200000D03*
X59690000Y-106660000D03*
X52070000Y-106660000D03*
X59690000Y-100950000D03*
X52070000Y-100950000D03*
X52070000Y-90790000D03*
X59690000Y-90790000D03*
X59690000Y-88250000D03*
X52070000Y-88250000D03*
X59690000Y-82540000D03*
X52070000Y-82540000D03*
X52070000Y-72380000D03*
X59690000Y-72380000D03*
X59690000Y-69840000D03*
X52070000Y-69840000D03*
X59690000Y-64130000D03*
X52070000Y-64130000D03*
X52070000Y-53970000D03*
X59690000Y-53970000D03*
X59690000Y-51430000D03*
X52070000Y-51430000D03*
X76200000Y-113645000D03*
X73660000Y-113645000D03*
X76200000Y-95235000D03*
X73660000Y-95235000D03*
X76200000Y-76825000D03*
X73660000Y-76825000D03*
X76200000Y-58415000D03*
X73660000Y-58415000D03*
D10*
X41910000Y-107260000D03*
D11*
X44450000Y-107260000D03*
D10*
X41910000Y-88850000D03*
D11*
X44450000Y-88850000D03*
D10*
X41910000Y-70440000D03*
D11*
X44450000Y-70440000D03*
D10*
X41910000Y-52030000D03*
D11*
X44450000Y-52030000D03*
D10*
X46990000Y-107260000D03*
D11*
X49530000Y-107260000D03*
D10*
X46990000Y-88850000D03*
D11*
X49530000Y-88850000D03*
D10*
X46990000Y-70440000D03*
D11*
X49530000Y-70440000D03*
D10*
X46990000Y-52030000D03*
D11*
X49530000Y-52030000D03*
D10*
X49530000Y-116820000D03*
D11*
X49530000Y-119360000D03*
D10*
X49530000Y-98410000D03*
D11*
X49530000Y-100950000D03*
D10*
X49530000Y-80000000D03*
D11*
X49530000Y-82540000D03*
D10*
X49530000Y-61590000D03*
D11*
X49530000Y-64130000D03*
D12*
X39370000Y-119360000D03*
X31750000Y-119360000D03*
X31750000Y-109200000D03*
X39370000Y-109200000D03*
X39370000Y-106660000D03*
X31750000Y-106660000D03*
X39370000Y-100950000D03*
X31750000Y-100950000D03*
X31750000Y-90790000D03*
X39370000Y-90790000D03*
X39370000Y-88250000D03*
X31750000Y-88250000D03*
X39370000Y-82540000D03*
X31750000Y-82540000D03*
X31750000Y-72380000D03*
X39370000Y-72380000D03*
X39370000Y-69840000D03*
X31750000Y-69840000D03*
X39370000Y-64130000D03*
X31750000Y-64130000D03*
X31750000Y-53970000D03*
X39370000Y-53970000D03*
X39370000Y-51430000D03*
X31750000Y-51430000D03*
X63500000Y-33020000D03*
X71120000Y-33020000D03*
X71120000Y-35560000D03*
X63500000Y-35560000D03*
X63500000Y-45720000D03*
X71120000Y-45720000D03*
X52070000Y-33020000D03*
X59690000Y-33020000D03*
X59690000Y-35560000D03*
X52070000Y-35560000D03*
X52070000Y-45720000D03*
X59690000Y-45720000D03*
X31750000Y-33020000D03*
X39370000Y-33020000D03*
X39370000Y-35560000D03*
X31750000Y-35560000D03*
X31750000Y-45720000D03*
X39370000Y-45720000D03*
D11*
X49530000Y-45720000D03*
D10*
X49530000Y-43180000D03*
D11*
X74930000Y-33620000D03*
D10*
X77470000Y-33620000D03*
D11*
X49530000Y-33620000D03*
D10*
X46990000Y-33620000D03*
D11*
X44450000Y-33620000D03*
D10*
X41910000Y-33620000D03*
D12*
X73660000Y-40005000D03*
X76200000Y-40005000D03*
X46990000Y-40005000D03*
X49530000Y-40005000D03*
X41910000Y-40005000D03*
X44450000Y-40005000D03*
M02*
