G04 #@! TF.GenerationSoftware,KiCad,Pcbnew,(5.1.6)-1*
G04 #@! TF.CreationDate,2020-06-25T08:47:51+09:00*
G04 #@! TF.ProjectId,4P-AND,34502d41-4e44-42e6-9b69-6361645f7063,rev?*
G04 #@! TF.SameCoordinates,Original*
G04 #@! TF.FileFunction,Legend,Bot*
G04 #@! TF.FilePolarity,Positive*
%FSLAX46Y46*%
G04 Gerber Fmt 4.6, Leading zero omitted, Abs format (unit mm)*
G04 Created by KiCad (PCBNEW (5.1.6)-1) date 2020-06-25 08:47:51*
%MOMM*%
%LPD*%
G01*
G04 APERTURE LIST*
%ADD10C,0.150000*%
%ADD11C,0.120000*%
G04 APERTURE END LIST*
D10*
X21137619Y-71824880D02*
X21137619Y-72015357D01*
X21185238Y-72110595D01*
X21232857Y-72158214D01*
X21375714Y-72253452D01*
X21566190Y-72301071D01*
X21947142Y-72301071D01*
X22042380Y-72253452D01*
X22090000Y-72205833D01*
X22137619Y-72110595D01*
X22137619Y-71920119D01*
X22090000Y-71824880D01*
X22042380Y-71777261D01*
X21947142Y-71729642D01*
X21709047Y-71729642D01*
X21613809Y-71777261D01*
X21566190Y-71824880D01*
X21518571Y-71920119D01*
X21518571Y-72110595D01*
X21566190Y-72205833D01*
X21613809Y-72253452D01*
X21709047Y-72301071D01*
X22042380Y-72682023D02*
X22090000Y-72729642D01*
X22137619Y-72824880D01*
X22137619Y-73062976D01*
X22090000Y-73158214D01*
X22042380Y-73205833D01*
X21947142Y-73253452D01*
X21851904Y-73253452D01*
X21709047Y-73205833D01*
X21137619Y-72634404D01*
X21137619Y-73253452D01*
X21232857Y-73682023D02*
X21185238Y-73729642D01*
X21137619Y-73682023D01*
X21185238Y-73634404D01*
X21232857Y-73682023D01*
X21137619Y-73682023D01*
X22137619Y-74348690D02*
X22137619Y-74443928D01*
X22090000Y-74539166D01*
X22042380Y-74586785D01*
X21947142Y-74634404D01*
X21756666Y-74682023D01*
X21518571Y-74682023D01*
X21328095Y-74634404D01*
X21232857Y-74586785D01*
X21185238Y-74539166D01*
X21137619Y-74443928D01*
X21137619Y-74348690D01*
X21185238Y-74253452D01*
X21232857Y-74205833D01*
X21328095Y-74158214D01*
X21518571Y-74110595D01*
X21756666Y-74110595D01*
X21947142Y-74158214D01*
X22042380Y-74205833D01*
X22090000Y-74253452D01*
X22137619Y-74348690D01*
X22137619Y-75586785D02*
X22137619Y-75110595D01*
X21661428Y-75062976D01*
X21709047Y-75110595D01*
X21756666Y-75205833D01*
X21756666Y-75443928D01*
X21709047Y-75539166D01*
X21661428Y-75586785D01*
X21566190Y-75634404D01*
X21328095Y-75634404D01*
X21232857Y-75586785D01*
X21185238Y-75539166D01*
X21137619Y-75443928D01*
X21137619Y-75205833D01*
X21185238Y-75110595D01*
X21232857Y-75062976D01*
X22137619Y-76539166D02*
X22137619Y-76062976D01*
X21661428Y-76015357D01*
X21709047Y-76062976D01*
X21756666Y-76158214D01*
X21756666Y-76396309D01*
X21709047Y-76491547D01*
X21661428Y-76539166D01*
X21566190Y-76586785D01*
X21328095Y-76586785D01*
X21232857Y-76539166D01*
X21185238Y-76491547D01*
X21137619Y-76396309D01*
X21137619Y-76158214D01*
X21185238Y-76062976D01*
X21232857Y-76015357D01*
X21137619Y-77777261D02*
X21804285Y-77777261D01*
X21709047Y-77777261D02*
X21756666Y-77824880D01*
X21804285Y-77920119D01*
X21804285Y-78062976D01*
X21756666Y-78158214D01*
X21661428Y-78205833D01*
X21137619Y-78205833D01*
X21661428Y-78205833D02*
X21756666Y-78253452D01*
X21804285Y-78348690D01*
X21804285Y-78491547D01*
X21756666Y-78586785D01*
X21661428Y-78634404D01*
X21137619Y-78634404D01*
X21137619Y-79110595D02*
X21804285Y-79110595D01*
X21709047Y-79110595D02*
X21756666Y-79158214D01*
X21804285Y-79253452D01*
X21804285Y-79396309D01*
X21756666Y-79491547D01*
X21661428Y-79539166D01*
X21137619Y-79539166D01*
X21661428Y-79539166D02*
X21756666Y-79586785D01*
X21804285Y-79682023D01*
X21804285Y-79824880D01*
X21756666Y-79920119D01*
X21661428Y-79967738D01*
X21137619Y-79967738D01*
D11*
X22860000Y-29845000D02*
X22860000Y-121900000D01*
X29845000Y-29845000D02*
X22273579Y-29845000D01*
X29845000Y-121900000D02*
X22273579Y-121900000D01*
X22860000Y-121900000D02*
X22273579Y-120773496D01*
X22860000Y-121900000D02*
X23446421Y-120773496D01*
X22860000Y-29845000D02*
X22273579Y-30971504D01*
X22860000Y-29845000D02*
X23446421Y-30971504D01*
D10*
X51308452Y-24852380D02*
X50832261Y-24852380D01*
X50784642Y-25328571D01*
X50832261Y-25280952D01*
X50927500Y-25233333D01*
X51165595Y-25233333D01*
X51260833Y-25280952D01*
X51308452Y-25328571D01*
X51356071Y-25423809D01*
X51356071Y-25661904D01*
X51308452Y-25757142D01*
X51260833Y-25804761D01*
X51165595Y-25852380D01*
X50927500Y-25852380D01*
X50832261Y-25804761D01*
X50784642Y-25757142D01*
X51975119Y-24852380D02*
X52070357Y-24852380D01*
X52165595Y-24900000D01*
X52213214Y-24947619D01*
X52260833Y-25042857D01*
X52308452Y-25233333D01*
X52308452Y-25471428D01*
X52260833Y-25661904D01*
X52213214Y-25757142D01*
X52165595Y-25804761D01*
X52070357Y-25852380D01*
X51975119Y-25852380D01*
X51879880Y-25804761D01*
X51832261Y-25757142D01*
X51784642Y-25661904D01*
X51737023Y-25471428D01*
X51737023Y-25233333D01*
X51784642Y-25042857D01*
X51832261Y-24947619D01*
X51879880Y-24900000D01*
X51975119Y-24852380D01*
X52737023Y-25757142D02*
X52784642Y-25804761D01*
X52737023Y-25852380D01*
X52689404Y-25804761D01*
X52737023Y-25757142D01*
X52737023Y-25852380D01*
X53737023Y-25852380D02*
X53165595Y-25852380D01*
X53451309Y-25852380D02*
X53451309Y-24852380D01*
X53356071Y-24995238D01*
X53260833Y-25090476D01*
X53165595Y-25138095D01*
X54594166Y-24852380D02*
X54403690Y-24852380D01*
X54308452Y-24900000D01*
X54260833Y-24947619D01*
X54165595Y-25090476D01*
X54117976Y-25280952D01*
X54117976Y-25661904D01*
X54165595Y-25757142D01*
X54213214Y-25804761D01*
X54308452Y-25852380D01*
X54498928Y-25852380D01*
X54594166Y-25804761D01*
X54641785Y-25757142D01*
X54689404Y-25661904D01*
X54689404Y-25423809D01*
X54641785Y-25328571D01*
X54594166Y-25280952D01*
X54498928Y-25233333D01*
X54308452Y-25233333D01*
X54213214Y-25280952D01*
X54165595Y-25328571D01*
X54117976Y-25423809D01*
X55594166Y-24852380D02*
X55117976Y-24852380D01*
X55070357Y-25328571D01*
X55117976Y-25280952D01*
X55213214Y-25233333D01*
X55451309Y-25233333D01*
X55546547Y-25280952D01*
X55594166Y-25328571D01*
X55641785Y-25423809D01*
X55641785Y-25661904D01*
X55594166Y-25757142D01*
X55546547Y-25804761D01*
X55451309Y-25852380D01*
X55213214Y-25852380D01*
X55117976Y-25804761D01*
X55070357Y-25757142D01*
X56832261Y-25852380D02*
X56832261Y-25185714D01*
X56832261Y-25280952D02*
X56879880Y-25233333D01*
X56975119Y-25185714D01*
X57117976Y-25185714D01*
X57213214Y-25233333D01*
X57260833Y-25328571D01*
X57260833Y-25852380D01*
X57260833Y-25328571D02*
X57308452Y-25233333D01*
X57403690Y-25185714D01*
X57546547Y-25185714D01*
X57641785Y-25233333D01*
X57689404Y-25328571D01*
X57689404Y-25852380D01*
X58165595Y-25852380D02*
X58165595Y-25185714D01*
X58165595Y-25280952D02*
X58213214Y-25233333D01*
X58308452Y-25185714D01*
X58451309Y-25185714D01*
X58546547Y-25233333D01*
X58594166Y-25328571D01*
X58594166Y-25852380D01*
X58594166Y-25328571D02*
X58641785Y-25233333D01*
X58737023Y-25185714D01*
X58879880Y-25185714D01*
X58975119Y-25233333D01*
X59022738Y-25328571D01*
X59022738Y-25852380D01*
D11*
X29845000Y-26670000D02*
X80010000Y-26670000D01*
X29845000Y-29845000D02*
X29845000Y-26083579D01*
X80010000Y-29845000D02*
X80010000Y-26083579D01*
X80010000Y-26670000D02*
X78883496Y-27256421D01*
X80010000Y-26670000D02*
X78883496Y-26083579D01*
X29845000Y-26670000D02*
X30971504Y-27256421D01*
X29845000Y-26670000D02*
X30971504Y-26083579D01*
D10*
X24947857Y-102957380D02*
X25281190Y-103957380D01*
X25614523Y-102957380D01*
X25947857Y-103576428D02*
X26709761Y-103576428D01*
X27757380Y-103862142D02*
X27709761Y-103909761D01*
X27566904Y-103957380D01*
X27471666Y-103957380D01*
X27328809Y-103909761D01*
X27233571Y-103814523D01*
X27185952Y-103719285D01*
X27138333Y-103528809D01*
X27138333Y-103385952D01*
X27185952Y-103195476D01*
X27233571Y-103100238D01*
X27328809Y-103005000D01*
X27471666Y-102957380D01*
X27566904Y-102957380D01*
X27709761Y-103005000D01*
X27757380Y-103052619D01*
X28185952Y-102957380D02*
X28185952Y-103766904D01*
X28233571Y-103862142D01*
X28281190Y-103909761D01*
X28376428Y-103957380D01*
X28566904Y-103957380D01*
X28662142Y-103909761D01*
X28709761Y-103862142D01*
X28757380Y-103766904D01*
X28757380Y-102957380D01*
X29090714Y-102957380D02*
X29662142Y-102957380D01*
X29376428Y-103957380D02*
X29376428Y-102957380D01*
X24947857Y-84542380D02*
X25281190Y-85542380D01*
X25614523Y-84542380D01*
X25947857Y-85161428D02*
X26709761Y-85161428D01*
X27757380Y-85447142D02*
X27709761Y-85494761D01*
X27566904Y-85542380D01*
X27471666Y-85542380D01*
X27328809Y-85494761D01*
X27233571Y-85399523D01*
X27185952Y-85304285D01*
X27138333Y-85113809D01*
X27138333Y-84970952D01*
X27185952Y-84780476D01*
X27233571Y-84685238D01*
X27328809Y-84590000D01*
X27471666Y-84542380D01*
X27566904Y-84542380D01*
X27709761Y-84590000D01*
X27757380Y-84637619D01*
X28185952Y-84542380D02*
X28185952Y-85351904D01*
X28233571Y-85447142D01*
X28281190Y-85494761D01*
X28376428Y-85542380D01*
X28566904Y-85542380D01*
X28662142Y-85494761D01*
X28709761Y-85447142D01*
X28757380Y-85351904D01*
X28757380Y-84542380D01*
X29090714Y-84542380D02*
X29662142Y-84542380D01*
X29376428Y-85542380D02*
X29376428Y-84542380D01*
X24947857Y-66127380D02*
X25281190Y-67127380D01*
X25614523Y-66127380D01*
X25947857Y-66746428D02*
X26709761Y-66746428D01*
X27757380Y-67032142D02*
X27709761Y-67079761D01*
X27566904Y-67127380D01*
X27471666Y-67127380D01*
X27328809Y-67079761D01*
X27233571Y-66984523D01*
X27185952Y-66889285D01*
X27138333Y-66698809D01*
X27138333Y-66555952D01*
X27185952Y-66365476D01*
X27233571Y-66270238D01*
X27328809Y-66175000D01*
X27471666Y-66127380D01*
X27566904Y-66127380D01*
X27709761Y-66175000D01*
X27757380Y-66222619D01*
X28185952Y-66127380D02*
X28185952Y-66936904D01*
X28233571Y-67032142D01*
X28281190Y-67079761D01*
X28376428Y-67127380D01*
X28566904Y-67127380D01*
X28662142Y-67079761D01*
X28709761Y-67032142D01*
X28757380Y-66936904D01*
X28757380Y-66127380D01*
X29090714Y-66127380D02*
X29662142Y-66127380D01*
X29376428Y-67127380D02*
X29376428Y-66127380D01*
X24947857Y-47712380D02*
X25281190Y-48712380D01*
X25614523Y-47712380D01*
X25947857Y-48331428D02*
X26709761Y-48331428D01*
X27757380Y-48617142D02*
X27709761Y-48664761D01*
X27566904Y-48712380D01*
X27471666Y-48712380D01*
X27328809Y-48664761D01*
X27233571Y-48569523D01*
X27185952Y-48474285D01*
X27138333Y-48283809D01*
X27138333Y-48140952D01*
X27185952Y-47950476D01*
X27233571Y-47855238D01*
X27328809Y-47760000D01*
X27471666Y-47712380D01*
X27566904Y-47712380D01*
X27709761Y-47760000D01*
X27757380Y-47807619D01*
X28185952Y-47712380D02*
X28185952Y-48521904D01*
X28233571Y-48617142D01*
X28281190Y-48664761D01*
X28376428Y-48712380D01*
X28566904Y-48712380D01*
X28662142Y-48664761D01*
X28709761Y-48617142D01*
X28757380Y-48521904D01*
X28757380Y-47712380D01*
X29090714Y-47712380D02*
X29662142Y-47712380D01*
X29376428Y-48712380D02*
X29376428Y-47712380D01*
D11*
X29845000Y-103505000D02*
X80010000Y-103505000D01*
X29845000Y-85090000D02*
X80010000Y-85090000D01*
X29845000Y-66675000D02*
X80010000Y-66675000D01*
X29845000Y-48260000D02*
X80010000Y-48260000D01*
X78800000Y-108590000D02*
X78800000Y-107260000D01*
X77470000Y-108590000D02*
X78800000Y-108590000D01*
X76200000Y-108590000D02*
X76200000Y-105930000D01*
X76200000Y-105930000D02*
X73600000Y-105930000D01*
X76200000Y-108590000D02*
X73600000Y-108590000D01*
X73600000Y-108590000D02*
X73600000Y-105930000D01*
X78800000Y-90180000D02*
X78800000Y-88850000D01*
X77470000Y-90180000D02*
X78800000Y-90180000D01*
X76200000Y-90180000D02*
X76200000Y-87520000D01*
X76200000Y-87520000D02*
X73600000Y-87520000D01*
X76200000Y-90180000D02*
X73600000Y-90180000D01*
X73600000Y-90180000D02*
X73600000Y-87520000D01*
X78800000Y-71770000D02*
X78800000Y-70440000D01*
X77470000Y-71770000D02*
X78800000Y-71770000D01*
X76200000Y-71770000D02*
X76200000Y-69110000D01*
X76200000Y-69110000D02*
X73600000Y-69110000D01*
X76200000Y-71770000D02*
X73600000Y-71770000D01*
X73600000Y-71770000D02*
X73600000Y-69110000D01*
X78800000Y-53360000D02*
X78800000Y-52030000D01*
X77470000Y-53360000D02*
X78800000Y-53360000D01*
X76200000Y-53360000D02*
X76200000Y-50700000D01*
X76200000Y-50700000D02*
X73600000Y-50700000D01*
X76200000Y-53360000D02*
X73600000Y-53360000D01*
X73600000Y-53360000D02*
X73600000Y-50700000D01*
X40580000Y-105930000D02*
X40580000Y-107260000D01*
X41910000Y-105930000D02*
X40580000Y-105930000D01*
X43180000Y-105930000D02*
X43180000Y-108590000D01*
X43180000Y-108590000D02*
X45780000Y-108590000D01*
X43180000Y-105930000D02*
X45780000Y-105930000D01*
X45780000Y-105930000D02*
X45780000Y-108590000D01*
X40580000Y-87520000D02*
X40580000Y-88850000D01*
X41910000Y-87520000D02*
X40580000Y-87520000D01*
X43180000Y-87520000D02*
X43180000Y-90180000D01*
X43180000Y-90180000D02*
X45780000Y-90180000D01*
X43180000Y-87520000D02*
X45780000Y-87520000D01*
X45780000Y-87520000D02*
X45780000Y-90180000D01*
X40580000Y-69110000D02*
X40580000Y-70440000D01*
X41910000Y-69110000D02*
X40580000Y-69110000D01*
X43180000Y-69110000D02*
X43180000Y-71770000D01*
X43180000Y-71770000D02*
X45780000Y-71770000D01*
X43180000Y-69110000D02*
X45780000Y-69110000D01*
X45780000Y-69110000D02*
X45780000Y-71770000D01*
X40580000Y-50700000D02*
X40580000Y-52030000D01*
X41910000Y-50700000D02*
X40580000Y-50700000D01*
X43180000Y-50700000D02*
X43180000Y-53360000D01*
X43180000Y-53360000D02*
X45780000Y-53360000D01*
X43180000Y-50700000D02*
X45780000Y-50700000D01*
X45780000Y-50700000D02*
X45780000Y-53360000D01*
X45660000Y-105930000D02*
X45660000Y-107260000D01*
X46990000Y-105930000D02*
X45660000Y-105930000D01*
X48260000Y-105930000D02*
X48260000Y-108590000D01*
X48260000Y-108590000D02*
X50860000Y-108590000D01*
X48260000Y-105930000D02*
X50860000Y-105930000D01*
X50860000Y-105930000D02*
X50860000Y-108590000D01*
X45660000Y-87520000D02*
X45660000Y-88850000D01*
X46990000Y-87520000D02*
X45660000Y-87520000D01*
X48260000Y-87520000D02*
X48260000Y-90180000D01*
X48260000Y-90180000D02*
X50860000Y-90180000D01*
X48260000Y-87520000D02*
X50860000Y-87520000D01*
X50860000Y-87520000D02*
X50860000Y-90180000D01*
X45660000Y-69110000D02*
X45660000Y-70440000D01*
X46990000Y-69110000D02*
X45660000Y-69110000D01*
X48260000Y-69110000D02*
X48260000Y-71770000D01*
X48260000Y-71770000D02*
X50860000Y-71770000D01*
X48260000Y-69110000D02*
X50860000Y-69110000D01*
X50860000Y-69110000D02*
X50860000Y-71770000D01*
X45660000Y-50700000D02*
X45660000Y-52030000D01*
X46990000Y-50700000D02*
X45660000Y-50700000D01*
X48260000Y-50700000D02*
X48260000Y-53360000D01*
X48260000Y-53360000D02*
X50860000Y-53360000D01*
X48260000Y-50700000D02*
X50860000Y-50700000D01*
X50860000Y-50700000D02*
X50860000Y-53360000D01*
X50860000Y-115490000D02*
X49530000Y-115490000D01*
X50860000Y-116820000D02*
X50860000Y-115490000D01*
X50860000Y-118090000D02*
X48200000Y-118090000D01*
X48200000Y-118090000D02*
X48200000Y-120690000D01*
X50860000Y-118090000D02*
X50860000Y-120690000D01*
X50860000Y-120690000D02*
X48200000Y-120690000D01*
X50860000Y-97080000D02*
X49530000Y-97080000D01*
X50860000Y-98410000D02*
X50860000Y-97080000D01*
X50860000Y-99680000D02*
X48200000Y-99680000D01*
X48200000Y-99680000D02*
X48200000Y-102280000D01*
X50860000Y-99680000D02*
X50860000Y-102280000D01*
X50860000Y-102280000D02*
X48200000Y-102280000D01*
X50860000Y-78670000D02*
X49530000Y-78670000D01*
X50860000Y-80000000D02*
X50860000Y-78670000D01*
X50860000Y-81270000D02*
X48200000Y-81270000D01*
X48200000Y-81270000D02*
X48200000Y-83870000D01*
X50860000Y-81270000D02*
X50860000Y-83870000D01*
X50860000Y-83870000D02*
X48200000Y-83870000D01*
X50860000Y-60260000D02*
X49530000Y-60260000D01*
X50860000Y-61590000D02*
X50860000Y-60260000D01*
X50860000Y-62860000D02*
X48200000Y-62860000D01*
X48200000Y-62860000D02*
X48200000Y-65460000D01*
X50860000Y-62860000D02*
X50860000Y-65460000D01*
X50860000Y-65460000D02*
X48200000Y-65460000D01*
X50860000Y-47050000D02*
X48200000Y-47050000D01*
X50860000Y-44450000D02*
X50860000Y-47050000D01*
X48200000Y-44450000D02*
X48200000Y-47050000D01*
X50860000Y-44450000D02*
X48200000Y-44450000D01*
X50860000Y-43180000D02*
X50860000Y-41850000D01*
X50860000Y-41850000D02*
X49530000Y-41850000D01*
X73600000Y-34950000D02*
X73600000Y-32290000D01*
X76200000Y-34950000D02*
X73600000Y-34950000D01*
X76200000Y-32290000D02*
X73600000Y-32290000D01*
X76200000Y-34950000D02*
X76200000Y-32290000D01*
X77470000Y-34950000D02*
X78800000Y-34950000D01*
X78800000Y-34950000D02*
X78800000Y-33620000D01*
X50860000Y-32290000D02*
X50860000Y-34950000D01*
X48260000Y-32290000D02*
X50860000Y-32290000D01*
X48260000Y-34950000D02*
X50860000Y-34950000D01*
X48260000Y-32290000D02*
X48260000Y-34950000D01*
X46990000Y-32290000D02*
X45660000Y-32290000D01*
X45660000Y-32290000D02*
X45660000Y-33620000D01*
X45780000Y-32290000D02*
X45780000Y-34950000D01*
X43180000Y-32290000D02*
X45780000Y-32290000D01*
X43180000Y-34950000D02*
X45780000Y-34950000D01*
X43180000Y-32290000D02*
X43180000Y-34950000D01*
X41910000Y-32290000D02*
X40580000Y-32290000D01*
X40580000Y-32290000D02*
X40580000Y-33620000D01*
M02*
