G04 #@! TF.GenerationSoftware,KiCad,Pcbnew,(5.1.6)-1*
G04 #@! TF.CreationDate,2020-06-25T08:21:51+09:00*
G04 #@! TF.ProjectId,XOR___,584f5262-d851-42e6-9b69-6361645f7063,rev?*
G04 #@! TF.SameCoordinates,Original*
G04 #@! TF.FileFunction,Soldermask,Bot*
G04 #@! TF.FilePolarity,Negative*
%FSLAX46Y46*%
G04 Gerber Fmt 4.6, Leading zero omitted, Abs format (unit mm)*
G04 Created by KiCad (PCBNEW (5.1.6)-1) date 2020-06-25 08:21:51*
%MOMM*%
%LPD*%
G01*
G04 APERTURE LIST*
%ADD10R,1.900000X1.900000*%
%ADD11O,1.900000X1.900000*%
%ADD12C,1.724000*%
G04 APERTURE END LIST*
D10*
X138430000Y-107915000D03*
D11*
X135890000Y-107915000D03*
D10*
X105410000Y-107915000D03*
D11*
X102870000Y-107915000D03*
D10*
X72390000Y-107915000D03*
D11*
X69850000Y-107915000D03*
D10*
X138430000Y-90135000D03*
D11*
X135890000Y-90135000D03*
D10*
X105410000Y-90135000D03*
D11*
X102870000Y-90135000D03*
D10*
X72390000Y-90135000D03*
D11*
X69850000Y-90135000D03*
D10*
X138430000Y-72355000D03*
D11*
X135890000Y-72355000D03*
D10*
X105410000Y-72355000D03*
D11*
X102870000Y-72355000D03*
D10*
X72390000Y-72355000D03*
D11*
X69850000Y-72355000D03*
D10*
X138430000Y-54575000D03*
D11*
X135890000Y-54575000D03*
D10*
X105410000Y-54575000D03*
D11*
X102870000Y-54575000D03*
D10*
X72390000Y-54575000D03*
D11*
X69850000Y-54575000D03*
D10*
X138430000Y-36795000D03*
D11*
X135890000Y-36795000D03*
D10*
X105410000Y-36795000D03*
D11*
X102870000Y-36795000D03*
D12*
X133350000Y-120015000D03*
X125730000Y-120015000D03*
X125730000Y-109855000D03*
X133350000Y-109855000D03*
X133350000Y-107315000D03*
X125730000Y-107315000D03*
X100330000Y-120015000D03*
X92710000Y-120015000D03*
X92710000Y-109855000D03*
X100330000Y-109855000D03*
X100330000Y-107315000D03*
X92710000Y-107315000D03*
X67310000Y-120015000D03*
X59690000Y-120015000D03*
X59690000Y-109855000D03*
X67310000Y-109855000D03*
X67310000Y-107315000D03*
X59690000Y-107315000D03*
X133350000Y-102235000D03*
X125730000Y-102235000D03*
X125730000Y-92075000D03*
X133350000Y-92075000D03*
X133350000Y-89535000D03*
X125730000Y-89535000D03*
X100330000Y-102235000D03*
X92710000Y-102235000D03*
X92710000Y-92075000D03*
X100330000Y-92075000D03*
X100330000Y-89535000D03*
X92710000Y-89535000D03*
X67310000Y-102235000D03*
X59690000Y-102235000D03*
X59690000Y-92075000D03*
X67310000Y-92075000D03*
X67310000Y-89535000D03*
X59690000Y-89535000D03*
X133350000Y-84455000D03*
X125730000Y-84455000D03*
X125730000Y-74295000D03*
X133350000Y-74295000D03*
X133350000Y-71755000D03*
X125730000Y-71755000D03*
X100330000Y-84455000D03*
X92710000Y-84455000D03*
X92710000Y-74295000D03*
X100330000Y-74295000D03*
X100330000Y-71755000D03*
X92710000Y-71755000D03*
X67310000Y-84455000D03*
X59690000Y-84455000D03*
X59690000Y-74295000D03*
X67310000Y-74295000D03*
X67310000Y-71755000D03*
X59690000Y-71755000D03*
X133350000Y-66675000D03*
X125730000Y-66675000D03*
X125730000Y-56515000D03*
X133350000Y-56515000D03*
X133350000Y-53975000D03*
X125730000Y-53975000D03*
X100330000Y-66675000D03*
X92710000Y-66675000D03*
X92710000Y-56515000D03*
X100330000Y-56515000D03*
X100330000Y-53975000D03*
X92710000Y-53975000D03*
X67310000Y-66675000D03*
X59690000Y-66675000D03*
X59690000Y-56515000D03*
X67310000Y-56515000D03*
X67310000Y-53975000D03*
X59690000Y-53975000D03*
X133350000Y-48895000D03*
X125730000Y-48895000D03*
X125730000Y-38735000D03*
X133350000Y-38735000D03*
X133350000Y-36195000D03*
X125730000Y-36195000D03*
X100330000Y-48895000D03*
X92710000Y-48895000D03*
X92710000Y-38735000D03*
X100330000Y-38735000D03*
X100330000Y-36195000D03*
X92710000Y-36195000D03*
X110490000Y-107315000D03*
X118110000Y-107315000D03*
X118110000Y-109855000D03*
X110490000Y-109855000D03*
X110490000Y-120015000D03*
X118110000Y-120015000D03*
X77470000Y-107315000D03*
X85090000Y-107315000D03*
X85090000Y-109855000D03*
X77470000Y-109855000D03*
X77470000Y-120015000D03*
X85090000Y-120015000D03*
X44450000Y-107315000D03*
X52070000Y-107315000D03*
X52070000Y-109855000D03*
X44450000Y-109855000D03*
X44450000Y-120015000D03*
X52070000Y-120015000D03*
X110490000Y-89535000D03*
X118110000Y-89535000D03*
X118110000Y-92075000D03*
X110490000Y-92075000D03*
X110490000Y-102235000D03*
X118110000Y-102235000D03*
X77470000Y-89535000D03*
X85090000Y-89535000D03*
X85090000Y-92075000D03*
X77470000Y-92075000D03*
X77470000Y-102235000D03*
X85090000Y-102235000D03*
X44450000Y-89535000D03*
X52070000Y-89535000D03*
X52070000Y-92075000D03*
X44450000Y-92075000D03*
X44450000Y-102235000D03*
X52070000Y-102235000D03*
X110490000Y-71755000D03*
X118110000Y-71755000D03*
X118110000Y-74295000D03*
X110490000Y-74295000D03*
X110490000Y-84455000D03*
X118110000Y-84455000D03*
X77470000Y-71755000D03*
X85090000Y-71755000D03*
X85090000Y-74295000D03*
X77470000Y-74295000D03*
X77470000Y-84455000D03*
X85090000Y-84455000D03*
X44450000Y-71755000D03*
X52070000Y-71755000D03*
X52070000Y-74295000D03*
X44450000Y-74295000D03*
X44450000Y-84455000D03*
X52070000Y-84455000D03*
X110490000Y-53975000D03*
X118110000Y-53975000D03*
X118110000Y-56515000D03*
X110490000Y-56515000D03*
X110490000Y-66675000D03*
X118110000Y-66675000D03*
X77470000Y-53975000D03*
X85090000Y-53975000D03*
X85090000Y-56515000D03*
X77470000Y-56515000D03*
X77470000Y-66675000D03*
X85090000Y-66675000D03*
X44450000Y-53975000D03*
X52070000Y-53975000D03*
X52070000Y-56515000D03*
X44450000Y-56515000D03*
X44450000Y-66675000D03*
X52070000Y-66675000D03*
X110490000Y-36195000D03*
X118110000Y-36195000D03*
X118110000Y-38735000D03*
X110490000Y-38735000D03*
X110490000Y-48895000D03*
X118110000Y-48895000D03*
X77470000Y-36195000D03*
X85090000Y-36195000D03*
X85090000Y-38735000D03*
X77470000Y-38735000D03*
X77470000Y-48895000D03*
X85090000Y-48895000D03*
D11*
X123190000Y-120015000D03*
D10*
X123190000Y-117475000D03*
D11*
X90170000Y-120015000D03*
D10*
X90170000Y-117475000D03*
D11*
X57150000Y-120015000D03*
D10*
X57150000Y-117475000D03*
D11*
X123190000Y-102235000D03*
D10*
X123190000Y-99695000D03*
D11*
X90170000Y-102235000D03*
D10*
X90170000Y-99695000D03*
D11*
X57150000Y-102235000D03*
D10*
X57150000Y-99695000D03*
D11*
X123190000Y-84455000D03*
D10*
X123190000Y-81915000D03*
D11*
X90170000Y-84455000D03*
D10*
X90170000Y-81915000D03*
D11*
X57150000Y-84455000D03*
D10*
X57150000Y-81915000D03*
D11*
X123190000Y-66675000D03*
D10*
X123190000Y-64135000D03*
D11*
X90170000Y-66675000D03*
D10*
X90170000Y-64135000D03*
D11*
X57150000Y-66675000D03*
D10*
X57150000Y-64135000D03*
D11*
X123190000Y-48895000D03*
D10*
X123190000Y-46355000D03*
D11*
X90170000Y-48895000D03*
D10*
X90170000Y-46355000D03*
D12*
X123444000Y-115189000D03*
X120904000Y-115189000D03*
X90424000Y-115189000D03*
X87884000Y-115189000D03*
X57404000Y-115189000D03*
X54864000Y-115189000D03*
X123444000Y-97409000D03*
X120904000Y-97409000D03*
X90424000Y-97409000D03*
X87884000Y-97409000D03*
X57404000Y-97409000D03*
X54864000Y-97409000D03*
X123444000Y-79629000D03*
X120904000Y-79629000D03*
X90424000Y-79629000D03*
X87884000Y-79629000D03*
X57404000Y-79629000D03*
X54864000Y-79629000D03*
X123444000Y-61849000D03*
X120904000Y-61849000D03*
X90424000Y-61849000D03*
X87884000Y-61849000D03*
X57404000Y-61849000D03*
X54864000Y-61849000D03*
X123444000Y-44069000D03*
X120904000Y-44069000D03*
X90424000Y-44069000D03*
X87884000Y-44069000D03*
D11*
X123190000Y-107915000D03*
D10*
X120650000Y-107915000D03*
D11*
X90170000Y-107915000D03*
D10*
X87630000Y-107915000D03*
D11*
X57150000Y-107915000D03*
D10*
X54610000Y-107915000D03*
D11*
X123190000Y-90135000D03*
D10*
X120650000Y-90135000D03*
D11*
X90170000Y-90135000D03*
D10*
X87630000Y-90135000D03*
D11*
X57150000Y-90135000D03*
D10*
X54610000Y-90135000D03*
D11*
X123190000Y-72355000D03*
D10*
X120650000Y-72355000D03*
D11*
X90170000Y-72355000D03*
D10*
X87630000Y-72355000D03*
D11*
X57150000Y-72355000D03*
D10*
X54610000Y-72355000D03*
D11*
X123190000Y-54575000D03*
D10*
X120650000Y-54575000D03*
D11*
X90170000Y-54575000D03*
D10*
X87630000Y-54575000D03*
D11*
X57150000Y-54575000D03*
D10*
X54610000Y-54575000D03*
D11*
X123190000Y-36795000D03*
D10*
X120650000Y-36795000D03*
D11*
X90170000Y-36795000D03*
D10*
X87630000Y-36795000D03*
D12*
X135890000Y-113665000D03*
X138430000Y-113665000D03*
X102870000Y-113665000D03*
X105410000Y-113665000D03*
X69850000Y-113665000D03*
X72390000Y-113665000D03*
X135890000Y-95885000D03*
X138430000Y-95885000D03*
X102870000Y-95885000D03*
X105410000Y-95885000D03*
X69850000Y-95885000D03*
X72390000Y-95885000D03*
X135890000Y-78105000D03*
X138430000Y-78105000D03*
X102870000Y-78105000D03*
X105410000Y-78105000D03*
X69850000Y-78105000D03*
X72390000Y-78105000D03*
X135890000Y-60325000D03*
X138430000Y-60325000D03*
X102870000Y-60325000D03*
X105410000Y-60325000D03*
X69850000Y-60325000D03*
X72390000Y-60325000D03*
X135890000Y-42545000D03*
X138430000Y-42545000D03*
X102870000Y-42545000D03*
X105410000Y-42545000D03*
X54864000Y-44069000D03*
X57404000Y-44069000D03*
X72390000Y-42545000D03*
X69850000Y-42545000D03*
D10*
X54610000Y-36795000D03*
D11*
X57150000Y-36795000D03*
D10*
X57150000Y-46355000D03*
D11*
X57150000Y-48895000D03*
X69850000Y-36795000D03*
D10*
X72390000Y-36795000D03*
D12*
X52070000Y-48895000D03*
X44450000Y-48895000D03*
X44450000Y-38735000D03*
X52070000Y-38735000D03*
X52070000Y-36195000D03*
X44450000Y-36195000D03*
X59690000Y-36195000D03*
X67310000Y-36195000D03*
X67310000Y-38735000D03*
X59690000Y-38735000D03*
X59690000Y-48895000D03*
X67310000Y-48895000D03*
M02*
