M48
; DRILL file {KiCad (5.1.6)-1} date 06/25/20 08:16:21
; FORMAT={3:3/ absolute / metric / suppress leading zeros}
; #@! TF.CreationDate,2020-06-25T08:16:21+09:00
; #@! TF.GenerationSoftware,Kicad,Pcbnew,(5.1.6)-1
FMAT,2
METRIC,TZ
T1C0.700
T2C1.000
%
G90
G05
T1
X135890Y-95885
X138430Y-95885
X135890Y-42545
X138430Y-42545
X120904Y-61849
X123444Y-61849
X102870Y-78105
X105410Y-78105
X120904Y-79629
X123444Y-79629
X87884Y-44069
X90424Y-44069
X102870Y-95885
X105410Y-95885
X69850Y-60325
X72390Y-60325
X54864Y-97409
X57404Y-97409
X69850Y-113665
X72390Y-113665
X54864Y-61849
X57404Y-61849
X69850Y-95885
X72390Y-95885
X87884Y-79629
X90424Y-79629
X120904Y-44069
X123444Y-44069
X87884Y-61849
X90424Y-61849
X102870Y-113665
X105410Y-113665
X87884Y-97409
X90424Y-97409
X135890Y-78105
X138430Y-78105
X120904Y-97409
X123444Y-97409
X135890Y-113665
X138430Y-113665
X102870Y-42545
X105410Y-42545
X69850Y-42545
X72390Y-42545
X120904Y-115189
X123444Y-115189
X69850Y-78105
X72390Y-78105
X54864Y-115189
X57404Y-115189
X54864Y-44069
X57404Y-44069
X102870Y-60325
X105410Y-60325
X135890Y-60325
X138430Y-60325
X87884Y-115189
X90424Y-115189
X54864Y-79629
X57404Y-79629
T2
X110490Y-71755
X110490Y-74295
X110490Y-84455
X118110Y-71755
X118110Y-74295
X118110Y-84455
X44450Y-89535
X44450Y-92075
X44450Y-102235
X52070Y-89535
X52070Y-92075
X52070Y-102235
X110490Y-36195
X110490Y-38735
X110490Y-48895
X118110Y-36195
X118110Y-38735
X118110Y-48895
X125730Y-71755
X125730Y-74295
X125730Y-84455
X133350Y-71755
X133350Y-74295
X133350Y-84455
X102870Y-90135
X105410Y-90135
X59690Y-107315
X59690Y-109855
X59690Y-120015
X67310Y-107315
X67310Y-109855
X67310Y-120015
X69850Y-54575
X72390Y-54575
X125730Y-53975
X125730Y-56515
X125730Y-66675
X133350Y-53975
X133350Y-56515
X133350Y-66675
X87630Y-72355
X90170Y-72355
X57150Y-81915
X57150Y-84455
X44450Y-53975
X44450Y-56515
X44450Y-66675
X52070Y-53975
X52070Y-56515
X52070Y-66675
X90170Y-99695
X90170Y-102235
X77470Y-71755
X77470Y-74295
X77470Y-84455
X85090Y-71755
X85090Y-74295
X85090Y-84455
X59690Y-89535
X59690Y-92075
X59690Y-102235
X67310Y-89535
X67310Y-92075
X67310Y-102235
X135890Y-107915
X138430Y-107915
X77470Y-107315
X77470Y-109855
X77470Y-120015
X85090Y-107315
X85090Y-109855
X85090Y-120015
X125730Y-107315
X125730Y-109855
X125730Y-120015
X133350Y-107315
X133350Y-109855
X133350Y-120015
X90170Y-64135
X90170Y-66675
X120650Y-72355
X123190Y-72355
X57150Y-46355
X57150Y-48895
X120650Y-107915
X123190Y-107915
X110490Y-89535
X110490Y-92075
X110490Y-102235
X118110Y-89535
X118110Y-92075
X118110Y-102235
X123190Y-99695
X123190Y-102235
X57150Y-117475
X57150Y-120015
X44450Y-36195
X44450Y-38735
X44450Y-48895
X52070Y-36195
X52070Y-38735
X52070Y-48895
X125730Y-89535
X125730Y-92075
X125730Y-102235
X133350Y-89535
X133350Y-92075
X133350Y-102235
X135890Y-90135
X138430Y-90135
X110490Y-107315
X110490Y-109855
X110490Y-120015
X118110Y-107315
X118110Y-109855
X118110Y-120015
X69850Y-107915
X72390Y-107915
X69850Y-36795
X72390Y-36795
X120650Y-54575
X123190Y-54575
X123190Y-64135
X123190Y-66675
X54610Y-90135
X57150Y-90135
X57150Y-64135
X57150Y-66675
X120650Y-36795
X123190Y-36795
X77470Y-89535
X77470Y-92075
X77470Y-102235
X85090Y-89535
X85090Y-92075
X85090Y-102235
X90170Y-117475
X90170Y-120015
X102870Y-72355
X105410Y-72355
X59690Y-36195
X59690Y-38735
X59690Y-48895
X67310Y-36195
X67310Y-38735
X67310Y-48895
X92710Y-89535
X92710Y-92075
X92710Y-102235
X100330Y-89535
X100330Y-92075
X100330Y-102235
X92710Y-36195
X92710Y-38735
X92710Y-48895
X100330Y-36195
X100330Y-38735
X100330Y-48895
X54610Y-36795
X57150Y-36795
X54610Y-72355
X57150Y-72355
X123190Y-81915
X123190Y-84455
X44450Y-71755
X44450Y-74295
X44450Y-84455
X52070Y-71755
X52070Y-74295
X52070Y-84455
X69850Y-90135
X72390Y-90135
X92710Y-107315
X92710Y-109855
X92710Y-120015
X100330Y-107315
X100330Y-109855
X100330Y-120015
X125730Y-36195
X125730Y-38735
X125730Y-48895
X133350Y-36195
X133350Y-38735
X133350Y-48895
X135890Y-54575
X138430Y-54575
X120650Y-90135
X123190Y-90135
X87630Y-90135
X90170Y-90135
X90170Y-46355
X90170Y-48895
X57150Y-99695
X57150Y-102235
X77470Y-53975
X77470Y-56515
X77470Y-66675
X85090Y-53975
X85090Y-56515
X85090Y-66675
X59690Y-71755
X59690Y-74295
X59690Y-84455
X67310Y-71755
X67310Y-74295
X67310Y-84455
X135890Y-72355
X138430Y-72355
X102870Y-36795
X105410Y-36795
X135890Y-36795
X138430Y-36795
X59690Y-53975
X59690Y-56515
X59690Y-66675
X67310Y-53975
X67310Y-56515
X67310Y-66675
X102870Y-54575
X105410Y-54575
X54610Y-54575
X57150Y-54575
X54610Y-107915
X57150Y-107915
X123190Y-46355
X123190Y-48895
X87630Y-36795
X90170Y-36795
X123190Y-117475
X123190Y-120015
X110490Y-53975
X110490Y-56515
X110490Y-66675
X118110Y-53975
X118110Y-56515
X118110Y-66675
X77470Y-36195
X77470Y-38735
X77470Y-48895
X85090Y-36195
X85090Y-38735
X85090Y-48895
X92710Y-71755
X92710Y-74295
X92710Y-84455
X100330Y-71755
X100330Y-74295
X100330Y-84455
X102870Y-107915
X105410Y-107915
X44450Y-107315
X44450Y-109855
X44450Y-120015
X52070Y-107315
X52070Y-109855
X52070Y-120015
X92710Y-53975
X92710Y-56515
X92710Y-66675
X100330Y-53975
X100330Y-56515
X100330Y-66675
X69850Y-72355
X72390Y-72355
X90170Y-81915
X90170Y-84455
X87630Y-54575
X90170Y-54575
X87630Y-107915
X90170Y-107915
T0
M30
