G04 #@! TF.GenerationSoftware,KiCad,Pcbnew,(5.1.6)-1*
G04 #@! TF.CreationDate,2020-06-03T08:19:00+09:00*
G04 #@! TF.ProjectId,XOR___,584f5262-d851-42e6-9b69-6361645f7063,rev?*
G04 #@! TF.SameCoordinates,Original*
G04 #@! TF.FileFunction,Soldermask,Top*
G04 #@! TF.FilePolarity,Negative*
%FSLAX46Y46*%
G04 Gerber Fmt 4.6, Leading zero omitted, Abs format (unit mm)*
G04 Created by KiCad (PCBNEW (5.1.6)-1) date 2020-06-03 08:19:00*
%MOMM*%
%LPD*%
G01*
G04 APERTURE LIST*
%ADD10C,1.724000*%
%ADD11R,1.900000X1.900000*%
%ADD12O,1.900000X1.900000*%
G04 APERTURE END LIST*
D10*
X139700000Y-86360000D03*
X147320000Y-86360000D03*
X147320000Y-88900000D03*
X139700000Y-88900000D03*
X139700000Y-99060000D03*
X147320000Y-99060000D03*
X106680000Y-86360000D03*
X114300000Y-86360000D03*
X114300000Y-88900000D03*
X106680000Y-88900000D03*
X106680000Y-99060000D03*
X114300000Y-99060000D03*
X73660000Y-86360000D03*
X81280000Y-86360000D03*
X81280000Y-88900000D03*
X73660000Y-88900000D03*
X73660000Y-99060000D03*
X81280000Y-99060000D03*
X139700000Y-68580000D03*
X147320000Y-68580000D03*
X147320000Y-71120000D03*
X139700000Y-71120000D03*
X139700000Y-81280000D03*
X147320000Y-81280000D03*
X106680000Y-68580000D03*
X114300000Y-68580000D03*
X114300000Y-71120000D03*
X106680000Y-71120000D03*
X106680000Y-81280000D03*
X114300000Y-81280000D03*
X73660000Y-68580000D03*
X81280000Y-68580000D03*
X81280000Y-71120000D03*
X73660000Y-71120000D03*
X73660000Y-81280000D03*
X81280000Y-81280000D03*
X139700000Y-50800000D03*
X147320000Y-50800000D03*
X147320000Y-53340000D03*
X139700000Y-53340000D03*
X139700000Y-63500000D03*
X147320000Y-63500000D03*
X106680000Y-50800000D03*
X114300000Y-50800000D03*
X114300000Y-53340000D03*
X106680000Y-53340000D03*
X106680000Y-63500000D03*
X114300000Y-63500000D03*
X162560000Y-99060000D03*
X154940000Y-99060000D03*
X154940000Y-88900000D03*
X162560000Y-88900000D03*
X162560000Y-86360000D03*
X154940000Y-86360000D03*
X129540000Y-99060000D03*
X121920000Y-99060000D03*
X121920000Y-88900000D03*
X129540000Y-88900000D03*
X129540000Y-86360000D03*
X121920000Y-86360000D03*
X96520000Y-99060000D03*
X88900000Y-99060000D03*
X88900000Y-88900000D03*
X96520000Y-88900000D03*
X96520000Y-86360000D03*
X88900000Y-86360000D03*
X162560000Y-81280000D03*
X154940000Y-81280000D03*
X154940000Y-71120000D03*
X162560000Y-71120000D03*
X162560000Y-68580000D03*
X154940000Y-68580000D03*
X129540000Y-81280000D03*
X121920000Y-81280000D03*
X121920000Y-71120000D03*
X129540000Y-71120000D03*
X129540000Y-68580000D03*
X121920000Y-68580000D03*
X96520000Y-81280000D03*
X88900000Y-81280000D03*
X88900000Y-71120000D03*
X96520000Y-71120000D03*
X96520000Y-68580000D03*
X88900000Y-68580000D03*
X162560000Y-63500000D03*
X154940000Y-63500000D03*
X154940000Y-53340000D03*
X162560000Y-53340000D03*
X162560000Y-50800000D03*
X154940000Y-50800000D03*
X129540000Y-63500000D03*
X121920000Y-63500000D03*
X121920000Y-53340000D03*
X129540000Y-53340000D03*
X129540000Y-50800000D03*
X121920000Y-50800000D03*
X165100000Y-92710000D03*
X167640000Y-92710000D03*
X132080000Y-92710000D03*
X134620000Y-92710000D03*
X99060000Y-92710000D03*
X101600000Y-92710000D03*
X165100000Y-74930000D03*
X167640000Y-74930000D03*
X132080000Y-74930000D03*
X134620000Y-74930000D03*
X99060000Y-74930000D03*
X101600000Y-74930000D03*
X165100000Y-57150000D03*
X167640000Y-57150000D03*
X132080000Y-57150000D03*
X134620000Y-57150000D03*
D11*
X167640000Y-86960000D03*
D12*
X165100000Y-86960000D03*
D11*
X134620000Y-86960000D03*
D12*
X132080000Y-86960000D03*
D11*
X101600000Y-86960000D03*
D12*
X99060000Y-86960000D03*
D11*
X167640000Y-69180000D03*
D12*
X165100000Y-69180000D03*
D11*
X134620000Y-69180000D03*
D12*
X132080000Y-69180000D03*
D11*
X101600000Y-69180000D03*
D12*
X99060000Y-69180000D03*
D11*
X167640000Y-51400000D03*
D12*
X165100000Y-51400000D03*
D11*
X134620000Y-51400000D03*
D12*
X132080000Y-51400000D03*
X152400000Y-99060000D03*
D11*
X152400000Y-96520000D03*
D12*
X119380000Y-99060000D03*
D11*
X119380000Y-96520000D03*
D12*
X86360000Y-99060000D03*
D11*
X86360000Y-96520000D03*
D12*
X152400000Y-81280000D03*
D11*
X152400000Y-78740000D03*
D12*
X119380000Y-81280000D03*
D11*
X119380000Y-78740000D03*
D12*
X86360000Y-81280000D03*
D11*
X86360000Y-78740000D03*
D12*
X152400000Y-63500000D03*
D11*
X152400000Y-60960000D03*
D12*
X119380000Y-63500000D03*
D11*
X119380000Y-60960000D03*
D10*
X152654000Y-94234000D03*
X150114000Y-94234000D03*
X119634000Y-94234000D03*
X117094000Y-94234000D03*
X86614000Y-94234000D03*
X84074000Y-94234000D03*
X152654000Y-76454000D03*
X150114000Y-76454000D03*
X119634000Y-76454000D03*
X117094000Y-76454000D03*
X86614000Y-76454000D03*
X84074000Y-76454000D03*
X152654000Y-58674000D03*
X150114000Y-58674000D03*
X119634000Y-58674000D03*
X117094000Y-58674000D03*
D12*
X152400000Y-86960000D03*
D11*
X149860000Y-86960000D03*
D12*
X119380000Y-86960000D03*
D11*
X116840000Y-86960000D03*
D12*
X86360000Y-86960000D03*
D11*
X83820000Y-86960000D03*
D12*
X152400000Y-69180000D03*
D11*
X149860000Y-69180000D03*
D12*
X119380000Y-69180000D03*
D11*
X116840000Y-69180000D03*
D12*
X86360000Y-69180000D03*
D11*
X83820000Y-69180000D03*
D12*
X152400000Y-51400000D03*
D11*
X149860000Y-51400000D03*
D12*
X119380000Y-51400000D03*
D11*
X116840000Y-51400000D03*
D10*
X84074000Y-58674000D03*
X86614000Y-58674000D03*
X101600000Y-57150000D03*
X99060000Y-57150000D03*
D11*
X83820000Y-51400000D03*
D12*
X86360000Y-51400000D03*
D11*
X86360000Y-60960000D03*
D12*
X86360000Y-63500000D03*
X99060000Y-51400000D03*
D11*
X101600000Y-51400000D03*
D10*
X81280000Y-63500000D03*
X73660000Y-63500000D03*
X73660000Y-53340000D03*
X81280000Y-53340000D03*
X81280000Y-50800000D03*
X73660000Y-50800000D03*
X88900000Y-50800000D03*
X96520000Y-50800000D03*
X96520000Y-53340000D03*
X88900000Y-53340000D03*
X88900000Y-63500000D03*
X96520000Y-63500000D03*
M02*
