M48
; DRILL file {KiCad (5.1.6)-1} date 06/03/20 08:19:04
; FORMAT={3:3/ absolute / metric / suppress leading zeros}
; #@! TF.CreationDate,2020-06-03T08:19:04+09:00
; #@! TF.GenerationSoftware,Kicad,Pcbnew,(5.1.6)-1
FMAT,2
METRIC,TZ
T1C0.700
T2C1.000
%
G90
G05
T1
X84074Y-94234
X86614Y-94234
X165100Y-92710
X167640Y-92710
X117094Y-94234
X119634Y-94234
X150114Y-94234
X152654Y-94234
X99060Y-74930
X101600Y-74930
X165100Y-57150
X167640Y-57150
X84074Y-58674
X86614Y-58674
X99060Y-57150
X101600Y-57150
X117094Y-76454
X119634Y-76454
X99060Y-92710
X101600Y-92710
X150114Y-58674
X152654Y-58674
X84074Y-76454
X86614Y-76454
X132080Y-74930
X134620Y-74930
X132080Y-57150
X134620Y-57150
X150114Y-76454
X152654Y-76454
X165100Y-74930
X167640Y-74930
X117094Y-58674
X119634Y-58674
X132080Y-92710
X134620Y-92710
T2
X116840Y-86960
X119380Y-86960
X165100Y-86960
X167640Y-86960
X132080Y-69180
X134620Y-69180
X99060Y-51400
X101600Y-51400
X88900Y-86360
X88900Y-88900
X88900Y-99060
X96520Y-86360
X96520Y-88900
X96520Y-99060
X106680Y-50800
X106680Y-53340
X106680Y-63500
X114300Y-50800
X114300Y-53340
X114300Y-63500
X132080Y-51400
X134620Y-51400
X152400Y-96520
X152400Y-99060
X83820Y-51400
X86360Y-51400
X86360Y-60960
X86360Y-63500
X121920Y-50800
X121920Y-53340
X121920Y-63500
X129540Y-50800
X129540Y-53340
X129540Y-63500
X139700Y-68580
X139700Y-71120
X139700Y-81280
X147320Y-68580
X147320Y-71120
X147320Y-81280
X119380Y-60960
X119380Y-63500
X99060Y-69180
X101600Y-69180
X86360Y-78740
X86360Y-81280
X86360Y-96520
X86360Y-99060
X154940Y-50800
X154940Y-53340
X154940Y-63500
X162560Y-50800
X162560Y-53340
X162560Y-63500
X83820Y-86960
X86360Y-86960
X119380Y-96520
X119380Y-99060
X165100Y-69180
X167640Y-69180
X88900Y-50800
X88900Y-53340
X88900Y-63500
X96520Y-50800
X96520Y-53340
X96520Y-63500
X116840Y-51400
X119380Y-51400
X88900Y-68580
X88900Y-71120
X88900Y-81280
X96520Y-68580
X96520Y-71120
X96520Y-81280
X139700Y-50800
X139700Y-53340
X139700Y-63500
X147320Y-50800
X147320Y-53340
X147320Y-63500
X106680Y-68580
X106680Y-71120
X106680Y-81280
X114300Y-68580
X114300Y-71120
X114300Y-81280
X106680Y-86360
X106680Y-88900
X106680Y-99060
X114300Y-86360
X114300Y-88900
X114300Y-99060
X152400Y-78740
X152400Y-81280
X99060Y-86960
X101600Y-86960
X149860Y-69180
X152400Y-69180
X83820Y-69180
X86360Y-69180
X149860Y-51400
X152400Y-51400
X121920Y-68580
X121920Y-71120
X121920Y-81280
X129540Y-68580
X129540Y-71120
X129540Y-81280
X73660Y-68580
X73660Y-71120
X73660Y-81280
X81280Y-68580
X81280Y-71120
X81280Y-81280
X73660Y-86360
X73660Y-88900
X73660Y-99060
X81280Y-86360
X81280Y-88900
X81280Y-99060
X139700Y-86360
X139700Y-88900
X139700Y-99060
X147320Y-86360
X147320Y-88900
X147320Y-99060
X152400Y-60960
X152400Y-63500
X165100Y-51400
X167640Y-51400
X154940Y-68580
X154940Y-71120
X154940Y-81280
X162560Y-68580
X162560Y-71120
X162560Y-81280
X119380Y-78740
X119380Y-81280
X149860Y-86960
X152400Y-86960
X132080Y-86960
X134620Y-86960
X116840Y-69180
X119380Y-69180
X154940Y-86360
X154940Y-88900
X154940Y-99060
X162560Y-86360
X162560Y-88900
X162560Y-99060
X73660Y-50800
X73660Y-53340
X73660Y-63500
X81280Y-50800
X81280Y-53340
X81280Y-63500
X121920Y-86360
X121920Y-88900
X121920Y-99060
X129540Y-86360
X129540Y-88900
X129540Y-99060
T0
M30
