G04 #@! TF.GenerationSoftware,KiCad,Pcbnew,(5.1.6)-1*
G04 #@! TF.CreationDate,2020-05-31T12:00:00+09:00*
G04 #@! TF.ProjectId,NOT,4e4f542e-6b69-4636-9164-5f7063625858,rev?*
G04 #@! TF.SameCoordinates,Original*
G04 #@! TF.FileFunction,Legend,Bot*
G04 #@! TF.FilePolarity,Positive*
%FSLAX46Y46*%
G04 Gerber Fmt 4.6, Leading zero omitted, Abs format (unit mm)*
G04 Created by KiCad (PCBNEW (5.1.6)-1) date 2020-05-31 12:00:00*
%MOMM*%
%LPD*%
G01*
G04 APERTURE LIST*
%ADD10C,0.100000*%
%ADD11C,0.300000*%
%ADD12C,0.200000*%
G04 APERTURE END LIST*
D10*
X125627142Y-82017857D02*
X125627142Y-81827380D01*
X125793809Y-81946428D02*
X125365238Y-81946428D01*
X125317619Y-81922619D01*
X125293809Y-81875000D01*
X125293809Y-81827380D01*
X125293809Y-81660714D02*
X125793809Y-81660714D01*
X125293809Y-81446428D02*
X125555714Y-81446428D01*
X125603333Y-81470238D01*
X125627142Y-81517857D01*
X125627142Y-81589285D01*
X125603333Y-81636904D01*
X125579523Y-81660714D01*
X125317619Y-81017857D02*
X125293809Y-81065476D01*
X125293809Y-81160714D01*
X125317619Y-81208333D01*
X125365238Y-81232142D01*
X125555714Y-81232142D01*
X125603333Y-81208333D01*
X125627142Y-81160714D01*
X125627142Y-81065476D01*
X125603333Y-81017857D01*
X125555714Y-80994047D01*
X125508095Y-80994047D01*
X125460476Y-81232142D01*
X125317619Y-80422619D02*
X125293809Y-80375000D01*
X125293809Y-80279761D01*
X125317619Y-80232142D01*
X125365238Y-80208333D01*
X125389047Y-80208333D01*
X125436666Y-80232142D01*
X125460476Y-80279761D01*
X125460476Y-80351190D01*
X125484285Y-80398809D01*
X125531904Y-80422619D01*
X125555714Y-80422619D01*
X125603333Y-80398809D01*
X125627142Y-80351190D01*
X125627142Y-80279761D01*
X125603333Y-80232142D01*
X125627142Y-79994047D02*
X125127142Y-79994047D01*
X125603333Y-79994047D02*
X125627142Y-79946428D01*
X125627142Y-79851190D01*
X125603333Y-79803571D01*
X125579523Y-79779761D01*
X125531904Y-79755952D01*
X125389047Y-79755952D01*
X125341428Y-79779761D01*
X125317619Y-79803571D01*
X125293809Y-79851190D01*
X125293809Y-79946428D01*
X125317619Y-79994047D01*
X125293809Y-79327380D02*
X125555714Y-79327380D01*
X125603333Y-79351190D01*
X125627142Y-79398809D01*
X125627142Y-79494047D01*
X125603333Y-79541666D01*
X125317619Y-79327380D02*
X125293809Y-79375000D01*
X125293809Y-79494047D01*
X125317619Y-79541666D01*
X125365238Y-79565476D01*
X125412857Y-79565476D01*
X125460476Y-79541666D01*
X125484285Y-79494047D01*
X125484285Y-79375000D01*
X125508095Y-79327380D01*
X125627142Y-78875000D02*
X125222380Y-78875000D01*
X125174761Y-78898809D01*
X125150952Y-78922619D01*
X125127142Y-78970238D01*
X125127142Y-79041666D01*
X125150952Y-79089285D01*
X125317619Y-78875000D02*
X125293809Y-78922619D01*
X125293809Y-79017857D01*
X125317619Y-79065476D01*
X125341428Y-79089285D01*
X125389047Y-79113095D01*
X125531904Y-79113095D01*
X125579523Y-79089285D01*
X125603333Y-79065476D01*
X125627142Y-79017857D01*
X125627142Y-78922619D01*
X125603333Y-78875000D01*
X125293809Y-78636904D02*
X125793809Y-78636904D01*
X125293809Y-78422619D02*
X125555714Y-78422619D01*
X125603333Y-78446428D01*
X125627142Y-78494047D01*
X125627142Y-78565476D01*
X125603333Y-78613095D01*
X125579523Y-78636904D01*
X125317619Y-77994047D02*
X125293809Y-78041666D01*
X125293809Y-78136904D01*
X125317619Y-78184523D01*
X125365238Y-78208333D01*
X125555714Y-78208333D01*
X125603333Y-78184523D01*
X125627142Y-78136904D01*
X125627142Y-78041666D01*
X125603333Y-77994047D01*
X125555714Y-77970238D01*
X125508095Y-77970238D01*
X125460476Y-78208333D01*
X125627142Y-77827380D02*
X125627142Y-77636904D01*
X125793809Y-77755952D02*
X125365238Y-77755952D01*
X125317619Y-77732142D01*
X125293809Y-77684523D01*
X125293809Y-77636904D01*
X125627142Y-77541666D02*
X125627142Y-77351190D01*
X125793809Y-77470238D02*
X125365238Y-77470238D01*
X125317619Y-77446428D01*
X125293809Y-77398809D01*
X125293809Y-77351190D01*
X125293809Y-77184523D02*
X125627142Y-77184523D01*
X125793809Y-77184523D02*
X125770000Y-77208333D01*
X125746190Y-77184523D01*
X125770000Y-77160714D01*
X125793809Y-77184523D01*
X125746190Y-77184523D01*
X124443809Y-80744047D02*
X124777142Y-80744047D01*
X124729523Y-80744047D02*
X124753333Y-80720238D01*
X124777142Y-80672619D01*
X124777142Y-80601190D01*
X124753333Y-80553571D01*
X124705714Y-80529761D01*
X124443809Y-80529761D01*
X124705714Y-80529761D02*
X124753333Y-80505952D01*
X124777142Y-80458333D01*
X124777142Y-80386904D01*
X124753333Y-80339285D01*
X124705714Y-80315476D01*
X124443809Y-80315476D01*
X124443809Y-79863095D02*
X124705714Y-79863095D01*
X124753333Y-79886904D01*
X124777142Y-79934523D01*
X124777142Y-80029761D01*
X124753333Y-80077380D01*
X124467619Y-79863095D02*
X124443809Y-79910714D01*
X124443809Y-80029761D01*
X124467619Y-80077380D01*
X124515238Y-80101190D01*
X124562857Y-80101190D01*
X124610476Y-80077380D01*
X124634285Y-80029761D01*
X124634285Y-79910714D01*
X124658095Y-79863095D01*
X124443809Y-79410714D02*
X124943809Y-79410714D01*
X124467619Y-79410714D02*
X124443809Y-79458333D01*
X124443809Y-79553571D01*
X124467619Y-79601190D01*
X124491428Y-79625000D01*
X124539047Y-79648809D01*
X124681904Y-79648809D01*
X124729523Y-79625000D01*
X124753333Y-79601190D01*
X124777142Y-79553571D01*
X124777142Y-79458333D01*
X124753333Y-79410714D01*
X124467619Y-78982142D02*
X124443809Y-79029761D01*
X124443809Y-79125000D01*
X124467619Y-79172619D01*
X124515238Y-79196428D01*
X124705714Y-79196428D01*
X124753333Y-79172619D01*
X124777142Y-79125000D01*
X124777142Y-79029761D01*
X124753333Y-78982142D01*
X124705714Y-78958333D01*
X124658095Y-78958333D01*
X124610476Y-79196428D01*
X124443809Y-78291666D02*
X124467619Y-78339285D01*
X124491428Y-78363095D01*
X124539047Y-78386904D01*
X124681904Y-78386904D01*
X124729523Y-78363095D01*
X124753333Y-78339285D01*
X124777142Y-78291666D01*
X124777142Y-78220238D01*
X124753333Y-78172619D01*
X124729523Y-78148809D01*
X124681904Y-78125000D01*
X124539047Y-78125000D01*
X124491428Y-78148809D01*
X124467619Y-78172619D01*
X124443809Y-78220238D01*
X124443809Y-78291666D01*
X124777142Y-77982142D02*
X124777142Y-77791666D01*
X124443809Y-77910714D02*
X124872380Y-77910714D01*
X124920000Y-77886904D01*
X124943809Y-77839285D01*
X124943809Y-77791666D01*
X124467619Y-77029761D02*
X124443809Y-77077380D01*
X124443809Y-77172619D01*
X124467619Y-77220238D01*
X124491428Y-77244047D01*
X124539047Y-77267857D01*
X124681904Y-77267857D01*
X124729523Y-77244047D01*
X124753333Y-77220238D01*
X124777142Y-77172619D01*
X124777142Y-77077380D01*
X124753333Y-77029761D01*
X124443809Y-76744047D02*
X124467619Y-76791666D01*
X124491428Y-76815476D01*
X124539047Y-76839285D01*
X124681904Y-76839285D01*
X124729523Y-76815476D01*
X124753333Y-76791666D01*
X124777142Y-76744047D01*
X124777142Y-76672619D01*
X124753333Y-76625000D01*
X124729523Y-76601190D01*
X124681904Y-76577380D01*
X124539047Y-76577380D01*
X124491428Y-76601190D01*
X124467619Y-76625000D01*
X124443809Y-76672619D01*
X124443809Y-76744047D01*
X124443809Y-76148809D02*
X124943809Y-76148809D01*
X124467619Y-76148809D02*
X124443809Y-76196428D01*
X124443809Y-76291666D01*
X124467619Y-76339285D01*
X124491428Y-76363095D01*
X124539047Y-76386904D01*
X124681904Y-76386904D01*
X124729523Y-76363095D01*
X124753333Y-76339285D01*
X124777142Y-76291666D01*
X124777142Y-76196428D01*
X124753333Y-76148809D01*
X124467619Y-75720238D02*
X124443809Y-75767857D01*
X124443809Y-75863095D01*
X124467619Y-75910714D01*
X124515238Y-75934523D01*
X124705714Y-75934523D01*
X124753333Y-75910714D01*
X124777142Y-75863095D01*
X124777142Y-75767857D01*
X124753333Y-75720238D01*
X124705714Y-75696428D01*
X124658095Y-75696428D01*
X124610476Y-75934523D01*
D11*
X126321428Y-81160714D02*
X127821428Y-81160714D01*
X126321428Y-80303571D01*
X127821428Y-80303571D01*
X127821428Y-79303571D02*
X127821428Y-79017857D01*
X127750000Y-78875000D01*
X127607142Y-78732142D01*
X127321428Y-78660714D01*
X126821428Y-78660714D01*
X126535714Y-78732142D01*
X126392857Y-78875000D01*
X126321428Y-79017857D01*
X126321428Y-79303571D01*
X126392857Y-79446428D01*
X126535714Y-79589285D01*
X126821428Y-79660714D01*
X127321428Y-79660714D01*
X127607142Y-79589285D01*
X127750000Y-79446428D01*
X127821428Y-79303571D01*
X127821428Y-78232142D02*
X127821428Y-77375000D01*
X126321428Y-77803571D02*
X127821428Y-77803571D01*
D12*
X127380952Y-86431428D02*
X126619047Y-86431428D01*
X127000000Y-86812380D02*
X127000000Y-86050476D01*
X127380952Y-83891428D02*
X126619047Y-83891428D01*
X128595476Y-79732142D02*
X128643095Y-79779761D01*
X128785952Y-79827380D01*
X128881190Y-79827380D01*
X129024047Y-79779761D01*
X129119285Y-79684523D01*
X129166904Y-79589285D01*
X129214523Y-79398809D01*
X129214523Y-79255952D01*
X129166904Y-79065476D01*
X129119285Y-78970238D01*
X129024047Y-78875000D01*
X128881190Y-78827380D01*
X128785952Y-78827380D01*
X128643095Y-78875000D01*
X128595476Y-78922619D01*
X130540000Y-75652380D02*
X130349523Y-75652380D01*
X130254285Y-75700000D01*
X130159047Y-75795238D01*
X130111428Y-75985714D01*
X130111428Y-76319047D01*
X130159047Y-76509523D01*
X130254285Y-76604761D01*
X130349523Y-76652380D01*
X130540000Y-76652380D01*
X130635238Y-76604761D01*
X130730476Y-76509523D01*
X130778095Y-76319047D01*
X130778095Y-75985714D01*
X130730476Y-75795238D01*
X130635238Y-75700000D01*
X130540000Y-75652380D01*
X129682857Y-75652380D02*
X129682857Y-76461904D01*
X129635238Y-76557142D01*
X129587619Y-76604761D01*
X129492380Y-76652380D01*
X129301904Y-76652380D01*
X129206666Y-76604761D01*
X129159047Y-76557142D01*
X129111428Y-76461904D01*
X129111428Y-75652380D01*
X128778095Y-75652380D02*
X128206666Y-75652380D01*
X128492380Y-76652380D02*
X128492380Y-75652380D01*
X127523809Y-76652380D02*
X127523809Y-75652380D01*
X127047619Y-76652380D02*
X127047619Y-75652380D01*
X126476190Y-76652380D01*
X126476190Y-75652380D01*
M02*
